<?xml version="1.0" encoding="utf-8" ?>
<svg xmlns="http://www.w3.org/2000/svg" xmlns:xlink="http://www.w3.org/1999/xlink" width="1024" height="1024">
	<path fill="#FEFEFE" d="M0 0L1024 0L1024 1024L0 1024L0 0Z"/>
	<path fill="#020304" d="M503.294 55.7184C503.612 55.6939 503.93 55.664 504.249 55.6448C521.114 54.6319 538.495 55.7831 555.311 57.1255Q560.067 57.5274 564.814 58.0284Q569.56 58.5294 574.295 59.1293Q579.03 59.7292 583.752 60.4277Q588.474 61.1262 593.18 61.9231Q597.885 62.72 602.574 63.6148Q607.262 64.5096 611.931 65.502Q616.599 66.4945 621.246 67.584Q625.893 68.6736 630.517 69.8599Q635.14 71.0461 639.737 72.3286Q644.335 73.611 648.904 74.9891Q653.474 76.3671 658.014 77.8401Q662.554 79.3132 667.062 80.8806Q671.571 82.448 676.045 84.1091Q680.52 85.7702 684.959 87.5243Q689.398 89.2784 693.799 91.1247Q698.201 92.9709 702.563 94.9086Q706.925 96.8463 711.245 98.8745Q715.566 100.903 719.843 103.021Q724.12 105.139 728.353 107.345Q732.585 109.552 736.77 111.846Q740.955 114.141 745.092 116.522Q749.229 118.903 753.315 121.37Q757.401 123.837 761.434 126.389Q765.468 128.941 769.447 131.576Q773.427 134.211 777.351 136.929Q781.274 139.646 785.14 142.445Q789.007 145.244 792.814 148.123Q796.62 151.002 800.367 153.96Q804.113 156.918 807.796 159.953Q811.48 162.988 815.099 166.1Q818.719 169.211 822.273 172.397Q825.826 175.583 829.313 178.843Q833.414 182.668 837.421 186.591Q841.427 190.515 845.336 194.536Q849.245 198.557 853.055 202.672Q856.865 206.787 860.572 210.995Q864.28 215.202 867.883 219.499Q871.487 223.796 874.984 228.18Q878.481 232.563 881.87 237.032Q885.258 241.5 888.537 246.05Q891.815 250.599 894.981 255.228Q898.147 259.857 901.199 264.562Q904.25 269.266 907.186 274.045Q910.121 278.823 912.939 283.671Q915.756 288.52 918.455 293.436Q921.153 298.352 923.729 303.333Q926.306 308.314 928.76 313.356Q931.215 318.398 933.544 323.499Q935.874 328.6 938.079 333.757Q940.283 338.913 942.36 344.122Q944.438 349.331 946.387 354.589Q948.336 359.848 950.156 365.152Q951.976 370.456 953.665 375.804Q955.355 381.151 956.913 386.538Q958.47 391.925 959.896 397.349Q961.322 402.772 962.614 408.229Q963.906 413.686 965.065 419.173Q966.223 424.66 967.247 430.174Q968.27 435.687 969.158 441.224Q970.047 446.761 970.799 452.319Q971.552 457.876 972.168 463.45Q972.784 469.023 973.263 474.611Q973.743 480.198 974.085 485.796Q974.428 491.393 974.633 496.997Q974.836 501.885 974.934 506.776Q975.033 511.667 975.027 516.559Q975.022 521.451 974.912 526.341Q974.802 531.232 974.588 536.119Q974.374 541.006 974.055 545.888Q973.737 550.77 973.315 555.643Q972.893 560.517 972.367 565.381Q971.841 570.244 971.211 575.095Q970.581 579.947 969.849 584.783Q969.116 589.62 968.28 594.44Q967.444 599.26 966.506 604.061Q965.567 608.862 964.527 613.642Q963.486 618.422 962.344 623.179Q961.202 627.936 959.959 632.667Q958.716 637.399 957.372 642.102Q956.028 646.806 954.584 651.48Q953.141 656.154 951.597 660.796Q950.054 665.439 948.413 670.047Q946.771 674.655 945.031 679.227Q943.292 683.799 941.455 688.334Q939.619 692.868 937.686 697.362Q935.753 701.855 933.725 706.307Q931.697 710.759 929.574 715.166Q927.452 719.574 925.235 723.935Q923.019 728.296 920.711 732.609Q918.402 736.922 916.002 741.185Q913.602 745.448 911.112 749.658Q908.622 753.869 906.042 758.026Q903.463 762.182 900.796 766.283Q898.128 770.384 895.374 774.427Q892.62 778.47 889.78 782.453Q886.94 786.436 884.016 790.358C875.148 802.24 866.094 813.887 856.023 824.782C782.334 904.503 686.582 956.851 578.593 971.482C561.961 973.735 545.189 974.658 528.431 975.31Q522.938 975.486 517.442 975.529Q511.946 975.572 506.451 975.481Q500.956 975.39 495.465 975.165Q489.973 974.941 484.489 974.583Q479.005 974.225 473.531 973.734Q468.057 973.242 462.597 972.618Q457.136 971.994 451.693 971.237Q446.249 970.481 440.825 969.592Q435.402 968.703 430.001 967.683Q424.601 966.662 419.227 965.511Q413.853 964.36 408.509 963.078Q403.164 961.796 397.853 960.385Q392.541 958.974 387.265 957.434Q381.989 955.894 376.753 954.226Q371.516 952.558 366.321 950.764Q361.127 948.969 355.977 947.049Q350.828 945.129 345.726 943.084Q340.625 941.039 335.575 938.87Q330.525 936.702 325.529 934.411Q320.533 932.121 315.594 929.709Q310.656 927.298 305.777 924.767Q300.898 922.237 296.083 919.588Q291.267 916.94 286.517 914.175Q281.767 911.41 277.086 908.531Q272.405 905.651 267.795 902.659Q263.185 899.666 258.649 896.562Q254.114 893.459 249.655 890.246Q245.196 887.033 240.816 883.713Q236.437 880.392 232.139 876.966Q227.842 873.54 223.629 870.011Q219.416 866.481 215.29 862.851Q211.164 859.22 207.128 855.49Q203.648 852.363 200.233 849.165Q196.817 845.968 193.467 842.701Q190.118 839.435 186.835 836.101Q183.552 832.767 180.338 829.367Q177.124 825.967 173.98 822.503Q170.836 819.038 167.762 815.51Q164.689 811.982 161.689 808.393Q158.688 804.803 155.761 801.153Q152.834 797.503 149.982 793.794Q147.13 790.085 144.353 786.319Q141.577 782.553 138.878 778.732Q136.179 774.91 133.559 771.034Q130.938 767.158 128.397 763.23Q125.856 759.301 123.395 755.322Q120.934 751.343 118.555 747.314Q116.176 743.286 113.879 739.209Q111.582 735.133 109.369 731.011Q107.156 726.889 105.026 722.723Q102.897 718.557 100.854 714.348Q98.8096 710.14 96.8518 705.89Q94.894 701.641 93.0231 697.353Q91.1521 693.064 89.3689 688.739Q87.5855 684.413 85.8906 680.052Q84.1957 675.692 82.5899 671.297Q80.984 666.903 79.4679 662.477Q77.9518 658.05 76.5261 653.594Q75.1004 649.138 73.7656 644.654Q72.4308 640.17 71.1876 635.659Q69.9443 631.149 68.7931 626.614Q67.6419 622.079 66.5832 617.522Q65.5245 612.964 64.5587 608.386Q63.5929 603.809 62.7205 599.212C58.9136 578.436 56.9674 557.081 55.9997 536.004Q55.7656 530.358 55.6699 524.707Q55.5743 519.057 55.6171 513.405Q55.6599 507.754 55.8411 502.106Q56.0224 496.457 56.3419 490.815Q56.6615 485.173 57.1193 479.54Q57.577 473.907 58.1726 468.288Q58.7682 462.668 59.5013 457.064Q60.2344 451.461 61.1046 445.877Q61.9748 440.293 62.9815 434.732Q63.9883 429.171 65.131 423.636Q66.2737 418.102 67.5516 412.597Q68.8296 407.092 70.242 401.62Q71.6544 396.148 73.2005 390.712Q74.7466 385.277 76.4254 379.88Q78.1042 374.484 79.9147 369.131Q81.7252 363.777 83.6664 358.47Q85.6075 353.162 87.6781 347.904Q89.7487 342.646 91.9475 337.44Q94.1463 332.234 96.472 327.083Q98.7977 321.932 101.249 316.84Q103.7 311.748 106.275 306.718Q108.851 301.687 111.548 296.721Q114.246 291.756 117.064 286.857Q119.883 281.959 122.821 277.131Q125.758 272.304 128.814 267.549Q131.869 262.795 135.039 258.117Q138.21 253.439 141.494 248.84Q144.779 244.241 148.175 239.724Q151.571 235.207 155.077 230.774Q158.582 226.342 162.196 221.996Q165.809 217.651 169.528 213.396Q173.246 209.14 177.068 204.977Q180.137 201.587 183.273 198.259Q186.409 194.931 189.612 191.667Q192.814 188.403 196.082 185.205Q199.349 182.006 202.681 178.873Q206.012 175.741 209.406 172.676Q212.8 169.612 216.254 166.616Q219.709 163.62 223.223 160.694Q226.738 157.769 230.31 154.914Q233.883 152.06 237.512 149.278Q241.141 146.496 244.826 143.788Q248.51 141.08 252.248 138.447Q255.987 135.813 259.777 133.255Q263.568 130.698 267.409 128.217Q271.25 125.736 275.141 123.333Q279.031 120.93 282.969 118.605Q286.907 116.281 290.891 114.037Q294.875 111.792 298.903 109.628Q302.931 107.464 307.002 105.382Q311.073 103.3 315.186 101.3Q319.298 99.2995 323.449 97.3827Q327.601 95.4659 331.79 93.633Q335.98 91.8001 340.205 90.0519Q344.43 88.3037 348.69 86.641Q352.95 84.9782 357.242 83.4015Q361.534 81.8248 365.858 80.3348Q370.181 78.8448 374.533 77.4422Q378.885 76.0395 383.265 74.7248Q387.645 73.41 392.05 72.1836Q396.455 70.9573 400.884 69.8199Q405.313 68.6824 409.764 67.6344Q414.215 66.5863 418.686 65.6281Q423.157 64.6698 427.647 63.8018C452.852 59.0257 477.722 56.8803 503.294 55.7184Z"/>
	<path fill="#FEFEFE" d="M503.324 67.7227C536.592 66.4406 570.554 69.793 603.145 76.4079Q606.885 77.1321 610.612 77.9207Q614.339 78.7092 618.051 79.5619Q621.764 80.4146 625.462 81.331Q629.159 82.2475 632.84 83.2276Q636.521 84.2076 640.185 85.251Q643.849 86.2943 647.494 87.4006Q651.139 88.5069 654.765 89.6759Q658.39 90.8448 661.995 92.076Q665.6 93.3073 669.183 94.6004Q672.766 95.8936 676.327 97.2483Q679.887 98.603 683.424 100.019Q686.96 101.435 690.472 102.911Q693.983 104.388 697.469 105.925Q700.954 107.462 704.413 109.058Q707.872 110.655 711.302 112.311Q714.733 113.967 718.134 115.682Q721.536 117.397 724.907 119.17Q728.279 120.943 731.619 122.774Q734.96 124.605 738.268 126.494Q741.576 128.382 744.852 130.327Q748.127 132.272 751.369 134.273Q754.61 136.275 757.816 138.331Q761.023 140.388 764.193 142.5Q767.364 144.611 770.497 146.777Q773.631 148.943 776.727 151.163Q779.823 153.383 782.88 155.655Q785.937 157.928 788.955 160.253Q791.972 162.578 794.949 164.955Q797.926 167.332 800.862 169.759Q803.797 172.187 806.691 174.665Q809.584 177.142 812.435 179.67Q815.285 182.197 818.091 184.773Q822.169 188.506 826.153 192.34Q830.137 196.173 834.025 200.104Q837.912 204.035 841.701 208.061Q845.49 212.087 849.179 216.206Q852.867 220.325 856.451 224.534Q860.036 228.743 863.516 233.04Q866.995 237.336 870.367 241.718Q873.738 246.1 877 250.563Q880.262 255.027 883.412 259.571Q886.563 264.114 889.599 268.734Q892.636 273.354 895.557 278.048Q898.478 282.742 901.282 287.507Q904.086 292.272 906.771 297.105Q909.456 301.938 912.02 306.837Q914.584 311.735 917.026 316.695Q919.468 321.655 921.786 326.674Q924.104 331.694 926.297 336.769Q928.49 341.844 930.556 346.972Q932.623 352.1 934.561 357.278Q936.5 362.456 938.31 367.68Q940.119 372.904 941.799 378.172Q943.478 383.439 945.027 388.746Q946.575 394.054 947.991 399.398Q949.407 404.742 950.691 410.12Q951.974 415.498 953.124 420.906Q954.273 426.314 955.288 431.748Q956.303 437.183 957.183 442.641Q958.063 448.1 958.808 453.578Q959.552 459.056 960.161 464.551Q960.769 470.047 961.241 475.555Q961.713 481.064 962.048 486.582Q962.383 492.101 962.581 497.626Q962.812 503.135 962.907 508.648Q963.003 514.161 962.962 519.675Q962.921 525.188 962.744 530.699Q962.568 536.21 962.255 541.715Q961.942 547.22 961.494 552.716Q961.045 558.211 960.461 563.694Q959.878 569.177 959.159 574.643Q958.44 580.11 957.586 585.558Q956.733 591.005 955.745 596.43Q954.757 601.854 953.636 607.253Q952.515 612.651 951.261 618.021Q950.007 623.39 948.621 628.727Q947.234 634.064 945.717 639.364Q944.2 644.665 942.552 649.927Q940.904 655.189 939.128 660.409Q937.351 665.628 935.445 670.803Q933.54 675.977 931.508 681.102Q929.476 686.228 927.318 691.302Q925.159 696.376 922.877 701.395Q920.594 706.414 918.189 711.375Q915.783 716.337 913.255 721.237Q910.728 726.138 908.081 730.974Q905.433 735.811 902.667 740.581Q899.901 745.351 897.018 750.051Q894.135 754.751 891.137 759.379Q888.14 764.006 885.028 768.558Q881.917 773.111 878.695 777.585Q875.472 782.059 872.14 786.452Q868.808 790.845 865.369 795.155Q861.93 799.465 858.385 803.688Q854.841 807.912 851.193 812.047Q847.546 816.181 843.797 820.225Q840.568 823.71 837.267 827.126Q833.965 830.541 830.591 833.886Q827.218 837.231 823.774 840.504Q820.331 843.777 816.819 846.976Q813.306 850.175 809.727 853.298Q806.148 856.422 802.503 859.469Q798.859 862.517 795.15 865.486Q791.442 868.455 787.671 871.345Q783.901 874.235 780.07 877.045Q776.239 879.854 772.349 882.582Q768.46 885.309 764.513 887.954Q760.567 890.598 756.565 893.158Q752.563 895.719 748.508 898.194Q744.453 900.668 740.346 903.057Q736.24 905.445 732.083 907.746Q727.927 910.047 723.723 912.259Q719.519 914.471 715.268 916.593Q711.018 918.716 706.724 920.748Q702.43 922.78 698.094 924.72Q693.757 926.661 689.381 928.509Q685.004 930.357 680.59 932.112Q676.175 933.867 671.724 935.528Q667.273 937.189 662.788 938.755Q658.303 940.321 653.786 941.792Q649.269 943.263 644.721 944.637Q640.174 946.012 635.598 947.29Q631.023 948.568 626.421 949.749Q621.82 950.929 617.194 952.012Q612.569 953.095 607.921 954.08Q603.274 955.064 598.606 955.95Q593.939 956.836 589.254 957.623Q584.569 958.41 579.868 959.097C562.827 961.554 545.664 962.476 528.476 963.143Q527.854 963.182 527.232 963.206C454.537 966.32 379.295 949.022 314.553 915.961Q307.707 912.381 300.98 908.584Q294.252 904.787 287.65 900.775Q281.048 896.764 274.578 892.542Q268.108 888.321 261.777 883.894Q255.446 879.468 249.26 874.84Q243.074 870.212 237.04 865.388Q231.006 860.564 225.13 855.549Q219.254 850.534 213.542 845.333C129.291 768.221 73.1568 657.647 68.2287 542.716C67.1949 518.606 67.1754 494.35 69.6107 470.315Q70.1042 465.815 70.687 461.326Q71.2698 456.837 71.9416 452.36Q72.6134 447.883 73.3739 443.421Q74.1344 438.958 74.9834 434.512Q75.8324 430.065 76.7695 425.636Q77.7066 421.208 78.7315 416.798Q79.7563 412.389 80.8685 408.001Q81.9807 403.613 83.1798 399.248Q84.3789 394.882 85.6644 390.542Q86.95 386.201 88.3214 381.887Q89.6928 377.573 91.1497 373.287Q92.6065 369.001 94.1482 364.745Q95.6898 360.489 97.3156 356.264Q98.9415 352.039 100.651 347.847Q102.36 343.656 104.153 339.499Q105.945 335.342 107.819 331.221Q109.694 327.101 111.65 323.018Q113.606 318.936 115.642 314.893Q117.679 310.85 119.795 306.848Q121.912 302.847 124.107 298.888Q126.303 294.929 128.576 291.015Q130.85 287.1 133.201 283.232Q135.552 279.363 137.979 275.542Q140.406 271.721 142.909 267.949Q145.412 264.176 147.989 260.455Q150.566 256.733 153.216 253.063Q155.867 249.393 158.589 245.777Q161.312 242.16 164.106 238.599Q166.9 235.037 169.764 231.531Q172.629 228.026 175.562 224.578Q178.495 221.13 181.496 217.741Q184.497 214.352 187.565 211.023Q190.412 207.935 193.316 204.902Q196.22 201.868 199.181 198.89Q202.142 195.912 205.158 192.99Q208.175 190.068 211.246 187.204Q214.317 184.339 217.441 181.533Q220.566 178.727 223.743 175.98Q226.919 173.234 230.148 170.547Q233.376 167.861 236.654 165.236Q239.932 162.611 243.259 160.048Q246.586 157.486 249.96 154.986Q253.335 152.487 256.756 150.051Q260.178 147.616 263.644 145.245Q267.111 142.874 270.621 140.57Q274.132 138.265 277.685 136.027Q281.239 133.788 284.834 131.618Q288.429 129.447 292.064 127.344Q295.699 125.241 299.374 123.207Q303.048 121.174 306.76 119.21Q310.472 117.245 314.22 115.351Q317.968 113.458 321.752 111.635Q325.535 109.812 329.352 108.061Q333.169 106.309 337.019 104.63Q340.868 102.952 344.748 101.345Q348.629 99.7393 352.538 98.2066Q356.448 96.674 360.387 95.2153Q364.325 93.7566 368.29 92.3724Q372.254 90.9882 376.245 89.6789Q380.235 88.3697 384.249 87.1359Q388.264 85.9022 392.3 84.7443Q396.337 83.5864 400.395 82.5048Q404.453 81.4232 408.531 80.4184Q412.608 79.4135 416.704 78.4856C445.407 72.1066 473.998 68.9651 503.324 67.7227Z"/>
	<path fill="#020304" d="M502.317 111.718C502.512 111.703 502.707 111.681 502.902 111.672C526.992 110.502 551.466 112.485 575.275 116.083Q579.067 116.627 582.847 117.244Q586.628 117.86 590.396 118.55Q594.163 119.239 597.917 120.001Q601.671 120.762 605.41 121.596Q609.148 122.43 612.87 123.335Q616.592 124.241 620.296 125.218Q624 126.195 627.684 127.243Q631.368 128.291 635.032 129.41Q638.695 130.529 642.336 131.718Q645.977 132.907 649.595 134.166Q653.213 135.425 656.805 136.754Q660.398 138.082 663.965 139.479Q667.531 140.876 671.07 142.342Q674.609 143.808 678.119 145.341Q681.629 146.875 685.109 148.475Q688.589 150.076 692.038 151.743Q695.486 153.411 698.902 155.144Q702.318 156.878 705.699 158.677Q709.081 160.475 712.428 162.339Q715.774 164.203 719.084 166.13Q722.394 168.058 725.667 170.049Q728.939 172.04 732.172 174.093Q735.406 176.147 738.599 178.262Q741.793 180.378 744.945 182.554Q748.097 184.731 751.206 186.968Q754.316 189.204 757.382 191.5Q760.448 193.797 763.469 196.151Q766.49 198.506 769.465 200.918Q772.441 203.331 775.369 205.8Q778.297 208.269 781.177 210.795Q784.058 213.32 786.889 215.9Q789.72 218.48 792.501 221.114Q796.159 224.552 799.73 228.08Q803.302 231.608 806.784 235.223Q810.267 238.839 813.658 242.54Q817.049 246.242 820.347 250.026Q823.645 253.811 826.848 257.677Q830.051 261.542 833.156 265.487Q836.262 269.431 839.268 273.451Q842.274 277.471 845.179 281.565Q848.084 285.659 850.887 289.824Q853.689 293.989 856.387 298.223Q859.084 302.456 861.676 306.756Q864.267 311.055 866.751 315.418Q869.234 319.781 871.609 324.204Q873.983 328.627 876.246 333.108Q878.509 337.589 880.66 342.125Q882.811 346.66 884.848 351.248Q886.885 355.836 888.808 360.474Q890.73 365.111 892.536 369.795Q894.343 374.479 896.032 379.206Q897.721 383.934 899.292 388.702Q900.862 393.469 902.314 398.275Q903.765 403.081 905.097 407.921Q906.428 412.761 907.638 417.633Q908.849 422.505 909.937 427.405Q911.026 432.306 911.992 437.232Q912.959 442.158 913.802 447.107Q914.645 452.056 915.365 457.024Q916.085 461.992 916.681 466.977Q917.276 471.961 917.748 476.959Q918.219 481.957 918.566 486.965Q918.913 491.973 919.135 496.988Q919.357 502.003 919.454 507.022Q919.586 511.933 919.596 516.845Q919.607 521.757 919.496 526.669Q919.385 531.58 919.152 536.487Q918.92 541.394 918.566 546.293Q918.212 551.193 917.738 556.083Q917.263 560.972 916.667 565.848Q916.071 570.724 915.355 575.584Q914.639 580.444 913.803 585.285Q912.967 590.126 912.012 594.945Q911.056 599.763 909.982 604.557Q908.907 609.35 907.714 614.116Q906.522 618.881 905.212 623.616Q903.901 628.35 902.475 633.051Q901.048 637.751 899.505 642.415Q897.962 647.079 896.305 651.704Q894.647 656.328 892.876 660.91Q891.104 665.492 889.22 670.029Q887.336 674.565 885.34 679.054Q883.344 683.543 881.237 687.981Q879.131 692.419 876.916 696.803Q874.7 701.188 872.377 705.516Q870.054 709.844 867.624 714.114Q865.195 718.383 862.66 722.592Q860.126 726.8 857.488 730.944Q854.85 735.088 852.111 739.166Q849.371 743.244 846.532 747.252Q843.692 751.261 840.755 755.198Q837.817 759.135 834.783 762.999Q831.748 766.862 828.62 770.649Q825.491 774.436 822.269 778.145Q819.048 781.854 815.735 785.481Q812.423 789.109 809.022 792.654Q805.646 796.246 802.184 799.754Q798.721 803.262 795.174 806.684Q791.627 810.106 787.998 813.441Q784.368 816.776 780.658 820.021Q776.948 823.266 773.16 826.419Q769.371 829.573 765.507 832.633Q761.643 835.693 757.705 838.657Q753.768 841.622 749.759 844.489Q745.75 847.357 741.672 850.126Q737.594 852.894 733.45 855.563Q729.306 858.231 725.097 860.797Q720.889 863.363 716.62 865.826Q712.35 868.289 708.021 870.646Q703.693 873.004 699.308 875.255Q694.923 877.506 690.484 879.65Q686.046 881.793 681.556 883.827Q677.067 885.862 672.529 887.786Q667.991 889.71 663.407 891.522Q658.824 893.335 654.197 895.035Q649.571 896.735 644.904 898.321Q640.237 899.908 635.533 901.38Q630.829 902.852 626.091 904.209Q621.352 905.565 616.582 906.806Q611.812 908.046 607.013 909.17Q602.213 910.294 597.388 911.3Q592.563 912.306 587.715 913.193Q582.866 914.081 577.998 914.85Q573.129 915.62 568.243 916.269Q563.357 916.919 558.457 917.45Q553.557 917.98 548.645 918.391Q543.733 918.801 538.812 919.091Q533.892 919.382 528.966 919.552Q524.151 919.746 519.332 919.824Q514.513 919.901 509.694 919.862Q504.875 919.822 500.058 919.666Q495.241 919.51 490.429 919.236Q485.618 918.963 480.814 918.573Q476.011 918.183 471.218 917.677Q466.425 917.17 461.646 916.548Q456.867 915.925 452.105 915.187Q447.342 914.448 442.599 913.595Q437.856 912.741 433.135 911.772Q428.414 910.804 423.718 909.721Q419.022 908.638 414.353 907.441Q409.685 906.245 405.047 904.935Q400.409 903.626 395.804 902.204Q391.199 900.783 386.63 899.25Q382.061 897.717 377.53 896.073Q373 894.43 368.51 892.677Q364.021 890.924 359.576 889.063Q355.13 887.202 350.731 885.233Q346.332 883.264 341.983 881.19Q337.633 879.115 333.334 876.935Q329.036 874.755 324.792 872.472Q320.548 870.188 316.361 867.803Q312.173 865.417 308.045 862.93Q303.917 860.444 299.85 857.857Q295.783 855.271 291.78 852.587Q287.778 849.903 283.841 847.123Q279.905 844.342 276.037 841.467Q272.169 838.592 268.372 835.624Q264.575 832.656 260.852 829.597Q257.128 826.537 253.479 823.388Q249.831 820.239 246.26 817.003C167.911 745.32 117.053 645.318 112.227 538.67Q111.965 533.646 111.827 528.616Q111.688 523.587 111.673 518.556Q111.658 513.525 111.767 508.495Q111.876 503.465 112.108 498.439Q112.34 493.413 112.696 488.395Q113.052 483.376 113.53 478.368Q114.009 473.359 114.611 468.364Q115.212 463.369 115.937 458.39Q116.661 453.412 117.507 448.452Q118.353 443.493 119.321 438.555Q120.289 433.618 121.377 428.706Q122.466 423.794 123.675 418.911Q124.884 414.027 126.213 409.174Q127.542 404.322 128.989 399.503Q130.437 394.685 132.002 389.903Q133.568 385.122 135.25 380.38Q136.932 375.639 138.731 370.94Q140.529 366.241 142.442 361.588Q144.355 356.935 146.382 352.33Q148.409 347.725 150.549 343.172Q152.688 338.618 154.939 334.118Q157.189 329.619 159.55 325.176Q161.91 320.733 164.379 316.349Q166.848 311.965 169.424 307.643Q172 303.321 174.681 299.064Q177.362 294.807 180.147 290.617Q182.932 286.427 185.819 282.307Q188.706 278.186 191.694 274.138Q194.681 270.09 197.767 266.116Q200.853 262.142 204.036 258.246Q207.218 254.349 210.496 250.532Q213.773 246.715 217.143 242.979C293.622 159.356 389.364 116.798 502.317 111.718Z"/>
	<path fill="#FEFEFE" d="M508.807 123.73Q513.502 123.632 518.197 123.647Q522.893 123.663 527.587 123.791Q532.28 123.92 536.97 124.161Q541.659 124.403 546.341 124.758Q551.024 125.112 555.696 125.58Q560.368 126.047 565.028 126.627Q569.687 127.208 574.332 127.9Q578.976 128.592 583.602 129.396Q588.229 130.2 592.834 131.116Q597.44 132.031 602.022 133.057Q606.604 134.083 611.16 135.22Q615.716 136.356 620.243 137.602Q624.77 138.848 629.266 140.203Q633.762 141.558 638.224 143.02Q642.686 144.483 647.111 146.053Q651.537 147.623 655.923 149.299Q660.309 150.976 664.654 152.757Q668.998 154.539 673.299 156.425Q677.599 158.31 681.852 160.299Q686.106 162.288 690.31 164.379Q694.515 166.47 698.667 168.662Q702.82 170.854 706.919 173.145Q711.017 175.436 715.06 177.826Q719.102 180.215 723.085 182.701Q727.068 185.188 730.991 187.769Q734.913 190.351 738.772 193.026Q742.631 195.701 746.424 198.469Q750.217 201.237 753.943 204.095Q757.668 206.954 761.323 209.901Q764.979 212.848 768.562 215.883Q772.145 218.918 775.654 222.038Q779.163 225.158 782.596 228.362Q786.084 231.595 789.492 234.912Q792.901 238.229 796.227 241.627Q799.554 245.026 802.797 248.505Q806.04 251.983 809.198 255.54Q812.356 259.096 815.426 262.728Q818.496 266.361 821.477 270.066Q824.458 273.772 827.348 277.549Q830.238 281.326 833.035 285.173Q835.832 289.019 838.535 292.932Q841.238 296.845 843.845 300.823Q846.452 304.801 848.961 308.841Q851.471 312.881 853.881 316.981Q856.292 321.08 858.602 325.237Q860.912 329.395 863.12 333.607Q865.328 337.819 867.434 342.083Q869.539 346.348 871.54 350.663Q873.541 354.977 875.436 359.339Q877.332 363.701 879.121 368.107Q880.909 372.514 882.591 376.963Q884.272 381.412 885.844 385.9Q887.417 390.389 888.879 394.914Q890.342 399.439 891.695 403.999Q893.047 408.558 894.288 413.15Q895.529 417.741 896.659 422.361Q897.788 426.981 898.804 431.627Q899.821 436.273 900.724 440.942Q901.627 445.611 902.416 450.301Q903.206 454.991 903.881 459.699Q904.556 464.407 905.116 469.129Q905.677 473.852 906.122 478.587Q906.568 483.322 906.898 488.066Q907.228 492.811 907.443 497.562Q907.67 502.389 907.776 507.221Q907.883 512.053 907.87 516.886Q907.857 521.718 907.724 526.549Q907.591 531.38 907.339 536.206Q907.086 541.033 906.714 545.851Q906.341 550.67 905.85 555.477Q905.358 560.285 904.747 565.079Q904.136 569.873 903.407 574.65Q902.677 579.428 901.829 584.186Q900.982 588.944 900.016 593.679Q899.051 598.414 897.968 603.124Q896.885 607.834 895.686 612.516Q894.487 617.198 893.172 621.848Q891.857 626.499 890.427 631.115Q888.997 635.731 887.453 640.311Q885.91 644.89 884.253 649.43Q882.595 653.97 880.826 658.468Q879.057 662.965 877.177 667.417Q875.297 671.869 873.307 676.273Q871.317 680.677 869.219 685.031Q867.12 689.384 864.914 693.684Q862.708 697.984 860.396 702.228Q858.084 706.472 855.668 710.657Q853.251 714.843 850.732 718.967Q848.213 723.091 845.592 727.151Q842.971 731.211 840.25 735.206Q837.529 739.2 834.71 743.125Q831.891 747.05 828.975 750.905Q826.059 754.759 823.049 758.54Q820.039 762.32 816.936 766.025Q813.832 769.73 810.638 773.357Q807.444 776.984 804.161 780.53Q800.821 784.156 797.391 787.698Q793.962 791.24 790.445 794.695Q786.928 798.15 783.327 801.517Q779.725 804.884 776.04 808.159Q772.356 811.435 768.591 814.618Q764.826 817.801 760.983 820.89Q757.14 823.978 753.221 826.97Q749.303 829.961 745.311 832.854Q741.319 835.747 737.256 838.54Q733.193 841.332 729.062 844.023Q724.93 846.714 720.733 849.301Q716.536 851.887 712.276 854.369Q708.016 856.85 703.696 859.225Q699.375 861.6 694.997 863.866Q690.618 866.132 686.185 868.289Q681.751 870.445 677.266 872.49Q672.78 874.536 668.244 876.469Q663.709 878.402 659.127 880.221Q654.545 882.041 649.919 883.745Q645.293 885.45 640.625 887.039Q635.958 888.628 631.253 890.1Q626.548 891.572 621.808 892.927Q617.067 894.281 612.295 895.517Q607.522 896.753 602.72 897.87Q597.918 898.986 593.09 899.983Q588.261 900.98 583.41 901.856Q578.558 902.732 573.686 903.487Q568.814 904.242 563.925 904.875Q559.035 905.509 554.132 906.02Q549.228 906.532 544.314 906.921Q539.399 907.31 534.476 907.577Q529.553 907.843 524.625 907.987L524.013 908.01C421.379 911.529 321.251 870.951 246.802 801.002Q243.28 797.718 239.841 794.347Q236.402 790.976 233.048 787.521Q229.694 784.065 226.427 780.528Q223.159 776.991 219.98 773.373Q216.802 769.756 213.714 766.061Q210.626 762.366 207.631 758.595Q204.636 754.824 201.735 750.98Q198.834 747.137 196.03 743.222Q193.225 739.307 190.519 735.324Q187.813 731.341 185.206 727.292Q182.599 723.243 180.094 719.131Q177.588 715.018 175.186 710.845Q172.783 706.672 170.485 702.44Q168.187 698.208 165.994 693.921Q163.802 689.633 161.717 685.293Q159.631 680.952 157.654 676.561Q155.677 672.17 153.81 667.732Q151.942 663.293 150.186 658.809Q148.429 654.326 146.784 649.8Q145.139 645.274 143.607 640.708Q142.075 636.143 140.657 631.541Q139.239 626.939 137.935 622.304Q136.632 617.668 135.444 613.001Q134.256 608.335 133.184 603.64Q132.112 598.945 131.157 594.225Q130.202 589.505 129.364 584.763Q128.526 580.021 127.807 575.26Q127.087 570.498 126.486 565.721Q125.885 560.943 125.402 556.151Q124.92 551.36 124.556 546.558Q124.193 541.757 123.949 536.947Q123.705 532.138 123.58 527.324Q123.482 523.146 123.472 518.967Q123.462 514.788 123.539 510.609Q123.616 506.431 123.78 502.255Q123.945 498.079 124.196 493.907Q124.448 489.736 124.787 485.57Q125.125 481.405 125.551 477.248Q125.977 473.09 126.489 468.943Q127.001 464.795 127.6 460.659Q128.199 456.523 128.885 452.4Q129.57 448.278 130.341 444.17Q131.113 440.063 131.969 435.973Q132.826 431.882 133.769 427.811Q134.711 423.739 135.738 419.688Q136.765 415.637 137.876 411.609Q138.988 407.58 140.183 403.575Q141.379 399.571 142.658 395.592Q143.937 391.614 145.298 387.662Q146.66 383.711 148.104 379.79Q149.548 375.868 151.074 371.977Q152.599 368.086 154.206 364.228Q155.812 360.37 157.499 356.547Q159.186 352.723 160.953 348.936Q162.719 345.148 164.564 341.398Q166.409 337.649 168.332 333.938Q170.255 330.228 172.256 326.558Q174.256 322.889 176.332 319.262Q178.409 315.635 180.56 312.053Q182.712 308.47 184.938 304.933Q187.164 301.396 189.464 297.907Q191.764 294.417 194.136 290.976Q196.508 287.536 198.951 284.145Q201.394 280.755 203.908 277.416C214.14 263.77 225.316 251.27 237.008 238.883C246.474 228.855 257.641 219.396 268.281 210.622Q271.015 208.388 273.79 206.204Q276.564 204.021 279.378 201.889Q282.192 199.756 285.045 197.676Q287.898 195.596 290.788 193.568Q293.678 191.54 296.606 189.566Q299.533 187.591 302.495 185.671Q305.458 183.751 308.456 181.885Q311.453 180.019 314.484 178.209Q317.515 176.398 320.579 174.643Q323.643 172.889 326.739 171.191Q329.834 169.492 332.96 167.851Q336.086 166.21 339.242 164.627Q342.398 163.043 345.582 161.518Q348.766 159.992 351.977 158.525Q355.189 157.059 358.427 155.651Q361.665 154.243 364.928 152.895Q368.191 151.547 371.479 150.259Q374.766 148.971 378.076 147.743Q381.387 146.516 384.719 145.349Q388.052 144.182 391.405 143.077Q394.758 141.971 398.131 140.928Q401.504 139.884 404.895 138.902Q408.287 137.92 411.696 137.001Q415.104 136.081 418.53 135.225Q421.955 134.368 425.395 133.574Q428.835 132.78 432.29 132.05Q435.744 131.319 439.211 130.652Q442.678 129.984 446.157 129.381Q449.636 128.777 453.125 128.238Q456.614 127.698 460.113 127.222Q463.611 126.747 467.118 126.335Q470.624 125.924 474.138 125.577C485.656 124.38 497.239 124.069 508.807 123.73Z"/>
	<path fill="#020304" d="M409.001 165.562C410.288 165.383 411.132 165.409 412.397 165.707C413.402 166.567 413.47 166.568 413.731 167.852C413.22 169.557 412.146 170.591 410.664 171.499C408.186 173.019 395.689 176.874 391.919 178.366C358.75 191.498 329.732 207.794 300.731 228.548C300.359 228.624 299.923 228.728 299.546 228.726C298.064 228.719 297.726 228.307 296.633 227.405C296.137 226.112 295.951 225.765 296.445 224.382C297.952 220.164 306.187 215.439 309.851 212.945C341.933 191.104 372.572 178.144 409.001 165.562Z"/>
	<path fill="#020304" d="M846.22 379.179C847.136 379.534 847.787 379.782 848.54 380.447C851.875 383.394 855.459 394.078 857.184 398.508C870.893 433.707 879.214 468.992 878.957 506.934C878.621 556.523 862.801 606.725 836.243 648.441C831.035 656.621 825.505 665.757 818.566 672.592C818.11 672.552 817.43 672.516 817.01 672.357C815.766 671.884 815.521 671.346 815.035 670.234C815.066 668.955 815.427 668.138 816.11 667.088C821.507 658.787 828.297 651.269 833.687 642.654Q835.465 639.821 837.169 636.943Q838.874 634.065 840.504 631.144Q842.134 628.224 843.689 625.262Q845.244 622.3 846.722 619.3Q848.2 616.299 849.6 613.262Q851 610.224 852.323 607.152Q853.645 604.079 854.887 600.974Q856.13 597.869 857.293 594.732Q858.455 591.596 859.537 588.431Q860.618 585.266 861.618 582.074Q862.618 578.882 863.536 575.666Q864.454 572.449 865.289 569.21Q866.123 565.971 866.875 562.712Q867.626 559.453 868.294 556.175Q868.961 552.898 869.544 549.604Q870.127 546.31 870.625 543.003Q871.124 539.695 871.537 536.376Q871.95 533.057 872.278 529.728Q872.606 526.4 872.848 523.063Q873.09 519.727 873.247 516.386Q873.403 513.045 873.474 509.701Q873.544 506.357 873.529 503.012Q873.514 499.667 873.413 496.324Q873.311 492.981 873.125 489.641Q872.938 486.302 872.665 482.968Q872.392 479.634 872.034 476.309Q871.676 472.983 871.232 469.668Q870.789 466.352 870.261 463.05Q869.732 459.747 869.119 456.459Q868.506 453.171 867.809 449.899Q867.111 446.628 866.33 443.376Q865.549 440.123 864.685 436.892C861.081 423.501 856.112 410.385 851.05 397.481C849.265 392.929 846.174 388.444 845.236 383.629C844.859 381.694 845.185 380.82 846.22 379.179Z"/>
	<path fill="#020304" d="M164.036 394.886C165.186 394.972 166.019 394.954 167.045 395.538C169.23 396.784 167.068 401.33 166.5 403.308C162.496 417.249 160.772 432.011 159.797 446.459C156.847 490.128 163.143 540.463 175.858 582.397C187.702 621.458 213.676 677.451 247.61 701.642C249.867 703.251 252.547 704.411 254.988 705.72C256.943 706.768 258.743 707.492 259.432 709.761C259.375 711.301 258.616 712.205 257.777 713.421C257.612 713.435 257.448 713.461 257.283 713.462C250.481 713.499 240.662 704.639 235.961 700.418C222.662 688.476 211.872 673.558 202.698 658.306C172.711 608.453 156.73 548.289 153.712 490.37C152.722 471.362 151.568 408.707 164.036 394.886Z"/>
	<path fill="#020304" d="M712.671 202.433C714.861 202.406 716.425 202.86 718.241 204.108C719.753 205.146 720.644 206.541 720.943 208.354C721.897 214.14 717.631 221.348 714.883 226.217C710.1 234.691 704.142 242.544 698.497 250.456C685.828 268.21 672.533 285.648 659.31 303C653.026 311.247 646.138 319.374 640.317 327.92C638.872 330.042 636.542 333.542 637.041 336.105C642.996 335.565 696.77 265.705 704.582 256.291C711.756 247.647 719.102 239.354 726.988 231.346C730.374 227.908 735.857 221.56 740.603 220.224C742.269 219.754 743.563 220.297 744.968 221.163C746.715 222.241 748.035 223.835 748.455 225.874C748.947 228.266 748.179 230.708 747.233 232.885C742.949 242.742 735.559 252.345 729.611 261.316Q709.906 291.492 688.39 320.406C681.872 329.009 671.961 339.538 666.727 348.398C665.616 350.278 664.947 351.766 665.494 353.935L666.554 354.48C668.934 354.248 670.676 352.886 672.334 351.251C679.53 344.157 685.78 334.996 692.054 327.045C702.035 314.398 712.47 302.14 722.518 289.556C734.175 274.955 745.788 258.438 760.08 246.258C762.358 244.318 765.514 242.142 768.674 242.533C770.102 242.709 771.333 243.466 772.201 244.605C774.465 247.57 774.344 251.109 773.206 254.48C769.803 264.557 756.237 283.665 750.036 292.756C737.531 311.089 724.982 329.176 711.687 346.957C706.802 353.491 690.198 372.559 689.432 379.893C690.26 380.848 690.257 380.647 691.423 380.853C697.698 377.223 744.073 315.1 752.997 304.04C762.497 292.266 772.861 280.27 784.101 270.108C786.026 268.368 788.536 266.039 791.305 266.306C793.499 266.518 795.272 268.05 796.441 269.818C797.797 271.869 798.037 274.255 797.514 276.623C794.532 290.113 700.427 421.543 686.734 437.445C677.369 448.32 666.544 458.896 654.188 466.267C639.554 474.997 627.863 477.297 611.33 473.084C604.576 480.921 598.736 489.723 592.503 497.986C579.056 515.813 565.733 533.761 552.04 551.398C554.854 555.175 558.493 558.656 561.626 562.19C570.25 571.919 579.173 581.394 587.69 591.212L693.048 710.883C708.127 727.97 723.128 744.919 736.703 763.265C742.108 770.569 747.686 778.095 751.812 786.211C755.824 794.104 758.709 804.645 755.662 813.315C753.144 820.482 746.417 827.154 739.544 830.338C726.781 836.25 709.528 830.196 697.236 825.601C681.422 819.69 666.855 811.554 652.898 802.109C616.099 777.205 597.223 752.854 579.009 712.906C571.862 697.039 567.567 680.227 560.353 664.457C554.47 651.597 546.166 640.295 538.401 628.556C531.312 617.838 524.521 606.873 517.092 596.39C510.846 603.498 505.302 611.34 499.549 618.853Q487.68 634.31 475.524 649.543Q431.329 705.568 385.775 760.495C371.49 777.743 356.362 798.936 339.51 813.501C334.663 817.69 329.648 820.623 323.357 822.073C313.942 824.243 304.777 822.811 296.591 817.624C288.63 812.579 282.657 804.827 280.692 795.533C278.682 786.022 281.048 776.241 285.699 767.86C290.657 758.926 297.797 751.157 304.429 743.439Q316.046 729.884 327.978 716.604C352.47 689.208 375.955 660.963 400.307 633.448L431.588 597.627C437.404 590.982 444.339 584.209 449.129 576.798L449.491 576.229C438.055 574.481 428.86 569.541 420.951 561.055C410.93 550.304 402.553 537.924 393.353 526.471Q366.911 493.657 342.205 459.517Q317.499 425.377 294.595 390.003C279.045 365.703 264.022 341.512 252.517 314.964C245.377 298.489 239.141 279.304 239.943 261.236C240.377 251.475 243.026 242.139 250.604 235.497C254.682 231.923 259.633 229.995 265.081 230.396C271.872 230.897 279.366 234.979 284.335 239.474C290.2 244.777 295.227 250.997 300.425 256.94C305.196 262.394 310.118 267.711 314.936 273.122L374.575 340.333C421.774 393.56 470.702 445.304 517.533 498.845C525.998 487.995 535.416 477.694 544.394 467.261C552.247 458.136 559.89 448.418 568.41 439.915C560.153 425.673 558.295 412.805 562.319 396.75C565.627 383.553 572.323 371.363 579.719 360.03C588.854 346.033 599.583 332.828 610.037 319.798Q633.301 290.671 657.498 262.315C668.796 248.877 699.022 210.607 712.671 202.433Z"/>
	<path fill="#FEFEFE" d="M544.959 561.774C545.078 561.836 545.203 561.886 545.316 561.959C549.936 564.918 556.796 573.963 560.625 578.27Q579.511 599.545 598.136 621.05C628.068 655.009 658.577 688.465 688.101 722.786C700.638 737.361 713.36 751.681 725.111 766.917C731.847 775.651 743.671 789.919 745.437 800.774Q745.587 801.663 745.647 802.563Q745.707 803.462 745.677 804.363Q745.646 805.264 745.525 806.158Q745.404 807.051 745.194 807.928Q744.984 808.805 744.686 809.656Q744.389 810.507 744.008 811.324Q743.627 812.141 743.165 812.916Q742.704 813.691 742.167 814.415Q741.642 815.14 741.048 815.809Q740.453 816.478 739.794 817.084Q739.134 817.689 738.418 818.226Q737.701 818.762 736.934 819.223Q736.167 819.685 735.358 820.067Q734.548 820.449 733.704 820.748Q732.861 821.046 731.991 821.259Q731.121 821.471 730.235 821.595C725.365 822.272 719.497 820.623 714.826 819.349C692.301 813.207 672.019 802.042 653.252 788.358C619.142 762.943 598.409 731.433 583.558 691.833C578.477 678.287 574.571 663.538 567.444 650.917C564.588 645.859 561.117 641.129 557.948 636.263L540.616 609.389C535.947 602.192 528.84 593.135 526.728 584.79L527.023 584.335C533.854 589.154 556.183 625.75 562.012 634.829C564.685 638.992 567.765 645.033 571.301 648.416C572.185 649.263 573.581 649.777 574.808 649.518C576.223 649.22 576.355 648.86 576.986 647.695C577.036 645.504 576.293 643.902 575.288 641.979C572.633 636.901 568.837 632.154 565.685 627.355L546.493 598.109C541.902 591.143 536.965 584.195 533.115 576.79C536.779 571.555 540.886 566.691 544.959 561.774Z"/>
	<path fill="#020304" d="M595.501 698.406C597.147 698.498 598.258 698.487 599.363 699.855C602.704 703.99 604.527 710.102 607.218 714.771C614.888 728.081 623.495 740.125 634.105 751.254C654.58 772.731 678.258 790.684 705.891 801.895C711.79 804.289 724.4 806.307 728.621 809.086C729.797 809.859 729.92 810.439 730.2 811.762C729.749 813.466 729.188 814.416 728.093 815.789C723.104 816.013 717.954 814.211 713.258 812.726Q709.471 811.493 705.742 810.093Q702.014 808.692 698.352 807.125Q694.69 805.559 691.102 803.831Q687.513 802.102 684.006 800.214Q680.499 798.327 677.08 796.284Q673.66 794.242 670.336 792.048Q667.012 789.854 663.789 787.514Q660.566 785.174 657.451 782.692Q653.055 779.229 648.835 775.551Q644.616 771.874 640.584 767.992Q636.552 764.11 632.718 760.034Q628.884 755.957 625.256 751.695Q621.628 747.433 618.216 742.996Q614.804 738.56 611.616 733.959Q608.429 729.359 605.473 724.607Q602.517 719.854 599.8 714.961C597.928 711.629 593.751 705.556 593.8 701.721C593.822 699.995 594.449 699.596 595.501 698.406Z"/>
	<path fill="#FEFEFE" d="M263.18 241.56C266.728 242.007 273.518 245.128 276.13 247.431C280.803 251.551 284.933 256.543 289.078 261.193Q300.387 273.945 311.463 286.901C318.648 295.196 326.205 303.107 333.562 311.242C341.117 319.594 348.417 328.199 355.866 336.648C374.139 357.373 392.969 377.627 411.395 398.219Q460.001 453.004 509.824 506.686C500.106 519.847 488.497 532.17 477.905 544.656C473.058 550.62 467.793 556.345 462.686 562.094C455.608 564.716 447.502 565.151 440.52 561.948C428.891 556.613 414.278 533.832 405.761 523.128C373.892 483.08 343.152 442.443 314.719 399.867C293.656 368.326 273.441 336.767 259.751 301.199C254.192 286.758 246.796 264.929 253.823 249.949C255.914 245.492 258.639 243.214 263.18 241.56Z"/>
	<path fill="#020304" d="M265.708 254.348C267.273 254.524 268.062 254.746 269.151 255.925C269.596 258.562 267.064 262.012 266.359 264.691C264.968 269.976 269.221 274.961 266.443 279.882C265.943 279.861 265.235 279.844 264.757 279.767C263.194 279.515 262.232 278.992 261.404 277.636C258.966 273.647 259.285 267.492 260.267 263.042C261.123 259.163 262.292 256.461 265.708 254.348Z"/>
	<path fill="#020304" d="M270.982 295.137C271.622 295.414 272.266 295.667 272.798 296.134C273.866 297.07 298.034 341.784 298.048 342.971C298.066 344.51 296.999 345.24 296.048 346.293C295.152 346.175 294.493 346.134 293.687 345.675C289.911 343.525 269.536 305.32 269.017 300.189C268.797 298.015 269.781 296.794 270.982 295.137Z"/>
	<path fill="#020304" d="M304.772 358.9C305.883 358.892 306.886 358.997 307.982 359.174C312.649 362.831 319.388 376.921 323.163 382.603C330.331 393.39 337.856 403.957 345.157 414.657C349.565 421.116 353.703 427.778 358.239 434.143C360.624 437.488 368.123 446.314 368.909 450.071C369.257 451.732 368.694 452.355 367.973 453.759C366.86 453.868 364.95 454.026 363.964 453.432C360.921 451.599 306.934 370.792 303.523 363.03C303.485 361.317 303.968 360.39 304.772 358.9Z"/>
	<path fill="#020304" d="M376.426 463.803C378.483 463.863 379.433 463.908 380.781 465.627C384.293 470.108 387.308 475.105 390.613 479.756C400.906 494.24 427.486 532.101 441.597 540.262C444.807 542.119 448.503 543.587 452.234 543.789C454.407 543.907 457.004 542.863 458.991 543.891C460.008 544.417 461.007 545.242 461.232 546.431C461.517 547.929 461.091 548.449 460.353 549.662C454.845 551.334 448.812 550.739 443.525 548.581C437.808 546.247 433.335 542.544 428.991 538.227C421 530.286 378.441 476.568 375.468 468.474C374.82 466.709 375.672 465.365 376.426 463.803Z"/>
	<path fill="#FEFEFE" d="M698.265 231.531C698.3 233.788 691.343 242.404 689.611 244.799Q671.893 269.725 652.864 293.664C645.467 303.048 633.956 315.92 628.208 325.647C626.409 328.692 625.144 332.201 625.129 335.773C625.116 338.858 626.202 341.82 628.461 343.967C630.856 346.241 634.496 347.69 637.81 347.477C641.999 347.206 645.727 344.699 648.77 341.984C655.871 335.648 661.9 326.985 667.85 319.528L701.246 277.749C706.428 271.28 711.3 264.276 716.96 258.228L717.459 257.7C704.623 277.931 690.774 297.227 676.583 316.518C670.275 325.094 663.043 333.458 657.282 342.38C655.333 345.398 653.559 348.929 653.148 352.532Q653.072 353.162 653.062 353.796Q653.052 354.43 653.107 355.061Q653.162 355.693 653.283 356.316Q653.403 356.938 653.587 357.545Q653.771 358.152 654.017 358.737Q654.262 359.321 654.567 359.877Q654.872 360.433 655.233 360.955Q655.593 361.477 656.006 361.958Q656.434 362.464 656.911 362.925Q657.388 363.386 657.908 363.797Q658.429 364.208 658.988 364.564Q659.547 364.921 660.139 365.219Q660.731 365.518 661.35 365.756Q661.969 365.994 662.609 366.168Q663.248 366.343 663.902 366.453Q664.556 366.562 665.218 366.606C669.079 366.859 672.679 365.406 675.692 363.067C684.052 356.576 696.13 339.459 703.2 330.506C712 319.364 721.039 308.415 729.747 297.199C734.611 290.935 739.627 282.803 745.716 277.773C745.874 277.643 746.035 277.517 746.195 277.389C731.914 299.425 716.188 320.704 700.682 341.892C693.82 351.268 685.584 360.436 679.908 370.556C678.288 373.444 677.367 376.334 677.512 379.677C677.696 383.93 679.833 388.309 682.978 391.168C685.181 393.171 687.945 394.135 690.918 393.851C693.329 393.62 696.564 392.66 698.434 391.082C704.336 386.105 714.202 371.482 719.315 364.843C728.545 352.857 737.364 340.575 746.573 328.584C754.827 317.838 763.484 307.37 771.999 296.829C768.396 304.33 763.2 310.923 758.387 317.67L734.433 350.705C714.427 378.536 695.631 408.707 672.92 434.213C661.679 446.837 639.789 466.478 621.239 463.281C616.822 462.52 611.19 459.123 606.844 459.671C604.989 459.905 536.048 551.988 526.575 564.406Q482.007 622.585 436.4 679.953C425.356 693.635 413.823 706.923 402.798 720.618C388.036 738.955 374.028 757.878 359.081 776.066C352.387 784.211 345.712 792.573 338.169 799.959C332.823 805.193 327.295 809.298 319.842 810.946C313.52 812.344 306.705 810.839 301.289 807.362Q300.831 807.071 300.387 806.756Q299.944 806.442 299.518 806.105Q299.092 805.768 298.683 805.41Q298.275 805.052 297.885 804.673Q297.495 804.295 297.126 803.897Q296.756 803.499 296.407 803.082Q296.058 802.666 295.731 802.232Q295.404 801.799 295.099 801.349Q294.795 800.899 294.514 800.434Q294.232 799.969 293.976 799.49Q293.719 799.011 293.487 798.52Q293.255 798.029 293.048 797.526Q292.841 797.024 292.661 796.512Q292.48 795.999 292.326 795.478Q292.172 794.957 292.044 794.429Q291.917 793.901 291.817 793.367C290.219 785.146 293.608 777.559 297.89 770.737C303.515 761.775 311.395 753.741 318.33 745.778C332.664 729.318 347.45 713.267 361.727 696.745L462.183 581.174C480.664 559.829 498.692 538.046 517.455 516.943Q540.91 490.689 563.606 463.777C567.987 458.664 578.15 448.1 581.179 442.977C583.611 438.867 577.181 430.51 575.385 426.622C574.09 423.817 573.152 420.7 572.629 417.655C570.069 402.753 577.72 384.645 586.135 372.734C580.753 386.598 576.524 400.913 580.425 415.736C581.116 418.361 582.604 424.015 584.97 425.381C586.089 425.416 586.185 425.661 587.065 424.883C586.914 418.956 583.848 413.203 583.415 407.216C582.518 394.8 586.346 384.218 589.829 372.57C590.593 370.016 590.947 366.96 592.093 364.586C594.461 359.677 598.51 355.039 601.778 350.66C610.776 338.603 620.198 326.922 629.649 315.223C652.292 287.196 674.646 258.749 698.265 231.531Z"/>
	<path fill="#020304" d="M301.166 799.306C303.037 799.375 320.512 803.534 321.137 804.032C321.65 805.454 321.445 805.868 321.14 807.313C319.728 807.641 318.368 807.859 316.912 807.846C312.554 807.807 305.027 806.592 302.107 803.15C300.996 801.841 301.147 800.897 301.166 799.306Z"/>
	<path fill="#020304" d="M672.935 422.834C673.756 422.947 674.447 423.221 675.224 423.497C676.13 424.535 676.1 424.549 676.15 425.932C673.51 431.632 662.433 439.683 657.128 443.726C645.878 452.297 634.957 458.418 620.532 456.461C620.275 456.385 620.013 456.322 619.759 456.232C618.026 455.617 617.322 454.691 616.559 453.079C616.72 451.688 616.844 451.69 617.854 450.691C620.988 449.861 624.631 450.597 627.869 450.623C641.601 450.734 663.297 432.281 672.935 422.834Z"/>
	<path fill="#020304" d="M577.556 477.908C578.675 478.347 579.529 478.668 580.344 479.583C581.129 480.464 581.62 481.502 581.485 482.7C580.873 488.134 440.937 664.986 425.257 685.238C408.497 706.888 392.797 729.381 375.521 750.632C363.075 765.942 350.265 782.311 335.228 795.167C334.49 795.415 334.1 795.383 333.336 795.343C332.32 794.453 332.289 794.524 332.136 793.194C334.597 788.264 341.269 782.238 344.955 777.742Q361.41 757.395 377.61 736.844L512.647 561.32L553.87 506.493C560.386 497.865 566.682 488.302 574.044 480.425C575.104 479.29 576.153 478.56 577.556 477.908Z"/>
</svg>
