<?xml version="1.0" encoding="utf-8" ?>
<svg xmlns="http://www.w3.org/2000/svg" xmlns:xlink="http://www.w3.org/1999/xlink" width="1024" height="1024">
	<path fill="#FEFEFE" d="M0 0L1024 0L1024 1024L0 1024L0 0Z"/>
	<path fill="#040203" d="M441.264 121.713C453.267 120.837 465.879 121.44 477.897 121.999C560.273 125.828 656.854 152.473 731.518 187.222C753.413 197.412 775.451 208.611 794.202 224.024C825.787 249.984 844.13 283.082 848.065 323.925C849.989 343.89 848.391 363.739 846.446 383.632C841.337 435.883 830.411 487.866 818.642 538.986C807.132 588.982 794.569 638.407 779.059 687.328C771.972 709.683 764.538 732.369 755.564 754.05C743.114 784.128 728.228 813.987 707.349 839.186C684.997 866.163 655.137 886.311 620.84 894.507C608.082 897.555 594.992 898.908 581.96 900.142C579.251 900.471 576.492 900.625 573.77 900.823C549.228 902.613 524.16 900.678 499.799 897.6C481.597 895.3 463.431 891.943 445.409 888.536Q412.409 882.439 379.793 874.542Q347.176 866.646 315.042 856.972C297.49 851.774 274.969 845.558 258.616 838.024C250.02 834.064 242.135 829.133 234.989 822.912Q231.76 820.123 228.738 817.111Q225.716 814.098 222.917 810.878Q220.118 807.658 217.555 804.246Q214.993 800.835 212.68 797.249C188.197 759.062 180.169 703.736 176.978 659.228Q175.119 629.436 175.561 599.589Q176.003 569.742 178.742 540.018Q183.494 488.291 192.756 437.179C202.477 381.236 214.931 325.344 233.463 271.609C240.228 251.997 247.478 232.57 257.14 214.172Q259.611 209.421 262.356 204.822Q265.102 200.224 268.112 195.795Q271.122 191.365 274.388 187.12Q277.653 182.875 281.161 178.829C318.074 136.629 388.257 125.042 441.264 121.713Z"/>
	<path fill="#FEFEFE" d="M454.479 129.255C465.596 128.486 477.176 129.634 488.294 130.415C553.473 134.995 618.47 151.764 679.807 173.781C697.004 179.954 713.916 187.435 730.42 195.247C770.113 214.035 808.941 236.623 828.293 278.227C835.807 294.38 840.46 312.834 841.425 330.568C843.055 360.535 838.8 391.377 834.124 420.911Q828.904 455.456 821.615 489.624C804.478 572.56 784.073 654.851 754.724 734.387C736.765 783.053 711.8 834.898 667.8 865.225C660.311 870.388 652.361 874.473 644.123 878.268L634.51 882.242C641.718 877.65 648.927 872.401 655.504 866.935C682.059 844.864 700.839 816.836 716.303 786.24C724.869 769.294 731.984 751.169 738.655 733.406C760.024 676.509 775.3 617.025 789.141 557.898Q801.044 508.044 809.973 457.572C814.774 431.053 819.233 404.239 821.655 377.382C825.809 331.319 823.07 293.376 791.923 256.301C779.111 241.051 762.796 228.023 745.9 217.571C725.236 204.788 702.483 195.089 679.948 186.141C606.585 157.012 525.873 136.426 447.163 129.875L454.479 129.255Z"/>
	<path fill="#FEFEFE" d="M408.842 136.718C497.715 132.205 673.409 178.972 747.662 227.824C778.512 248.12 805.394 277.459 812.903 314.675C820.816 353.889 810.299 412.032 803.366 451.686Q791.024 521.609 773.491 590.415Q758.002 654.567 736.52 716.969C724.545 750.761 710.787 785.844 690.697 815.739C665.119 853.8 633.346 881.202 587.135 890.369Q575.617 892.164 563.99 893C525.976 895.482 487.239 888.525 450.031 881.474Q413.827 874.856 378.093 866.044Q342.36 857.232 307.23 846.258C292.427 841.672 276.137 837.66 262.114 831.077Q258.786 829.518 255.577 827.729Q252.367 825.94 249.291 823.93Q246.214 821.92 243.287 819.698Q240.359 817.477 237.595 815.056C197.014 779.113 186.96 701.766 184.021 650.095C181.529 606.286 183.659 562.737 188.205 519.135C189.624 505.522 191.814 491.935 193.764 478.386Q196.999 454.935 201.16 431.63Q205.32 408.325 210.399 385.203Q215.479 362.081 221.469 339.179Q227.46 316.276 234.352 293.628C242.246 268.402 250.876 243.239 263.044 219.701C269.629 206.962 277.379 194.946 286.959 184.236C317.334 150.278 365.069 139.195 408.842 136.718Z"/>
	<path fill="#040203" d="M480.709 223.711C487.329 223.105 494.283 223.39 500.924 223.458C566.128 224.128 638.893 249.29 694.832 282.171C702.85 286.885 710.439 292.176 717.893 297.728C738.563 313.125 751.759 328.551 758.27 353.998C771.878 407.183 747.661 482.629 731.156 533.921L711.842 594.043C704.932 615.724 698.37 637.449 690.921 658.954C684.356 677.908 678.537 694.942 668.209 712.34C656.379 732.267 639.884 748.475 621.351 762.176C618.02 764.638 613.473 768.582 609.382 769.365C607.936 769.643 607.363 769.427 606.145 768.674C605.656 767.764 605.524 767.083 605.532 766.064C605.54 765.033 605.598 764.048 606.319 763.231C608.591 760.661 619.187 753.965 622.718 751.26C630.164 745.556 636.765 739.198 643.31 732.508C652.958 722.694 660.919 710.232 667.435 698.12C674.65 684.709 678.959 670.739 683.81 656.408C691.056 635.002 697.702 613.489 704.536 591.953L723.955 531.822C739.764 483.057 765.741 403.41 750.384 353.293C746.912 341.965 741.691 331.091 733.968 322.044C699.867 282.097 608.786 247.336 558.278 237.199Q549.648 235.423 540.932 234.141Q532.215 232.86 523.439 232.077Q514.664 231.295 505.858 231.013Q497.052 230.732 488.244 230.953C469.786 231.319 451.619 233.877 433.496 237.209C427.488 238.314 421.549 240.178 415.518 241.07C413.741 241.333 411.122 241.763 409.517 240.721C408.843 240.283 409.013 239.594 408.925 238.867C409.219 237.941 409.477 237.371 410.127 236.621C416.616 229.128 468.985 224.391 480.709 223.711Z"/>
	<path fill="#040203" d="M401.1 238.633C402.083 238.438 402.547 238.506 403.492 238.833C404.769 240.3 404.883 242.626 405.221 244.492C393.594 248.549 381.928 252.557 370.938 258.173C346.822 270.497 328.703 291.245 316.211 314.977C291.653 361.635 284.2 418.74 275.589 470.254C268.596 512.095 261.386 554.469 261.035 596.997C260.782 627.571 263.544 659.954 272.809 689.254C278.636 707.68 294.249 737.388 311.851 746.391C323.938 752.574 340.404 755.786 353.536 759.048C419.072 775.33 504.343 787.829 571.145 778.486C578.374 777.475 583.672 774.797 590.077 771.577C592.059 770.58 594.533 769.166 596.7 768.691C598.505 768.296 599.735 769.03 601.071 770.11C601.557 771.363 601.854 771.86 601.207 773.182C598.794 778.114 583.12 783.952 577.623 786.22Q568.337 789.913 558.763 792.776Q549.188 795.639 539.399 797.649C482.369 808.819 386.401 788.761 330.575 772.907C315.933 768.748 298.273 765.175 285.681 756.344C267.939 743.9 254.717 717.339 248.118 697.014C245.023 687.483 242.906 677.547 241.039 667.711C235.004 635.922 234.036 603.411 235.697 571.161C237.257 540.894 243.378 507.703 248.474 477.73C257.942 422.052 266.04 354.11 298.504 306.687C318.814 277.02 347.062 256.512 380.853 244.662C387.508 242.328 394.153 239.945 401.1 238.633Z"/>
	<path fill="#FEFEFE" d="M338.977 275.06C339.547 275.661 338.284 276.555 337.786 277.119C333.211 282.297 328.707 287.457 324.637 293.048C311.382 311.255 302.458 332.056 295.711 353.436C284.618 388.585 278.534 425.111 272.43 461.408C263.689 513.381 254.797 565.571 257.139 618.487C259.047 661.593 267.943 714.313 301.469 744.631C304.589 747.453 307.947 749.763 311.782 751.509C321.45 755.909 332.636 758.21 342.912 760.914C385.127 772.023 428.861 780.514 472.405 784.129Q493.325 785.817 514.31 786.144Q535.295 786.471 556.257 785.437C550.951 787.476 545.385 788.916 539.883 790.313C498.773 798.265 452.865 791.33 411.954 784.226C382.992 779.197 354.412 771.682 326.204 763.479C315.046 760.235 302.519 757.463 292.467 751.563C284.885 747.112 278.955 740.209 273.973 733.063C241.456 686.422 239.558 609.636 244.56 554.899C246.785 530.548 251.435 506.06 255.621 481.968C258.279 466.67 260.471 451.294 263.196 436.01C273.435 378.583 287.86 310.67 338.977 275.06Z"/>
	<path fill="#040203" d="M437.205 333.919C445.636 333.306 465.76 349.117 472.708 354.595C488.846 354.132 502.213 355.416 516.244 364.023C544.52 381.368 579.965 425.05 598.092 453.033C608.852 469.643 618.189 487.138 628.926 503.722C641.41 523.007 657.382 538.329 662.766 561.63C663.69 565.63 667.095 578.742 664.751 582.18C660.974 587.718 643.188 595.808 636.537 599.286C594.373 621.335 553.08 640.305 507.436 654.164C491.892 658.884 475.895 663.289 459.834 665.835C456.487 666.366 453.452 667.095 450.548 664.959C444.549 651.115 473.863 517.085 478.572 493.068C463.04 507.743 455.038 509.357 434.167 506.072C429.455 505.33 425.402 504.884 420.808 506.634C402.925 513.444 375.843 538.015 358.563 539.116C352.948 539.474 346.914 537.104 342.863 533.243C334.529 525.302 331.209 506.7 331.236 495.721C331.247 491.057 332.039 485.271 334.477 481.224C340.603 471.055 350.732 462.406 358.745 453.626C381.632 428.552 404.835 403.351 428.857 379.369C421.574 375.65 413.623 372.207 406.902 367.556C404.448 365.858 400.108 362.889 399.75 359.76C399.646 358.855 400.046 358.12 400.719 357.528C406.914 352.081 431.735 354.973 440.07 355.629C438.596 351.285 436.79 346.792 435.926 342.285C435.279 338.906 435.227 336.783 437.205 333.919Z"/>
	<path fill="#FEFEFE" d="M443.825 344.452C449.073 347.139 455.172 350.489 459.814 354.112C460.758 354.849 461.593 355.356 461.784 356.584L460.363 357.211L450.425 360.692C448.088 355.318 445.834 349.961 443.825 344.452Z"/>
	<path fill="#FEFEFE" d="M460.821 379.72L461.358 379.686C471.239 379.156 482.969 383.484 490.339 390.041C490.861 400.492 488.393 438.969 491.692 445.543L492.569 445.789C497.348 442.98 502.782 416.426 505.588 409.876L505.897 409.168C504.977 417.785 505.077 426.602 504.306 435.266C503.413 445.315 497.047 479.604 500.25 486.845C500.832 488.162 501.223 488.197 502.476 488.618C502.826 488.491 503.253 488.492 503.526 488.239C505.586 486.328 515.561 448.584 518.886 441.862C518.962 441.708 519.042 441.556 519.121 441.403C520.137 457.421 512.099 510.539 517.377 521.615C517.957 522.832 518.39 523.08 519.64 523.439C528.081 519.991 536.63 465.741 541.04 455.77C541.103 455.627 541.171 455.486 541.237 455.344Q540.091 476.57 536.835 497.577C534.775 510.301 528.992 531.265 530.008 543.25C530.125 544.626 530.527 545.449 531.578 546.362C532.93 546.815 533.658 547.005 535.021 546.456C541.693 543.771 550.903 514.376 553.109 506.616C554.748 500.851 555.59 494.697 557.851 489.144L558.112 488.518C558.083 509.244 554.038 530.217 552.618 550.908C552.209 556.858 549.853 579.26 552.96 582.826L554.16 582.845C560.99 578.9 576.944 535.207 581.601 525.673L581.845 525.181C580.238 535.545 576.687 548.021 573.393 558.012Q570.459 566.634 567.176 575.129C564.282 582.448 555.713 598.397 556.67 605.978C556.875 607.599 557.485 608.321 558.745 609.278C559.533 609.411 560.262 609.547 561.059 609.394C567.272 608.2 575.435 597.438 578.737 592.283C581.741 587.595 583.987 582.393 587.227 577.864C587.326 577.725 587.428 577.588 587.529 577.451C585.465 586.813 580.728 598.365 580.847 607.825C580.87 609.705 581.101 611.783 582.592 613.096C583.338 613.753 584.46 613.895 585.427 613.781C589.644 613.287 592.398 609.349 594.815 606.263C599.512 600.077 603.155 593.086 607.845 587.012C607.156 592.617 604.105 599.347 605.424 604.913C605.469 605.101 605.525 605.287 605.575 605.474C605.506 605.587 605.449 605.708 605.369 605.813C602.879 609.056 591.064 613.325 586.833 615.24C574.857 620.659 563.057 626.357 550.857 631.279Q534.733 637.705 518.188 642.952Q501.643 648.199 484.763 652.24C475.58 654.504 466.175 657.23 456.771 658.325C459.019 633.249 463.45 608.296 467.853 583.521C470.284 569.841 489.938 485.159 486.834 476.504C483.899 475.499 476.608 484.421 474.534 486.543C459.6 501.818 452.585 500.782 432.523 498.496C428.356 498.021 424.086 497.553 419.983 498.731C414.362 500.344 409.015 504 404.046 507.027C393.664 513.352 367.579 531.609 356.476 531.506C352.428 531.469 349.651 528.99 346.979 526.235L346.465 525.697Q347.547 525.286 348.614 524.835C359.565 520.193 367.555 510.721 374.234 501.218C375.878 498.88 377.958 496.22 378.921 493.511C379.404 492.155 379.518 490.946 378.865 489.622C376.54 489.246 374.92 492.278 373.743 494.012C365.561 506.072 357.604 516.6 343.676 522.012C341.039 514.803 339.394 506.235 338.809 498.588C338.138 489.823 340.44 484.897 346.05 478.382C358.336 464.114 371.895 450.769 384.733 436.992C394.317 426.707 424.656 391.874 435.272 385.61C442.718 381.217 452.4 380.334 460.821 379.72Z"/>
	<path fill="#040203" d="M357.404 474.814C358.578 475.041 358.581 475.088 359.372 475.995C359.616 478.382 348.628 491.361 346.568 494.318L345.465 494.06C344.605 493.281 344.324 493.083 344.314 491.817C344.278 487.283 354.079 477.715 357.404 474.814Z"/>
	<path fill="#040203" d="M421.396 409.48C421.954 409.417 422.514 409.356 423.076 409.34C424.808 409.289 425.877 409.767 427.146 410.944C427.911 412.52 427.993 413.697 427.604 415.372Q427.477 415.896 427.325 416.414Q427.172 416.931 426.993 417.44Q426.815 417.949 426.611 418.448Q426.407 418.947 426.178 419.436Q425.949 419.924 425.696 420.401Q425.443 420.877 425.167 421.34Q424.89 421.803 424.591 422.252Q424.291 422.7 423.97 423.133Q423.648 423.566 423.305 423.982Q422.962 424.399 422.599 424.797Q422.235 425.196 421.852 425.575Q421.469 425.955 421.068 426.315Q420.666 426.675 420.247 427.015Q419.828 427.354 419.392 427.672Q418.956 427.99 418.505 428.286Q418.054 428.581 417.589 428.854C416.677 429.035 415.716 429.277 414.785 429.285C413.458 429.296 412.54 428.658 411.636 427.758C411.08 426.459 410.949 425.421 411.197 424.035C412.261 418.093 416.562 412.835 421.396 409.48Z"/>
</svg>
