<?xml version="1.0" encoding="utf-8" ?>
<svg xmlns="http://www.w3.org/2000/svg" xmlns:xlink="http://www.w3.org/1999/xlink" width="1024" height="1024">
	<path fill="#FEFEFE" d="M0 0L1024 0L1024 1024L0 1024L0 0Z"/>
	<path d="M507.514 81.7235L507.921 81.708C522.815 81.2217 538.209 82.3848 553.037 83.7544Q557.427 84.1677 561.807 84.6717Q566.187 85.1756 570.556 85.7699Q574.925 86.3643 579.281 87.0487Q583.637 87.7331 587.978 88.5074Q592.318 89.2817 596.642 90.1455Q600.966 91.0092 605.271 91.9621Q609.576 92.9151 613.86 93.9567Q618.145 94.9983 622.407 96.1282Q626.669 97.2581 630.906 98.4759Q635.144 99.6936 639.356 100.999Q643.567 102.304 647.751 103.695Q651.935 105.087 656.089 106.565Q660.243 108.043 664.366 109.606Q668.489 111.169 672.578 112.818Q676.668 114.466 680.722 116.198Q684.777 117.93 688.795 119.746Q692.813 121.562 696.793 123.46Q700.772 125.358 704.712 127.338Q708.651 129.319 712.549 131.38Q716.447 133.441 720.302 135.582Q724.156 137.723 727.965 139.943Q731.775 142.164 735.537 144.462Q739.3 146.761 743.015 149.136Q746.729 151.512 750.394 153.964Q754.058 156.416 757.671 158.943Q761.284 161.47 764.844 164.072Q768.404 166.673 771.91 169.347Q775.416 172.021 778.865 174.767Q782.315 177.514 785.707 180.33Q789.099 183.147 792.433 186.033Q795.766 188.92 799.039 191.874Q802.312 194.829 805.523 197.85Q809.39 201.436 813.168 205.117Q816.946 208.797 820.632 212.569Q824.318 216.341 827.91 220.203Q831.503 224.065 834.999 228.014Q838.495 231.963 841.893 235.996Q845.291 240.03 848.588 244.146Q851.886 248.262 855.081 252.458Q858.276 256.654 861.368 260.928Q864.459 265.201 867.444 269.549Q870.429 273.897 873.306 278.318Q876.183 282.738 878.951 287.227Q881.718 291.717 884.375 296.274Q887.031 300.83 889.574 305.45Q892.117 310.071 894.546 314.752Q896.975 319.434 899.288 324.174Q901.601 328.914 903.797 333.709Q905.992 338.505 908.07 343.353Q910.146 348.201 912.104 353.098Q914.061 357.996 915.897 362.94Q917.733 367.884 919.446 372.872Q921.16 377.86 922.751 382.889Q924.341 387.917 925.808 392.984Q927.274 398.05 928.615 403.151Q929.957 408.251 931.172 413.383Q932.388 418.516 933.476 423.676Q934.565 428.837 935.526 434.023Q936.488 439.208 937.321 444.416Q938.155 449.624 938.86 454.851Q939.565 460.078 940.142 465.32Q940.718 470.563 941.165 475.818Q941.612 481.073 941.93 486.338Q942.248 491.602 942.436 496.873C946.125 616.848 904.194 722.614 822.075 809.639Q819.071 812.812 816.003 815.922Q812.935 819.032 809.803 822.078Q806.671 825.125 803.477 828.106Q800.283 831.087 797.029 834.001Q793.774 836.916 790.46 839.763Q787.146 842.609 783.773 845.387Q780.401 848.165 776.973 850.873Q773.544 853.58 770.06 856.217Q766.576 858.853 763.039 861.417Q759.501 863.981 755.912 866.472Q752.322 868.962 748.682 871.378Q745.042 873.794 741.353 876.135Q737.663 878.475 733.927 880.739Q730.19 883.003 726.408 885.189Q722.625 887.375 718.798 889.483Q714.971 891.591 711.102 893.619Q707.232 895.648 703.322 897.596Q699.411 899.544 695.461 901.411Q691.511 903.278 687.524 905.064Q683.536 906.849 679.513 908.552Q675.489 910.254 671.431 911.874Q667.374 913.493 663.283 915.028Q659.193 916.564 655.072 918.014Q650.951 919.465 646.801 920.83Q642.651 922.196 638.473 923.475Q634.296 924.755 630.093 925.948Q625.89 927.141 621.663 928.247Q617.437 929.353 613.188 930.372Q608.94 931.391 604.671 932.321Q600.403 933.252 596.116 934.095Q591.829 934.938 587.525 935.692Q583.222 936.446 578.904 937.111C558.226 940.264 537.521 941.269 516.647 941.866Q512.366 941.924 508.084 941.896Q503.802 941.869 499.522 941.755Q495.242 941.642 490.965 941.443Q486.688 941.245 482.416 940.96Q478.144 940.676 473.878 940.307Q469.612 939.937 465.355 939.482Q461.097 939.027 456.85 938.487Q452.602 937.947 448.366 937.322Q444.131 936.698 439.908 935.988Q435.686 935.279 431.478 934.485Q427.271 933.692 423.08 932.814Q418.889 931.937 414.717 930.975Q410.544 930.014 406.392 928.97Q402.24 927.925 398.109 926.798Q393.978 925.671 389.871 924.461Q385.764 923.251 381.682 921.96Q377.599 920.668 373.544 919.295Q369.488 917.922 365.461 916.468Q361.434 915.015 357.436 913.481Q353.439 911.947 349.473 910.333Q345.507 908.719 341.574 907.027Q337.641 905.334 333.743 903.563Q329.844 901.792 325.982 899.944Q322.12 898.095 318.296 896.17Q314.472 894.245 310.686 892.243Q306.901 890.242 303.157 888.165Q299.413 886.088 295.711 883.937Q292.009 881.786 288.35 879.561Q284.692 877.336 281.079 875.038Q277.466 872.741 273.9 870.371Q270.333 868.002 266.815 865.562Q263.297 863.122 259.828 860.612Q239.881 846.374 221.853 829.772C136.424 749.576 84.8728 644.071 81.0213 526.18C77.1761 408.481 123.089 297.96 203.016 212.607Q211.16 204.073 219.774 196.016Q228.389 187.959 237.447 180.403Q246.506 172.847 255.978 165.818Q265.451 158.789 275.307 152.309Q280.548 148.827 285.89 145.503Q291.233 142.18 296.672 139.017Q302.112 135.854 307.644 132.856Q313.175 129.857 318.794 127.025Q324.413 124.194 330.114 121.531Q335.815 118.868 341.593 116.377Q347.37 113.886 353.22 111.569Q359.07 109.252 364.987 107.11Q370.903 104.969 376.881 103.006Q382.859 101.042 388.893 99.258Q394.927 97.4741 401.011 95.8713Q407.096 94.2685 413.225 92.8483Q419.355 91.4281 425.524 90.1917Q431.694 88.9554 437.897 87.904Q444.101 86.8526 450.333 85.9872Q456.566 85.1217 462.821 84.4429C477.634 82.8042 492.623 82.2126 507.514 81.7235Z"/>
	<path fill="#FEFEFE" d="M489.224 94.287Q490.022 94.2221 490.822 94.1757C510.197 93.1555 530.088 93.9838 549.407 95.6942C643.238 104.001 725.413 141.709 795.428 204.507C810.703 218.207 824.505 233.718 837.381 249.666Q839.956 252.793 842.469 255.97Q844.982 259.147 847.432 262.374Q849.881 265.6 852.266 268.874Q854.651 272.148 856.971 275.469Q859.291 278.79 861.544 282.156Q863.798 285.523 865.984 288.933Q868.171 292.343 870.289 295.796Q872.407 299.248 874.457 302.742Q876.507 306.237 878.486 309.771Q880.466 313.305 882.376 316.877Q884.285 320.45 886.124 324.059Q887.962 327.669 889.729 331.314Q891.495 334.96 893.189 338.639Q894.883 342.319 896.504 346.032Q898.125 349.744 899.671 353.488Q901.218 357.232 902.691 361.006Q904.163 364.779 905.56 368.582Q906.958 372.384 908.28 376.213Q909.601 380.042 910.847 383.897Q912.092 387.751 913.261 391.63Q914.43 395.508 915.522 399.409Q916.614 403.31 917.629 407.232Q918.643 411.154 919.58 415.095Q920.516 419.036 921.375 422.995Q922.233 426.954 923.013 430.929Q923.792 434.904 924.493 438.894Q925.194 442.883 925.815 446.886Q926.437 450.889 926.979 454.904Q927.521 458.918 927.984 462.942Q928.446 466.967 928.829 471Q929.212 475.032 929.515 479.072Q929.817 483.111 930.04 487.156C931.076 506.394 931.505 525.691 930.08 544.923C923.146 638.546 883.181 724.412 820.675 793.791Q817.26 797.582 813.752 801.287Q810.244 804.992 806.645 808.609Q803.046 812.226 799.359 815.753Q795.673 819.28 791.9 822.715Q788.126 826.15 784.27 829.49Q780.413 832.83 776.475 836.074Q772.536 839.318 768.519 842.464Q764.502 845.609 760.408 848.655Q756.314 851.7 752.146 854.643Q747.978 857.586 743.739 860.425Q739.499 863.264 735.191 865.997Q730.882 868.731 726.508 871.357Q722.133 873.983 717.695 876.5Q713.256 879.016 708.757 881.423Q704.258 883.829 699.701 886.124Q695.143 888.418 690.531 890.599Q685.918 892.78 681.253 894.846Q676.588 896.912 671.873 898.863Q667.158 900.813 662.396 902.646Q657.635 904.479 652.829 906.193Q648.023 907.908 643.177 909.503Q638.33 911.099 633.446 912.573Q628.561 914.048 623.642 915.402Q618.723 916.756 613.771 917.987Q608.82 919.219 603.839 920.327Q598.859 921.436 593.853 922.421Q588.846 923.406 583.817 924.268Q578.788 925.129 573.739 925.865Q568.69 926.601 563.625 927.213Q558.559 927.824 553.48 928.31Q548.401 928.796 543.311 929.156Q538.222 929.516 533.125 929.75L530.962 929.871Q513.884 930.693 496.798 930.081Q479.712 929.469 462.737 927.426C372.524 917.018 293.844 878.664 226.569 818.223C212.607 805.68 199.79 791.231 187.957 776.677C133.757 710.016 97.8817 626.545 93.4133 540.205Q93.0922 534.919 92.9039 529.626Q92.7156 524.333 92.6602 519.037Q92.6049 513.742 92.6824 508.446Q92.7601 503.151 92.9706 497.859Q93.1811 492.567 93.5244 487.282Q93.8677 481.997 94.3436 476.722Q94.8195 471.448 95.4277 466.187Q96.0358 460.926 96.7759 455.681Q97.5159 450.437 98.3874 445.213Q99.2588 439.99 100.261 434.789Q101.264 429.589 102.396 424.415Q103.529 419.242 104.791 414.098Q106.053 408.955 107.444 403.845Q108.835 398.734 110.353 393.661Q111.872 388.587 113.518 383.553Q115.163 378.519 116.935 373.528Q118.706 368.537 120.602 363.592Q122.498 358.647 124.518 353.751Q126.538 348.856 128.68 344.012Q130.822 339.168 133.085 334.38Q135.348 329.592 137.73 324.862Q140.113 320.132 142.613 315.463Q145.113 310.795 147.73 306.19Q150.347 301.586 153.079 297.049Q155.81 292.511 158.655 288.044Q161.5 283.577 164.456 279.182Q167.411 274.788 170.477 270.469Q173.542 266.15 176.715 261.91Q179.888 257.669 183.166 253.51Q186.444 249.35 189.826 245.274Q193.207 241.198 196.69 237.209Q200.173 233.219 203.755 229.318Q207.158 225.569 210.652 221.905Q214.146 218.241 217.729 214.663Q221.312 211.086 224.981 207.597Q228.65 204.108 232.404 200.71Q236.158 197.313 239.993 194.008Q243.829 190.703 247.744 187.493Q251.66 184.283 255.653 181.169Q259.646 178.056 263.713 175.042Q267.781 172.027 271.922 169.113Q276.062 166.199 280.273 163.388Q284.484 160.576 288.762 157.868Q293.04 155.161 297.383 152.558Q301.726 149.956 306.132 147.461Q310.538 144.966 315.003 142.58Q319.469 140.193 323.991 137.917Q328.514 135.641 333.09 133.476Q337.667 131.311 342.296 129.258Q346.924 127.206 351.602 125.268Q356.279 123.33 361.003 121.507Q365.726 119.683 370.493 117.976Q375.26 116.269 380.067 114.68Q384.874 113.09 389.718 111.619Q394.563 110.147 399.442 108.795Q404.321 107.442 409.232 106.21Q414.143 104.977 419.082 103.865Q424.021 102.753 428.987 101.762Q433.952 100.772 438.94 99.903Q443.928 99.0342 448.936 98.2878Q453.943 97.5414 458.968 96.9178Q463.993 96.2943 469.031 95.794Q474.069 95.2937 479.118 94.9169Q484.167 94.5401 489.224 94.287Z"/>
	<path d="M503.65 119.718C513.606 119.022 523.919 119.72 533.866 120.274Q542.875 120.719 551.854 121.582Q560.832 122.446 569.761 123.726Q578.69 125.007 587.549 126.702Q596.409 128.396 605.18 130.502Q613.951 132.607 622.614 135.118Q631.278 137.63 639.815 140.542Q648.352 143.453 656.744 146.76Q665.137 150.066 673.366 153.759C764.734 194.52 841.689 274.609 877.498 368.234C881.463 378.602 884.675 389.167 887.896 399.784C916.574 494.329 910.711 584.454 870.255 674.681C865.273 685.793 829.664 750.816 820.4 752.785C819.189 753.042 818.311 752.923 817.431 751.974C816.365 750.823 816.46 749.318 816.985 747.946C818.185 744.813 827.199 734.117 829.734 730.471C837.659 719.07 845.296 707.307 851.837 695.048C880.779 640.8 894.708 587.859 898.467 526.588C878.803 526.611 859.02 528.546 839.4 529.835C782.214 533.59 725.246 539.531 668.971 550.651C674.486 554.935 680.843 559.332 684.714 565.247C687.11 568.908 688.206 573.45 687.206 577.769C686.298 581.691 683.93 585.476 681.483 588.631C672.667 599.999 656.246 614.58 645.392 624.606C619.263 648.741 592.898 672.41 564.425 693.803Q541.75 710.882 517.278 725.269C527.548 733.076 537.251 742.036 546.878 750.629Q578.339 778.734 607.761 808.967C619.341 820.976 630.553 833.348 642.327 845.168C649.49 852.358 656.62 859.885 665.2 865.404C699.897 852.588 735.777 827.26 763.5 803.038Q772.043 795.502 780.119 787.468C782.593 785.046 784.93 782.107 787.675 780.022C788.964 779.044 790.963 777.955 792.633 778.48C793.901 778.879 793.991 779.388 794.432 780.504C794.262 781.797 793.956 782.719 793.26 783.807C788.685 790.96 772.644 804.571 765.449 810.664C715.331 853.109 657.826 882.47 593.161 895.052C540.58 905.283 487.838 906.166 435.133 896.219C427.006 894.685 418.726 893.243 410.727 891.129C387.595 885.012 365.613 876.57 343.908 866.588C328.719 859.604 314.58 851.703 300.316 843.02C295.497 840.086 290.373 837.295 285.762 834.054C284.255 832.994 282.845 831.341 282.645 829.429C282.498 828.019 282.877 827.432 283.694 826.348C284.988 825.832 285.885 825.792 287.19 826.259C292.951 828.322 299.007 833.278 304.177 836.59C309.767 840.171 315.477 843.495 321.241 846.784C345.392 860.562 370.225 871.235 396.689 879.668C419.578 863.604 434.366 851.714 453.755 831.493C431.822 815.225 404.932 784.892 390.821 761.489C384.791 751.489 380.387 740.654 383.38 728.856C389.804 703.53 434.504 678.483 456.972 666.912C467.8 661.336 479.173 656.72 489.691 650.557C486.818 648.813 483.883 647.065 481.362 644.823C479.85 643.478 478.309 641.763 478.365 639.618C478.379 639.066 478.391 638.878 478.671 638.449C484.558 629.435 601.988 583.365 624.575 564.27C626.481 562.659 628.555 560.405 628.539 557.741C628.53 556.303 627.813 554.893 626.835 553.865C623.897 550.772 617.054 549.426 613.039 548.432C578.868 539.965 543.846 542.591 509.035 543.021C505.205 543.068 500.167 543.454 497.237 540.581C496.941 539.55 496.778 539.022 497.276 537.973C497.962 536.528 499.171 536.409 500.602 536.132C506.059 535.074 512.23 535.594 517.79 535.478L558.121 534.749C567.179 534.512 575.919 532.446 584.847 531.123C605.988 527.989 629.375 527.452 649.208 536.426C654.19 538.679 658.704 541.664 663.277 544.63C679.743 540.328 696.963 537.765 713.776 535.17C754.692 528.853 795.604 525.027 836.894 522.194C841.19 514.316 844.26 505.336 847.704 497.029C856.625 475.513 864.838 453.39 874.675 432.299L866.868 431.429C861.884 441.71 837.177 513.845 834.581 515.579L834.025 514.593C833.837 505.636 847.429 470.137 851.158 459.337Q856.204 444.731 860.76 429.965C857.987 424.2 855.524 418.514 853.716 412.366C850.05 420.346 847.412 428.807 844.646 437.128C839.977 451.179 835.595 465.338 830.573 479.268C829.062 483.461 827.604 489.584 824.907 493.141C824.174 494.108 823.643 494.825 822.41 495.046C822.132 494.576 822.063 494.529 821.933 493.91C820.882 488.89 841.94 424.701 845.478 415.462C846.847 411.887 848.459 408.464 850.634 405.309C850.034 403.048 849.465 400.82 848.512 398.676C847.612 396.654 846.891 394.758 844.724 393.929C841.309 399.044 839.338 409.454 837.271 415.626C833.066 428.181 827.798 440.346 822.845 452.614C820.447 458.554 818.517 464.815 815.763 470.596C814.822 472.573 813.784 474.323 812.281 475.931L811.557 475.936C808.154 469.178 828.734 421.814 832.309 412.372C834.897 405.537 837.527 398.377 839.178 391.26L839.339 390.554C835.685 388.485 832.256 385.89 828.8 383.504C821.051 397.395 809.503 449.535 801.234 456.039L800.498 455.834C797.879 447.939 818.908 390.626 822.963 379.863L811.614 367.865C808.846 374.356 807.395 381.455 805.739 388.29C802.835 400.277 799.904 413.266 794.949 424.559C794.171 426.333 793.388 428.279 791.479 429.043C790.765 428.759 790.26 428.754 789.869 428.034C789.06 426.548 789.335 424.763 789.598 423.164C790.764 416.061 793.646 408.587 795.631 401.644L806.745 361.872L801.814 356.99C797.836 367.882 794.504 379.002 791.125 390.091C789.514 395.376 788.176 401.278 786.006 406.34C785.706 407.039 785.259 407.454 784.677 407.915C783.478 407.969 783.561 408.014 782.674 407.211C780.632 398.345 794.003 364.941 795.865 353.625C795.9 353.412 795.929 353.197 795.962 352.982C793.593 351.448 791.029 350.293 788.485 349.084C786.753 354.356 785.487 359.821 784.071 365.187C783.054 369.134 777.486 389.904 775.274 391.443L774.464 390.852C770.285 382.175 780.063 356.638 782.918 346.763C780.84 345.529 778.613 344.702 776.375 343.808C775.125 348.939 770.687 368.044 767.343 370.712C766.024 370.747 766.065 370.626 765.043 369.757C762.723 364.468 769.544 346.438 771.399 340.738C769.594 339.239 767.723 337.813 765.881 336.36C764.737 339.955 763.366 349.454 761.381 351.931C760.979 352.432 759.545 352.674 758.876 352.594C757.784 352.462 757.059 351.996 756.603 350.978C754.702 346.737 760.096 335.895 761.754 331.676L755.718 325.181C754.542 328.634 754.033 332.258 753.107 335.78C752.593 337.738 752.156 339.64 750.299 340.714C749.203 340.51 748.418 340.23 747.818 339.188C745.346 334.901 749.401 324.208 750.708 319.608L745.921 314.729C744.866 317.172 744.588 319.778 743.626 322.224C742.87 324.147 741.657 325.587 739.752 326.409C738.484 326.219 738.55 326.266 737.762 325.256C736.663 320.323 739.459 313.841 740.689 308.985C740.353 307.737 739.994 307.267 739.064 306.377L738.153 306.4C736.156 309.418 736.091 312.707 734.536 315.79C733.421 318 731.375 319.659 729.403 321.077C719 328.557 712.665 323.136 703.556 327.181C697.569 329.84 693.126 335.044 686.738 337.109C660.526 345.585 660.77 310.267 653.258 306.451C652.955 306.551 652.635 306.609 652.349 306.751C649.746 308.049 642.444 319.404 639.903 322.311C635.615 327.219 630.124 329.754 625.413 334.013C621.834 337.249 607.305 358.593 604.904 363.475C607.037 365.533 609.276 367.501 611.461 369.506C615.322 361.84 618.274 352.984 623.056 345.853C623.971 344.488 624.852 343.488 626.525 343.132C627.358 343.575 627.363 343.35 627.61 344.09C629.272 349.064 617.709 367.2 614.931 372.276L619.434 375.719C621.552 371.46 628.507 354.338 631.919 352.597C633.054 353.19 633.581 353.357 633.847 354.76C634.749 359.511 625.568 374.454 622.988 379.304C624.649 381.02 626.554 382.454 628.418 383.941C630.497 378.759 634.466 366.925 638.545 363.548C639.381 362.856 639.414 362.824 640.531 362.912C640.807 363.392 640.869 363.435 641.012 364.062C642.441 370.342 635.129 382.09 632.085 387.241L637.707 392.026C639.762 387.274 641.365 382.285 643.627 377.627C644.499 375.832 645.514 373.551 647.524 372.845C648.617 373.289 648.745 373.427 649.157 374.563C650.833 379.195 643.602 391.492 641.552 395.774C643.62 397.575 645.74 399.254 647.92 400.915C649.504 396.246 650.982 390.107 653.785 386.065C654.548 384.966 654.982 384.542 656.291 384.326C661.685 388.51 651.179 400.883 652.644 406.247C654.511 407.172 656.029 405.983 657.968 406.263C658.708 406.371 659.318 406.751 659.7 407.378C661.013 409.532 660.254 412.202 659.812 414.52C664.025 420.995 666.04 429.417 671.161 435.02C679.054 443.654 698.849 454.637 704.175 463.507C704.979 464.847 705.137 465.706 704.761 467.204C704.003 467.868 703.513 468.098 702.498 468.268C698.387 468.958 693.935 464.218 691.098 461.775C680.696 452.817 669.583 442.811 657.586 436.079C649.546 431.566 639.568 428.755 632.238 423.257C630.805 422.182 628.867 420.702 628.841 418.708C628.826 417.555 629.158 416.463 630.1 415.734C634.054 412.675 647.186 415.66 651.977 416.276C638.198 402.507 623.224 389.857 608.637 376.964C601.974 371.074 594.925 365.329 588.816 358.861C581.014 350.6 575.249 340.835 568.209 331.983C566.383 334.913 564.617 337.866 562.125 340.293C556.616 345.657 551.983 345.112 544.94 345.148C534.939 345.2 534.966 357.516 527.572 364.718C523.141 369.035 517.634 372.064 511.289 371.838C497.437 371.346 494.633 361.136 486.438 353.094C481.756 348.499 476.931 348.262 470.775 348.378C457.418 366.831 445.842 386.421 432.56 404.968L437.652 410.31C442.269 402.735 455.731 381.301 461.27 375.669C462.57 374.347 464.601 372.502 466.586 372.613C467.35 372.656 467.412 373.081 467.835 373.634C467.937 375.458 467.27 377.058 466.429 378.648C463.993 383.252 460.517 387.626 457.504 391.883Q449.582 402.987 441.785 414.178L447.236 419.284C452.08 411.597 457.447 404.024 462.736 396.629C464.044 394.801 465.587 392.635 467.944 392.247C468.514 392.716 468.803 392.719 468.875 393.518C469.51 400.479 456.51 417.334 452.278 423.291L455.967 427.947C459.376 423.083 466.824 409.32 471.361 406.977L472.246 407.273C472.316 407.463 472.406 407.647 472.455 407.843C474.09 414.336 464.11 427.332 460.71 433.077C461.96 434.574 463.305 435.997 464.617 437.44C465.737 435.338 466.824 433.179 468.079 431.155C469.177 429.384 470.427 427.967 472.479 427.516L473.187 428.383C473.845 433.663 471.172 437.57 468.523 441.84C473.743 446.971 478.694 452.377 483.91 457.517C488.892 462.427 502.887 474.602 505.835 479.686C506.455 480.754 506.429 482.028 505.908 483.148C505.27 484.523 504.827 484.645 503.497 484.987C500.777 484.4 498.79 483.076 496.693 481.272C492.136 477.349 487.973 472.756 483.706 468.512C472.993 457.855 462.566 446.95 451.96 436.192C430.194 414.118 407.888 392.886 386.927 369.991C377.876 388.668 367.104 375.113 355.992 381.241C347.066 386.164 347.787 400.041 337.064 403.593C325.956 407.271 321.535 400.538 313.639 395.369C310.843 393.538 307.45 392.283 304.469 390.741C294.697 385.685 286.929 376.567 285.414 365.466C284.814 361.071 285.053 356.146 283.729 351.935L283.045 351.796C282.715 351.992 282.314 352.102 282.054 352.385C280.844 353.706 279.719 357.778 278.691 359.617C276.023 364.395 273.022 368.97 270.408 373.787C259.981 393 250.285 412.652 240.046 431.974C225.044 460.288 208.064 487.722 194.43 516.696C193.616 518.425 192.187 520.871 192.875 522.787C193.89 523.133 194.565 523.192 195.635 523.131C197.269 521.162 198.228 518.357 199.332 516.027C206.635 500.617 215.629 485.26 224.853 470.928C230.139 462.714 236.114 454.958 240.786 446.356C247.805 433.433 253.767 419.872 260.182 406.64C262.931 400.971 265.634 394.36 269.241 389.194C270.264 387.728 271.773 385.996 273.542 385.466C274.474 385.186 274.421 385.364 275.224 385.764C275.709 387.664 275.131 389.24 274.448 391.015C271.286 399.23 266.03 407.114 262.183 415.082C256.712 426.412 252.574 438.285 246.237 449.218C240.868 458.48 233.947 466.701 228.047 475.625Q220.594 487.045 213.938 498.946Q207.282 510.848 201.453 523.176L210.532 524.405C217.042 510.901 220.848 496.15 228.407 483.139C233.715 474.002 242.239 466.979 247.238 457.859C249.295 454.106 250.605 449.89 252.236 445.936Q254.111 441.286 256.47 436.861Q258.829 432.436 261.646 428.288C263.391 425.734 268.451 418.062 271.748 417.922C273.118 417.863 273.436 418.273 274.304 419.169C274.538 420.242 274.654 421.043 274.246 422.097C272.945 425.458 263.225 437.575 260.435 442.287C254.775 451.846 251.835 463.053 247.918 473.406C241.387 490.673 234.674 508.023 227.662 525.097C229.643 525.302 231.642 525.369 233.631 525.48C237.892 511.26 242.908 497.701 248.225 483.864C253.183 470.965 257.738 458.209 265.473 446.6C266.766 444.659 268.042 442.757 270.453 442.28C271.855 442.664 271.98 442.731 272.937 443.822C273.096 444.91 273.213 445.344 272.762 446.382C271.282 449.785 268.649 452.981 266.733 456.179C264.319 460.211 262.345 464.611 260.376 468.877C256.997 476.198 254.228 483.905 251.27 491.408C246.802 502.74 242.004 514.233 239.088 526.076C242.7 526.535 246.428 526.554 250.068 526.722C250.957 515.041 252.283 502.624 256.887 491.757C257.888 489.395 259.396 487.119 261.947 486.283C262.777 486.011 262.497 486.074 263.341 486.486C264.914 489.84 260.123 498.918 259.348 502.568C257.672 510.465 257.512 519.329 256.738 527.4Q311.544 530.508 366.4 532.561C385.573 533.203 404.85 533.024 423.998 533.929C425.391 533.995 426.66 534.287 427.852 535.036C429.248 535.914 429.881 536.918 430.207 538.528C429.965 539.244 429.962 539.685 429.328 540.169C425.802 542.861 401.849 540.878 396.019 540.743Q260.389 537.039 125.298 524.396C126.915 609.001 161.912 696.092 216.879 760.176Q227.603 772.74 239.21 784.493C243.61 788.917 262.047 804.778 263.931 808.237C264.584 809.436 264.54 810.003 264.207 811.285C263.372 812.074 262.665 812.298 261.511 812.389C256.869 812.757 249.873 804.784 246.603 801.791Q243.011 798.492 239.5 795.107Q235.989 791.722 232.562 788.251Q229.135 784.781 225.794 781.229Q222.452 777.676 219.199 774.042Q215.945 770.409 212.781 766.697Q209.617 762.986 206.545 759.198Q203.473 755.41 200.494 751.548Q197.515 747.686 194.632 743.753Q191.748 739.82 188.961 735.817Q186.175 731.814 183.487 727.745Q180.798 723.675 178.211 719.542Q175.623 715.408 173.136 711.212Q170.65 707.016 168.267 702.76Q165.884 698.505 163.606 694.193Q161.327 689.881 159.155 685.514Q156.983 681.147 154.918 676.729Q152.853 672.311 150.896 667.843Q148.939 663.376 147.093 658.862Q145.246 654.348 143.51 649.79Q141.774 645.232 140.149 640.634Q138.525 636.035 137.014 631.398Q135.502 626.761 134.104 622.088Q132.707 617.416 131.423 612.71Q130.14 608.005 128.972 603.27Q127.804 598.535 126.752 593.772Q125.7 589.01 124.765 584.223Q123.83 579.437 123.012 574.628Q122.194 569.82 121.493 564.994Q120.793 560.167 120.21 555.325Q119.628 550.483 119.164 545.628Q118.7 540.773 118.355 535.908Q118.009 531.043 117.783 526.171C113.383 425.913 155.277 319.748 222.89 246.189Q225.705 243.125 228.585 240.121Q231.464 237.117 234.407 234.175Q237.349 231.233 240.354 228.355Q243.359 225.476 246.424 222.662Q249.489 219.848 252.613 217.1Q255.738 214.352 258.92 211.671Q262.102 208.99 265.34 206.377Q268.579 203.764 271.872 201.22Q275.165 198.677 278.512 196.204Q281.858 193.731 285.257 191.33Q288.655 188.929 292.104 186.601Q295.552 184.273 299.05 182.018Q302.547 179.764 306.092 177.584Q309.636 175.405 313.226 173.301Q316.816 171.198 320.451 169.171Q324.085 167.144 327.761 165.195Q331.437 163.246 335.154 161.376Q338.871 159.505 342.627 157.714Q346.383 155.923 350.176 154.213Q353.969 152.502 357.798 150.872Q361.626 149.243 365.489 147.695Q369.351 146.147 373.246 144.682Q377.14 143.216 381.065 141.834Q384.99 140.452 388.943 139.154Q392.896 137.855 396.876 136.641Q400.856 135.427 404.861 134.298Q408.866 133.169 412.894 132.125Q416.922 131.082 420.971 130.124Q425.021 129.166 429.089 128.294Q433.158 127.423 437.244 126.638Q441.331 125.854 445.433 125.156Q449.535 124.458 453.651 123.848C470.236 121.369 486.914 120.409 503.65 119.718Z"/>
	<path fill="#FEFEFE" d="M897.552 501.796C899.39 505.992 898.424 514.495 898.421 519.151C896.342 519.387 894.214 519.382 892.122 519.455L891.8 519.198C891.409 515.933 896.259 505.333 897.552 501.796Z"/>
	<path fill="#FEFEFE" d="M613.84 338.957C614.183 339.278 613.984 339.042 614.236 339.796C612.452 343.176 603.277 357.865 600.601 358.901C599.859 358.016 599.235 357.088 598.59 356.131C598.603 355.631 598.577 355.48 598.765 354.942C600.806 349.113 608.586 341.788 613.84 338.957Z"/>
	<path fill="#FEFEFE" d="M349.126 232.139Q350.369 232.242 351.605 232.404C354.347 232.781 357.083 234.252 358.785 236.447C358.851 237.698 358.781 237.601 357.932 238.546C355.713 239.569 353.121 239.247 350.721 239.216C348.611 239.221 346.388 239.333 344.292 239.083C342.606 238.881 341.429 238.29 340.418 236.94L340.804 235.803C343.17 233.743 346.096 232.766 349.126 232.139Z"/>
	<path fill="#FEFEFE" d="M141.14 464.473C141.271 465.144 141.172 465.592 140.975 466.264C139.223 472.244 135.668 478.484 133.26 484.319C130.504 491.001 128.486 499.179 124.778 505.284C124.688 490.914 127.112 491.102 131.329 478.692L130.073 474.151Q135.206 468.854 141.14 464.473Z"/>
	<path fill="#FEFEFE" d="M438.456 317.466C438.783 317.831 438.58 317.551 438.746 318.46C432.236 330.004 423.258 340.612 415.329 351.215C410.167 358.118 405.472 365.401 400.24 372.23L399.369 372.137C398.359 371.35 397.701 370.917 397.183 369.705C399.806 364.098 432.891 322.682 438.456 317.466Z"/>
	<path fill="#FEFEFE" d="M242.896 470.911C243.211 473.441 224.957 518.438 222.514 524.48C221.333 525.134 219.488 524.731 218.12 524.645C217.883 524.407 217.79 524.06 217.644 523.757C224.166 504.32 230.883 487.683 242.896 470.911Z"/>
	<path fill="#FEFEFE" d="M155.833 457.598L156.692 457.704C157.132 460.572 136.005 499.172 133.045 505.416C130.979 509.773 129.402 514.287 127.847 518.843C127.476 518.894 127.101 518.765 126.731 518.709C126.192 515.927 145.481 468.797 148.096 459.755C150.632 458.735 153.174 458.174 155.833 457.598Z"/>
	<path fill="#FEFEFE" d="M891.746 475.883C893.739 477.969 894.551 484.481 895.201 487.406C891.458 498.186 888.244 509.085 884.223 519.778C881.958 519.994 879.65 520.006 877.375 520.098C876.224 520.079 875.796 520.226 874.781 519.625C877.966 511.986 881.286 504.345 884.13 496.571C886.656 489.669 888.744 482.599 891.746 475.883Z"/>
	<path fill="#FEFEFE" d="M457.388 345.722L462.911 347.746Q446.53 375.041 428.413 401.216C426.367 400.076 424.396 397.235 422.798 395.478C434.965 380.315 447.518 362.488 457.388 345.722Z"/>
	<path fill="#FEFEFE" d="M448.239 337.378C449.538 339.244 450.925 340.982 452.377 342.729C448.479 348.835 422.427 389.874 418.555 391.275C416.466 389.32 414.648 387.112 412.791 384.941C427.403 371.824 436.242 352.762 448.239 337.378Z"/>
	<path fill="#FEFEFE" d="M749.979 214.066C758.844 214.535 767.172 224.703 773.551 230.478L734.986 230.448Q724.911 230.615 714.837 230.453C716.357 229.142 717.887 227.802 719.636 226.802C725.096 223.679 728.618 225.891 733.95 227.387C743.203 229.982 741.814 218.461 749.466 214.334C749.636 214.243 749.808 214.156 749.979 214.066Z"/>
	<path fill="#FEFEFE" d="M441.519 324.384C443.183 325.737 444.221 329.671 445.022 331.667C438.194 342.7 417.892 373.3 408.945 381.099C407.208 379.524 405.588 377.801 403.937 376.137C409.072 369.585 413.701 362.67 418.586 355.934Q430.172 340.246 441.519 324.384Z"/>
	<path fill="#FEFEFE" d="M886.467 451.278C888.022 455.511 888.791 460.241 889.817 464.639C885.983 472.645 883.174 481.292 880.075 489.606Q874.23 505.053 867.96 520.332L860.875 520.596C859.921 520.684 859.78 520.658 858.825 520.29C860.363 513.985 863.999 507.713 866.422 501.664C873.143 484.884 879.975 468.15 886.467 451.278Z"/>
	<path fill="#FEFEFE" d="M879.996 435.243C881.967 437.157 883.074 439.406 884.09 441.921C875.826 460.367 868.622 479.449 860.896 498.142C857.81 505.608 854.974 513.388 851.328 520.589C850.034 521.521 848.175 521.363 846.632 521.456C845.342 521.45 843.585 521.771 842.533 521.029C847.733 508.45 854.048 496.219 859.42 483.672C866.293 467.619 872.384 450.937 879.996 435.243Z"/>
	<path fill="#FEFEFE" d="M187.317 432.508C187.179 435.657 182.234 442.649 180.623 445.498C171.236 462.103 161.986 478.694 153.413 495.74C149.507 503.506 145.348 511.239 142.321 519.398L136.053 519.025L135.409 518.235C134.973 512.014 154.085 478.223 157.911 470.537C160.953 464.427 163.616 458.156 166.539 451.991C174.532 447.559 181.068 439.141 187.317 432.508Z"/>
	<path fill="#FEFEFE" d="M214.259 406.542C214.424 409.01 192.079 448.635 189.169 454.321Q180.762 471.067 172.741 488.001C167.616 498.72 162.375 509.391 158.357 520.586C155.224 520.539 152.13 520.276 149.011 520.002L148.564 519.634C148.467 519.163 148.41 519.063 148.501 518.518C149.005 515.49 155.169 504.574 156.877 501.329C164.119 487.562 171.367 473.721 178.989 460.163C184.395 450.546 190.168 441.131 195.53 431.492C198.797 425.62 201.183 418.791 205.096 413.356C207.452 410.084 210.788 408.371 214.259 406.542Z"/>
	<path fill="#FEFEFE" d="M248.954 374.074C248.686 376.861 229.983 409.028 227.33 414.036Q206.385 452.669 187.541 492.369C182.933 502.041 177.562 511.456 173.887 521.536C170.478 521.49 167.097 521.281 163.696 521.048L163.423 520.821C163.458 515.523 175.253 496.35 178.344 490.355L215.222 419.687C218.421 413.688 220.857 406.672 224.757 401.125C226.855 398.141 230.465 396.153 232.962 393.464C238.606 387.387 243.64 380.47 248.954 374.074Z"/>
	<path fill="#FEFEFE" d="M271.557 351.548C273.026 351.425 273.905 351.491 275.321 351.899C274.03 355.999 270.955 360.405 268.922 364.268C263.456 374.655 257.816 384.996 252.532 395.475L188.57 521.948C187.288 522.84 185.466 522.501 183.967 522.459C182.651 522.287 180.62 522.312 179.621 521.493C182.669 514.602 186.566 508.106 189.822 501.31C196.197 488.006 202.272 474.49 208.995 461.362C218.771 442.272 229.329 423.532 239.604 404.712L257.317 372.874C260.455 367.218 263.148 360.994 266.911 355.735C268.237 353.881 269.629 352.74 271.557 351.548Z"/>
	<path fill="#FEFEFE" d="M289.804 198.407C300.757 199.37 298.956 212.203 306.38 214.782C309.074 214.032 308.593 210.949 310.507 210.146C311.873 209.573 313.306 209.711 314.666 210.241C322.221 213.18 331.207 231.789 334.266 239.222C328.905 239.565 323.397 239.11 318.014 239.053L287.291 238.964L241.056 238.694C247.55 232.042 259.025 220.396 266.497 215.471C268.397 216.862 270.587 218.609 273.108 218.179C274.321 217.971 275.047 217.181 275.603 216.141C276.847 213.818 276.092 210.9 275.339 208.58C279.721 204.618 284.775 201.47 289.804 198.407Z"/>
	<path fill="#FEFEFE" d="M685.052 254.185C692.933 258.893 694.717 270.794 701.174 277.268C706.727 282.836 715.27 284.638 720.378 290.441C723.795 294.323 726.914 307.044 726.286 312.191C725.211 321.008 709.076 317.178 703.379 318.79C699.935 319.765 696.87 322.35 694.041 324.445C689.606 327.565 683.905 331.872 678.156 330.707C668.65 328.781 666.078 314.008 663.01 306.507C661.823 303.605 660.301 301.104 658.502 298.545C663.11 290.742 669.877 284.505 674.639 276.873C678.945 269.972 680.87 261.919 684.724 254.78L685.052 254.185Z"/>
	<path fill="#FEFEFE" d="M316 306.901C323.578 313.652 332.778 318.648 340.995 324.597C356.463 335.795 368.401 349.717 380.053 364.688C379.715 366.167 379.44 367.845 378.7 369.184C374.885 376.09 361.323 371.381 354.673 373.327C346.419 375.743 343.105 383.95 339.464 390.921C339.15 391.467 338.841 391.994 338.472 392.507C336.859 394.752 335.139 396.535 332.28 396.884C330.289 397.127 328.453 396.691 326.689 395.761C323.144 393.891 320.585 390.405 317.198 388.275C312.085 385.06 306.349 383.56 301.628 379.54C290.01 369.647 293.932 363.067 292.369 350.995C291.952 347.778 289.815 345.888 287.444 343.935C285.171 343.531 282.805 343.415 280.505 343.196C294.456 333.103 305.372 320.299 316 306.901Z"/>
	<path fill="#FEFEFE" d="M493.046 265.179C493.729 265.129 494.567 265.019 495.261 265.101C497.613 265.378 500.77 268.058 502.644 269.54C509.337 274.833 515.31 281.137 521.672 286.824C529.432 293.76 537.663 300.15 545.188 307.352C551.093 313.005 556.643 319 562.215 324.977L562.032 325.516C555.08 345.691 547.579 332.716 536.004 339.836C530.051 343.498 528.803 350.279 524.983 355.604C522.708 358.776 519.787 360.925 516.719 363.266C516.27 363.454 516.307 363.449 515.752 363.623C515.095 363.83 514.409 364 513.733 364.129C513.088 364.251 512.804 364.288 512.15 364.315C508.645 364.458 505.609 363.416 502.847 361.271C496.443 356.297 493.533 347.809 486.541 343.482C478.39 338.438 466.868 342.031 460.917 338.73C452.163 333.875 450.231 317.338 448.102 308.401C456.305 302.399 463.653 294.034 469.354 285.644C472.125 281.566 474.609 277.183 477.625 273.288C482.287 267.266 485.659 266.114 493.046 265.179Z"/>
	<path fill="#FEFEFE" d="M611.202 537.217Q614.849 537.253 618.495 537.379C636.732 538.082 650.153 544.612 663.978 556.063C667.808 559.235 671.943 562.515 675.248 566.229C677.601 568.874 679.42 571.361 679.086 575.041C678.772 578.512 676.873 581.667 674.795 584.38C667.112 594.411 655.518 603.706 646.206 612.442C615.489 641.26 584.262 669.855 550.04 694.524C540.28 701.559 530.329 708.47 520.029 714.698C517.305 716.345 508.668 720.36 507.102 722.13C506.111 723.25 506.24 723.68 506.305 725.077C507.553 727.524 555.177 768.524 562.062 775.035Q585.608 797.163 607.916 820.538C623.777 837.164 639.203 854.451 656.781 869.309C648.227 873.151 639.002 875.778 630.032 878.461Q622.635 880.684 615.161 882.636Q607.688 884.589 600.149 886.268Q592.61 887.948 585.014 889.353Q577.419 890.757 569.778 891.885Q562.136 893.013 554.459 893.862Q546.782 894.711 539.079 895.281Q531.375 895.85 523.657 896.14Q515.938 896.429 508.214 896.438Q495.264 896.276 482.35 895.302Q469.436 894.329 456.608 892.549Q443.78 890.768 431.089 888.188Q418.398 885.607 405.893 882.236C411.848 878.282 417.815 874.28 423.486 869.924C430.95 864.19 459.437 840.64 460.856 832.369C461.261 830.005 460.34 828.179 458.837 826.426C454.887 821.816 449.662 818.347 445.348 814.073C431.365 800.22 417.667 786.094 405.893 770.279C398.734 760.664 387.901 745.534 390.06 732.821C393.855 710.469 444.697 681.543 464.315 671.741C474.542 666.63 486.99 662.664 496.128 655.912C498.002 654.526 498.818 652.961 499.191 650.702C497.947 646.752 492.004 643.109 488.951 640.247C519.027 625.384 550.056 612.318 580.338 597.854C594.968 590.866 610.883 583.78 624.262 574.625C629.56 571 635.851 566.265 636.944 559.535C637.451 556.418 636.764 553.466 634.898 550.91C627.907 541.331 610.748 540.132 600.068 538.461C603.813 537.729 607.389 537.394 611.202 537.217Z"/>
	<path d="M563.147 619.308C563.898 619.341 564.788 619.329 565.513 619.523C566.797 619.868 567.345 620.35 568.033 621.444C568.329 623.191 567.966 624.18 567.342 625.814C566.621 625.923 565.461 626.166 564.74 625.969C564.009 625.77 563.334 625.445 562.935 624.786C561.878 623.039 562.602 621.096 563.147 619.308Z"/>
	<path d="M523.546 686.508C525.194 686.553 526.621 686.961 528.025 687.838C528.319 688.997 528.43 689.357 527.713 690.457C525.935 693.188 522.2 693.919 519.298 694.686C517.553 694.629 515.204 694.446 513.825 693.264C513.27 692.788 513.488 692.375 513.501 691.714C515.773 688.511 520.001 687.629 523.546 686.508Z"/>
	<path d="M475.237 828.408C478.435 828.729 481.679 828.774 484.863 829.171C487.184 829.46 488.877 829.577 490.374 831.486C490.317 833.029 490.093 833.302 489.252 834.624C486.762 835.576 484.216 836.119 481.538 836.081C479.492 836.052 477.178 835.595 475.864 833.858C474.586 832.166 474.89 830.33 475.237 828.408Z"/>
	<path d="M455.733 763.157C460.974 763.648 466.842 762.667 471.896 763.815C473.172 764.104 473.567 764.474 474.264 765.535C473.982 767.188 473.549 767.455 472.446 768.666C468.472 770.423 464.795 770.499 460.601 769.558C458.447 769.075 456.132 768.256 454.944 766.29C454.963 764.776 454.987 764.462 455.733 763.157Z"/>
	<path d="M451.493 867.802C456.355 868.129 461.514 868.037 466.315 868.834C468.406 869.18 469.647 869.464 470.914 871.22C470.819 872.701 470.611 872.995 469.8 874.259C467.054 875.242 464.458 875.553 461.557 875.494C458.443 875.43 454.549 874.78 452.458 872.199C451.317 870.792 451.435 869.502 451.493 867.802Z"/>
	<path d="M418.654 724.94C422.682 725.695 426.819 726.987 430.902 727.234C433.491 727.391 436.749 726.273 439.151 727.169L439.628 728.272C439.261 729.892 438.926 730.369 437.722 731.514C435.523 732.505 433.296 733.251 430.886 733.498C427.506 733.844 423.628 733.538 421.002 731.133C419.074 729.366 418.796 727.441 418.654 724.94Z"/>
	<path d="M520.671 781.012C526.785 781.829 533.933 780.487 539.764 781.987C541.039 782.316 541.609 782.611 542.272 783.731C541.751 785.273 541.194 785.495 539.94 786.482C535.138 788.295 528.399 788.608 523.408 787.272C521.67 786.806 520.662 786.288 519.739 784.69C519.551 783.065 519.91 782.37 520.671 781.012Z"/>
	<path d="M565.345 801.159C566.616 800.93 568.087 800.787 569.26 801.414C569.945 801.78 569.896 802.097 570.145 802.764C569.977 803.764 569.71 804.399 568.958 805.114C564.991 808.884 558.681 808.547 553.625 808.359C551.412 807.853 548.82 807.125 547.541 805.073C547.123 804.404 547.293 804.557 547.556 803.687C551.21 801.237 559.808 802.161 564.408 801.332L565.345 801.159Z"/>
	<path d="M520.472 670.662C525.076 670.568 529.905 670.193 534.489 670.531C536.764 670.698 538.581 670.783 540.131 672.557L539.951 673.82C538.904 675.217 537.762 675.977 536.308 676.922C531.687 678.1 526.168 678.206 521.612 676.574C520.02 676.004 519.234 675.412 518.514 673.894C518.848 672.244 519.317 671.79 520.472 670.662Z"/>
	<path d="M636.092 580.124C641.127 579.609 650.737 579.214 655.151 581.888C656.311 582.591 656.511 583.167 656.832 584.428C656.34 586.099 656.514 586.18 655.016 587.011C650.339 587.157 638.273 588.648 634.776 585.348C633.832 584.458 633.826 583.783 633.694 582.589C634.243 581.204 634.888 580.894 636.092 580.124Z"/>
	<path d="M479.607 804.134C483.998 804.465 497.91 803.516 500.855 805.614C501.498 806.072 501.379 806.524 501.506 807.241C500.855 808.806 500.136 809.411 498.792 810.415C493.405 812.273 487.227 812.583 481.83 810.466C480.053 809.769 478.929 808.992 478.147 807.24C478.375 805.791 478.633 805.231 479.607 804.134Z"/>
	<path d="M475.201 680.751C478.049 680.727 480.899 681.355 483.744 681.533C486.349 681.696 488.969 681.594 491.577 681.675C494.115 681.753 496.754 681.61 498.592 683.568C498.51 685.083 498.254 685.283 497.344 686.529C494.788 688.01 492.529 689.065 489.553 689.346C485.408 689.736 480.77 689.105 477.553 686.244C475.677 684.577 475.39 683.196 475.201 680.751Z"/>
	<path d="M589.978 843.293C592.271 843.52 594.496 844.103 596.801 844.235C601.988 844.532 607.219 844.026 612.419 844.06C613.415 844.644 613.811 844.791 614.115 846.007C614.458 847.386 613.819 848.752 613.12 849.877C610.582 850.806 608.12 851.365 605.411 851.479C600.976 851.667 594.94 851.35 591.608 848.087C590.099 846.61 589.943 845.284 589.978 843.293Z"/>
	<path d="M580.124 631.612C586.407 631.779 594.031 631.139 600.071 632.461C601.612 632.798 602.422 633.126 603.265 634.466L602.966 635.594C601.849 636.931 600.81 637.445 599.239 638.163Q597.941 638.49 596.625 638.737C592.023 639.602 582.172 639.68 578.531 636.443C577.747 635.746 577.56 634.78 577.79 633.776C578.12 632.337 578.931 632.186 580.124 631.612Z"/>
	<path d="M498.27 879.981C502.764 880.758 507.227 881.396 511.796 881.456C514.356 881.49 521.513 880.836 523.392 881.627C523.816 881.805 524.131 882.173 524.501 882.446C524.644 882.901 524.803 883.301 524.791 883.798C524.756 885.221 524.072 886.05 523.117 886.991C519.778 888.12 516.673 888.483 513.176 888.464C508.781 888.439 502.678 887.961 499.53 884.556C498.187 883.102 498.15 881.816 498.27 879.981Z"/>
	<path d="M457.361 725.482C460.017 725.867 462.701 726.285 465.389 726.334C469.683 726.413 476.722 724.865 480.64 726.288C481.711 726.677 481.791 726.942 482.263 727.899C481.836 729.551 481.304 729.869 480.108 731.04C475.334 733.27 469.591 734.226 464.347 733.665C462.027 733.417 459.001 732.804 457.653 730.652C456.602 728.973 456.811 727.263 457.361 725.482Z"/>
	<path d="M541.565 647.248C546.273 648.363 550.385 650.273 555.334 650.341C559.268 650.395 563.73 648.897 567.546 649.549C567.909 650.018 568.346 650.286 568.253 650.92C568.005 652.618 566.241 653.75 564.965 654.702Q563.938 655.195 562.872 655.595Q561.805 655.995 560.707 656.299Q559.609 656.602 558.489 656.807Q557.368 657.011 556.234 657.116Q555.099 657.22 553.96 657.222Q552.821 657.225 551.686 657.126Q550.551 657.028 549.43 656.828Q548.308 656.629 547.209 656.331C544.924 655.716 542.26 654.653 541.194 652.35C540.327 650.475 540.755 649.018 541.565 647.248Z"/>
	<path d="M562.281 819.66C568.008 820.184 573.519 821.529 579.336 821.507C581.826 821.498 586.118 820.476 588.32 821.455C588.979 821.748 589.083 822.399 589.375 823.009C589.187 824.506 588.611 825.248 587.735 826.406C585.06 827.782 582.264 828.519 579.276 828.775C574.35 829.198 568.156 828.705 564.344 825.257C562.523 823.611 562.457 821.962 562.281 819.66Z"/>
	<path d="M441.188 700.758C445.438 701.278 449.704 701.801 453.989 701.89C457.553 701.964 463.96 700.837 467.139 701.635C468.133 701.884 468.19 702.416 468.582 703.258C468.335 704.854 467.791 705.482 466.748 706.62C463.386 708.37 459.41 709.174 455.646 709.403C451.701 709.643 445.709 709.462 442.815 706.419C441.23 704.752 441.317 702.919 441.188 700.758Z"/>
	<path d="M526.202 855.244C530.902 855.521 535.305 857.236 540.155 857.243C544.209 857.249 550.743 854.645 554.21 855.726C554.934 855.951 554.945 856.383 555.264 857C554.946 858.39 553.974 859.141 552.994 860.096C548.017 863.229 542.291 864.451 536.452 863.996C532.979 863.726 528.895 863.103 526.625 860.158C525.347 858.5 525.864 857.123 526.202 855.244Z"/>
	<path d="M586.593 607.773C590.624 608.483 594.87 610.255 598.951 610.393C603.477 610.547 608.146 609.476 612.659 610.167C614.189 610.401 615.06 610.822 615.933 612.086C615.608 613.708 615.305 613.936 614.228 615.121C610.541 616.639 606.698 617.386 602.722 617.487C597.988 617.607 591.745 616.921 588.287 613.398C586.545 611.623 586.557 610.116 586.593 607.773Z"/>
	<path fill="#FEFEFE" d="M500.91 127.222C535.229 125.475 569.471 130.091 602.833 137.706C613.478 140.136 624.084 142.64 634.463 146.06C671.572 158.287 717.067 182.073 747.325 206.837C741.547 210.58 738.067 213.216 735.973 220.035C734.363 219.345 732.747 218.678 731.053 218.222C725.8 216.807 720.001 217.437 715.289 220.205C711.058 222.691 708.918 226.129 707.695 230.77C701.444 230.65 681.358 229.188 676.645 231.898C675.241 232.705 674.681 233.587 674.224 235.098L674.873 236.241C676.35 237.177 677.559 237.513 679.296 237.735C687.692 238.811 696.82 237.945 705.327 237.943L759.318 237.977C767.103 237.986 775.737 237.229 783.381 238.606C792.921 247.016 801.36 257.262 809.43 267.061Q813.241 271.642 816.904 276.342Q820.567 281.042 824.077 285.857Q827.588 290.672 830.943 295.596Q834.298 300.521 837.494 305.55Q840.691 310.579 843.724 315.708Q846.758 320.836 849.627 326.059Q852.495 331.282 855.195 336.594Q857.896 341.906 860.425 347.302Q862.954 352.697 865.309 358.171Q867.665 363.644 869.844 369.19Q872.024 374.736 874.025 380.349Q876.026 385.962 877.847 391.635Q879.668 397.309 881.307 403.038Q882.945 408.767 884.4 414.546Q885.855 420.324 887.125 426.146Q888.394 431.968 889.477 437.828C880.51 417.892 871.991 429.301 865.447 422.187C857.694 413.758 859.945 398.228 852.01 390.067C848.689 386.652 843.763 384.476 839.748 381.929Q833.779 378.119 828.375 373.543C819.459 365.892 813.071 354.355 803.278 348.061C793.953 342.067 782.436 339.925 773.767 332.946C761.729 323.255 752.492 309.403 742.164 297.914C739.474 294.921 736.665 291.42 733.534 288.907C731.739 287.467 729.253 286.789 727.266 285.615C724.035 283.708 721.05 281.324 717.839 279.343C713.943 276.941 710.097 274.898 706.895 271.545C701.234 265.617 699.16 257.44 693.609 251.579C691.073 248.901 687.165 246.378 683.304 246.604C677.448 246.946 671.949 265.162 669.539 269.8C667.467 273.787 664.786 277.693 661.796 281.05C658.588 284.651 655.405 288.11 652.513 291.989C645.092 301.946 638.041 314.372 628.531 322.424C616.035 333.003 604.739 332.043 592.688 345.029C583.918 339.63 578.88 332.375 572.367 324.598Q565.824 316.805 558.62 309.619C553.04 304.134 547.415 298.595 541.512 293.461C536.317 288.942 530.831 284.763 525.664 280.21C518.833 274.191 512.433 267.743 505.469 261.856C503.369 260.123 501.424 258.578 498.997 257.313C492.756 257.464 484.538 257.502 479.206 260.981C468.834 267.749 463.193 282.006 455.37 291.434C449.422 298.604 440.995 303.185 434.423 309.757C421.795 322.387 406.057 349.663 389.577 355.298C387.465 356.02 385.378 356.186 383.427 354.933C380.312 352.932 377.464 348.998 375.107 346.198C365.404 334.673 355.057 325.241 342.681 316.629C337.406 312.959 331.511 309.585 326.541 305.557C323.968 303.473 320.599 298.519 317.54 297.507C316.911 297.299 315.313 297.387 314.709 297.589C311.062 298.81 302.992 311.169 300.088 314.653C294.942 320.827 288.872 327.002 282.246 331.605C276.168 335.827 269.546 339.261 264.324 344.602C256.714 352.384 249.6 361.237 242.858 369.792C237.645 376.407 232.578 383.695 226.234 389.262C217.777 396.684 206.685 399.965 198.541 407.742C194.317 411.776 190.957 416.669 187.234 421.151C183.724 425.376 179.887 429.345 176.197 433.412C173.366 436.53 170.761 439.743 167.312 442.22C160.936 446.8 152.598 448.883 145.457 452.051C139.407 454.735 133.99 458.25 128.485 461.879C131.149 447.364 133.607 432.956 137.378 418.666Q138.962 412.655 140.732 406.697Q142.502 400.738 144.456 394.837Q146.409 388.936 148.545 383.099Q150.68 377.261 152.996 371.493Q155.311 365.724 157.804 360.03Q160.297 354.336 162.965 348.722Q165.634 343.108 168.475 337.579Q171.315 332.05 174.326 326.612Q177.337 321.174 180.515 315.832Q183.693 310.49 187.035 305.249Q190.377 300.008 193.88 294.873Q197.382 289.738 201.042 284.714Q204.703 279.69 208.517 274.782Q212.331 269.873 216.295 265.086Q220.259 260.298 224.37 255.635Q228.481 250.973 232.734 246.44C245.615 245.731 258.752 246.317 271.665 246.36L346.09 246.324C358.766 246.348 371.751 247.02 384.389 246.547C385.871 246.491 388.004 246.198 389.26 245.345C390.429 244.551 390.512 244.214 390.859 242.932C390.55 242.002 390.338 241.507 389.595 240.825C386.181 237.686 372.468 239.019 367.525 238.976C364.658 231.677 359.529 224.886 350.958 224.843C348.819 224.832 346.07 225.626 344.121 224.66C342.725 222.886 341.426 221.444 339.676 220.007L339.193 219.617C337.056 219.306 334.93 219.243 332.775 219.161C330.308 214.542 327.319 209.786 323.176 206.487C318.509 202.77 313.443 202.031 307.662 202.779C304.448 198.608 301.378 195.186 297.122 192.063C329.611 169.401 365.677 153.747 403.502 142.595C414.193 139.443 424.917 136.381 435.867 134.253C457.233 130.099 479.175 128.03 500.91 127.222Z"/>
	<path d="M529.364 172.582C534.306 172.189 538.713 172.27 543.117 174.869C548.992 178.337 552.014 183.941 553.637 190.326C559.701 190.635 570.068 189.16 575.424 191.026C576.6 192.109 576.924 192.712 577.427 194.23C577.264 195.026 577.327 195.544 576.702 196.127C575.257 197.475 573.111 197.784 571.216 197.955C562.099 198.775 552.139 197.887 542.934 197.848L480.175 197.519C474.195 197.527 435.181 198.519 432.024 197.025C431.268 195.972 431.02 195.669 430.971 194.323C430.937 193.403 431.225 192.244 431.911 191.593C432.996 190.565 434.416 190.489 435.834 190.354C443.592 189.614 451.838 190.104 459.648 190.089L511.575 190.142Q512.592 187.31 513.986 184.644C517.426 178.2 522.551 174.726 529.364 172.582Z"/>
	<path fill="#FEFEFE" d="M529.734 180.082C532.528 179.737 535.162 179.932 537.832 180.882C542.535 182.556 544.74 186.243 546.783 190.472L537.077 190.487L519.347 190.465Q519.71 189.58 520.109 188.711C522.355 183.841 524.814 181.926 529.734 180.082Z"/>
</svg>
