<?xml version="1.0" encoding="utf-8" ?>
<svg xmlns="http://www.w3.org/2000/svg" xmlns:xlink="http://www.w3.org/1999/xlink" width="1024" height="1024">
	<path fill="#FEFDFA" d="M0 0L1024 0L1024 1024L0 1024L0 0Z"/>
	<path fill="#2F0D0C" d="M47.6493 656.154C48.1016 656.197 48.8202 656.253 49.2445 656.351C50.3393 656.604 50.9266 656.848 51.3779 657.914C51.6656 658.594 56.9414 680.87 56.9297 680.98C56.8695 681.539 56.5037 682.021 56.2907 682.542L54.2011 682.535C53.3914 682.193 53.0493 681.932 52.5372 681.185C49.5556 676.839 46.4588 661.306 47.6493 656.154Z"/>
	<path fill="#2F0D0C" d="M49.7848 609.738C50.3379 609.91 51.2499 610.117 51.7672 610.431C52.3156 610.763 52.9494 611.195 53.0921 611.856C53.7265 614.795 51.6293 622.206 51.2167 625.528C50.8049 628.843 50.9259 632.445 50.2511 635.695C50.0818 636.51 49.7215 637.081 49.308 637.788C48.8559 637.718 48.1785 637.631 47.7608 637.484C47.1414 637.267 46.3329 636.928 46.0744 636.283C44.3792 632.058 47.6239 614.184 49.7848 609.738Z"/>
	<path fill="#2F0D0C" d="M62.6533 699.203L64.4844 699.504C65.815 700.639 77.8895 719.617 78.5239 721.617C78.9248 722.882 78.462 723.208 77.8477 724.299L75.7822 723.923C70.9883 720.145 63.3056 707.915 61.9165 702.034C61.5936 700.666 61.989 700.37 62.6533 699.203Z"/>
	<path fill="#2F0D0C" d="M89.7168 737.808C90.3351 737.83 91.1015 737.835 91.6931 738.014C94.1723 738.765 107.888 752.388 109.037 754.705C109.772 756.186 109.361 756.781 108.925 758.224C108.317 758.192 107.883 758.196 107.271 758.029C103.846 757.098 91.5424 744.726 89.7705 741.423C89.0352 740.053 89.3713 739.261 89.7168 737.808Z"/>
	<path fill="#2F0D0C" d="M68.6363 566.244C69.4895 566.692 70.114 566.964 70.6881 567.775C71.0897 568.342 71.1142 568.754 70.9129 569.436C70.5509 570.661 60.1506 592.129 60.0687 592.238C59.7929 592.606 58.7784 593.109 58.3585 593.392C57.1368 592.54 56.0319 591.699 55.7401 590.212C57.608 584.447 64.1589 569.908 68.6363 566.244Z"/>
	<path fill="#2F0D0C" d="M160.837 794.232C161.056 794.246 161.277 794.245 161.495 794.275C164.822 794.726 183.632 804.868 185.463 807.406C185.486 809.028 185.004 809.622 184.25 811.032C177.642 808.036 164.91 802.275 159.871 797.48C159.661 795.978 160.135 795.544 160.837 794.232Z"/>
	<path fill="#2F0D0C" d="M97.0341 528.268C97.4156 528.372 97.8496 528.462 98.1787 528.697C99.3482 529.53 99.4382 530.073 99.6263 531.374C98.8548 533.317 84.0897 551.279 82.465 552.732C82.1125 552.622 81.7142 552.516 81.3986 552.321C80.2422 551.607 80.1716 551.309 79.9417 550.07C81.4897 544.022 92.318 532.815 97.0341 528.268Z"/>
	<path fill="#2F0D0C" d="M202.158 815.242C206.211 816.064 225.952 823.905 228.417 826.416C228.75 827.847 228.217 828.758 227.654 830.034C222.123 828.963 205.419 822.373 201.48 818.83C201.082 817.17 201.494 816.773 202.158 815.242Z"/>
	<path fill="#2F0D0C" d="M122.591 768.233C122.875 768.247 123.159 768.254 123.442 768.273C126.498 768.478 143.389 780.954 145.548 783.437C145.754 785.007 145.352 785.795 144.685 787.153C138.612 785.355 125.909 776.407 121.98 771.333C121.612 769.759 121.836 769.695 122.591 768.233Z"/>
	<path fill="#2F0D0C" d="M457.68 386.528C458.931 386.323 459.732 386.264 460.967 386.568C461.585 387.623 461.514 387.706 461.367 388.935C460.791 389.717 460.268 390.248 459.391 390.662C457.552 391.529 455.413 391.746 453.463 392.297C446.844 394.167 440.302 396.181 433.64 397.94C432.308 398.068 431.745 398.281 430.534 397.662C430.011 396.321 429.978 396.431 430.55 395.118C435.349 391.353 450.935 388.491 457.68 386.528Z"/>
	<path fill="#2F0D0C" d="M405.733 400.529C407.307 400.416 407.77 400.232 409.177 401.023C409.416 401.737 409.719 401.97 409.302 402.683C407.331 406.055 385.163 411.037 380.431 412.338L377.722 412.662C376.637 412.203 376.473 412.185 375.843 411.209L376.313 410.086C380.711 406.266 399.05 402.413 405.733 400.529Z"/>
	<path fill="#2F0D0C" d="M140.084 494.33C140.305 494.425 140.549 494.481 140.749 494.617C141.904 495.406 142.161 496.017 142.524 497.27C142.366 497.797 142.304 498.363 142.051 498.851C141.221 500.454 121.252 514.056 118.215 515.836C117.888 515.768 117.418 515.684 117.121 515.548C116.075 515.066 116.065 514.758 115.804 513.734C117.961 508.94 134.856 498.077 140.084 494.33Z"/>
	<path fill="#2F0D0C" d="M297.738 429.028C297.926 429.065 298.122 429.071 298.301 429.139C299.603 429.635 299.755 430.209 300.358 431.377L300.066 432.241C295.096 435.778 276.87 439.699 270.108 441.595C269.722 441.641 269.122 441.731 268.748 441.681C267.503 441.514 267.341 441.074 266.749 440.104L267.032 439.049C270.778 435.184 291.616 430.793 297.738 429.028Z"/>
	<path fill="#2F0D0C" d="M352.321 414.538C352.515 414.551 352.716 414.529 352.905 414.579C354.095 414.89 354.685 415.747 355.336 416.697L355.121 417.786C352.072 420.499 330.613 424.832 325.128 426.217C324.453 426.399 323.693 426.413 322.996 426.483L322.252 425.867C321.924 424.512 321.691 424.343 322.325 423.128C327.9 419.398 344.948 416.639 352.321 414.538Z"/>
	<path fill="#2F0D0C" d="M242.995 446.492C244.025 446.523 244.28 446.697 245.154 447.185C245.835 448.336 245.804 448.345 245.609 449.675C243.178 452.818 221.49 459.397 216.179 461.407C216.081 461.417 215.983 461.447 215.886 461.437C214.737 461.321 214.173 461.389 213.433 460.491C213.441 459.794 213.418 459.083 213.818 458.47C214.628 457.226 216.536 456.081 217.864 455.463C221.174 453.923 225.07 453.191 228.543 452.017C233.387 450.38 238.192 448.288 242.995 446.492Z"/>
	<path fill="#2F0D0C" d="M189.926 467.43C190.782 467.483 191.467 467.654 192.292 467.87C193.074 468.893 193.172 468.855 193.077 470.121C189.663 474.356 170.691 482.338 164.859 485.337C163.833 485.451 163.35 485.446 162.409 485.008C161.747 483.822 161.736 483.921 162.089 482.614C166.694 477.771 183.243 470.803 189.926 467.43Z"/>
	<path fill="#2F0D0C" d="M246.362 832.494C254.45 834.711 287.841 845.067 293.609 848.71C294.172 850.172 293.551 851.579 293.156 853.022C283.504 849.174 273.488 845.913 263.577 842.788C258.405 841.158 252.873 839.785 247.874 837.701C246.716 837.218 245.756 836.878 245.017 835.816C245.067 834.222 245.509 833.806 246.362 832.494Z"/>
	<path fill="#2F0D0C" d="M376.047 948.568C376.695 948.487 377.595 948.31 378.265 948.372C379.466 948.482 380.041 948.879 380.829 949.738L380.609 950.745C376.162 955.103 315.404 971.275 304.623 974.706C303.153 975.176 302.405 975.418 300.875 974.867C300.245 973.923 299.998 973.476 300.435 972.278C300.499 972.104 301.009 971.344 301.211 971.193C303.413 969.555 366.669 951.338 376.047 948.568Z"/>
	<path fill="#2F0D0C" d="M420.904 803.13C427.833 804.163 434.687 806.108 441.542 807.587C448.072 808.996 455.152 810.003 461.487 812.078C463.339 812.685 465.324 813.49 466.631 814.978L466.551 815.749C466.392 815.856 466.243 815.98 466.073 816.069C464.369 816.961 461.872 816.751 460.026 816.518C455.282 815.92 450.426 814.076 445.742 812.984C437.376 811.032 428.902 809.521 420.554 807.521C409.785 811.356 398.508 814.084 387.489 817.112L338.743 830.566C330.48 832.875 299.835 842.956 293.753 841.046L293.451 840.214C294.163 839.142 294.87 838.102 296.116 837.598C299.947 836.045 304.565 835.149 308.593 834.08C317.058 831.834 325.54 829.691 333.969 827.305L379.637 814.594C393.283 810.663 407.057 806.229 420.904 803.13Z"/>
	<path fill="#2F0D0C" d="M235.126 862.076L236.029 861.962C236.907 862.728 236.686 862.348 237.091 863.415C237.475 864.423 237.222 864.461 236.836 865.392C235.45 866.494 233.985 867.11 232.293 867.63C218.314 871.928 203.729 875.121 189.583 878.953C173.612 883.279 157.836 888.254 141.876 892.6C116.336 899.555 90.5178 906.033 65.2794 914.02C65.1669 913.996 65.0485 913.99 64.9421 913.947C63.7435 913.456 63.2803 913.26 62.6602 912.179C62.7587 911.889 62.829 911.589 62.9559 911.311C63.1683 910.845 63.5362 910.499 63.9369 910.193C67.4996 907.472 218.606 866.397 235.126 862.076Z"/>
	<path fill="#2F0D0C" d="M317.815 854.211C324.058 855.243 330.424 857.491 336.545 859.163C352.236 863.448 367.81 868.129 383.513 872.367L552.598 918.5L681.502 953.964L716.855 963.572C721.303 964.79 726.174 965.566 730.481 967.139C731.704 967.586 732.41 968.102 733.189 969.171C733.282 970.866 733.004 971.109 732.169 972.527C725.295 971.938 709.884 966.599 702.537 964.566Q667.051 955.073 631.731 944.975L404.742 882.73L348.694 867.274C339.608 864.827 330.163 862.918 321.261 859.878C319.67 859.335 318.287 858.76 316.969 857.704C316.693 856.117 317.145 855.642 317.815 854.211Z"/>
	<path fill="#CBA198" d="M796.475 239.71Q798.894 243.228 801.226 246.803Q803.558 250.379 805.803 254.01Q808.048 257.642 810.203 261.327Q812.359 265.011 814.425 268.747Q816.49 272.484 818.464 276.269Q820.438 280.054 822.32 283.886Q824.201 287.719 825.988 291.595Q827.776 295.472 829.469 299.391Q831.161 303.311 832.758 307.27Q834.355 311.229 835.856 315.226Q837.356 319.223 838.758 323.255Q840.161 327.287 841.465 331.352Q842.769 335.417 843.973 339.513Q845.178 343.608 846.283 347.732Q847.388 351.855 848.392 356.005Q849.396 360.154 850.299 364.327Q851.202 368.499 852.003 372.692Q852.804 376.886 853.503 381.097Q854.202 385.309 854.798 389.536Q855.395 393.763 855.888 398.004Q856.381 402.244 856.771 406.495Q857.161 410.747 857.448 415.006Q857.734 419.265 857.917 423.531Q858.1 427.796 858.179 432.064Q858.258 436.332 858.233 440.602Q858.209 444.871 858.08 449.138Q857.951 453.405 857.719 457.668Q857.487 461.93 857.151 466.186Q856.815 470.442 856.375 474.689Q855.936 478.935 855.393 483.169Q854.851 487.404 854.205 491.624Q853.56 495.844 852.812 500.047C848.261 525.402 841.035 551.172 831.026 574.929C826.733 585.119 818.173 600.546 815.468 610.329C815.955 610.946 816.22 610.955 817.029 611.075C818.295 611.262 819.498 611.118 820.772 611.429C816.533 611.696 812.167 611.182 807.891 611.25C814.854 600.189 822.026 582.689 826.886 570.282C830.75 560.419 834.584 550.584 837.62 540.427Q839.216 535.043 840.642 529.611Q842.067 524.179 843.321 518.704Q844.575 513.23 845.656 507.719Q846.737 502.208 847.644 496.666Q848.551 491.124 849.283 485.556Q850.015 479.988 850.571 474.399Q851.128 468.811 851.508 463.208Q851.888 457.605 852.092 451.993Q852.295 446.38 852.322 440.764Q852.349 435.149 852.199 429.535Q852.049 423.921 851.723 418.314Q851.396 412.708 850.893 407.114Q850.39 401.521 849.712 395.946Q849.033 390.371 848.179 384.821Q847.325 379.27 846.297 373.749Q845.269 368.228 844.067 362.742C838.032 336.25 829.474 308.944 817.05 284.704C813.871 278.5 810.696 272.217 807.242 266.161C803.864 260.237 798.546 254.35 796.694 247.756C796.027 245.38 796.446 242.196 796.475 239.71Z"/>
	<path fill="#2F0D0C" d="M126.35 787.21C126.806 787.342 128.07 787.547 128.394 787.802C130.681 789.609 133.32 798.895 135.512 802.031C137.623 805.051 140.569 807.916 143.316 810.365C157.599 823.096 177.72 832.177 195.386 839.199C220.62 849.228 246.935 856.986 272.96 864.687Q316.434 877.541 360.09 889.763L532.709 938.478L620.738 963.101C633.476 966.709 648.195 969.977 660.478 974.154C662.22 974.746 663.812 975.343 665.079 976.715C665.32 978.153 665.068 978.411 664.451 979.76C656.823 979.47 640.879 973.662 632.622 971.295L571.399 953.986C485.026 929.85 398.423 906.235 312.391 880.908C287.02 873.44 261.592 866.323 236.367 858.352C213.107 851.003 190.199 843.275 168.5 832.011C154.285 824.632 131.116 811.556 126.286 795.167C125.387 792.116 124.84 790.1 126.35 787.21Z"/>
	<path fill="#CBA198" d="M481.424 59.7245Q482.086 59.6818 482.749 59.6635Q486.419 59.5401 490.09 59.486Q493.762 59.4319 497.433 59.4471Q501.105 59.4624 504.776 59.5471Q508.447 59.6317 512.115 59.7857Q515.784 59.9397 519.449 60.163Q523.114 60.3862 526.774 60.6787Q530.435 60.9712 534.089 61.3328Q537.743 61.6943 541.389 62.1249Q545.036 62.5554 548.673 63.0548Q552.311 63.5542 555.938 64.1222Q559.566 64.6902 563.182 65.3266Q566.799 65.963 570.402 66.6677Q574.006 67.3723 577.595 68.1449Q581.185 68.9175 584.759 69.7578Q588.334 70.5981 591.892 71.5058Q595.45 72.4134 598.99 73.3881Q602.53 74.3629 606.051 75.4043Q609.572 76.4457 613.073 77.5535Q616.573 78.6613 620.053 79.835Q623.532 81.0087 626.988 82.2479Q630.445 83.4872 633.877 84.7915Q637.309 86.0958 640.716 87.4647Q644.123 88.8336 647.504 90.2667Q650.885 91.6998 654.238 93.1964Q657.591 94.6931 660.915 96.2528Q664.239 97.8126 667.533 99.4349Q670.827 101.057 674.09 102.741Q677.352 104.426 680.583 106.171Q683.813 107.917 687.01 109.723Q690.207 111.529 693.369 113.396Q696.531 115.262 699.657 117.188Q702.784 119.114 705.873 121.098C717.841 128.935 729.888 136.977 740.277 146.878C723.853 138.452 708.918 127.319 692.924 118.125Q684.908 113.489 676.685 109.23Q668.462 104.97 660.051 101.097Q651.64 97.2227 643.059 93.7428Q634.477 90.2629 625.744 87.1843Q617.01 84.1057 608.143 81.4352Q599.276 78.7646 590.295 76.5077Q581.314 74.2509 572.238 72.4126Q563.162 70.5743 554.011 69.1585Q549.064 68.4309 544.1 67.8246Q539.136 67.2184 534.159 66.7339Q529.182 66.2494 524.195 65.8869Q519.207 65.5245 514.212 65.2843Q509.217 65.044 504.218 64.9262Q499.219 64.8084 494.219 64.8131Q489.218 64.8177 484.219 64.9448Q479.22 65.0719 474.226 65.3214Q469.231 65.5709 464.244 65.9427Q459.258 66.3144 454.282 66.8082Q449.305 67.3019 444.343 67.9174Q439.38 68.5329 434.434 69.2697Q429.488 70.0065 424.562 70.8642Q419.635 71.7219 414.731 72.7001Q409.827 73.6782 404.949 74.7761Q400.07 75.874 395.22 77.0911Q390.37 78.3082 385.551 79.6437Q380.732 80.9792 375.947 82.4323Q371.162 83.8854 366.414 85.4552Q361.667 87.0251 356.959 88.7107Q352.251 90.3964 347.585 92.1968Q342.92 93.9973 338.3 95.9115Q333.681 97.8256 329.109 99.8523Q324.538 101.879 320.017 104.017Q315.497 106.155 311.03 108.403Q306.563 110.651 302.153 113.008Q297.743 115.365 293.391 117.829Q289.04 120.293 284.75 122.863Q280.461 125.433 276.235 128.108Q272.01 130.782 267.851 133.559Q263.693 136.336 259.603 139.214Q255.514 142.092 251.496 145.069Q246.941 148.439 242.49 151.945Q238.04 155.451 233.697 159.09Q229.354 162.728 225.123 166.497Q220.892 170.265 216.777 174.16Q212.662 178.054 208.666 182.071Q204.671 186.088 200.798 190.224Q196.926 194.36 193.18 198.611Q189.435 202.862 185.819 207.224Q182.204 211.586 178.722 216.056Q175.239 220.525 171.894 225.098Q168.549 229.671 165.343 234.342Q162.137 239.014 159.074 243.781Q156.011 248.547 153.093 253.404Q150.175 258.26 147.406 263.203Q144.636 268.146 142.017 273.17Q139.398 278.194 136.932 283.295C132.949 291.668 129.78 300.315 126.369 308.925C116.724 333.268 109.328 358.088 105.427 384.034Q104.731 388.697 104.149 393.376Q103.568 398.054 103.102 402.746Q102.637 407.437 102.287 412.139Q101.937 416.841 101.703 421.549Q101.469 426.258 101.351 430.971Q101.233 435.684 101.232 440.399Q101.23 445.114 101.345 449.827Q101.46 454.54 101.69 459.249Q101.921 463.958 102.268 468.66Q102.615 473.362 103.077 478.053Q103.54 482.745 104.118 487.424Q104.696 492.103 105.389 496.767Q106.082 501.43 106.89 506.075Q107.698 510.72 108.621 515.343Q109.543 519.967 110.579 524.566Q111.615 529.166 112.764 533.738Q113.913 538.31 115.174 542.853Q116.435 547.396 117.808 551.906Q119.181 556.417 120.665 560.892Q122.148 565.367 123.742 569.804Q125.335 574.241 127.038 578.638Q128.74 583.034 130.55 587.387Q132.361 591.74 134.278 596.048Q136.195 600.355 138.217 604.614Q140.24 608.872 142.367 613.08Q144.494 617.287 146.724 621.441Q148.954 625.595 151.286 629.693Q153.617 633.79 156.049 637.829Q158.482 641.868 161.012 645.846Q163.543 649.824 166.171 653.738Q168.8 657.652 171.523 661.5Q174.247 665.348 177.065 669.128C222.624 729.995 282.093 773.872 351.457 804.19C355.244 805.846 363.556 808.72 365.071 812.616L364.532 813.495C363.762 814.034 363.335 814.238 362.367 814.301C358.672 814.542 349.683 809.376 345.839 807.677Q337.276 803.942 328.877 799.852Q320.478 795.762 312.258 791.324Q304.038 786.885 296.011 782.107Q287.984 777.328 280.163 772.218Q272.343 767.107 264.744 761.674Q257.145 756.24 249.78 750.493Q242.415 744.747 235.297 738.696Q228.179 732.646 221.321 726.303Q217.817 723.077 214.392 719.766Q210.968 716.455 207.625 713.061Q204.283 709.667 201.025 706.192Q197.766 702.718 194.594 699.164Q191.422 695.611 188.337 691.981Q185.253 688.351 182.258 684.647Q179.264 680.942 176.361 677.166Q173.458 673.389 170.648 669.543Q167.838 665.696 165.123 661.782Q162.409 657.868 159.79 653.889Q157.172 649.91 154.652 645.867Q152.132 641.825 149.712 637.723Q147.292 633.62 144.972 629.459Q142.653 625.299 140.437 621.083Q138.22 616.866 136.107 612.597Q133.994 608.328 131.987 604.008Q129.979 599.689 128.077 595.321Q126.176 590.954 124.382 586.541Q122.588 582.129 120.903 577.673Q119.217 573.218 117.641 568.723Q116.066 564.228 114.6 559.695Q113.135 555.163 111.781 550.596Q110.427 546.029 109.185 541.431Q107.943 536.832 106.814 532.204Q105.685 527.577 104.67 522.923Q103.655 518.269 102.754 513.592Q101.852 508.914 101.066 504.216Q100.28 499.518 99.6084 494.802Q98.9372 490.086 98.3817 485.356Q97.8261 480.625 97.3865 475.882Q96.9469 471.139 96.6235 466.386Q96.3001 461.634 96.0931 456.875Q95.9012 452.381 95.8188 447.883Q95.7364 443.385 95.7636 438.887Q95.7908 434.389 95.9275 429.892Q96.0643 425.396 96.3106 420.904Q96.5569 416.413 96.9125 411.928Q97.2682 407.444 97.7329 402.97Q98.1977 398.495 98.7714 394.034Q99.345 389.572 100.027 385.126Q100.709 380.679 101.5 376.251Q102.29 371.822 103.188 367.414Q104.086 363.006 105.091 358.622Q106.096 354.237 107.208 349.878Q108.319 345.519 109.537 341.189Q110.754 336.858 112.077 332.559Q113.399 328.259 114.826 323.993Q116.253 319.727 117.783 315.497Q119.314 311.267 120.947 307.075Q122.58 302.884 124.315 298.733Q126.049 294.583 127.885 290.476Q129.72 286.369 131.655 282.308Q133.59 278.247 135.623 274.234Q137.656 270.221 139.786 266.259Q141.916 262.297 144.143 258.388Q146.369 254.479 148.69 250.626Q151.01 246.772 153.424 242.976Q155.838 239.18 158.344 235.444Q160.85 231.709 163.446 228.035Q166.042 224.361 168.726 220.752Q171.411 217.142 174.183 213.599Q176.955 210.056 179.812 206.582Q182.67 203.108 185.611 199.704Q188.552 196.3 191.575 192.969Q195.028 189.189 198.575 185.496Q202.121 181.803 205.759 178.2Q209.396 174.597 213.123 171.086Q216.849 167.574 220.662 164.158Q224.475 160.741 228.372 157.42Q232.27 154.099 236.248 150.877Q240.227 147.655 244.285 144.533Q248.344 141.411 252.478 138.392Q256.613 135.372 260.822 132.457Q265.031 129.541 269.312 126.732Q273.592 123.923 277.942 121.221Q282.291 118.52 286.706 115.928Q291.122 113.336 295.601 110.855Q300.08 108.374 304.619 106.006Q309.158 103.638 313.756 101.384Q318.353 99.1298 323.005 96.9913Q327.657 94.8528 332.361 92.8311Q337.065 90.8094 341.818 88.9059Q346.571 87.0023 351.37 85.2181Q356.169 83.4339 361.011 81.7701Q365.853 80.1063 370.735 78.564Q375.617 77.0216 380.537 75.6018Q385.456 74.1819 390.409 72.8853Q395.362 71.5887 400.346 70.4163Q405.33 69.2439 410.342 68.1963Q415.354 67.1487 420.39 66.2267Q425.426 65.3046 430.484 64.5086Q435.542 63.7126 440.618 63.0433Q445.694 62.3739 450.785 61.8315Q455.876 61.2891 460.979 60.8741Q466.083 60.459 471.195 60.1716Q476.306 59.8842 481.424 59.7245Z"/>
	<path fill="#2F0D0C" d="M832.97 118.704C839.302 118.009 846.428 118.258 852.744 119.103C859.955 120.069 868.719 122.545 873.199 128.722C875.232 131.525 875.932 134.835 875.339 138.237C873.891 146.538 865.687 155.598 859.653 161.105C853.671 166.566 846.597 170.791 839.968 175.417Q821.072 188.775 801.788 201.566C780.602 215.898 760.085 231.324 739.112 245.981C738.287 254.546 737.646 263.183 736.386 271.694Q737.54 271.187 738.702 270.697C742.274 269.147 745.484 268.047 749.386 269.129C758.485 271.653 765.801 285.897 770.128 293.511C772.521 297.724 774.327 303.016 772.845 307.837C772.212 309.895 771.071 311.312 769.383 312.626C764.199 316.661 757.362 319.578 751.551 322.696Q739.387 329.294 727.313 336.054C724.835 346.114 723.918 356.674 722.264 366.908C717.731 394.941 712.611 424.487 687.826 442.189C684.621 444.478 672.288 452.284 668.855 451.73C668.253 450.39 668.21 449.209 668.202 447.764C668.181 443.378 668.933 438.876 669.14 434.477Q669.685 420.13 669.644 405.773C669.601 367.492 665.718 330.981 660.181 293.157C651.254 298.485 641.192 302.539 631.925 307.354C606.433 320.6 580.723 333.72 555.564 347.575C554.536 366.528 550.161 385.394 548.339 404.307C545.175 407.346 529.189 420.869 526.006 420.906C523.373 415.037 521.997 394.146 521.107 386.486Q518.495 370.214 516.776 353.824C514.934 355.126 512.736 356.965 510.465 357.322Q510.018 357.394 509.566 357.418Q509.113 357.443 508.661 357.42Q508.209 357.397 507.761 357.326Q507.314 357.256 506.876 357.139Q506.439 357.021 506.016 356.859Q505.593 356.697 505.19 356.491Q504.786 356.285 504.407 356.038Q504.027 355.791 503.676 355.505C501.63 353.811 500.448 351.18 500.262 348.555C499.961 344.332 501.304 342.63 503.893 339.612C497.681 334.141 471.669 307.109 468.627 301.323C469.495 298.672 482.615 291.491 485.615 289.786C501.108 293.907 520.793 303.259 536.067 309.547C564.596 282.977 595.507 259.672 627.325 237.235C622.993 231.364 617.309 226.055 612.16 220.908Q597.656 206.452 582.108 193.125Q566.56 179.797 550.056 167.675C546.217 164.832 523.785 150.301 522.67 147.589C522.406 146.948 522.699 146.27 522.965 145.677C525.05 141.041 536.975 135.58 541.569 133.865Q543.166 133.285 544.796 132.809Q546.427 132.334 548.085 131.965Q549.744 131.596 551.422 131.336Q553.101 131.075 554.793 130.924Q556.485 130.773 558.183 130.732Q559.881 130.69 561.579 130.759Q563.276 130.828 564.965 131.007Q566.655 131.185 568.329 131.473C578.035 133.235 586.608 138.176 595.554 142.094Q617.233 151.465 638.657 161.405C645.623 156.3 659.097 144.087 665.776 141.04C669.273 139.445 673.103 139.248 676.665 140.774C686.917 145.167 694.657 161.259 698.862 171.039C694.444 174.878 689.102 178.184 684.329 181.617C688.672 184.052 692.811 186.684 696.957 189.432C714.385 177.213 732.457 165.869 750.336 154.321C764.584 145.118 779.442 134.236 795.087 127.664C807.361 122.508 819.794 119.996 832.97 118.704Z"/>
	<path fill="#FEFDFA" d="M667.977 144.628Q669.19 144.488 670.41 144.418C674.109 144.232 677.404 146.586 680.052 148.958C683.83 152.343 692.574 164.186 692.44 169.147C692.417 169.98 691.49 170.433 690.907 170.948L686.479 173.949C680.401 165.215 672.144 154.287 667.977 144.628Z"/>
	<path fill="#FEFDFA" d="M824.573 124.708C825.384 124.678 825.219 124.614 825.886 124.8C827.232 125.176 828.619 125.689 829.235 127.063C829.791 128.305 829.641 129.889 829.187 131.135C827.971 134.466 824.924 136.963 821.79 138.408C815.795 141.173 809.743 140.285 803.74 138.202C800.648 136.764 798.304 135.074 795.84 132.759C804.278 128.07 815.048 125.757 824.573 124.708Z"/>
	<path fill="#FEFDFA" d="M742.968 273.445C745.408 273.267 747.359 273.431 749.574 274.574C756.405 278.097 766.189 293.86 768.472 301.293C769.466 304.528 768.288 306.503 766.763 309.312C765.927 309.451 765.556 309.386 764.744 309.222C762.129 306.883 741.993 277.9 741.662 275.743C741.558 275.065 742.573 274.008 742.968 273.445Z"/>
	<path fill="#FEFDFA" d="M663.475 148.315C665.543 149.42 680.25 172.607 683.535 176.986C682.376 178.063 681.002 178.922 679.708 179.828L670.269 175.026C661.648 170.823 652.659 167.247 643.889 163.351Q653.732 155.898 663.475 148.315Z"/>
	<path fill="#FEFDFA" d="M735.802 276.756C738.995 279.298 757.424 307.333 760.691 312.51C755.172 315.882 749.398 318.827 743.687 321.857L728.182 330.409C729.006 319.708 731.152 309.009 732.797 298.408C733.914 291.207 734.519 283.925 735.802 276.756Z"/>
	<path fill="#FEFDFA" d="M485.796 294.944C490.264 294.947 525.644 309.78 532.405 312.984C526.668 318.76 520.61 324.271 514.768 329.949L507.727 336.938C502.183 332.03 497.105 326.31 491.953 320.987C485.995 314.832 479.484 308.714 474.295 301.899C477.91 299.177 481.766 296.984 485.796 294.944Z"/>
	<path fill="#FEFDFA" d="M860.279 125.291C863.297 126.731 866.826 128.32 868.93 130.995C870.387 132.848 870.897 135.057 870.527 137.378C869.332 144.877 861.067 153.684 855.621 158.574C845.903 167.299 833.599 173.957 822.888 181.462Q783.847 208.358 745.25 235.889L739.49 239.794Q739.491 232.577 739.778 225.365C751.607 214.961 767.931 204.387 781.034 195.347C795.244 185.542 809.212 175.383 823.512 165.709C831.396 160.375 839.901 155.415 847.406 149.581C855.048 143.641 859.101 134.734 860.279 125.291Z"/>
	<path fill="#FEFDFA" d="M656.322 273.995C657.97 278.096 658.176 283.966 658.822 288.392C645.998 296.201 631.721 302.419 618.341 309.312C596.029 320.806 573.996 332.787 551.576 344.094C551.221 353.529 549.257 363.21 547.984 372.586C546.631 382.545 546.071 393.576 543.263 403.186C540.148 405.943 532.976 412.175 529.383 413.309C528.422 412.395 528.583 410.692 528.429 409.383C527.074 401.495 526.304 393.386 525.24 385.443C523.701 373.948 521.938 362.432 520.806 350.89C531.774 343.454 542.893 336.018 554.409 329.449C561.305 325.516 568.514 322.079 575.552 318.403Q592.779 309.3 609.912 300.023C625.47 291.602 640.55 281.97 656.322 273.995Z"/>
	<path fill="#FEFDFA" d="M555.113 135.185Q557.276 134.986 559.449 135.004Q561.622 135.023 563.781 135.259Q565.941 135.495 568.066 135.946Q570.192 136.398 572.261 137.06C577.947 138.829 583.297 141.556 588.709 144.006L613.817 155.272L653.408 172.619C666.85 178.533 680.586 184.414 692.897 192.493Q673.277 206.348 653.228 219.575Q642.558 227.003 631.547 233.915C623.992 226.591 617.009 218.67 609.332 211.47C583.502 187.247 556.936 166.848 527.741 146.831C535.127 140.503 545.478 136.268 555.113 135.185Z"/>
	<path fill="#FEFDFA" d="M734.79 209.359C735.095 209.643 735.146 209.628 735.298 210.054C736.176 212.521 735.53 217.77 735.488 220.5C734.905 259.069 728.282 297.162 722.628 335.223C719.27 357.829 716.676 384.008 709.442 405.695C703.395 423.826 689.638 437.294 672.856 445.705C673.257 441.466 673.474 437.253 673.612 432.998C674.809 420.292 674.472 407.03 674.188 394.282Q673.861 374.815 672.375 355.403Q670.889 335.99 668.25 316.7C666.138 301.653 663.147 286.673 660.493 271.712C687.444 255.631 713.607 232.455 734.79 209.359Z"/>
	<path fill="#FEFDFA" d="M833.234 123.211C838.711 123.019 850.542 122.418 855.188 124.991C855.577 125.878 855.675 126.538 855.56 127.488C854.911 132.894 850.671 140.395 846.852 144.186C840.537 150.454 824.082 159.935 815.811 165.632C790.39 183.143 764.719 200.643 739.969 219.095C739.865 215.477 740.17 211.709 739.703 208.119C739.442 206.117 739.019 204.908 737.424 203.638C733.098 203.25 728.515 209.289 725.7 212.122C708.989 228.942 691.49 245.277 672 258.879C658.77 268.112 644.251 275.365 630.213 283.261C603.532 298.268 576.017 311.841 549.502 327.091C540.053 332.526 530.954 338.724 521.714 344.522C517.553 347.084 512.989 351.959 508.205 352.849C506.838 352.356 506.374 351.846 505.681 350.552C504.934 349.155 504.487 346.978 505.242 345.506C507.413 341.278 517.347 333.584 521.256 329.829C529.422 321.982 537.392 313.865 545.754 306.231C556.303 296.6 567.652 287.237 578.815 278.317C604.991 257.401 632.968 238.7 660.713 219.953C682.649 205.131 704.373 190.095 726.486 175.539Q745.591 162.72 764.988 150.349C773.557 144.86 782.284 138.946 791.592 134.779C794.052 137.67 796.802 140.362 800.207 142.139C806.576 145.461 815.001 145.763 821.679 143.441C826.062 141.916 831.394 138.928 833.403 134.51C835.08 130.821 833.666 127.326 832.354 123.806L833.234 123.211Z"/>
	<path fill="#2F0D0C" d="M807.891 611.25C812.167 611.182 816.533 611.696 820.772 611.429C844.069 611.909 885.301 613.995 906.5 623.162C912.859 625.911 918.891 630.213 923.846 635.029C943.55 654.178 947.777 687.179 948.162 713.497C951.04 713.44 953.818 713.209 956.26 715.037C958.727 716.884 959.214 718.74 959.549 721.673C960.204 727.392 960.746 747.356 957.344 751.238C954.99 753.924 951.781 754.543 948.387 754.758C947.517 779.857 947.896 805.244 947.983 830.376C948.021 841.55 948.905 853.339 947.868 864.443C947.635 866.926 947.139 869.059 945.69 871.131C944.607 872.679 943.183 874.165 941.458 874.986C936.391 877.4 929.98 877.787 924.468 878.571Q911.052 880.561 897.575 882.076C890.524 882.826 883.191 883.176 876.242 884.559L875.592 884.695Q874.209 886.318 872.749 887.872C867.057 893.828 858.935 896.36 850.869 896.395C841.654 896.435 835.494 893.508 829.033 887.027C811.934 888.738 792.734 888.754 775.579 887.356C764.971 886.491 754.385 884.914 743.791 883.82C742.468 888.378 741.075 892.891 738.637 896.997C735.669 901.998 731.581 905.509 725.848 906.844C717.441 908.802 699.364 908.576 692.252 903.748C683.627 897.894 680.663 887.523 678.72 877.886C666.193 875.402 652.975 874.494 640.282 872.944C621.134 870.605 601.815 867.838 582.588 866.328C581.801 868.757 580.968 871.256 579.838 873.55C577.283 878.738 573.832 882.039 568.287 883.861C559.345 886.799 547.865 889.266 539.163 884.429C530.632 879.687 527.66 869.438 525.27 860.68C517.223 859.48 486.376 857.51 482.08 853.733C477.618 849.809 476.66 843.463 476.5 837.837C475.924 817.553 477.032 797.127 476.851 776.816Q476.582 754.488 476.635 732.159C476.685 725.873 476.216 718.921 477.242 712.756Q477.389 711.875 477.602 711.008Q477.815 710.141 478.094 709.292Q478.373 708.443 478.716 707.619Q479.058 706.794 479.463 705.998Q479.868 705.201 480.332 704.438Q480.796 703.675 481.317 702.95Q481.838 702.224 482.412 701.541Q482.987 700.857 483.612 700.219C486.059 697.713 489.162 696.03 492.437 694.854C503.825 690.765 516.099 687.994 527.705 684.414Q587.766 665.968 648.277 649.053L731.031 624.644C742.675 621.264 754.334 617.161 766.166 614.535C780.099 611.442 793.725 611.449 807.891 611.25Z"/>
	<path fill="#FEFDFA" d="M569.076 864.627L577.089 865.606C576.76 867.334 576.459 869.138 575.855 870.794C574.309 875.033 572.315 877.464 568.264 879.443C565.924 880.324 563.426 880.869 561.008 881.506C565.29 876.001 567.473 871.383 569.076 864.627Z"/>
	<path fill="#FEFDFA" d="M865.504 884.72L867.457 884.654L867.952 885.283C867.32 886.99 866.028 887.818 864.468 888.633C857.593 892.228 848.05 892.549 840.682 890.353C838.564 889.407 836.728 888.044 834.824 886.733C845.04 885.981 855.281 885.503 865.504 884.72Z"/>
	<path fill="#FEFDFA" d="M948.268 717.934C949.554 718.087 951.024 718.192 952.253 718.596C952.944 718.823 953.75 719.381 954.056 720.048C955.47 723.133 954.879 745.76 953.583 748.88C951.971 749.476 950.127 750.008 948.479 749.29C947.32 739.283 947.939 728.033 948.268 717.934Z"/>
	<path fill="#FEFDFA" d="M728.658 881.383C732.168 881.678 735.704 882.443 739.179 883.035C738.92 884.193 738.652 885.354 738.296 886.486C736.336 892.723 733.184 898.565 727.254 901.743C723.981 902.689 720.955 903.046 717.575 903.302C723.523 896.166 726.718 890.558 728.658 881.383Z"/>
	<path fill="#FEFDFA" d="M801.907 706.487C803.755 706.423 804.958 706.413 806.546 707.437C808.748 710.128 806.865 739.029 806.603 744.545L801.125 744.864L794.227 744.941C793.982 733.173 794.457 721.287 794.555 709.509L801.907 706.487Z"/>
	<path fill="#FEFDFA" d="M893.372 841.27L894.465 841.209C896.226 843.978 895.465 851.435 895.493 854.854Q878.263 856.11 861.12 858.244L860.044 858.307C858.273 855.476 859.15 847.038 859.101 843.522C870.479 843.489 882.025 842.142 893.372 841.27Z"/>
	<path fill="#FEFDFA" d="M545.28 826.029C547.776 825.863 549.846 826.102 552.09 827.267C557.436 830.044 560.668 835.245 562.408 840.855C565.555 850.996 566.125 863.792 560.841 873.34C558.333 877.872 554.993 880.748 550.048 882.27C547.376 882.276 545.027 882.033 542.61 880.782C537.009 877.883 533.35 872.195 531.402 866.342C528.277 856.955 529.274 845.108 533.805 836.312C536.455 831.169 539.759 827.842 545.28 826.029Z"/>
	<path fill="#2F0D0C" d="M544.03 839.457C544.824 839.44 544.878 839.423 545.755 839.49C548.372 839.692 550.579 841.261 552.146 843.293C555.572 847.737 556.065 854.542 555.419 859.966C554.797 865.191 553.064 869.722 548.863 873.014C548.269 873.029 547.861 873.055 547.248 872.988C544.515 872.693 542.364 870.902 540.844 868.699C537.299 863.558 536.869 855.709 538.084 849.705C538.945 845.448 540.372 841.95 544.03 839.457Z"/>
	<path fill="#FEFDFA" d="M545.089 844.172C545.88 844.51 545.853 844.475 546.675 844.94C548.864 846.177 550.102 848.844 550.728 851.178C552.236 856.789 550.968 862.836 548.155 867.786C547.196 867.571 546.597 867.373 545.787 866.78C543.57 865.157 542.467 861.901 542.073 859.31C541.298 854.216 541.922 848.354 545.089 844.172Z"/>
	<path fill="#FEFDFA" d="M700.262 836.55C704.209 836.332 707.627 836.85 711.027 838.995C717.25 842.92 720.717 850.628 722.316 857.576C724.866 868.659 725.262 884.402 718.764 894.295C715.742 898.896 711.973 901.557 706.623 902.701C703.4 903.015 700.526 902.912 697.551 901.537C691.899 898.925 688.35 893.546 686.183 887.9C681.745 876.335 681.725 860.334 686.896 848.985C689.748 842.725 693.897 838.933 700.262 836.55Z"/>
	<path fill="#2F0D0C" d="M700.59 852.925C701.675 852.918 702.686 852.969 703.728 853.311C706.23 854.131 708.169 856.396 709.334 858.675C712.445 864.76 712.513 874.581 710.444 881.064C709.077 885.345 707.374 887.94 703.343 889.931C702.885 889.898 702.429 889.841 701.976 889.769C699.292 889.34 697.122 887.386 695.709 885.15C692.121 879.47 691.872 870.412 693.37 863.979C694.483 859.203 696.389 855.551 700.59 852.925Z"/>
	<path fill="#FEFDFA" d="M701.753 857.71C702.692 858.001 703.599 858.479 704.289 859.193C706.968 861.97 707.471 866.911 707.505 870.585C707.554 875.765 706.741 880.794 703.005 884.584C701.985 884.276 701.189 883.846 700.397 883.113C698.036 880.927 697.144 876.831 696.973 873.768C696.652 868.034 697.882 862.082 701.753 857.71Z"/>
	<path fill="#FEFDFA" d="M759.027 716.27Q769.958 714.327 780.952 712.777Q780.956 764.416 782.105 816.043Q771.039 815.39 759.961 814.966C759.677 795.902 759.888 776.849 759.697 757.789C759.559 743.956 758.936 730.101 759.027 716.27Z"/>
	<defs>
		<linearGradient id="gradient_0" gradientUnits="userSpaceOnUse" x1="708.52332" y1="714.185" x2="713.21423" y2="743.11292">
			<stop offset="0" stop-color="#E39081"/>
			<stop offset="1" stop-color="#F7B5A9"/>
		</linearGradient>
	</defs>
	<path fill="url(#gradient_0)" d="M481.28 757.905C491.124 754.626 501.897 753.21 512.077 751.262Q543.778 745.172 575.636 739.968C604.872 734.955 633.905 728.589 663.066 723.146C676.16 720.703 689.354 719.024 702.463 716.717C713.363 714.798 724.133 712.218 735.007 710.163C748.232 707.663 761.572 705.708 774.836 703.421C782.821 702.045 791.104 699.559 799.186 699.12C812.968 698.373 827.37 699.829 841.191 700.255L899.297 701.49C913.966 701.709 928.379 702.142 943.045 701.474L943.433 708.578C933.746 706.318 912.728 707.286 901.725 707.075L810.821 705.396C808.372 703.03 805.847 701.747 802.354 701.802C800.333 701.833 798.67 702.776 796.861 703.557C788.596 707.121 780.577 708.587 771.756 709.951C691.408 722.377 611.672 738.653 531.503 752.086C519.232 754.142 506.993 756.48 494.736 758.63C490.865 759.309 485.604 760.976 481.758 760.703C481.26 759.665 481.232 759.048 481.28 757.905Z"/>
	<path fill="#C1635C" d="M602.339 807.596C616.414 808.337 631.325 809.496 645.391 808.613L645.371 868.948C631.057 867.061 616.668 865.579 602.333 863.841C602.459 845.092 602.137 826.346 602.339 807.596Z"/>
	<path fill="#FEFDFA" d="M725.679 722.289Q740.017 719.379 754.487 717.216C755.077 737.898 754.865 758.626 754.959 779.315C755.013 791.069 755.457 802.808 755.476 814.564C745.714 814.599 735.728 812.486 726.032 813.025C725.692 782.827 725.371 752.481 725.679 722.289Z"/>
	<path fill="#FEFDFA" d="M602.425 743.712C616.584 741.459 631.445 739.625 645.388 736.369L645.391 808.613C631.325 809.496 616.414 808.337 602.339 807.596L602.425 743.712Z"/>
	<path fill="#C1635C" d="M486.861 805.554C499.504 806.234 512.169 806.165 524.825 806.303Q561.23 806.698 597.636 806.57Q597.916 834.852 597.829 863.136C590.28 862.461 577.626 860.316 570.477 861.14C570.171 860.752 569.741 860.435 569.559 859.975C569.025 858.629 569.179 855.538 569.038 854.002C568.235 845.292 566.818 836.419 561.481 829.2C558.523 825.198 554.47 822.351 549.47 821.659C544.943 821.034 540.822 822.025 537.217 824.873C530.278 830.356 526.995 838.936 525.845 847.443Q525.701 851.852 525.476 856.257C512.735 854.096 499.571 853.317 486.73 851.786C487.272 847.049 486.656 841.746 486.64 836.952Q486.604 821.252 486.861 805.554Z"/>
	<path fill="#FEFDFA" d="M525.845 847.443L525.207 846.994C525.73 838.992 528.978 827.037 535.148 821.594C539.123 818.086 544.341 816.024 549.69 816.573C555.609 817.181 560.585 820.936 564.159 825.504C570.503 833.61 572.097 842.687 572.981 852.661C573.153 854.594 573.713 857.693 573.308 859.603C573.251 859.869 573.109 860.11 573.01 860.363C572.163 860.646 571.346 860.933 570.477 861.14C570.171 860.752 569.741 860.435 569.559 859.975C569.025 858.629 569.179 855.538 569.038 854.002C568.235 845.292 566.818 836.419 561.481 829.2C558.523 825.198 554.47 822.351 549.47 821.659C544.943 821.034 540.822 822.025 537.217 824.873C530.278 830.356 526.995 838.936 525.845 847.443Z"/>
	<path fill="#C1635C" d="M759.961 814.966Q771.039 815.39 782.105 816.043C782.617 825.794 782.615 835.574 782.809 845.335C782.905 850.164 783.52 855.484 783.051 860.236C784.615 861.875 786.006 863.229 788.212 863.927C793.216 865.512 800.012 865.048 805.271 865.101C842.573 865.478 880.421 861.874 917.373 856.981C922.491 856.304 927.66 855.663 932.735 854.708C935.214 854.241 937.666 853.406 940.149 853.047C941.378 852.87 942.168 853.036 943.275 853.562C944.177 855.067 943.895 856.282 943.883 858.015C943.881 861.002 943.703 863.924 943.45 866.899C942.742 868.085 942.036 869.295 940.906 870.128C936.077 873.691 925.049 874.236 919.141 875.088C878.526 880.948 836.291 883.696 795.267 883.505C783.409 883.45 771.76 882.433 759.974 881.169C759.694 859.116 759.957 837.023 759.961 814.966Z"/>
	<path fill="#FEFDFA" d="M783.051 860.236C784.615 861.875 786.006 863.229 788.212 863.927C793.216 865.512 800.012 865.048 805.271 865.101C842.573 865.478 880.421 861.874 917.373 856.981C922.491 856.304 927.66 855.663 932.735 854.708C935.214 854.241 937.666 853.406 940.149 853.047C941.378 852.87 942.168 853.036 943.275 853.562C944.177 855.067 943.895 856.282 943.883 858.015C923.507 863.219 797.406 875.797 786.199 868.755C784.26 867.537 783.413 865.058 783.071 862.917C782.924 861.995 782.974 861.161 783.051 860.236Z"/>
	<path fill="#FEFDFA" d="M876.613 710.924C898.891 711.102 921.267 711.818 943.535 712.563C943.522 720.623 944.617 779.162 943.107 781.214L941.124 781.437C920.292 782.364 899.524 784.492 878.647 784.571C877.329 760.167 876.306 735.358 876.613 710.924Z"/>
	<path fill="#C1635C" d="M649.854 808.975L700.699 811.809C707.501 812.196 714.773 811.973 721.489 812.864C723.03 813.24 724.493 813.724 726.032 813.025C735.728 812.486 745.714 814.599 755.476 814.564L755.4 880.43C748.487 879.676 741.407 879.149 734.584 877.802L729.483 876.721C729.964 863.566 728.775 851.828 720.505 841.089C716.753 836.217 712.165 832.461 705.838 831.815C700.116 831.231 693.938 833.553 689.596 837.236C679.714 845.619 678.983 860.085 678.092 871.989C677.159 872.97 676.324 872.687 675.02 872.748C668.928 870.862 656.625 870.494 649.573 869.538Q650.046 839.258 649.854 808.975Z"/>
	<path fill="#FEFDFA" d="M675.02 872.748C674.925 858.892 675.985 843.943 686.369 833.548C690.979 828.933 697.033 826.002 703.624 826.024C710.437 826.047 716.516 829.234 721.161 834.082C732.195 845.598 734.108 862.63 734.584 877.802L729.483 876.721C729.964 863.566 728.775 851.828 720.505 841.089C716.753 836.217 712.165 832.461 705.838 831.815C700.116 831.231 693.938 833.553 689.596 837.236C679.714 845.619 678.983 860.085 678.092 871.989C677.159 872.97 676.324 872.687 675.02 872.748Z"/>
	<path fill="#FEFDFA" d="M811.709 709.718C831.838 709.902 852.002 710.709 872.141 710.991C872.279 735.657 873.625 760.288 873.84 784.949C851.933 786.348 829.821 786.329 807.875 786.354Q797.173 786.136 786.495 785.39C786.08 775.298 784.084 715.603 785.862 711.817C787.197 711.368 788.036 711.136 789.473 711.209C792.762 717.977 786.233 743.704 791.086 747.968C794.559 751.02 806.248 749.225 810.633 748.818C812.261 738.448 811.394 720.953 811.709 709.718Z"/>
	<path fill="#FEFDFA" d="M649.58 735.602C661.989 733.119 674.54 731.274 687.003 729.072C698.509 727.039 709.94 724.627 721.48 722.779C721.609 752.78 722.142 782.87 721.489 812.864C714.773 811.973 707.501 812.196 700.699 811.809L649.854 808.975C648.865 784.642 649.612 759.976 649.58 735.602Z"/>
	<path fill="#FEFDFA" d="M481.714 765.353Q539.876 755.675 597.755 744.424Q597.963 775.497 597.636 806.57Q561.23 806.698 524.825 806.303C512.169 806.165 499.504 806.234 486.861 805.554Q486.604 821.252 486.64 836.952C486.656 841.746 487.272 847.049 486.73 851.786C486.223 851.476 485.746 851.191 485.326 850.765C483.414 848.826 482.182 845.785 481.728 843.139C480.384 835.294 481.377 825.997 481.43 818.018L481.714 765.353Z"/>
	<path fill="#FEFDFA" d="M941.338 785.743C942.531 785.631 942.549 785.483 943.674 786.077C945.021 792.584 943.809 808.171 943.664 815.234Q943.472 831.661 943.543 848.089C930.04 851.034 913.372 854.185 899.629 854.565C899.44 851.073 900.458 839.516 898.686 837.245C892.569 835.821 862.2 838.779 854.27 839.834C854.612 846.194 854.57 852.577 854.624 858.945C838.924 859.57 823.322 860.507 807.593 860.506C802.902 860.475 792.116 861.103 788.242 858.932C786.3 852.355 787.169 843.106 787.023 836.211Q786.415 813.063 786.43 789.907C814.049 791.315 841.636 790.536 869.25 789.478C893.326 788.556 917.309 787.539 941.338 785.743Z"/>
	<path fill="#2F0D0C" d="M927.559 808.139C930.528 807.909 933.442 807.988 936.113 809.465Q936.596 809.734 937.047 810.053Q937.499 810.371 937.915 810.735Q938.331 811.099 938.706 811.505Q939.082 811.911 939.413 812.353Q939.744 812.796 940.027 813.271Q940.31 813.746 940.541 814.247Q940.773 814.749 940.95 815.273Q941.128 815.796 941.25 816.335C942.112 819.979 941.288 824.092 939.171 827.167C936.616 830.877 933.668 831.92 929.405 832.725C925.961 832.86 922.659 832.532 919.742 830.531Q919.27 830.21 918.833 829.842Q918.397 829.474 918.001 829.062Q917.605 828.65 917.255 828.2Q916.904 827.749 916.602 827.264Q916.3 826.779 916.051 826.266Q915.801 825.752 915.606 825.216Q915.411 824.679 915.273 824.125Q915.135 823.57 915.056 823.005C914.548 819.587 915.377 815.983 917.458 813.208C920.084 809.706 923.432 808.75 927.559 808.139Z"/>
	<path fill="#FEFDFA" d="M927.123 813.139C929.35 813.067 931.747 812.804 933.787 813.872C935.252 814.638 936.445 816.148 936.888 817.739C937.398 819.575 937.022 821.627 936.062 823.25C934.463 825.956 932.529 827.173 929.565 828.02C927.752 828.154 925.786 828.302 924.092 827.53C922.097 826.621 920.436 824.839 919.802 822.727C919.197 820.712 919.511 818.62 920.645 816.85C922.182 814.451 924.475 813.719 927.123 813.139Z"/>
	<path fill="#2F0D0C" d="M826.218 815.289C828.84 815.071 832.294 814.382 834.732 815.497C836.325 819.303 836.568 832.683 835.285 836.628C830.255 839.442 821.505 838.943 815.691 839.404C812.581 839.514 809.502 839.457 806.392 839.359C806.006 835.617 804.802 820.537 806.656 817.959C809.047 814.633 822.328 815.435 826.218 815.289Z"/>
	<path fill="#FEFDFA" d="M827.975 819.719C828.844 819.612 829.615 819.661 830.487 819.709C832.754 821.929 831.866 830.115 831.915 833.248C826.41 834.014 820.922 834.38 815.377 834.659C814.019 834.832 812.756 835.157 811.472 834.54C809.141 831.229 810.354 824.412 810.393 820.457C816.262 820.3 822.119 820.16 827.975 819.719Z"/>
	<path fill="#FEFDFA" d="M481.28 757.905C481.901 745.791 479.456 721.339 482.108 711.133Q482.388 710.063 482.786 709.031Q483.184 707.998 483.694 707.017Q484.205 706.036 484.822 705.118Q485.438 704.2 486.154 703.356C488.22 700.884 493.183 699.292 496.237 698.269C507.745 694.412 519.655 691.465 531.278 687.93L656.659 651.062Q692.68 640.318 728.809 629.944C745.33 625.079 762.841 618.376 780.045 616.586C790.552 615.494 801.264 615.809 811.814 615.963C840.04 616.375 876.542 617.21 903.147 626.954Q905.147 627.68 907.076 628.578Q909.005 629.475 910.849 630.537Q912.692 631.599 914.437 632.817Q916.181 634.036 917.813 635.401C936.941 651.097 940.693 678.269 943.045 701.474C928.379 702.142 913.966 701.709 899.297 701.49L841.191 700.255C827.37 699.829 812.968 698.373 799.186 699.12C791.104 699.559 782.821 702.045 774.836 703.421C761.572 705.708 748.232 707.663 735.007 710.163C724.133 712.218 713.363 714.798 702.463 716.717C689.354 719.024 676.16 720.703 663.066 723.146C633.905 728.589 604.872 734.955 575.636 739.968Q543.778 745.172 512.077 751.262C501.897 753.21 491.124 754.626 481.28 757.905Z"/>
	<path fill="#2F0D0C" d="M795.292 631.552C805.666 631.104 816.263 632.003 826.625 632.538Q849.419 633.599 872.183 635.189C883.722 636.015 896.194 635.945 907.477 638.317C911.683 639.201 915.503 640.634 918.807 643.472C928.581 651.868 930.794 665.269 933.648 677.146C934.666 681.385 936.216 686.141 936.436 690.484C936.543 692.596 936.194 694.713 934.536 696.202C932.527 698.006 929.226 697.505 926.715 697.474C891.952 697.443 856.959 696.433 822.225 695.135C816.618 694.925 802.632 695.338 798.089 693.873C796.861 692.714 796.159 691.538 795.496 689.983C790.969 679.377 780.86 649.771 785.264 639.708C787.245 635.181 790.914 633.225 795.292 631.552Z"/>
	<path fill="#FEFDFA" d="M795.981 636.092Q796.96 635.954 797.947 635.894C808.056 635.192 820.968 636.972 831.311 637.454Q855.277 638.409 879.208 640.008C887.975 640.57 897.224 640.728 905.829 642.499C909.857 643.328 913.685 644.907 916.773 647.685C925.955 655.944 930.969 681.472 931.772 693.301C929.463 693.311 927.144 693.194 924.836 693.127C883.378 692.284 841.828 691.727 800.397 690.102L799.46 687.826C795.085 677.141 785.353 650.857 789.918 640.862C791.147 638.172 793.333 637.076 795.981 636.092Z"/>
	<path fill="#2F0D0C" d="M816.609 645.947C833.339 646.031 850.59 647.666 867.355 648.469C877.221 648.942 896.661 648.695 905.447 650.84C908.241 653.4 909.425 669.093 909.887 673.576C910.158 676.208 910.413 677.903 908.662 680.039C901.709 681.126 883.377 679.555 875.469 679.278C856.574 678.617 837.617 678.599 818.745 677.496C817.667 669.915 814.358 652.636 816.609 645.947Z"/>
	<path fill="#FEFDFA" d="M820.357 650.447C847.969 652.234 875.676 652.714 903.25 654.692C903.488 661.785 904.683 668.882 905.238 675.966Q878.625 674.711 851.992 674.001C842.353 673.737 832.583 673.879 822.973 673.119C821.162 665.988 820.708 657.787 820.357 650.447Z"/>
	<path fill="#2F0D0C" d="M744.76 638.586C749.857 638.077 755.714 639.835 760.175 642.244C770.46 647.796 776.455 657.846 779.691 668.781C781.287 674.177 785.513 692.08 782.862 696.954C781.683 697.782 780.541 698.12 779.166 698.475C772.231 700.263 764.74 701.109 757.664 702.38Q737.042 706.082 716.463 710.012C652.576 722.061 588.327 732.149 524.402 743.934C515.749 745.379 498.005 749.972 490.391 749.92C488.326 746.069 489.771 712.327 490.783 706.753C499.171 703.776 509.819 701.786 518.601 699.42L583.194 681.957L669.52 658.712C694.525 651.85 719.527 644.562 744.76 638.586Z"/>
	<path fill="#FEFDFA" d="M520.033 703.649C521.452 705.393 520.519 735.577 520.466 740.186C511.803 741.361 503.135 743.462 494.559 745.188C493.175 743.354 494.502 715.174 494.542 710.085C503.109 708.331 511.5 705.623 520.033 703.649Z"/>
	<path fill="#FEFDFA" d="M558.315 693.555L558.897 693.631C560.164 695.153 559.424 728.511 559.422 733.685C548.418 735.173 537.475 737.228 526.537 739.131L525.437 738.896C524.061 735.62 524.846 708.537 524.843 702.737C535.72 698.941 547.133 696.321 558.315 693.555Z"/>
	<path fill="#FEFDFA" d="M596.472 683.101C597.464 683.133 597.007 682.958 597.791 683.749Q597.97 705.328 597.616 726.904C586.841 729.014 575.91 730.576 565.067 732.313L564.299 732.283C562.84 730.061 563.496 697.177 563.483 691.832C574.521 689.307 585.472 685.867 596.472 683.101Z"/>
	<path fill="#FEFDFA" d="M744.777 643.088C745.111 643.061 745.445 643.028 745.78 643.008C752.232 642.616 759.541 646.068 764.193 650.302C775.432 660.529 778.284 679.679 779.045 694.017L769.521 695.646C759.823 697.294 750.221 699.485 740.511 701.107C740.455 682.293 739.655 663.058 740.674 644.295C741.537 643.41 743.528 643.326 744.777 643.088Z"/>
	<path fill="#FEFDFA" d="M641.6 670.594L642.02 670.644C643.385 672.128 642.797 713.763 642.743 719.03Q623.123 722.183 603.552 725.631L602.666 725.47C601.196 723.057 602.089 687.492 602.194 681.344C615.104 677.297 628.438 673.752 641.6 670.594Z"/>
	<path fill="#FEFDFA" d="M686.997 658.634C688.419 661.118 687.418 705.456 687.396 710.747Q667.424 714.638 647.323 717.79C646.841 710.849 647.078 703.781 647.046 696.822L646.763 669.271L686.997 658.634Z"/>
	<path fill="#FEFDFA" d="M735.376 645.627L735.614 645.719C737.374 648.993 736.19 694.516 736.212 701.909C721.648 704.308 707.144 707.178 692.614 709.782C691.136 707.801 691.657 662.885 691.618 657.425C705.435 653.18 721.269 649.005 735.376 645.627Z"/>
</svg>
