<?xml version="1.0" encoding="utf-8" ?>
<svg xmlns="http://www.w3.org/2000/svg" xmlns:xlink="http://www.w3.org/1999/xlink" width="1024" height="1024">
	<path fill="#FEFEFE" d="M0 0L1024 0L1024 1024L0 1024L0 0Z"/>
	<path fill="#3E4665" d="M763.153 49.2077C766.014 48.8629 769.072 48.8879 771.953 48.8685Q773.737 48.8633 775.521 48.9019Q777.304 48.9405 779.087 49.0228Q780.869 49.1051 782.648 49.2311Q784.428 49.3572 786.204 49.5268Q787.98 49.6964 789.751 49.9096Q791.523 50.1227 793.288 50.3793Q795.054 50.6358 796.813 50.9356Q798.571 51.2354 800.322 51.5782Q802.073 51.9211 803.815 52.3067Q805.557 52.6924 807.289 53.1207Q809.021 53.549 810.742 54.0197Q812.462 54.4903 814.171 55.0031Q815.88 55.5158 817.576 56.0703Q819.272 56.6248 820.953 57.2207Q822.635 57.8166 824.301 58.4536Q825.968 59.0906 827.618 59.7683Q829.269 60.446 830.902 61.164Q832.535 61.8819 834.15 62.6398Q835.765 63.3976 837.361 64.1948Q838.958 64.992 840.534 65.8282Q842.11 66.6643 843.665 67.5388Q845.22 68.4134 846.753 69.3258Q848.286 70.2382 849.796 71.188Q851.307 72.1377 852.793 73.1243Q854.28 74.1108 855.741 75.1335Q857.203 76.1562 858.64 77.2144Q860.076 78.2727 861.486 79.3658Q862.896 80.459 864.279 81.5864Q865.661 82.7138 867.016 83.8748Q868.371 85.0358 869.696 86.2297Q871.022 87.4236 872.318 88.6497Q873.614 89.8757 874.88 91.1332Q876.131 92.3643 877.351 93.6259Q878.571 94.8874 879.759 96.1787Q880.947 97.47 882.104 98.7902Q883.26 100.11 884.383 101.459Q885.506 102.807 886.596 104.182Q887.686 105.558 888.741 106.96Q889.797 108.362 890.817 109.79Q891.838 111.217 892.823 112.67Q893.808 114.122 894.756 115.598Q895.705 117.075 896.618 118.574Q897.53 120.073 898.405 121.594Q899.28 123.115 900.117 124.658Q900.954 126.2 901.753 127.763Q902.552 129.325 903.312 130.907Q904.072 132.489 904.793 134.089Q905.514 135.689 906.195 137.306Q906.876 138.923 907.517 140.557Q908.159 142.19 908.759 143.839Q909.36 145.488 909.92 147.151Q910.479 148.815 910.998 150.491Q911.516 152.168 911.994 153.856Q912.471 155.545 912.906 157.245Q913.341 158.945 913.735 160.656Q914.128 162.366 914.479 164.085Q914.83 165.805 915.138 167.532Q915.447 169.26 915.712 170.995Q915.978 172.729 916.201 174.47Q916.424 176.211 916.604 177.956Q916.784 179.702 916.92 181.451Q917.057 183.201 917.151 184.953Q917.244 186.706 917.295 188.46Q917.345 190.214 917.352 191.969Q917.375 193.547 917.363 195.124Q917.352 196.702 917.305 198.279Q917.259 199.856 917.177 201.431Q917.096 203.007 916.98 204.581Q916.864 206.154 916.713 207.724Q916.562 209.295 916.377 210.862Q916.191 212.428 915.971 213.991Q915.751 215.553 915.497 217.11Q915.243 218.667 914.954 220.218Q914.665 221.769 914.342 223.314Q914.02 224.858 913.663 226.395Q913.306 227.931 912.915 229.46Q912.525 230.989 912.1 232.508Q911.676 234.028 911.218 235.538Q910.761 237.047 910.27 238.547Q909.779 240.046 909.255 241.534Q908.731 243.023 908.174 244.499Q907.618 245.975 907.029 247.439Q906.44 248.902 905.818 250.352Q905.197 251.803 904.544 253.239Q903.891 254.675 903.207 256.096Q902.522 257.518 901.806 258.924Q901.09 260.33 900.344 261.72Q899.597 263.109 898.82 264.482Q898.043 265.855 897.235 267.211Q896.428 268.567 895.591 269.904Q894.754 271.241 893.888 272.56Q893.022 273.879 892.126 275.178Q891.231 276.477 890.308 277.756Q889.384 279.035 888.432 280.293Q887.481 281.552 886.501 282.789Q885.522 284.026 884.516 285.241C878.661 292.319 871.876 298.453 865.435 304.976C890.487 312.659 915.085 321.441 939.858 329.964C951.58 333.997 964.018 337.201 975.429 341.984C977.377 342.801 979.4 343.441 980.164 345.59C980.909 347.685 980.143 349.287 979.367 351.244C974.46 363.621 967.644 375.402 961.935 387.438L912.087 490.759C913.673 503.91 913.656 517.629 913.664 530.869C913.735 639.719 869.085 750.341 792.247 827.669C779.468 840.529 766.361 852.665 752.144 863.947C746.308 868.58 740.366 873.3 734.274 877.588C729.414 881.01 721.529 884.238 717.895 888.862C713.242 894.783 708.325 907.819 704.844 915.045C696.741 931.873 688.481 948.726 679.987 965.355C678.551 968.165 676.357 972.968 673.195 973.999C664.442 971.464 645.257 958.019 636.378 952.46Q617.181 940.308 597.446 929.05C570.597 936.66 542.715 940.244 514.897 941.621C436.339 945.509 358.658 929.809 289.218 892.279C270.355 881.859 252.458 870.505 234.704 858.279C226.16 869.853 216.06 879.657 203.595 886.921C180.868 900.166 151.771 904.63 126.314 897.75C100.933 890.89 77.9893 874.577 64.8633 851.513Q64.269 850.475 63.7008 849.422Q63.1325 848.369 62.5908 847.302Q62.049 846.235 61.5341 845.155Q61.0191 844.075 60.5313 842.983Q60.0435 841.891 59.5831 840.786Q59.1227 839.682 58.69 838.566Q58.2573 837.451 57.8526 836.325Q57.4479 835.199 57.0714 834.064Q56.6949 832.928 56.3469 831.783Q55.9989 830.639 55.6796 829.486Q55.3603 828.333 55.0698 827.172Q54.7794 826.011 54.5181 824.844Q54.2567 823.676 54.0245 822.503Q53.7924 821.329 53.5896 820.15Q53.3869 818.971 53.2136 817.787Q53.0403 816.603 52.8967 815.415Q52.753 814.228 52.6391 813.037Q52.5251 811.846 52.4409 810.652Q52.3567 809.459 52.3024 808.263Q52.248 807.068 52.2235 805.872Q52.199 804.676 52.2043 803.48Q52.2097 802.283 52.2449 801.087Q52.2801 799.891 52.3452 798.697Q52.4103 797.502 52.5051 796.31Q52.6 795.117 52.7246 793.927Q52.8492 792.737 53.0035 791.551Q53.1578 790.364 53.3417 789.182Q53.5255 788 53.7388 786.823Q53.9521 785.645 54.1948 784.474Q54.4374 783.302 54.7092 782.137Q54.981 780.972 55.2819 779.814Q55.5827 778.656 55.9123 777.506C63.6709 750.208 82.1572 728.556 106.675 714.841C102.622 708.541 99.5608 701.358 96.4044 694.578C83.1119 666.03 75.1377 640.102 67.8843 609.543C61.6101 606.361 53.9934 602.54 48.5024 598.18C46.6672 596.723 44.957 594.736 44.9168 592.268C44.8916 590.723 45.5466 589.253 46.3531 587.97C48.2188 585.002 50.9461 582.421 53.203 579.733L66.9647 563.163C67.1243 551.278 66.2414 539.366 66.4549 527.448Q66.5545 520.492 66.8835 513.542Q67.2124 506.593 67.7704 499.658Q68.3283 492.724 69.1146 485.811Q69.9009 478.899 70.9148 472.016Q71.9286 465.133 73.1689 458.287Q74.4091 451.442 75.8744 444.641Q77.3398 437.84 79.0286 431.091Q80.7174 424.342 82.6278 417.652C114.362 309.553 183.503 219.196 282.92 165.018Q287.14 162.736 291.409 160.547Q295.678 158.358 299.994 156.261Q304.309 154.165 308.669 152.164Q313.03 150.162 317.432 148.255Q321.835 146.349 326.278 144.538Q330.721 142.728 335.202 141.014Q339.683 139.301 344.201 137.685Q348.718 136.07 353.27 134.553Q357.821 133.036 362.405 131.618Q366.988 130.2 371.601 128.882Q376.214 127.565 380.855 126.347Q385.496 125.13 390.162 124.014Q394.828 122.898 399.517 121.884Q404.206 120.869 408.916 119.957Q413.626 119.045 418.355 118.235Q423.084 117.426 427.829 116.719Q432.575 116.013 437.334 115.409Q442.094 114.806 446.865 114.306Q451.637 113.807 456.418 113.411Q461.2 113.015 465.988 112.723Q470.777 112.431 475.571 112.243Q480.365 112.056 485.162 111.972Q489.959 111.889 494.757 111.91Q499.554 111.93 504.35 112.055Q509.146 112.181 513.939 112.41Q518.731 112.639 523.517 112.973Q528.303 113.306 533.081 113.743Q537.858 114.181 542.625 114.722Q547.392 115.263 552.146 115.908Q556.901 116.552 561.64 117.3Q566.379 118.048 571.1 118.898Q575.822 119.749 580.524 120.702C599.727 124.541 617.655 130.653 636.35 136.171C643.362 122.276 649.647 111.598 659.858 99.7511C685.74 69.7244 723.916 52.1371 763.153 49.2077Z"/>
	<path fill="#E87D8C" d="M903.325 507.409C906.361 511.416 902.146 569.612 901.217 578.098C891.225 669.386 847.621 758.258 783.27 823.453C765.265 841.694 745.576 856.953 725.666 872.979L725.358 872.45C728.271 866.492 731.687 860.766 734.653 854.819L775.867 771.889C792.391 738.733 807.936 705.093 824.214 671.82Q864.884 590.151 903.325 507.409Z"/>
	<path fill="#FEFEFE" d="M145.092 713.695C145.309 713.668 145.524 713.632 145.741 713.614Q146.836 713.521 147.933 713.454Q149.03 713.387 150.128 713.347Q151.227 713.306 152.326 713.292Q153.425 713.277 154.524 713.289Q155.622 713.301 156.721 713.339Q157.819 713.377 158.916 713.441Q160.014 713.505 161.109 713.595Q162.204 713.686 163.297 713.802Q164.39 713.919 165.48 714.061Q166.569 714.204 167.655 714.372Q168.741 714.541 169.823 714.735Q170.905 714.929 171.982 715.15Q173.058 715.37 174.13 715.615Q175.201 715.861 176.266 716.132Q177.331 716.403 178.389 716.7Q179.448 716.997 180.498 717.318Q181.549 717.64 182.592 717.987Q183.635 718.333 184.67 718.705Q185.704 719.076 186.729 719.472Q187.754 719.868 188.77 720.289Q189.785 720.709 190.79 721.154Q191.795 721.598 192.79 722.067Q193.784 722.535 194.767 723.027Q195.749 723.519 196.72 724.034Q197.691 724.549 198.649 725.088Q199.607 725.626 200.552 726.187Q201.497 726.748 202.429 727.331Q203.36 727.915 204.278 728.52Q205.195 729.126 206.097 729.753Q207 730.38 207.887 731.028Q208.774 731.677 209.646 732.346Q210.518 733.016 211.373 733.706Q212.199 734.395 213.008 735.103Q213.818 735.812 214.61 736.54Q215.401 737.268 216.175 738.015Q216.949 738.762 217.705 739.528Q218.46 740.293 219.197 741.077Q219.934 741.861 220.651 742.662Q221.368 743.463 222.066 744.282Q222.764 745.101 223.442 745.936Q224.119 746.771 224.777 747.623Q225.434 748.474 226.07 749.341Q226.707 750.208 227.322 751.091Q227.937 751.973 228.53 752.87Q229.124 753.767 229.695 754.679Q230.267 755.59 230.816 756.515Q231.365 757.44 231.892 758.378Q232.419 759.315 232.922 760.266Q233.426 761.216 233.907 762.179Q234.387 763.141 234.844 764.115Q235.301 765.088 235.734 766.073Q236.167 767.057 236.576 768.052Q236.986 769.047 237.37 770.051Q237.755 771.056 238.116 772.069Q238.476 773.083 238.812 774.105Q239.147 775.127 239.458 776.156Q239.769 777.186 240.054 778.223Q240.34 779.26 240.6 780.304Q240.861 781.348 241.096 782.397Q241.331 783.447 241.54 784.502Q241.75 785.557 241.933 786.617Q242.117 787.677 242.275 788.741Q242.433 789.805 242.565 790.872Q242.697 791.94 242.803 793.01Q242.904 794.096 242.978 795.185Q243.053 796.273 243.101 797.364Q243.149 798.454 243.17 799.545Q243.191 800.635 243.185 801.727Q243.18 802.818 243.148 803.908Q243.116 804.999 243.057 806.088Q242.998 807.178 242.913 808.266Q242.827 809.353 242.716 810.439Q242.604 811.524 242.465 812.606Q242.327 813.689 242.162 814.767Q241.997 815.846 241.806 816.92Q241.615 817.994 241.398 819.064Q241.181 820.133 240.937 821.196Q240.694 822.26 240.425 823.317Q240.156 824.375 239.861 825.425Q239.566 826.476 239.245 827.519Q238.925 828.562 238.579 829.596Q238.233 830.631 237.862 831.657Q237.491 832.683 237.095 833.7Q236.699 834.717 236.278 835.723Q235.857 836.73 235.412 837.726Q234.967 838.722 234.497 839.707Q234.028 840.692 233.534 841.666Q233.041 842.639 232.524 843.6Q232.007 844.56 231.467 845.508Q230.927 846.456 230.363 847.391Q229.8 848.325 229.214 849.245Q228.628 850.166 228.02 851.072Q227.412 851.978 226.781 852.868Q226.151 853.759 225.499 854.634Q224.848 855.509 224.175 856.368Q223.502 857.227 222.808 858.069C207.17 876.979 183.44 889.002 159.123 891.26C158.945 891.287 158.768 891.324 158.589 891.342C136.211 893.616 113.43 885.938 95.6627 872.479C77.8145 858.959 65.2411 836.972 62.3974 814.773C59.2705 790.363 66.6364 766.605 81.7475 747.319C97.318 727.446 120.37 716.669 145.092 713.695Z"/>
	<path fill="#E87D8C" d="M187.685 786.973C189.017 789.957 190.269 793.142 192.149 795.821C195.584 800.716 200.399 804.445 203.738 809.456C208.728 816.945 209.69 825.556 207.937 834.253Q207.71 835.412 207.426 836.557Q207.141 837.703 206.799 838.833Q206.457 839.964 206.059 841.075Q205.661 842.186 205.207 843.277Q204.753 844.367 204.246 845.433Q203.738 846.499 203.177 847.538Q202.617 848.577 202.005 849.586Q201.392 850.596 200.73 851.573Q200.068 852.551 199.358 853.494Q198.648 854.437 197.891 855.343Q197.134 856.25 196.333 857.117Q195.531 857.984 194.687 858.809Q193.843 859.635 192.959 860.417Q192.075 861.2 191.152 861.936Q190.23 862.673 189.271 863.363Q188.313 864.052 187.321 864.693C173.901 873.447 156.776 876.953 141.065 873.528C125.386 870.11 111.985 859.979 103.382 846.56C93.2888 830.819 89.2064 811.181 93.2307 792.825C96.4522 778.131 103.955 766.242 116.765 758.206C126.468 752.119 139.701 748.573 151.051 751.331C165.802 754.915 174.734 766.676 182.293 778.862C186.699 774.645 199.3 760.923 204.965 761.259C205.771 761.306 206.007 761.704 206.593 762.191C207.194 763.893 207.418 765.147 206.669 766.907C204.577 771.824 191.977 782.408 187.685 786.973Z"/>
	<path fill="#3E4665" d="M182.293 778.862C186.699 774.645 199.3 760.923 204.965 761.259C205.771 761.306 206.007 761.704 206.593 762.191C207.194 763.893 207.418 765.147 206.669 766.907C204.577 771.824 191.977 782.408 187.685 786.973C175.781 797.744 164.795 809.638 153.14 820.712C148.674 824.955 143.931 830.215 138.587 833.28C133.995 830.24 107.999 801.448 107.633 797.418C107.532 796.306 108.109 794.97 108.943 794.243C109.876 793.429 111.67 792.887 112.9 792.979C116.38 793.24 135.37 816.485 139.13 820.478C153.962 807.035 168.002 792.866 182.293 778.862Z"/>
	<path fill="#E87D8C" d="M79.0451 616.353Q256.963 719.551 432.585 826.616Q489.207 861.148 545.478 896.25C559.393 905.045 574.117 912.82 587.44 922.496Q574.114 925.564 560.621 927.786C547.631 930.951 523.642 932.209 509.743 932.872C432.939 936.537 360.452 918.938 292.465 883.468C275.75 874.747 253.829 862.102 239.989 849.499Q240.673 848.21 241.306 846.895C253.39 821.851 256.312 794.88 246.917 768.379C238.509 744.658 219.817 724.398 197.131 713.624C171.017 701.223 143.019 701.702 116.168 711.368C111.88 705.183 108.534 697.796 105.33 690.992C93.6938 666.279 86.2734 642.577 79.0451 616.353Z"/>
	<path fill="#E87D8C" d="M474.692 121.711C482.861 120.757 491.857 121.348 500.085 121.43C547.382 121.901 588.416 130.445 633.165 144.835C622.408 178.596 621.361 200.887 630.645 235.511C623.494 233.182 616.516 230.27 609.447 227.695L567.592 212.541C548.261 205.474 528.702 199.05 509.359 192.029C496.583 187.391 432.708 162.664 424.582 163.243C424.321 163.262 423.654 163.396 423.383 163.583C419.853 166.015 412.052 176.552 408.564 180.589L360.927 235.941C347.332 237.53 333.69 239.09 320.338 242.192C300.312 246.846 279.798 255.463 261.758 265.254Q259.408 266.543 257.09 267.888Q254.771 269.233 252.486 270.634Q250.201 272.034 247.95 273.49Q245.7 274.945 243.484 276.454Q241.269 277.963 239.091 279.525Q236.913 281.087 234.773 282.701Q232.633 284.315 230.533 285.98Q228.433 287.645 226.373 289.36Q224.314 291.075 222.296 292.839Q220.278 294.603 218.303 296.416Q216.329 298.228 214.398 300.087Q212.468 301.947 210.583 303.852Q208.698 305.757 206.859 307.707Q205.021 309.658 203.229 311.652Q201.438 313.645 199.696 315.682Q197.953 317.718 196.26 319.796Q194.567 321.874 192.925 323.992Q191.282 326.11 189.691 328.267Q188.1 330.424 186.561 332.619Q185.023 334.813 183.538 337.044Q182.052 339.275 180.621 341.542Q179.19 343.808 177.814 346.108Q176.438 348.408 175.118 350.74Q173.797 353.073 172.534 355.436Q171.27 357.8 170.063 360.193Q168.857 362.587 167.708 365.008Q166.56 367.43 165.47 369.879Q164.38 372.328 163.35 374.802Q162.319 377.276 161.349 379.774Q160.378 382.273 159.468 384.794Q158.558 387.315 157.709 389.857Q156.86 392.399 156.072 394.961C151.783 409.52 148.897 425.48 147.826 440.619C147.318 447.787 148.352 455.644 146.817 462.617C145.458 468.793 84.8671 541.06 76.4125 552.083C76.1255 537.762 75.8814 523.313 76.7622 509.011C82.6906 412.757 119.877 326.578 183.952 254.806C197.408 239.735 212.649 226.101 228.31 213.372C300.278 154.875 382.679 126.961 474.692 121.711Z"/>
	<path fill="#A6E5D9" d="M761.255 58.7058C778.683 57.0721 797.777 59.2876 814.341 64.7811Q815.966 65.3079 817.576 65.875Q819.187 66.4421 820.784 67.0491Q822.38 67.6562 823.961 68.3028Q825.541 68.9494 827.105 69.6352Q828.669 70.321 830.216 71.0456Q831.762 71.7701 833.29 72.533Q834.818 73.2958 836.326 74.0965Q837.835 74.8972 839.323 75.7352Q840.811 76.5732 842.278 77.448Q843.745 78.3228 845.189 79.2339Q846.633 80.145 848.055 81.0918Q849.476 82.0386 850.873 83.0205Q852.271 84.0024 853.643 85.0188Q855.016 86.0352 856.362 87.0855Q857.709 88.1358 859.029 89.2193Q860.349 90.3028 861.642 91.4188Q862.934 92.5349 864.199 93.6828Q865.463 94.8307 866.699 96.0097Q867.934 97.1888 869.14 98.3982Q870.346 99.6077 871.521 100.847Q872.696 102.086 873.84 103.354Q874.984 104.622 876.096 105.918Q877.208 107.214 878.287 108.538Q879.367 109.861 880.413 111.211Q881.459 112.561 882.471 113.936Q883.483 115.312 884.461 116.712Q885.439 118.113 886.381 119.537Q887.323 120.961 888.23 122.408Q889.137 123.856 890.007 125.325Q890.877 126.795 891.711 128.285Q892.544 129.776 893.34 131.287Q894.136 132.798 894.894 134.328Q895.606 135.793 896.282 137.274Q896.958 138.756 897.598 140.254Q898.238 141.751 898.842 143.264Q899.446 144.776 900.013 146.303Q900.58 147.83 901.109 149.37Q901.639 150.91 902.132 152.462Q902.624 154.015 903.079 155.579Q903.534 157.142 903.951 158.717Q904.367 160.291 904.746 161.875Q905.125 163.459 905.465 165.052Q905.805 166.645 906.106 168.245Q906.408 169.845 906.671 171.453Q906.933 173.06 907.157 174.673Q907.381 176.286 907.565 177.905Q907.75 179.523 907.896 181.145Q908.041 182.767 908.147 184.392Q908.253 186.017 908.32 187.644Q908.387 189.272 908.415 190.9Q908.442 192.528 908.43 194.157Q908.418 195.786 908.367 197.413Q908.316 199.041 908.225 200.667Q908.134 202.293 908.004 203.917Q907.874 205.54 907.705 207.16Q907.536 208.78 907.328 210.395Q907.119 212.01 906.872 213.62Q906.625 215.23 906.338 216.833Q906.052 218.436 905.727 220.032Q905.402 221.628 905.039 223.216Q904.675 224.803 904.274 226.381Q903.872 227.96 903.432 229.528Q902.992 231.096 902.515 232.653Q902.037 234.21 901.522 235.755Q900.987 237.366 900.412 238.964Q899.837 240.561 899.222 242.143Q898.607 243.726 897.953 245.292Q897.299 246.859 896.605 248.408Q895.912 249.958 895.18 251.49Q894.448 253.022 893.678 254.535Q892.908 256.047 892.1 257.541Q891.292 259.034 890.447 260.506Q889.602 261.979 888.721 263.43Q887.839 264.88 886.921 266.309Q886.004 267.737 885.05 269.142Q884.097 270.547 883.109 271.927Q882.121 273.308 881.099 274.663Q880.076 276.018 879.02 277.348Q877.964 278.677 876.875 279.979Q875.786 281.282 874.665 282.556Q873.544 283.831 872.391 285.077Q871.238 286.324 870.055 287.541Q868.871 288.758 867.657 289.944Q866.443 291.131 865.2 292.287Q863.957 293.444 862.685 294.568Q861.413 295.693 860.114 296.785Q858.814 297.877 857.487 298.937Q856.161 299.996 854.808 301.022Q853.456 302.048 852.078 303.04Q850.7 304.032 849.297 304.988Q847.895 305.945 846.469 306.867Q845.043 307.788 843.595 308.673Q842.146 309.559 840.676 310.408Q839.206 311.256 837.715 312.068Q836.224 312.88 834.713 313.654Q833.202 314.428 831.672 315.164C797.773 331.836 758.844 332.831 723.378 320.747C711.906 316.64 701.875 311.075 691.567 304.725C684.261 305.644 676.837 307.518 669.607 308.955Q648.453 313.08 627.39 317.649C621.266 318.998 615.035 321.037 608.858 321.964C607.746 322.131 606.349 322.325 605.277 321.852C603.842 321.219 602.788 319.437 602.592 317.929C602.396 316.414 603.515 314.911 604.372 313.767C607.603 309.449 611.816 305.62 615.577 301.765Q624.767 292.297 634.078 282.949C640.183 276.918 646.756 270.978 652.037 264.189L652.495 263.594C642.803 245.409 636.256 226.616 634.348 205.971Q634.194 204.312 634.082 202.649Q633.969 200.987 633.898 199.322Q633.826 197.657 633.797 195.991Q633.767 194.325 633.779 192.659Q633.79 190.992 633.843 189.327Q633.896 187.661 633.991 185.998Q634.085 184.334 634.221 182.673Q634.357 181.013 634.534 179.356Q634.711 177.699 634.929 176.047Q635.148 174.395 635.407 172.749Q635.666 171.103 635.966 169.464Q636.266 167.825 636.607 166.193Q636.948 164.562 637.329 162.94Q637.71 161.318 638.132 159.706Q638.553 158.094 639.015 156.493Q639.476 154.891 639.977 153.302Q640.478 151.713 641.019 150.137Q641.559 148.561 642.139 146.998Q642.718 145.436 643.336 143.888Q643.954 142.341 644.611 140.809Q645.267 139.278 645.962 137.763Q646.656 136.248 647.388 134.751Q648.119 133.254 648.888 131.776Q649.657 130.297 650.462 128.839Q651.268 127.38 652.109 125.941Q652.95 124.503 653.827 123.086Q654.704 121.669 655.616 120.274Q656.528 118.88 657.474 117.508Q658.42 116.136 659.4 114.789Q660.38 113.441 661.393 112.118Q662.406 110.795 663.452 109.498Q664.498 108.201 665.576 106.93C689.277 78.6093 724.851 61.9231 761.255 58.7058Z"/>
	<path fill="#3E4665" d="M839.889 138.196Q841.115 138.058 842.348 138.092Q843.58 138.126 844.797 138.332Q846.013 138.538 847.188 138.912Q848.363 139.286 849.475 139.82C853.424 141.718 856.015 145.546 857.306 149.632C858.27 152.683 858.436 155.865 858.129 159.033C857.441 166.118 855.063 173.308 853.137 180.135C845.556 207.003 836.181 234.75 822.808 259.329C818.144 267.901 812 279.883 801.834 282.633C797.521 283.799 793.408 283.064 789.258 281.688C781.116 278.99 773.407 274.083 765.921 269.931C750.801 261.543 735.949 252.689 720.797 244.367Q707.923 237.375 695.192 230.127C688.298 226.247 681.026 222.494 674.673 217.758C665.754 211.108 663.901 201.963 662.396 191.505C661.708 186.723 662 182.489 665.108 178.561C667.762 175.206 672.29 173.294 676.296 172.066C685.837 169.141 696.19 167.603 705.977 165.544Q736.193 159.096 766.508 153.128Q788.243 148.697 809.917 143.974C819.804 141.851 829.853 139.449 839.889 138.196Z"/>
	<path fill="#FEFEFE" d="M851.327 156.395C851.354 156.424 851.39 156.447 851.41 156.482C852.159 157.828 851.812 158.981 851.51 160.446C850.114 167.226 847.997 174.045 846.127 180.71C838.626 207.443 831.375 225.688 818.746 250.519C815.118 257.652 809.99 269.191 802.967 273.441C800.035 275.215 796.449 274.984 793.28 274.062C781.831 270.733 765.06 259.35 754.06 253.246Q729.595 239.675 705.328 225.753C696.742 220.828 687.52 216.204 679.521 210.386C676.895 208.476 675.394 205.829 673.916 203.028C671.75 197.008 671.047 191.365 670.683 185.002C691.131 199.791 714.121 211.448 736.048 223.881C752.117 232.992 767.823 243.123 784.364 251.335C788.845 253.56 795.211 256.856 800.26 254.981C816.886 248.809 842.117 174.993 850.986 157.075L851.327 156.395Z"/>
	<path fill="#FEFEFE" d="M841.783 146.14C842.496 146.072 842.794 145.982 843.467 146.114C845.708 146.557 847.148 148.604 848.506 150.259C843.682 158.555 840.76 168.756 837.11 177.681C828.892 197.776 820.474 217.814 809.691 236.701C807.292 240.904 802.741 250.145 797.413 250.954C791.84 251.801 732.854 216.032 723.582 210.555Q698.529 196.251 673.764 181.455C682.243 178.597 691.242 177.19 699.979 175.355Q720.839 170.918 741.747 166.716L841.783 146.14Z"/>
	<path fill="#3E4665" d="M815.414 167.667L817.416 167.494L817.86 167.902C816.254 172.485 761.068 217.399 754.45 221.631C752.907 222.618 751.645 223.266 749.816 222.872L749.13 221.645C749.941 220.066 750.921 218.887 752.237 217.688C757.104 213.256 762.816 209.256 767.946 205.088Q784.375 191.797 800.535 178.181L802.301 176.513L802.307 176.543L801.855 175.414C779.116 180.478 756.338 185.848 733.502 190.379C730.579 190.959 726.36 192.687 723.478 192.554C721.747 192.475 720.614 191.741 719.502 190.452L719.742 189.551C728.178 185.649 739.037 184.189 748.073 182.079C770.432 176.857 792.786 171.588 815.414 167.667Z"/>
	<path fill="#FEFEFE" d="M361.913 245.291C422.802 241.59 478.317 259.953 525.324 298.806C564.697 331.35 592.838 383.362 597.75 434.151Q597.997 436.569 598.185 438.992Q598.372 441.415 598.499 443.843Q598.626 446.27 598.692 448.699Q598.759 451.129 598.765 453.56Q598.771 455.99 598.716 458.42Q598.661 460.85 598.547 463.278Q598.432 465.706 598.256 468.13Q598.081 470.554 597.845 472.973Q597.61 475.392 597.314 477.804Q597.018 480.217 596.662 482.621Q596.307 485.026 595.891 487.42Q595.476 489.815 595.001 492.199Q594.526 494.583 593.992 496.954Q593.458 499.325 592.865 501.682Q592.273 504.039 591.621 506.381Q590.97 508.722 590.261 511.047Q589.551 513.372 588.784 515.678Q588.017 517.984 587.193 520.271Q586.369 522.557 585.488 524.823Q584.607 527.088 583.67 529.331Q582.733 531.573 581.741 533.792Q580.748 536.01 579.701 538.204Q578.654 540.397 577.552 542.564Q576.451 544.73 575.295 546.869Q574.14 549.007 572.932 551.116Q571.724 553.225 570.464 555.304Q569.204 557.382 567.892 559.428Q566.581 561.475 565.219 563.488Q563.857 565.501 562.445 567.479Q561.034 569.458 559.573 571.401Q558.113 573.343 556.605 575.249Q555.096 577.155 553.541 579.023C511.404 630.007 458.435 655.17 393.125 661.418C330.048 665.162 272.816 646.306 225.233 604.363Q223.362 602.731 221.533 601.053Q219.703 599.376 217.916 597.653Q216.129 595.931 214.385 594.164Q212.64 592.398 210.941 590.589Q209.241 588.78 207.586 586.93Q205.932 585.079 204.324 583.188Q202.716 581.297 201.155 579.367Q199.594 577.436 198.082 575.468Q196.57 573.5 195.106 571.494Q193.643 569.489 192.23 567.448Q190.817 565.407 189.455 563.332Q188.093 561.257 186.783 559.148Q185.473 557.04 184.216 554.9Q182.958 552.759 181.754 550.589Q180.55 548.418 179.401 546.218Q178.251 544.018 177.156 541.79Q176.061 539.562 175.022 537.308Q173.982 535.054 172.999 532.775Q172.016 530.495 171.089 528.192Q170.163 525.889 169.294 523.564Q168.425 521.239 167.614 518.893Q166.803 516.547 166.05 514.181Q165.297 511.816 164.604 509.433Q163.91 507.049 163.275 504.649Q162.641 502.25 162.066 499.835Q161.491 497.42 160.976 494.992Q160.461 492.563 160.007 490.123Q159.552 487.683 159.158 485.232Q158.764 482.781 158.431 480.321Q158.098 477.861 157.827 475.394Q157.555 472.927 157.344 470.453Q157.133 467.98 156.984 465.502C153.741 412.007 174.03 358.558 209.416 318.728Q211.231 316.711 213.094 314.74Q214.957 312.768 216.868 310.842Q218.778 308.916 220.735 307.038Q222.692 305.159 224.694 303.328Q226.696 301.497 228.742 299.716Q230.788 297.935 232.876 296.204Q234.965 294.473 237.095 292.793Q239.225 291.113 241.396 289.486Q243.566 287.858 245.775 286.284Q247.985 284.71 250.232 283.19Q252.478 281.67 254.762 280.205Q257.045 278.74 259.363 277.331Q261.681 275.922 264.033 274.57Q266.385 273.218 268.769 271.923Q271.153 270.629 273.568 269.393Q275.983 268.157 278.427 266.98Q280.871 265.803 283.343 264.685Q285.815 263.568 288.313 262.512Q290.812 261.455 293.335 260.459Q295.859 259.464 298.406 258.53Q300.953 257.596 303.522 256.724Q306.09 255.852 308.68 255.043Q311.269 254.234 313.877 253.488Q316.486 252.743 319.111 252.06Q321.737 251.378 324.378 250.76Q327.02 250.142 329.675 249.589Q332.331 249.035 334.999 248.546Q337.668 248.057 340.347 247.634Q343.027 247.21 345.716 246.851Q348.405 246.493 351.102 246.2Q353.799 245.907 356.502 245.68Q359.205 245.452 361.913 245.291Z"/>
	<path fill="#3E4665" d="M515.752 352.951C518.212 355.256 520.286 358.384 522.17 361.175C520.331 362.5 518.426 363.74 516.546 365.007C513.897 363.511 511.683 359.775 510.009 357.287C511.809 355.709 513.814 354.355 515.752 352.951Z"/>
	<path fill="#3E4665" d="M371.223 290.709C373.869 290.488 376.544 290.511 379.199 290.502C427.758 290.334 472.466 310.883 506.608 344.739C505.342 345.989 503.897 347.049 502.496 348.142C496.708 343.991 492.196 337.921 486.515 333.428Q484.344 331.685 482.117 330.013Q479.89 328.342 477.61 326.744Q475.33 325.146 472.999 323.624Q470.667 322.101 468.288 320.655Q465.908 319.209 463.483 317.842Q461.057 316.475 458.588 315.187Q456.12 313.9 453.61 312.694Q451.1 311.487 448.553 310.364Q446.005 309.24 443.423 308.2Q440.84 307.16 438.224 306.205Q435.609 305.249 432.964 304.38Q430.319 303.511 427.646 302.728Q424.974 301.946 422.278 301.251Q419.582 300.556 416.864 299.949Q414.147 299.342 411.411 298.825Q408.675 298.307 405.924 297.879Q403.824 297.532 401.716 297.237Q399.608 296.941 397.493 296.698Q395.378 296.454 393.258 296.262Q391.138 296.07 389.014 295.931Q386.89 295.791 384.763 295.703Q382.636 295.616 380.508 295.58Q378.38 295.545 376.251 295.562Q374.122 295.578 371.995 295.647Q369.867 295.716 367.742 295.837Q365.617 295.958 363.495 296.131Q361.374 296.304 359.257 296.529Q357.14 296.754 355.029 297.031Q352.919 297.308 350.816 297.636Q348.713 297.965 346.618 298.344Q344.524 298.724 342.439 299.155Q340.354 299.587 338.281 300.069Q336.208 300.551 334.147 301.084Q332.086 301.616 330.039 302.199Q327.991 302.783 325.959 303.416Q323.927 304.049 321.911 304.731Q319.894 305.414 317.895 306.146Q315.897 306.878 313.916 307.659Q311.936 308.439 309.975 309.269Q308.015 310.098 306.075 310.974Q304.135 311.851 302.218 312.775Q300.3 313.699 298.406 314.67Q296.511 315.641 294.641 316.658Q292.771 317.675 290.927 318.737Q289.082 319.8 287.264 320.907Q285.446 322.015 283.656 323.166Q281.866 324.318 280.104 325.513Q278.343 326.708 276.611 327.946Q275.048 329.094 273.514 330.279Q271.979 331.464 270.473 332.686Q268.968 333.908 267.492 335.166Q266.016 336.424 264.571 337.717Q263.126 339.01 261.713 340.337Q260.299 341.664 258.918 343.026Q257.537 344.387 256.189 345.781Q254.841 347.175 253.527 348.601Q252.213 350.027 250.934 351.484Q249.655 352.941 248.411 354.429Q247.168 355.917 245.96 357.434Q244.753 358.951 243.582 360.497Q242.412 362.043 241.279 363.616Q240.146 365.19 239.051 366.79Q237.956 368.391 236.9 370.017Q235.844 371.643 234.828 373.295Q233.811 374.946 232.835 376.621Q231.859 378.297 230.923 379.995Q229.987 381.693 229.093 383.414Q228.198 385.134 227.346 386.876Q226.493 388.617 225.682 390.379Q224.872 392.14 224.104 393.921Q223.336 395.701 222.611 397.5Q221.886 399.298 221.205 401.114Q220.524 402.929 219.887 404.76Q219.249 406.592 218.656 408.438Q218.063 410.284 217.515 412.144Q216.967 414.004 216.463 415.876Q215.96 417.749 215.502 419.633Q215.044 421.517 214.631 423.412Q214.218 425.307 213.852 427.211Q213.485 429.115 213.164 431.027C211.937 439.194 211.361 447.25 211.414 455.502C211.69 498.653 228.068 532.837 258.408 562.805C257.066 564.045 255.626 565.189 254.223 566.361C226.908 541.081 208.818 501.768 206.569 464.812Q206.465 462.82 206.409 460.827Q206.353 458.833 206.346 456.839Q206.339 454.845 206.38 452.851Q206.422 450.857 206.512 448.865Q206.602 446.872 206.741 444.883Q206.879 442.893 207.066 440.908Q207.253 438.922 207.489 436.942Q207.724 434.961 208.008 432.987Q208.291 431.013 208.623 429.047Q208.954 427.08 209.334 425.122Q209.713 423.164 210.14 421.216Q210.567 419.268 211.042 417.331Q211.516 415.394 212.037 413.469Q212.559 411.544 213.127 409.633Q213.695 407.721 214.31 405.824Q214.925 403.926 215.585 402.045Q216.246 400.163 216.953 398.298Q217.659 396.433 218.411 394.586Q219.162 392.738 219.959 390.91Q220.755 389.082 221.596 387.273Q222.437 385.465 223.321 383.677Q224.206 381.89 225.134 380.125Q226.062 378.359 227.032 376.617Q228.003 374.875 229.016 373.157Q230.029 371.439 231.083 369.746Q232.137 368.053 233.233 366.387Q234.328 364.72 235.464 363.081Q236.599 361.441 237.774 359.83Q238.95 358.219 240.164 356.637Q241.378 355.054 242.63 353.502Q243.883 351.95 245.173 350.429Q246.462 348.908 247.789 347.419C280.047 310.981 323.474 293.583 371.223 290.709Z"/>
	<path fill="#3E4665" d="M372.805 315.217C373.286 315.176 373.769 315.142 374.252 315.122Q376.089 315.063 377.926 315.048Q379.764 315.033 381.601 315.063Q383.439 315.093 385.275 315.167Q387.111 315.242 388.945 315.361Q390.779 315.48 392.609 315.643Q394.439 315.806 396.265 316.014Q398.091 316.222 399.911 316.474Q401.732 316.726 403.545 317.022Q405.359 317.318 407.165 317.658Q408.971 317.998 410.768 318.382Q412.565 318.766 414.352 319.193Q416.14 319.62 417.916 320.091Q419.692 320.561 421.457 321.075Q423.221 321.588 424.973 322.144Q426.724 322.7 428.462 323.299Q430.199 323.897 431.922 324.537Q433.644 325.178 435.35 325.86Q437.057 326.542 438.746 327.265Q440.435 327.988 442.107 328.752Q443.778 329.516 445.43 330.321Q447.083 331.125 448.715 331.969Q450.347 332.814 451.958 333.697Q453.57 334.581 455.159 335.503Q456.748 336.425 458.315 337.386Q459.882 338.347 461.424 339.345Q462.967 340.344 464.485 341.379Q466.003 342.415 467.496 343.487Q468.988 344.559 470.454 345.667Q471.92 346.775 473.359 347.918Q474.798 349.061 476.208 350.239Q477.619 351.417 479.001 352.628Q480.382 353.84 481.734 355.085C509.183 380.871 526.479 415.022 527.52 453.062Q527.553 454.756 527.545 456.45Q527.537 458.144 527.488 459.837Q527.438 461.531 527.347 463.222Q527.256 464.914 527.124 466.603Q526.991 468.292 526.817 469.977Q526.643 471.662 526.429 473.342Q526.214 475.023 525.957 476.697Q525.701 478.372 525.404 480.04Q525.107 481.708 524.77 483.368Q524.432 485.028 524.053 486.679Q523.675 488.331 523.257 489.972Q522.838 491.614 522.379 493.244Q521.92 494.875 521.422 496.494Q520.923 498.113 520.385 499.72Q519.847 501.326 519.27 502.919Q518.693 504.512 518.077 506.09Q517.461 507.668 516.806 509.23Q516.152 510.793 515.459 512.339Q514.767 513.885 514.036 515.414Q513.306 516.942 512.539 518.453Q511.771 519.963 510.967 521.454Q510.163 522.945 509.322 524.416Q508.482 525.887 507.606 527.337Q506.73 528.786 505.818 530.214Q504.907 531.642 503.96 533.048Q503.014 534.453 502.034 535.835Q501.054 537.216 500.04 538.573Q499.026 539.931 497.979 541.263Q496.932 542.595 495.853 543.901Q494.774 545.206 493.663 546.486Q492.552 547.765 491.411 549.016Q490.269 550.268 489.097 551.491C462.284 579.716 424.429 597.461 385.381 598.554L384.955 598.583C347.022 600.928 307.132 586.976 278.686 561.726C249.836 536.116 231.747 502.531 229.604 463.626C227.691 428.903 240.03 392.623 263.277 366.709C292.679 333.932 329.092 317.558 372.805 315.217Z"/>
	<path fill="#FEFEFE" d="M370.422 323.791C370.607 323.772 370.792 323.749 370.978 323.733C405.617 320.736 444.871 335.391 471.257 357.47Q472.499 358.491 473.716 359.542Q474.932 360.592 476.122 361.673Q477.312 362.754 478.475 363.864Q479.638 364.974 480.773 366.112Q481.909 367.25 483.015 368.416Q484.122 369.582 485.199 370.775Q486.277 371.968 487.325 373.187Q488.372 374.407 489.389 375.652Q490.407 376.896 491.393 378.166Q492.379 379.436 493.333 380.729Q494.288 382.023 495.21 383.34Q496.132 384.656 497.021 385.996Q497.91 387.335 498.766 388.696Q499.622 390.057 500.444 391.438Q501.266 392.82 502.053 394.221Q502.841 395.623 503.593 397.043Q504.346 398.464 505.063 399.902Q505.78 401.341 506.462 402.797Q507.143 404.253 507.789 405.726Q508.434 407.198 509.042 408.686Q509.651 410.174 510.222 411.676Q510.794 413.179 511.328 414.695Q511.863 416.211 512.359 417.74Q512.856 419.269 513.314 420.81Q513.773 422.351 514.193 423.902Q514.614 425.454 514.996 427.016Q515.377 428.577 515.721 430.148Q516.064 431.718 516.368 433.297Q516.672 434.875 516.937 436.461Q517.202 438.046 517.428 439.638Q517.654 441.23 517.84 442.826Q518.026 444.423 518.173 446.024C521.181 480.76 509.322 513.647 487.167 540.141C461.535 570.792 426.239 586.429 386.946 589.942C351.487 591.153 316.604 581.445 288.866 558.697C260.82 535.696 242.34 504.525 238.891 468.005C235.873 436.051 245.908 401.887 266.383 377.116C294.341 343.292 327.45 327.917 370.422 323.791Z"/>
	<path fill="#3E4665" d="M268.823 429.258L274.825 431.071C273.998 434.345 273.523 437.7 272.974 441.03L267.177 440.342C267.557 436.555 267.917 432.967 268.823 429.258Z"/>
	<path fill="#3E4665" d="M403.939 549.127C405.011 550.682 405.525 553.547 406.12 555.393C402.895 556.717 399.515 557.324 396.115 558.027C396.003 557.972 395.872 557.943 395.777 557.861C394.593 556.831 394.581 553.47 394.351 551.926L403.939 549.127Z"/>
	<path fill="#3E4665" d="M266.425 451.293C267.928 451.421 269.103 451.616 270.512 452.167C272.971 454.791 271.753 461.885 272.193 465.516Q272.335 466.774 272.509 468.029Q272.683 469.283 272.889 470.532Q273.095 471.782 273.332 473.025Q273.569 474.269 273.838 475.507Q274.107 476.744 274.408 477.974Q274.708 479.204 275.039 480.426Q275.371 481.648 275.733 482.862Q276.095 484.075 276.488 485.279Q276.881 486.483 277.305 487.676Q277.728 488.869 278.182 490.052Q278.635 491.234 279.119 492.404Q279.602 493.574 280.115 494.732Q280.628 495.89 281.17 497.034Q281.713 498.178 282.284 499.309Q282.855 500.439 283.454 501.554Q284.054 502.669 284.682 503.769Q285.309 504.869 285.965 505.952Q286.62 507.036 287.303 508.102Q287.986 509.168 288.695 510.217Q289.405 511.266 290.141 512.296Q290.877 513.327 291.639 514.338Q292.401 515.35 293.188 516.341Q293.976 517.333 294.788 518.304Q295.6 519.276 296.437 520.226Q297.273 521.177 298.134 522.106Q298.995 523.035 299.878 523.941Q300.762 524.848 301.669 525.732Q302.575 526.616 303.504 527.477Q304.433 528.338 305.383 529.175Q306.333 530.012 307.305 530.824Q308.276 531.637 309.267 532.424Q310.259 533.212 311.27 533.974C331.061 549.179 358.531 557.833 383.451 554.461C384.064 556.023 384.457 557.659 384.896 559.277C382.386 559.891 379.365 559.948 376.78 560.019C347.157 560.841 320.019 549.734 298.625 529.396C276.138 508.019 267.079 481.74 266.425 451.293Z"/>
	<path fill="#FEFEFE" d="M426.752 172.821C447.935 177.943 468.479 186.918 489.001 194.21L571.825 223.773Q602.803 235.206 634.023 245.958C636.28 251.678 638.956 257.19 641.118 262.968C632.683 271.388 624.691 280.261 616.333 288.762C609.843 295.363 602.177 301.879 596.579 309.236C594.374 312.133 593.366 314.807 593.966 318.488C594.62 322.505 597.066 326.349 600.449 328.62C602.631 330.085 604.851 330.545 607.455 330.473C615.365 330.254 623.831 327.689 631.589 326.056C650.947 321.98 670.238 317.16 689.718 313.735C704.113 324.402 722.833 331.059 740.217 334.886C766.176 340.601 795.689 338.802 820.778 329.832C833.213 325.387 845.273 318.862 856.385 311.768Q896.995 324.901 937.291 338.97C948.195 342.656 959.102 346.97 970.179 350.043C966.717 357.901 962.583 365.446 958.769 373.136L939.031 413.511L884.863 524.917L751.458 801.058L693.659 917.594C686.207 932.851 677.708 947.923 671.103 963.533C663.272 959.556 655.682 954.228 648.138 949.654L588.363 912.646L417.77 807.553C405.577 799.524 392.937 792.409 380.535 784.749C371.086 778.912 361.851 772.73 352.375 766.934Q325.835 750.985 299.129 735.314L98.9109 616.756C84.6074 608.199 69.8367 600.454 55.6148 591.751C58.1056 587.979 61.4427 584.457 64.3143 580.946L86.1062 554.834Q117.9 516.445 148.776 477.313C149.679 483.311 150.278 489.298 151.557 495.242Q152.349 498.887 153.267 502.503Q154.185 506.119 155.227 509.701Q156.269 513.283 157.434 516.827Q158.599 520.37 159.885 523.872Q161.172 527.373 162.579 530.828Q163.986 534.283 165.512 537.687Q167.037 541.092 168.679 544.441Q170.321 547.791 172.078 551.081Q173.835 554.372 175.705 557.6Q177.574 560.829 179.554 563.99Q181.534 567.152 183.622 570.243Q185.71 573.335 187.903 576.352Q190.097 579.37 192.393 582.309Q194.689 585.249 197.086 588.108Q199.482 590.967 201.976 593.741Q204.47 596.516 207.058 599.202Q209.034 601.268 211.061 603.284Q213.087 605.301 215.163 607.267Q217.239 609.232 219.363 611.146Q221.487 613.06 223.657 614.92Q225.828 616.781 228.044 618.587Q230.26 620.394 232.52 622.145Q234.779 623.896 237.082 625.59Q239.385 627.285 241.728 628.922Q244.072 630.559 246.456 632.137Q248.839 633.716 251.261 635.235Q253.683 636.754 256.142 638.213Q258.6 639.672 261.094 641.069Q263.588 642.467 266.116 643.802Q268.644 645.137 271.204 646.41Q273.764 647.682 276.355 648.891Q278.946 650.099 281.566 651.244Q284.186 652.388 286.833 653.467Q289.481 654.546 292.154 655.559Q294.827 656.572 297.525 657.519Q300.222 658.466 302.943 659.346Q305.663 660.225 308.404 661.038Q311.145 661.85 313.905 662.594Q316.665 663.338 319.443 664.014Q322.221 664.689 325.015 665.296Q327.809 665.903 330.617 666.44Q333.425 666.977 336.245 667.445Q339.065 667.913 341.896 668.311Q344.727 668.709 347.567 669.036Q350.407 669.364 353.255 669.621Q356.102 669.879 358.955 670.065Q361.807 670.252 364.664 670.368Q367.52 670.485 370.379 670.53C432.378 671.517 494.497 651.234 539.556 607.505C579.813 568.435 606.876 516.423 607.587 459.635C608.322 400.866 586.782 347.998 545.653 306.019C498.959 258.358 439.067 236.088 373.093 235.359C383.11 225.213 391.84 213.963 401.017 203.081C409.562 192.948 418.484 183.195 426.752 172.821Z"/>
	<path fill="#3E4665" d="M719.395 456.495C720.819 456.8 722.26 457.08 723.363 458.123C724.191 458.906 724.442 459.906 724.454 461.015C724.511 466.385 687.214 525.433 681.258 531.494C679.866 532.909 678.602 532.817 676.754 532.815C675.065 532.027 672.768 530.825 671.795 529.162C671.084 527.949 670.98 526.903 671.295 525.565C672.098 522.152 674.008 518.805 675.566 515.667C684.194 498.293 696.036 484.268 708.119 469.332C711.292 465.409 715.178 459.138 719.395 456.495Z"/>
	<path fill="#3E4665" d="M701.275 445.851C701.981 445.845 702.755 445.802 703.453 445.961C704.859 446.281 705.771 447.045 706.513 448.253C706.787 449.569 706.823 450.471 706.407 451.766C704.663 457.203 700.009 462.564 696.944 467.425C689.191 479.723 680.892 492.105 674.554 505.203C673.002 508.411 668.67 519.946 665.497 521.203C664.128 521.744 662.911 521.547 661.609 520.94C659.91 520.148 658.57 518.819 658.032 516.995C656.107 510.475 678.175 482.457 682.721 474.787L683.037 474.244C672.299 486.044 644.996 512.374 638.983 524.741C636.276 530.309 636.577 535.774 638.605 541.513C641.725 550.344 650.373 557.771 658.716 561.681C665.079 564.664 671.982 565.332 678.637 562.798C683.196 561.063 687.02 558.085 690.31 554.537C698.791 545.39 716.245 514.988 721.984 502.696C711.719 515.176 702.751 528.771 692.674 541.423C691.405 541.207 689.914 541.023 688.744 540.465C687.318 539.784 686.616 537.692 685.987 536.335C696.12 521.076 708.189 506.902 719.59 492.572C724.789 486.038 729.956 478.087 736.126 472.558C737.429 471.39 739.401 470.131 741.26 470.575C742.43 470.855 743.202 471.346 743.674 472.496C744.445 474.38 743.756 476.87 743.12 478.684C736.822 496.645 709.756 545.63 697.659 559.724C694.086 563.887 689.605 567.688 684.654 570.102C676.245 574.204 667.278 574.313 658.55 571.26C652.65 579.982 646.676 588.987 641.475 598.139C638.458 603.465 634.895 608.507 631.613 613.676C623.73 626.089 615.676 638.344 607.578 650.617C594.466 670.489 581.911 690.72 568.759 710.572Q557.027 728.05 545.708 745.798C541.141 752.925 536.856 760.69 531.649 767.347C526.694 773.683 520.482 777.924 512.301 778.762Q511.622 778.832 510.94 778.868Q510.258 778.904 509.576 778.906Q508.893 778.907 508.211 778.875Q507.529 778.843 506.85 778.776Q506.17 778.71 505.495 778.61Q504.82 778.51 504.15 778.376Q503.481 778.242 502.819 778.075Q502.157 777.908 501.504 777.708Q500.852 777.508 500.21 777.275Q499.568 777.043 498.938 776.779Q498.309 776.515 497.693 776.219Q497.078 775.924 496.478 775.599Q495.878 775.273 495.295 774.918Q494.712 774.562 494.147 774.179Q493.583 773.795 493.038 773.383Q492.493 772.971 491.97 772.533C486.604 767.979 483.67 761.82 483.268 754.828C482.904 748.494 484.39 742.76 487.759 737.381C491.68 731.121 497.609 725.325 502.364 719.617Q519.52 698.927 536.906 678.428L596.191 608.407C610.349 591.563 624.103 574.232 639.032 558.058Q637.368 556.126 635.864 554.066C630.256 546.494 627.147 538.019 628.637 528.479C629.542 522.684 632.526 517.62 635.853 512.887C640.639 506.078 646.487 500.386 652.066 494.26C662.725 482.556 673.368 471.362 684.812 460.423C690.077 455.39 695.352 450.111 701.275 445.851Z"/>
	<path fill="#FEFEFE" d="M645.43 563.99C647.058 565.253 648.844 566.349 650.558 567.495C636.824 588.184 623.782 609.381 610.404 630.303L553.672 717.173Q544.764 730.57 536.15 744.159C532.31 750.243 528.676 756.728 524.235 762.386C521.606 765.734 518.647 768.682 514.505 770.061C509.373 771.768 504.714 770.626 500.053 768.237Q499.353 767.756 498.684 767.232Q497.962 766.655 497.3 766.011Q496.639 765.366 496.044 764.659Q495.449 763.952 494.926 763.19Q494.404 762.428 493.959 761.618Q493.514 760.809 493.151 759.959Q492.788 759.109 492.51 758.228Q492.233 757.347 492.043 756.443Q491.854 755.539 491.754 754.62C491.423 751.526 491.865 747.161 493.52 744.449C497.866 737.329 504.6 730.64 509.964 724.191Q532.233 697.645 555.108 671.619C564.154 661.261 572.434 650.302 581.302 639.804C602.676 614.503 624.423 589.611 645.43 563.99Z"/>
	<path fill="#3E4665" d="M615.423 612.419C615.437 614.144 614.269 615.781 613.39 617.208C594.577 647.758 573.442 677.286 553.36 707.031C543.373 721.823 532.608 740.898 521.347 754.082C519.042 756.781 517.391 758.252 513.894 759.091C513.837 758.57 513.846 758.946 514.207 758.008C516.85 756.203 518.964 754.411 520.933 751.87C523.995 747.919 526.506 743.455 529.222 739.258L543.857 716.795Q566.979 681.775 590.847 647.26C598.939 635.545 606.403 623.482 615.423 612.419Z"/>
	<path fill="#3E4665" d="M823.808 497.727C829.086 497.792 833.854 498.574 838.781 500.479C834.792 506.826 831.27 513.499 827.366 519.914Q808.765 550.284 789.701 580.366L728.769 673.854C719.778 687.489 710.421 700.847 701.657 714.637L652.859 790.514C646.435 800.578 639.814 810.488 633.255 820.461C629.672 825.908 626.441 831.848 622.294 836.885Q621.6 837.742 620.847 838.547Q620.094 839.352 619.286 840.102Q618.477 840.851 617.617 841.542Q616.757 842.232 615.85 842.858Q614.944 843.485 613.994 844.046Q613.045 844.607 612.058 845.099Q611.071 845.59 610.052 846.01Q609.033 846.431 607.986 846.777C600.114 849.43 593.602 848.034 586.377 844.489Q583.262 842.724 580.518 840.425C575.092 835.889 571.307 829.735 570.83 822.565C570.536 818.143 571.149 813.652 573.299 809.744C579.208 799.006 588.966 789.923 596.598 780.361Q638.248 727.765 683.014 677.793C681.253 673.778 679.989 669.97 679.85 665.532C678.782 631.481 735.472 562.022 758.46 537.286C775.846 518.577 796.838 498.701 823.808 497.727Z"/>
	<path fill="#FEFEFE" d="M708.451 688.919C698.853 702.267 690.163 716.45 681.274 730.288L645.442 785.885Q636.077 800.852 626.027 815.367C622.668 820.305 619.425 825.488 615.654 830.123C613.314 832.999 610.601 835.76 607.272 837.473C603.164 839.587 598.482 839.632 594.143 838.19C588.622 836.356 583.77 832.222 581.252 826.957C579.639 823.583 578.896 819.087 580.415 815.537C584.386 806.255 685.826 686.278 689.704 684.664C692.939 687.073 695.513 687.846 699.387 688.522L699.743 688.581C702.629 688.989 705.541 688.91 708.451 688.919Z"/>
	<path fill="#3E4665" d="M699.387 688.522L699.743 688.581C699.66 689.527 699.514 690.418 699.186 691.311C697.664 695.446 694.559 699.585 692.227 703.335Q684.078 716.369 675.654 729.227L638.185 785.775C629.916 798.198 621.892 811.201 612.675 822.946C610.13 826.189 607.2 829.818 603.281 831.402C601.31 832.198 599.907 832.503 597.899 831.612C598.868 829.643 604.638 828.118 606.69 826.564C609.116 824.727 611.262 821.213 613.026 818.742C618.346 811.294 623.141 803.439 628.188 795.802L663.13 743.102L686.493 708.723C690.762 702.413 695.739 696.01 699.075 689.172L699.387 688.522Z"/>
	<path fill="#FEFEFE" d="M820.293 506.648C821.695 506.511 822.951 506.413 824.361 506.592C823.013 512.22 809.796 531.719 805.799 538.121Q768.534 597.759 729.603 656.323C724.836 663.549 720.535 671.847 715.019 678.483C708.722 681.074 701.849 681.059 695.558 678.493C692.215 676.1 689.726 671.865 688.991 667.847C685.581 649.192 710.438 613.017 721.132 597.85C737.95 573.997 773.043 530.011 797.738 514.911C804.854 510.561 812.104 508.065 820.293 506.648Z"/>
	<path fill="#3E4665" d="M784.116 552.307C784.681 553.343 784.833 553.642 784.7 554.865C783.986 561.425 721.028 657.359 714.724 666.117C713.98 667.151 713.214 667.894 712.203 668.671L711.566 667.752C712.784 662.422 728.331 640.762 731.944 635.149C742.257 619.128 753.159 603.416 763.093 587.165C767.307 580.271 771.609 573.41 775.677 566.429C778.399 561.758 780.808 556.577 784.116 552.307Z"/>
</svg>
