<?xml version="1.0" encoding="utf-8" ?>
<svg xmlns="http://www.w3.org/2000/svg" xmlns:xlink="http://www.w3.org/1999/xlink" width="1024" height="1024">
	<path fill="#FEFEFE" d="M0 0L1024 0L1024 1024L0 1024L0 0Z"/>
	<path fill="#231D1D" d="M495.271 66.2198C496.514 66.1187 497.761 66.0988 499.007 66.0717C511.051 65.8102 523.211 66.3199 535.246 66.8159C548.76 67.373 562.19 67.9493 575.578 69.9962C641.728 80.1103 713.807 111.734 767.526 151.624Q786.745 166.085 804.015 182.825C828.527 206.302 854.526 235.165 873.5 263.316C906.817 312.745 930.236 373.888 943.019 431.899C947.397 451.768 950.999 472.706 951.377 493.092C951.548 502.352 950.87 511.46 950.704 520.686C950.413 536.902 950.421 552.815 948.865 568.996Q948.202 575.493 947.344 581.966Q946.486 588.44 945.434 594.885Q944.381 601.33 943.135 607.74Q941.888 614.15 940.45 620.52Q939.011 626.89 937.381 633.214Q935.75 639.537 933.931 645.809Q932.111 652.08 930.103 658.294Q928.095 664.508 925.901 670.659Q923.706 676.809 921.328 682.891Q918.949 688.973 916.389 694.98Q913.828 700.987 911.088 706.915Q908.347 712.842 905.43 718.685Q902.512 724.527 899.419 730.279Q896.327 736.03 893.063 741.686Q889.798 747.342 886.365 752.897Q882.932 758.452 879.333 763.901C865.256 785.649 850.291 806.8 832.247 825.458C796.418 862.505 746.686 897.447 699.181 917.722C681.728 925.171 663.745 930.806 645.638 936.387C623.108 943.331 597.262 951.147 573.987 954.017C561.004 955.618 547.692 955.657 534.625 955.887C505.5 955.806 475.631 957.358 446.695 953.722C430.969 951.746 415.048 947.584 399.756 943.457Q392.789 941.605 385.881 939.541Q378.974 937.477 372.133 935.203Q365.292 932.928 358.524 930.445Q351.756 927.962 345.067 925.274Q338.378 922.585 331.774 919.692Q325.171 916.8 318.659 913.707Q312.147 910.614 305.733 907.323Q299.319 904.032 293.009 900.546Q286.698 897.06 280.497 893.383Q274.297 889.705 268.211 885.84Q262.126 881.974 256.162 877.924Q250.198 873.875 244.361 869.644Q238.523 865.413 232.818 861.006Q227.113 856.599 221.546 852.019Q215.978 847.439 210.554 842.691Q205.129 837.943 199.852 833.031C172.68 807.598 151.868 777.083 134.305 744.433C127.586 731.941 120.553 719.494 114.828 706.51C90.5601 651.464 78.8858 590.034 76.7234 530.124C72.5903 415.613 115.94 289.863 194.461 205.635Q198.068 201.731 201.769 197.916Q205.47 194.101 209.263 190.378Q213.056 186.655 216.939 183.026Q220.822 179.396 224.792 175.863Q228.763 172.33 232.818 168.894Q236.874 165.459 241.012 162.124Q245.151 158.788 249.369 155.555Q253.588 152.322 257.884 149.193Q262.181 146.064 266.552 143.041Q270.924 140.017 275.368 137.102Q279.812 134.187 284.326 131.381Q288.84 128.574 293.421 125.88Q298.002 123.185 302.648 120.603Q307.293 118.02 312.001 115.552Q316.708 113.085 321.474 110.732Q326.241 108.38 331.063 106.145Q335.885 103.91 340.761 101.794Q345.636 99.6774 350.562 97.6807Q355.488 95.684 360.461 93.8082Q365.434 91.9324 370.451 90.1787Q375.469 88.4249 380.527 86.7943Q385.586 85.1637 390.683 83.6572Q395.78 82.1507 400.913 80.7692Q406.045 79.3876 411.21 78.1319Q416.374 76.8762 421.568 75.7471Q426.762 74.6179 431.981 73.616Q437.201 72.6141 442.444 71.74Q447.687 70.8659 452.949 70.1201Q458.211 69.3744 463.491 68.7575Q468.77 68.1405 474.062 67.6528Q479.355 67.165 484.658 66.8067Q489.961 66.4484 495.271 66.2198Z"/>
	<path fill="#FEFEFE" d="M489.741 76.2877C523.926 74.3873 571.013 78.3113 604.617 86.1787C626.704 91.3499 648.541 99.0832 669.432 107.883C710.326 125.108 746.421 145.68 780.125 174.737C809.09 199.708 841.719 235.975 862.848 267.897C902.235 327.403 930.591 408.023 935.782 479.113C936.594 490.241 936.74 501.354 937.014 512.499C937.481 531.488 937.978 550.526 936.216 569.478C935.035 582.165 932.709 594.753 930.25 607.244Q929.582 610.676 928.857 614.096Q928.133 617.516 927.353 620.924Q926.573 624.331 925.737 627.726Q924.901 631.121 924.011 634.501Q923.12 637.882 922.174 641.247Q921.228 644.613 920.227 647.963Q919.227 651.312 918.172 654.645Q917.116 657.978 916.007 661.293Q914.897 664.609 913.734 667.905Q912.571 671.202 911.354 674.479Q910.137 677.757 908.866 681.014Q907.596 684.271 906.273 687.506Q904.949 690.742 903.573 693.956Q902.198 697.17 900.769 700.361Q899.341 703.552 897.861 706.719Q896.381 709.886 894.85 713.029Q893.318 716.171 891.736 719.289Q890.153 722.406 888.52 725.497Q886.887 728.588 885.203 731.652Q883.52 734.716 881.786 737.752Q880.053 740.788 878.271 743.795Q876.488 746.803 874.657 749.781Q872.826 752.759 870.946 755.706Q869.066 758.654 867.139 761.57Q865.211 764.487 863.236 767.372Q861.261 770.256 859.24 773.109Q857.218 775.961 855.15 778.779Q853.082 781.598 850.969 784.383Q848.855 787.167 846.696 789.917Q844.537 792.667 842.334 795.381Q840.13 798.095 837.883 800.773Q835.636 803.451 833.345 806.092C778.373 869.555 712.402 907.3 631.97 929.06C618.979 932.575 606.009 936.35 592.744 938.702C574.036 942.018 555.058 943.574 536.125 944.927Q534.494 945.025 532.863 945.104C517.16 945.866 501.487 945.465 485.796 944.646Q481.178 944.45 476.565 944.153Q471.953 943.856 467.348 943.458Q462.743 943.06 458.148 942.561Q453.552 942.062 448.969 941.463Q444.386 940.864 439.817 940.164Q435.248 939.465 430.696 938.666Q426.143 937.866 421.609 936.967Q417.076 936.069 412.562 935.071Q408.049 934.073 403.559 932.976Q399.069 931.88 394.604 930.685Q390.139 929.49 385.701 928.198Q381.263 926.906 376.854 925.517Q372.446 924.128 368.069 922.643Q363.692 921.158 359.348 919.577Q355.005 917.996 350.697 916.321Q346.389 914.646 342.119 912.876Q337.849 911.107 333.619 909.244Q329.388 907.382 325.2 905.427Q321.011 903.473 316.867 901.427Q312.722 899.381 308.623 897.245Q304.524 895.108 300.473 892.883Q296.422 890.657 292.42 888.344Q288.419 886.03 284.469 883.63Q280.519 881.229 276.623 878.742Q272.727 876.256 268.886 873.684Q265.045 871.113 261.261 868.458Q257.478 865.803 253.753 863.066Q250.029 860.329 246.365 857.511Q242.701 854.693 239.1 851.796Q235.499 848.898 231.962 845.922Q228.425 842.947 224.954 839.894Q221.483 836.842 218.08 833.714C185.404 803.947 164.898 775.77 143.799 737.168C107.516 670.784 92.132 610.926 88.6678 535.458Q88.4716 531.506 88.344 527.551Q88.2165 523.597 88.1576 519.64Q88.0988 515.684 88.1086 511.727Q88.1184 507.77 88.197 503.814Q88.2755 499.858 88.4227 495.904Q88.5699 491.95 88.7858 487.999Q89.0016 484.048 89.286 480.102Q89.5705 476.155 89.9234 472.214Q90.2763 468.273 90.6975 464.339Q91.1188 460.405 91.6083 456.478Q92.0978 452.552 92.6555 448.635Q93.2131 444.717 93.8387 440.81Q94.4642 436.903 95.1575 433.008Q95.8508 429.112 96.6116 425.229Q97.3725 421.346 98.2006 417.477Q99.0288 413.608 99.924 409.754Q100.819 405.9 101.781 402.061Q102.743 398.223 103.772 394.403Q104.8 390.582 105.895 386.779Q106.989 382.977 108.15 379.194Q109.311 375.412 110.537 371.65Q111.763 367.888 113.054 364.147Q114.345 360.407 115.701 356.69Q117.057 352.973 118.477 349.28Q119.897 345.586 121.381 341.919Q122.866 338.251 124.413 334.609Q125.961 330.968 127.571 327.353Q129.182 323.739 130.855 320.154Q132.528 316.568 134.264 313.012Q135.999 309.456 137.795 305.931Q139.592 302.405 141.449 298.911Q143.307 295.418 145.225 291.957C160.208 264.525 177.625 238.552 198.749 215.434C273.24 133.915 378.918 81.2647 489.741 76.2877Z"/>
	<path fill="#231D1D" d="M504.731 96.2219Q505.25 96.1898 505.769 96.1669C526.575 95.2276 547.927 97.7012 568.531 100.463C626.703 108.258 685.766 126.68 734.295 160.469C747.685 169.792 760.496 180.951 772.512 191.991C813.251 229.423 849.957 279.407 875.606 328.37C880.647 337.993 885.818 347.739 889.801 357.861C892.542 364.828 894.547 372.206 896.772 379.355C907.849 414.933 914.935 451.145 916.424 488.422Q917.137 510.641 916.251 532.854C913.897 605.434 898.538 665.276 862.144 728.593C848.932 751.578 834.753 772.757 816.69 792.23Q809.369 800.028 801.691 807.474Q794.012 814.92 785.993 821.998Q777.974 829.075 769.632 835.77Q761.29 842.464 752.644 848.76C716.357 875.426 676.445 897.405 632.686 908.978C620.863 912.105 608.751 914.134 596.737 916.374C588.101 917.985 579.485 920.22 570.813 921.514C553.659 924.075 535.946 924.85 518.625 925.493C500.001 925.764 481.544 925.379 463.003 923.464C374.481 914.325 288.148 877.41 223.272 815.959C170.463 765.939 130.187 683.702 114.695 613.066Q112.388 602.095 110.599 591.028Q108.811 579.961 107.547 568.821Q106.282 557.682 105.544 546.495Q104.805 535.309 104.595 524.1C104.159 507.448 105.896 488.597 107.748 472.042Q108.194 467.686 108.729 463.341Q109.263 458.995 109.886 454.661Q110.508 450.327 111.218 446.006Q111.928 441.686 112.725 437.38Q113.522 433.075 114.406 428.787Q115.29 424.498 116.261 420.229Q117.232 415.959 118.289 411.71Q119.346 407.461 120.488 403.235Q121.631 399.008 122.859 394.805Q124.087 390.602 125.4 386.425Q126.713 382.248 128.11 378.099Q129.507 373.949 130.988 369.829Q132.469 365.708 134.033 361.618Q135.597 357.529 137.243 353.472Q138.889 349.414 140.618 345.391Q142.346 341.368 144.155 337.381Q145.964 333.394 147.854 329.444Q149.743 325.494 151.712 321.584Q153.681 317.673 155.729 313.803Q157.777 309.933 159.903 306.105Q162.029 302.277 164.231 298.493Q166.434 294.709 168.713 290.97Q170.992 287.231 173.346 283.54Q175.7 279.848 178.128 276.204Q180.557 272.561 183.058 268.968Q185.56 265.374 188.134 261.832Q190.707 258.29 193.352 254.8Q195.997 251.311 198.712 247.876Q201.427 244.441 204.211 241.061Q206.995 237.682 209.847 234.36Q212.699 231.037 215.618 227.773Q218.536 224.509 221.52 221.305Q232.269 210.086 243.74 199.608Q255.212 189.129 267.356 179.438C290.64 160.763 315.578 144.187 342.647 131.447C355.514 125.392 368.918 120.696 382.463 116.409Q389.866 114.037 397.351 111.938Q404.836 109.839 412.393 108.015Q419.95 106.192 427.568 104.646Q435.187 103.099 442.857 101.833Q450.527 100.567 458.238 99.5818Q465.949 98.5969 473.691 97.8948Q481.433 97.1927 489.196 96.7744Q496.958 96.356 504.731 96.2219Z"/>
	<path fill="#FEFEFE" d="M893.768 431.212C894.304 431.073 894.946 431.112 895.501 431.089L896.271 431.823C904.468 456.513 904.607 493.724 904.438 519.782C904.409 524.26 905.284 532.052 903.502 536.031C901.166 537.549 897.906 538.166 895.161 538.53C887.508 539.546 879.484 539.169 871.763 539.548C857.405 540.252 843.07 541.338 828.704 541.921C817.389 542.38 806.068 541.89 794.749 542.019C779.132 542.196 763.544 543.325 747.936 543.528C728.263 543.784 708.63 543.138 688.936 543.717L452.531 551.524C439.698 551.907 426.869 553.212 414.054 553.479L210.835 556.399C198.061 556.635 185.279 556.37 172.505 556.571C157.375 556.81 142.213 557.591 127.099 558.343L117.136 558.44C114.226 523.889 114.236 488.679 119.864 454.371C126.62 453.555 133.661 453.621 140.469 453.4C157.012 452.866 173.567 452.862 190.113 452.377C223.34 451.402 256.573 449.262 289.812 448.537C305.599 448.192 321.355 449.102 337.131 448.959C346.252 448.876 355.098 447.648 364.154 446.877C372.534 446.164 381.008 445.917 389.413 445.616C410.311 444.869 431.334 444.232 452.242 443.97C460.559 443.865 468.877 444.214 477.191 444.017C501.553 443.442 525.844 441.983 550.225 441.69L613.949 441.016C627.065 440.953 640.164 441.232 653.283 440.987C683.972 440.413 714.714 438.46 745.388 437.144C777.051 435.786 808.524 435.06 840.16 432.879C847.723 432.357 855.317 431.846 862.901 431.866C873.412 431.892 883.287 432.544 893.768 431.212Z"/>
	<path fill="#231D1D" d="M581.837 467.171Q583.599 467.205 585.344 467.452C591.249 468.242 594.931 471.574 598.384 476.148C596.47 478.527 594.385 480.434 592.091 482.431C589.735 479.932 586.962 477.261 583.373 476.929C581.386 476.746 579.276 477.205 577.737 478.525C576.115 479.917 574.73 482.252 574.66 484.424C574.418 491.967 590.809 496.379 595.913 501.549C599.389 505.07 601.371 509.614 601.267 514.59C601.155 520.024 599.109 525.382 595.09 529.114C590.652 533.234 585.303 533.885 579.513 533.763C577.554 533.57 575.387 533.195 573.524 532.536C570.189 531.357 566.076 528.621 564.696 525.219C564.198 523.992 564.186 522.476 564.829 521.293C566.254 518.676 569.386 517.847 571.991 516.853C573.267 518.669 574.554 520.797 576.153 522.335C577.742 523.863 579.677 524.416 581.847 524.242C584.812 524.005 587.125 522.468 588.999 520.202C590.556 518.318 591.673 515.635 591.317 513.157C590.291 506 577.509 502.867 572.238 499.089C568.562 496.454 565.908 492.736 565.21 488.211C564.455 483.311 566.156 477.45 569.237 473.592C572.502 469.502 576.819 467.844 581.837 467.171Z"/>
	<path fill="#231D1D" d="M532.961 468.101C535.084 468.04 537.199 468.168 539.264 468.685C544.427 469.979 547.201 473.41 549.827 477.737C547.881 479.632 545.88 481.237 543.702 482.849C541.153 480.122 538.883 478.166 534.993 478.055C532.795 477.992 530.417 478.668 528.864 480.297C527.666 481.554 527.152 483.224 527.273 484.943C527.943 494.481 541.839 496.269 548.117 501.64C552.191 505.125 554.412 509.931 554.648 515.275Q554.673 515.753 554.674 516.232Q554.675 516.711 554.651 517.189Q554.626 517.668 554.578 518.144Q554.529 518.62 554.455 519.094Q554.381 519.567 554.283 520.036Q554.185 520.505 554.063 520.968Q553.941 521.431 553.795 521.887Q553.649 522.343 553.48 522.791Q553.31 523.239 553.118 523.677Q552.925 524.116 552.71 524.544Q552.495 524.972 552.259 525.388Q552.022 525.804 551.764 526.208Q551.506 526.611 551.227 527.001Q550.948 527.39 550.65 527.765Q550.352 528.139 550.034 528.498Q549.717 528.856 549.381 529.198C544.9 533.761 539.259 534.789 533.144 534.805C530.862 534.495 528.702 534.153 526.542 533.306C521.52 531.337 518.756 527.84 516.638 523.062C519.528 520.325 521.999 518.994 525.747 517.866C526.692 519.921 527.711 522.172 529.599 523.527C531.734 525.06 534.488 525.38 537.032 524.912C540.023 524.361 542.082 522.072 543.59 519.557C544.597 517.879 545.069 516.021 544.561 514.093C542.654 506.866 531.83 504.579 526.229 501.014C521.995 498.319 518.814 494.584 517.733 489.587C516.726 484.933 517.836 479.556 520.456 475.59C523.422 471.099 527.837 469.07 532.961 468.101Z"/>
	<path fill="#231D1D" d="M419.11 472.254C428.01 472.08 439.696 470.565 446.828 476.934Q447.514 477.546 448.135 478.224Q448.756 478.901 449.307 479.637Q449.857 480.373 450.332 481.16Q450.806 481.947 451.2 482.778Q451.594 483.609 451.903 484.474Q452.212 485.34 452.433 486.232Q452.654 487.124 452.786 488.034Q452.917 488.944 452.957 489.862C453.192 494.947 451.39 500.348 447.849 504.054C441.894 510.287 432.412 509.42 424.501 509.547L424.714 514.44C425.296 522.188 425.492 529.95 425.727 537.714L416.554 537.441Q414.576 505.01 413.96 472.525L419.11 472.254Z"/>
	<path fill="#FEFEFE" d="M425.913 481.72C428.431 481.539 431.028 481.299 433.55 481.346Q434.041 481.357 434.528 481.419Q435.014 481.48 435.493 481.59Q435.971 481.701 436.435 481.86Q436.9 482.018 437.345 482.223Q437.791 482.428 438.214 482.677Q438.637 482.927 439.032 483.218Q439.427 483.509 439.79 483.838Q440.154 484.168 440.482 484.533C442.384 486.675 443.132 489.43 442.916 492.257C442.681 495.329 441.095 496.951 438.839 498.852C434.307 500.481 429.297 500.104 424.539 500.127C424.418 495.25 422.443 486.647 424.24 482.281L425.913 481.72Z"/>
	<path fill="#231D1D" d="M475.727 470.164C475.921 470.242 476.124 470.298 476.308 470.397C479.637 472.184 508.304 528.418 511.147 535.388C507.553 535.427 503.957 535.55 500.364 535.635C497.08 528.844 493.387 522.211 489.862 515.54C486.636 515.759 483.397 515.666 480.166 515.641L465.486 516.451C462.771 523.129 459.535 529.688 456.639 536.3L445.969 536.284C450.523 525.637 455.409 515.132 459.979 504.489C464.962 492.887 469.47 481.174 475.727 470.164Z"/>
	<path fill="#FEFEFE" d="M476.691 489.859C480.301 493.841 482.972 501.206 485.375 506.095C482.619 506.027 479.874 506.2 477.123 506.347Q473.282 506.615 469.447 506.952C471.992 501.299 474.543 495.679 476.691 489.859Z"/>
	<path fill="#FEFEFE" d="M505.368 105.727C520.165 104.923 535.576 106.699 550.262 108.322C605.091 114.38 647.75 126.144 696.17 153.074C709.606 160.546 724.485 169.441 736.238 179.319C731.109 183.149 727.477 188.5 723.4 193.38C718.404 199.362 713.311 205.294 708.56 211.476C694.847 229.322 682.06 248.008 668.857 266.241L601.808 359.16Q591.777 373.136 581.548 386.967C577.473 392.586 572.416 398.456 569.748 404.896C569.212 406.189 568.705 407.395 569.26 408.722C572.198 408.771 574.674 405.676 576.343 403.505C593.211 381.557 608.124 358.03 624.01 335.37C640.772 311.461 658.525 288.277 675.648 264.637C691.518 242.727 706.798 219.761 725.297 199.949C730.49 194.386 736.134 189.321 741.764 184.21C746.725 188.809 752.304 192.84 757.38 197.356C746.189 219.554 730.472 239.92 716.308 260.291L666.652 332.522C663.113 337.614 644.008 364.049 642.953 367.859C642.634 369.012 642.583 369.846 643.102 370.937C645.21 370.52 646.676 368.496 647.965 366.862C657.132 355.25 664.847 342.024 673.272 329.841L722.04 260.047C731.745 246.088 741.034 231.644 751.24 218.067C755.214 212.78 759.806 208.137 764.413 203.412C777.448 213.755 788.709 226.616 799.898 238.872C809.491 249.288 817.893 261.164 826.146 272.666C855.404 313.443 887.501 367.237 893.182 418.019C869.539 417.658 845.793 419.615 822.18 420.592L704.598 424.755C688.251 425.239 671.892 425.011 655.548 425.593C643.084 426.036 630.662 427.06 618.209 427.589C578.452 429.281 538.565 430.721 498.781 431.574C485.382 431.862 471.914 431.481 458.505 431.519Q414.614 431.629 370.736 432.729L204.322 436.863C177.269 437.504 150.354 439.105 123.256 438.955Q123.905 435.306 124.617 431.669Q125.33 428.032 126.105 424.408Q126.881 420.784 127.72 417.174Q128.56 413.564 129.462 409.969Q130.364 406.374 131.328 402.796Q132.293 399.218 133.32 395.656Q134.347 392.095 135.437 388.553Q136.526 385.01 137.677 381.487Q138.828 377.964 140.04 374.462Q141.253 370.96 142.526 367.479Q143.799 363.999 145.133 360.541Q146.467 357.083 147.862 353.649Q149.256 350.215 150.71 346.806Q152.164 343.397 153.677 340.014Q155.191 336.631 156.763 333.275Q158.335 329.919 159.966 326.591Q161.597 323.262 163.286 319.963Q164.974 316.664 166.72 313.395Q168.466 310.126 170.269 306.888Q172.072 303.65 173.931 300.444Q175.791 297.237 177.706 294.064Q179.621 290.891 181.591 287.752Q183.561 284.613 185.586 281.509Q187.61 278.404 189.689 275.336Q191.768 272.268 193.9 269.236Q196.032 266.204 198.216 263.21Q200.401 260.217 202.637 257.261Q204.874 254.306 207.162 251.39Q209.45 248.475 211.788 245.599Q214.127 242.724 216.515 239.89Q218.904 237.056 221.341 234.265Q223.779 231.473 226.265 228.724C277.73 170.928 350.772 129.892 426.522 114.475C452.506 109.186 478.961 107.256 505.368 105.727Z"/>
	<path fill="#231D1D" d="M599.175 316.484Q600.419 316.418 601.664 316.415C603.732 316.426 605.486 317.17 606.87 318.739C607.925 319.934 608.299 321.221 608.11 322.817C607.86 324.922 606.323 326.443 604.786 327.72C603.904 327.89 602.874 328.155 601.977 328.135C600.415 328.102 598.91 327.299 597.887 326.134C596.786 324.879 596.314 323.325 596.426 321.67C596.58 319.396 597.555 317.994 599.175 316.484Z"/>
	<path fill="#231D1D" d="M624.532 392.43C624.865 392.407 625.197 392.369 625.531 392.361C627.582 392.308 629.865 393.07 631.2 394.674C632.264 395.952 632.53 397.615 632.385 399.227C632.119 402.202 630.455 404.09 628.291 405.968C627.593 406.01 627.525 406.032 626.745 405.985C624.62 405.856 622.627 404.849 621.349 403.14C620.18 401.578 619.944 399.567 620.324 397.685C620.853 395.068 622.452 393.905 624.532 392.43Z"/>
	<path fill="#231D1D" d="M601.809 128.725Q606.784 128.513 611.762 128.389C638.08 127.954 695.015 153.8 713.357 172.17C716.709 175.527 719.255 179.632 719.137 184.53C719.06 187.712 717.845 191.039 715.427 193.182C709.926 198.056 700.309 196.64 693.492 196.348C687.383 205 680.436 212.993 673.909 221.329Q660.505 238.788 647.836 256.787C644.716 261.292 619.914 298.759 618.235 299.898C617.059 300.695 616.862 300.681 615.576 300.392L614.999 299.36C615.436 294.815 622.868 286.399 625.567 282.298C644.741 253.171 664.008 223.695 686.068 196.632C679.632 196.835 673.235 196.653 666.802 196.554C655.585 196.383 644.344 196.603 633.126 196.712C618.472 196.855 598.966 196.07 584.982 200.019C574.69 202.925 564.967 208.77 557.34 216.225C548.283 225.079 541.793 235.906 538.678 248.222C533.762 267.662 536.157 290.05 536.467 309.966C536.954 341.343 538.046 372.872 537.621 404.25C537.527 409.263 537.533 414.209 537.798 419.22C536.412 420.046 535.073 420.66 533.523 421.129C527.044 423.087 480.382 424.585 476.344 421.557C475.749 421.111 475.455 420.819 475.351 420.104C473.884 410.046 474.692 397.562 474.404 387.13Q473.271 342.479 472.903 297.816C472.679 281.697 473.557 264.701 469.168 249.067C465.314 235.338 458.772 223.577 447.22 214.863C429.062 201.164 411.816 201.101 390.032 202.36Q376.89 203.183 363.73 203.651L289.995 205.942C285.364 206.107 270.458 207.671 267.347 205.514Q267.147 205.377 266.963 205.22Q266.779 205.062 266.612 204.887Q266.445 204.711 266.298 204.519Q266.15 204.326 266.024 204.12Q265.898 203.913 265.794 203.694Q265.69 203.475 265.61 203.246Q265.529 203.018 265.474 202.782Q265.418 202.546 265.387 202.306C265.069 199.992 266.054 198.21 267.555 196.564C271.233 192.532 276.272 189.142 280.654 185.881C305.331 167.52 352.36 139.659 382.204 133.999C390.831 132.364 400.534 133.075 409.292 133.078Q424.002 133.075 438.703 132.584L601.809 128.725Z"/>
	<path fill="#FEFEFE" d="M856.308 553.241C872.24 552.984 888.159 553.91 904.057 552.67C903.438 603.885 883.227 666.561 859.499 711.446Q855.062 719.943 850.177 728.191Q845.292 736.439 839.973 744.413Q834.653 752.388 828.914 760.066Q823.176 767.744 817.034 775.104Q814.041 778.775 810.958 782.37Q807.874 785.966 804.702 789.483Q801.53 793.001 798.272 796.438Q795.013 799.876 791.67 803.231Q788.327 806.587 784.901 809.858Q781.476 813.129 777.97 816.314Q774.464 819.499 770.88 822.595Q767.296 825.692 763.636 828.698Q759.977 831.705 756.243 834.62Q752.509 837.534 748.704 840.355Q744.899 843.176 741.025 845.901Q737.151 848.626 733.211 851.254Q729.27 853.882 725.266 856.411Q721.261 858.94 717.194 861.369Q713.128 863.798 709.002 866.124Q704.877 868.451 700.694 870.674Q696.512 872.898 692.276 875.017Q688.04 877.135 683.752 879.148Q679.464 881.16 675.128 883.066Q670.792 884.971 666.409 886.768Q662.027 888.564 657.601 890.252Q653.175 891.939 648.709 893.515Q644.242 895.092 639.738 896.557Q635.234 898.021 630.694 899.374Q626.155 900.726 621.583 901.965Q617.012 903.204 612.411 904.329Q607.81 905.454 603.182 906.464Q598.555 907.474 593.904 908.369Q589.252 909.263 584.58 910.042Q579.908 910.821 575.218 911.483Q570.528 912.145 565.823 912.69Q561.118 913.235 556.401 913.663C475.374 921.431 394.461 908.419 321.719 871.3C298.13 859.263 276.184 845.485 255.736 828.609C192.032 777.319 144.508 696.088 126.081 616.783C122.893 603.061 120.777 588.956 119.097 574.974C120.98 573.803 122.883 572.846 125.127 572.641C132.994 571.92 141.187 572.169 149.097 571.958L201.241 570.635L378.755 565.863L856.308 553.241Z"/>
	<path fill="#231D1D" d="M484.087 734.7C496.48 734.18 509.042 734.653 521.452 734.788C531.672 734.899 542.166 734.503 552.312 735.719C553.234 740.809 553.053 746.151 553.157 751.319C553.529 769.781 551.911 791.013 560.09 808.055C563.834 815.859 569.747 822.342 576.769 827.338C599.852 843.76 627.011 838.625 653.433 837.268Q681.323 836.045 709.193 834.431C716.783 833.951 731.154 831.684 738.111 834.549C739.45 835.101 739.861 835.552 740.464 836.833C740.3 837.723 740.074 838.163 739.501 838.895C735.484 844.031 724.147 848.923 718.447 852.338C710.913 856.851 703.725 861.809 695.933 865.904C654.136 887.867 606.344 900.948 559.539 906.156C548.891 907.792 537.944 908.474 527.189 908.974Q521.539 909.196 515.885 909.268Q510.231 909.34 504.577 909.262Q498.923 909.184 493.273 908.957Q487.623 908.729 481.981 908.352Q476.339 907.975 470.709 907.448Q465.079 906.922 459.465 906.247Q453.851 905.571 448.257 904.747Q442.663 903.923 437.092 902.951Q431.522 901.979 425.979 900.86Q420.436 899.741 414.925 898.476Q409.414 897.21 403.939 895.799Q398.463 894.388 393.027 892.832Q387.59 891.277 382.197 889.578Q376.804 887.878 371.458 886.037Q366.111 884.196 360.816 882.213Q355.52 880.231 350.279 878.109C337.531 873.079 323.673 867.792 311.975 860.613C309.401 859.033 304.974 856.312 304.615 853.021C304.479 851.778 305.07 850.587 305.918 849.721C307.98 847.614 311.46 846.847 314.284 846.578C327.109 845.353 340.542 846.954 353.414 846.932C377.713 846.89 402.248 845.954 426.535 844.976C444.792 844.241 460.558 838.162 473.035 824.435C488.965 806.911 487.561 786.354 485.93 764.421Q484.761 749.576 484.087 734.7Z"/>
	<path fill="#231D1D" d="M586.331 573.226Q587.412 573.178 588.494 573.143C607.172 572.521 627.292 571.367 641.884 585.244C645.47 588.654 648.211 592.684 649.576 597.488C652.72 608.553 652.679 628.441 653.376 640.414C654.026 651.593 655.223 662.812 655.519 674.001C655.854 686.644 654.298 701.709 645.027 711.272C640.171 716.28 633.89 719.003 627.177 720.519C612.825 723.758 597.135 723.411 582.446 724.302C535.763 727.136 488.929 727.267 442.18 728.401C423.408 728.594 401.281 731.129 386.363 717.201C382.019 713.145 378.635 707.617 376.882 701.941C373.204 690.035 373.819 673.01 373.346 660.333Q372.671 639.228 371.768 618.132C371.411 607.459 372.697 598.065 380.336 590.03C385.841 584.241 392.944 580.751 400.694 579.1C408.933 577.344 417.534 577.447 425.925 577.146Q443.09 576.533 460.26 576.11L586.331 573.226Z"/>
	<path fill="#FEFEFE" d="M601.269 578.741C614.011 578.769 627.723 580.691 637.06 590.338C640.068 593.446 642.086 597.11 643.276 601.255C646.326 611.874 646.474 627.905 647.108 639.05C647.732 650.035 648.663 661.019 648.523 672.03C648.364 684.587 646.687 695.432 637.296 704.483C633.432 708.206 628.573 711.486 623.295 712.7C615.96 714.388 607.785 714.247 600.282 714.596L559.694 716.206C515.083 718.028 470.363 720.915 425.691 720.389C412.932 719.727 401.111 719.034 391.149 710.05C382.297 702.068 380.956 692.175 380.426 680.835L378.727 638.246C378.344 628.598 376.7 616.939 378.642 607.492C379.651 602.587 382.247 597.907 385.675 594.28C391.061 588.583 398.747 585.509 406.353 584.185C414.428 582.78 422.951 583.037 431.14 582.841L468.264 581.946L601.269 578.741Z"/>
	<path fill="#231D1D" d="M523.463 592.029C524.896 591.966 526.213 591.953 527.615 592.308C530.193 592.959 532.514 594.599 533.787 596.956C535.187 599.548 535.266 602.686 534.42 605.466C533.142 609.666 530.406 612.215 526.612 614.174C524.847 614.464 523.086 614.477 521.348 613.984C519.121 613.352 517.361 611.927 516.357 609.83C514.983 606.959 515.262 603.472 516.274 600.536C517.553 596.827 519.876 593.687 523.463 592.029Z"/>
	<path fill="#231D1D" d="M548.628 613.273C549.326 613.424 550.156 613.553 550.824 613.833C552.011 614.33 552.712 615.084 553.141 616.297C554.058 618.893 552.173 623.45 551.104 625.889C549.088 630.491 547.349 633.22 542.568 635.104C537.209 633.926 531.557 630.592 526.06 630.687C523.174 634.425 535.847 650.99 536.545 657.73C536.787 660.061 536.032 662.453 535.464 664.695C542.037 661.153 548.389 657.182 554.698 653.194C558.082 651.055 561.602 648.418 565.227 646.756C566.293 646.267 567.188 645.847 568.368 646.304C569.388 646.7 570.779 648.189 571.147 649.265C571.365 649.9 571.465 650.391 571.052 650.941C568.185 654.76 486.518 702.933 476.639 707.876C475.068 708.662 473.33 709.288 471.584 709.534C470.048 709.75 468.91 709.66 467.653 708.658C467.486 707.871 467.276 707.532 467.585 706.738C469.448 701.963 480.655 697.629 485.219 695.171L499.531 686.845L499.633 679.57C490.933 682.897 461.652 699.572 456.486 699.932C455.948 699.439 455.794 699.327 455.288 698.714C454.442 697.69 453.986 696.634 454.085 695.303C458.722 690.603 490.873 675.687 498.661 672.001C502.107 656.944 505.7 641.993 511.042 627.471C506.604 627.648 502.4 628.48 498.121 629.622C496.742 633.043 495.45 637.247 493.285 640.208C492.012 640.747 491.251 641.199 489.829 640.744C488.578 640.343 487.588 639.066 487.07 637.905C485.939 635.373 486.199 632.405 487.136 629.858C488.536 626.055 491.494 623.112 495.164 621.462C507.924 615.726 530.416 619.654 543.055 624.351C544.573 620.695 545.906 616.2 548.628 613.273Z"/>
	<path fill="#FEFEFE" d="M518.549 644.292C521.118 648.99 524.988 652.843 528.183 657.126C527.333 662.274 525.646 667.242 524.113 672.219L514.645 677.968L508.618 681.873C508.252 678.79 507.71 675.56 507.869 672.451C508.357 662.947 514.529 652.841 518.549 644.292Z"/>
</svg>
