<?xml version="1.0" encoding="utf-8" ?>
<svg xmlns="http://www.w3.org/2000/svg" xmlns:xlink="http://www.w3.org/1999/xlink" width="1024" height="1024">
	<path fill="#FCFBF6" d="M0 0L1024 0L1024 1024L0 1024L0 0Z"/>
	<path fill="#213044" d="M501.6 52.2439Q505.741 52.1318 509.883 52.0956Q514.026 52.0594 518.168 52.099Q522.311 52.1386 526.452 52.254Q530.593 52.3695 534.731 52.5608Q538.869 52.752 543.003 53.019Q547.137 53.286 551.265 53.6286Q555.394 53.9713 559.515 54.3895Q563.636 54.8076 567.75 55.3012Q571.863 55.7948 575.966 56.3635Q580.069 56.9323 584.162 57.5762Q588.254 58.22 592.334 58.9386Q596.413 59.6573 600.479 60.4505Q604.545 61.2437 608.596 62.1113Q612.647 62.9788 616.681 63.9204Q620.715 64.8619 624.731 65.8772Q628.747 66.8925 632.744 67.9811Q636.741 69.0697 640.718 70.2314Q644.694 71.393 648.649 72.6272Q652.603 73.8615 656.534 75.1679Q660.465 76.4744 664.372 77.8526Q668.279 79.2308 672.159 80.6803Q676.04 82.1298 679.893 83.6501Q683.747 85.1704 687.572 86.761Q691.397 88.3516 695.192 90.012Q698.988 91.6724 702.752 93.402Q706.516 95.1315 710.248 96.9298Q713.98 98.728 717.678 100.594Q721.377 102.461 725.04 104.394Q728.704 106.328 732.332 108.328Q735.959 110.329 739.549 112.395Q743.14 114.462 746.692 116.594Q750.244 118.725 753.756 120.922C777.018 135.28 799.537 151.619 819.63 170.213C853.335 201.402 881.854 235.463 905.927 274.591C913.652 287.148 921.128 300.046 927.449 313.373Q934.576 328.663 940.584 344.428Q946.591 360.192 951.447 376.348Q953.65 383.337 955.618 390.395Q957.587 397.453 959.318 404.573Q961.05 411.693 962.543 418.867Q964.036 426.041 965.289 433.261Q966.542 440.481 967.553 447.738Q968.564 454.996 969.332 462.283Q970.1 469.57 970.624 476.879Q971.149 484.188 971.429 491.51Q971.693 497.153 971.817 502.802Q971.941 508.45 971.925 514.099Q971.909 519.749 971.752 525.396Q971.596 531.044 971.3 536.685Q971.004 542.327 970.568 547.96Q970.132 553.593 969.557 559.213Q968.981 564.833 968.267 570.437Q967.552 576.041 966.699 581.626Q965.846 587.211 964.854 592.773Q963.863 598.335 962.734 603.87Q961.605 609.406 960.339 614.912Q959.073 620.418 957.671 625.89Q956.269 631.363 954.731 636.799Q953.194 642.236 951.522 647.633Q949.851 653.029 948.046 658.383Q946.241 663.736 944.304 669.043Q942.367 674.35 940.299 679.608Q938.231 684.865 936.033 690.07Q933.835 695.274 931.509 700.423Q929.183 705.571 926.73 710.661Q924.277 715.75 921.698 720.776Q919.12 725.803 916.418 730.765Q913.716 735.726 910.891 740.619Q908.067 745.512 905.122 750.333Q902.177 755.154 899.113 759.901Q896.05 764.648 892.87 769.318Q889.689 773.987 886.394 778.576Q883.099 783.165 879.691 787.671Q876.284 792.177 872.765 796.597Q869.247 801.018 865.62 805.349Q861.993 809.681 858.259 813.921Q854.526 818.161 850.689 822.308Q847.525 825.777 844.291 829.181Q841.057 832.585 837.755 835.922Q834.452 839.259 831.082 842.529Q827.712 845.798 824.277 848.998Q820.841 852.198 817.341 855.327Q813.84 858.457 810.277 861.514Q806.714 864.572 803.089 867.556Q799.464 870.54 795.779 873.449Q792.094 876.359 788.351 879.193Q784.608 882.027 780.807 884.784Q777.007 887.542 773.151 890.221Q769.295 892.9 765.386 895.5Q761.476 898.1 757.515 900.62Q753.553 903.14 749.541 905.579Q745.529 908.017 741.468 910.374Q737.407 912.73 733.299 915.003Q729.19 917.276 725.037 919.466Q720.883 921.655 716.686 923.758Q712.488 925.862 708.249 927.881Q704.01 929.899 699.73 931.83Q695.45 933.761 691.132 935.605Q686.814 937.448 682.46 939.204Q678.105 940.959 673.715 942.625Q669.326 944.291 664.903 945.868Q660.481 947.444 656.027 948.93Q651.573 950.416 647.09 951.811Q642.607 953.206 638.096 954.51Q633.585 955.813 629.049 957.024Q624.513 958.235 619.953 959.354Q615.393 960.473 610.811 961.498Q606.229 962.523 601.628 963.455Q597.026 964.387 592.406 965.225Q575.47 968.071 558.38 969.76Q541.29 971.449 524.125 971.973Q518.565 972.124 513.002 972.14Q507.44 972.156 501.878 972.037Q496.317 971.919 490.76 971.665Q485.204 971.412 479.655 971.024Q474.106 970.635 468.568 970.113Q463.03 969.59 457.506 968.934Q451.983 968.277 446.477 967.487Q440.971 966.696 435.485 965.773Q430 964.849 424.539 963.793Q419.077 962.737 413.643 961.548Q408.209 960.36 402.806 959.04Q397.402 957.721 392.032 956.27Q386.662 954.82 381.328 953.24Q375.995 951.66 370.701 949.951Q365.408 948.242 360.157 946.405Q354.907 944.568 349.702 942.605Q344.498 940.641 339.343 938.552Q334.187 936.463 329.084 934.25Q323.981 932.036 318.933 929.7Q313.885 927.363 308.895 924.905Q303.905 922.447 298.977 919.869Q294.048 917.29 289.183 914.593Q284.318 911.896 279.52 909.082Q274.722 906.267 269.993 903.338Q265.265 900.408 260.609 897.364Q255.953 894.321 251.372 891.165Q246.791 888.01 242.288 884.744Q237.785 881.479 233.363 878.105Q228.94 874.731 224.601 871.251Q220.261 867.771 216.007 864.187Q211.753 860.603 207.588 856.916Q203.422 853.23 199.347 849.444Q195.193 845.589 191.135 841.632Q187.078 837.676 183.119 833.62Q179.16 829.565 175.302 825.414Q171.444 821.262 167.689 817.017Q163.934 812.772 160.285 808.435Q156.637 804.099 153.096 799.674Q149.555 795.249 146.124 790.738Q142.693 786.228 139.374 781.634Q136.055 777.04 132.85 772.365Q129.645 767.691 126.557 762.94Q123.468 758.188 120.497 753.361Q117.527 748.535 114.676 743.637Q111.825 738.739 109.096 733.772Q106.366 728.805 103.76 723.773Q101.153 718.74 98.6719 713.645Q96.1903 708.55 93.8349 703.395Q91.4795 698.241 89.2518 693.029Q87.0241 687.818 84.9254 682.554Q82.8267 677.289 80.8583 671.975Q78.8898 666.66 77.0529 661.299Q75.2159 655.938 73.5115 650.533Q71.8072 645.128 70.2364 639.682Q68.6656 634.237 67.2295 628.755Q65.7933 623.272 64.4925 617.756Q63.1918 612.24 62.0273 606.694Q60.8628 601.147 59.8352 595.574Q58.8076 590 57.9176 584.403Q57.0276 578.806 56.2757 573.189Q55.5238 567.572 54.9104 561.938Q54.2971 556.304 53.8226 550.656Q53.3482 545.009 53.013 539.351Q52.6778 533.694 52.482 528.03Q52.3137 522.396 52.2822 516.759Q52.2506 511.123 52.3558 505.487Q52.4609 499.852 52.7028 494.22Q52.9447 488.589 53.323 482.965Q53.7014 477.341 54.2161 471.728Q54.7308 466.115 55.3816 460.516Q56.0323 454.917 56.8186 449.336Q57.6049 443.754 58.5265 438.193Q59.448 432.632 60.5041 427.096Q61.5602 421.559 62.7503 416.049Q63.9405 410.54 65.2639 405.061Q66.5873 399.582 68.0433 394.136Q69.4992 388.691 71.0868 383.283Q72.6744 377.874 74.3928 372.506Q76.1111 367.138 77.9592 361.813Q79.8072 356.488 81.7839 351.209Q83.7606 345.93 85.8647 340.701Q87.9689 335.472 90.1993 330.296Q92.4297 325.119 94.785 319.998Q97.1403 314.877 99.6191 309.815Q102.098 304.753 104.699 299.752Q107.3 294.751 110.021 289.815Q112.743 284.879 115.583 280.01Q118.423 275.142 121.381 270.343Q124.339 265.545 127.412 260.82Q130.485 256.095 133.672 251.446Q136.859 246.796 140.158 242.226Q143.456 237.655 146.865 233.166Q150.274 228.677 153.79 224.272Q157.307 219.867 160.929 215.548Q164.551 211.23 168.277 207Q172.003 202.771 175.831 198.633Q179.734 194.435 183.74 190.336Q187.747 186.236 191.854 182.238Q195.962 178.24 200.168 174.346Q204.374 170.452 208.676 166.663Q212.977 162.875 217.373 159.196Q221.768 155.517 226.253 151.948Q230.739 148.379 235.313 144.924Q239.886 141.469 244.544 138.128Q249.202 134.788 253.942 131.565Q258.683 128.342 263.502 125.239Q268.321 122.135 273.216 119.153Q278.111 116.171 283.079 113.312Q288.047 110.453 293.085 107.719Q298.123 104.984 303.228 102.377Q308.332 99.7695 313.5 97.2902Q318.668 94.811 323.897 92.4615Q329.125 90.1121 334.411 87.8939Q339.696 85.6757 345.035 83.5902Q350.374 81.5046 355.764 79.553Q361.153 77.6015 366.59 75.7851Q372.027 73.9687 377.507 72.2885Q382.987 70.6084 388.508 69.0657Q394.028 67.5229 399.585 66.1185Q405.143 64.714 410.733 63.4488Q416.324 62.1835 421.944 61.0582Q427.565 59.9329 433.212 58.9483Q438.858 57.9637 444.528 57.1204Q450.198 56.2771 455.887 55.5755Q461.576 54.874 467.28 54.3148Q472.985 53.7555 478.702 53.3389Q484.419 52.9222 490.144 52.6484Q495.87 52.3747 501.6 52.2439Z"/>
	<path fill="#FCFBF6" d="M498.089 60.7121Q504.173 60.5097 510.26 60.4734Q516.347 60.4371 522.433 60.567Q528.519 60.6968 534.599 60.9927Q540.679 61.2886 546.749 61.7503Q552.819 62.2119 558.874 62.8391Q564.929 63.4663 570.964 64.2585Q577 65.0506 583.012 66.0072Q589.023 66.9638 595.007 68.0841Q600.99 69.2044 606.94 70.4876Q612.891 71.7707 618.804 73.2158Q624.718 74.6609 630.589 76.2668Q636.461 77.8727 642.286 79.6383Q648.112 81.4038 653.887 83.3277Q659.663 85.2516 665.383 87.3323Q671.104 89.4131 676.766 91.6492Q682.427 93.8853 688.026 96.2751C696.017 99.6316 704.137 102.858 711.893 106.731Q718.892 110.275 725.773 114.045Q732.653 117.815 739.406 121.807Q746.16 125.799 752.78 130.01Q759.4 134.22 765.879 138.644Q772.358 143.068 778.689 147.701Q785.02 152.334 791.197 157.171Q797.374 162.008 803.39 167.044Q809.406 172.08 815.254 177.309C839.808 199.085 862.092 224.899 880.973 251.702C932.25 324.494 957.947 403.134 963.171 491.908C970.026 608.374 926.169 725.151 848.992 811.835Q846.058 815.161 843.059 818.427Q840.059 821.694 836.996 824.901Q833.933 828.108 830.807 831.254Q827.681 834.4 824.493 837.483Q821.306 840.566 818.058 843.586Q814.81 846.606 811.503 849.561Q808.196 852.516 804.831 855.405Q801.466 858.294 798.045 861.116Q794.624 863.938 791.148 866.692Q787.672 869.446 784.142 872.131Q780.612 874.815 777.03 877.43Q773.447 880.044 769.814 882.587Q766.181 885.13 762.498 887.601Q758.815 890.072 755.084 892.47Q751.353 894.867 747.576 897.19Q743.798 899.514 739.975 901.762Q736.152 904.01 732.286 906.182Q728.42 908.355 724.511 910.45Q720.602 912.546 716.653 914.563Q712.704 916.581 708.716 918.521Q704.727 920.46 700.701 922.32Q696.675 924.18 692.614 925.96Q688.552 927.741 684.455 929.44Q680.359 931.14 676.23 932.758Q672.101 934.377 667.941 935.913Q663.781 937.449 659.591 938.903Q655.401 940.357 651.184 941.728Q646.966 943.099 642.722 944.386Q638.478 945.674 634.209 946.877Q629.941 948.08 625.649 949.198Q621.358 950.317 617.045 951.35Q612.732 952.384 608.4 953.332C581.604 959.062 554.834 961.879 527.516 963.458Q507.182 964.011 486.87 962.923Q466.558 961.835 446.4 959.113Q442.358 958.511 438.327 957.836Q434.296 957.161 430.278 956.413Q426.26 955.666 422.256 954.846Q418.252 954.026 414.264 953.134Q410.276 952.243 406.304 951.279Q402.332 950.316 398.378 949.281Q394.425 948.246 390.49 947.14Q386.556 946.034 382.642 944.857Q378.728 943.681 374.836 942.434Q370.944 941.187 367.075 939.87Q363.206 938.553 359.361 937.167Q355.517 935.78 351.698 934.325Q347.879 932.87 344.086 931.346Q340.294 929.822 336.53 928.23Q332.766 926.638 329.031 924.978Q325.297 923.318 321.592 921.592Q317.888 919.865 314.215 918.072Q310.543 916.279 306.903 914.42Q303.263 912.561 299.658 910.637Q296.052 908.713 292.482 906.724Q288.911 904.735 285.378 902.682Q281.844 900.629 278.347 898.513Q274.851 896.397 271.393 894.218Q267.935 892.039 264.517 889.799Q261.1 887.558 257.723 885.256Q254.346 882.954 251.011 880.591Q247.676 878.229 244.384 875.807Q241.092 873.385 237.844 870.904Q234.597 868.422 231.394 865.883Q228.192 863.344 225.036 860.748Q221.879 858.151 218.771 855.498Q215.662 852.846 212.601 850.137C200.009 839.044 188.443 827.018 177.242 814.533Q174.1 811.079 171.03 807.561Q167.961 804.042 164.965 800.461Q161.969 796.879 159.049 793.236Q156.128 789.593 153.284 785.889Q150.44 782.186 147.674 778.425Q144.908 774.663 142.22 770.845Q139.533 767.026 136.925 763.153Q134.318 759.28 131.792 755.353Q129.265 751.426 126.821 747.447Q124.378 743.469 122.017 739.44Q119.656 735.411 117.38 731.334Q115.104 727.258 112.913 723.134Q110.722 719.011 108.618 714.843Q106.513 710.675 104.496 706.464Q102.478 702.253 100.549 698.001Q98.6199 693.749 96.7795 689.457Q94.9392 685.166 93.1885 680.837Q91.4379 676.509 89.7778 672.144Q88.1176 667.78 86.5487 663.382Q84.9797 658.985 83.5026 654.555Q82.0255 650.126 80.641 645.666Q79.2564 641.207 77.965 636.72Q76.6735 632.233 75.4758 627.72Q74.278 623.207 73.1744 618.67Q72.0708 614.133 71.0619 609.574Q70.053 605.015 69.1393 600.436Q68.2255 595.857 67.4072 591.26Q66.5889 586.663 65.8665 582.05Q65.144 577.437 64.5178 572.81Q63.8915 568.183 63.3617 563.544Q62.8319 558.904 62.3988 554.255Q61.9657 549.606 61.6294 544.949Q61.3555 540.809 61.1566 536.664Q60.9577 532.519 60.8339 528.372Q60.71 524.224 60.6613 520.075Q60.6125 515.926 60.6388 511.776Q60.6651 507.627 60.7666 503.479Q60.868 499.331 61.0445 495.185Q61.2209 491.039 61.4724 486.897Q61.7239 482.756 62.0503 478.619Q62.3767 474.482 62.7779 470.352Q63.1791 466.222 63.655 462.1Q64.1309 457.978 64.6813 453.866Q65.2317 449.753 65.8565 445.651Q66.4812 441.548 67.1801 437.458Q67.879 433.368 68.6518 429.291Q69.4246 425.214 70.271 421.152Q71.1175 417.09 72.0373 413.044Q72.9572 408.998 73.9501 404.969Q74.943 400.94 76.0087 396.93Q77.0743 392.919 78.2124 388.929Q79.3505 384.939 80.5606 380.97Q81.7707 377.001 83.0524 373.054Q84.3342 369.108 85.6871 365.185Q87.0401 361.262 88.4638 357.365Q89.8875 353.467 91.3815 349.596Q92.8756 345.725 94.4394 341.881Q96.0032 338.038 97.6364 334.223Q99.2695 330.409 100.971 326.624Q102.673 322.84 104.443 319.087Q106.214 315.334 108.051 311.614Q109.889 307.894 111.794 304.207Q113.699 300.521 115.67 296.869Q117.641 293.218 119.678 289.603C134.014 263.898 150.992 238.839 170.496 216.736Q173.77 212.966 177.126 209.269Q180.481 205.572 183.918 201.95Q187.354 198.328 190.869 194.782Q194.384 191.236 197.976 187.769Q201.568 184.301 205.236 180.913Q208.903 177.525 212.644 174.218Q216.385 170.912 220.198 167.688Q224.01 164.465 227.893 161.326Q231.776 158.187 235.727 155.134Q239.677 152.081 243.694 149.116Q247.711 146.15 251.792 143.274Q255.873 140.398 260.016 137.612Q264.16 134.826 268.363 132.132Q272.567 129.437 276.828 126.836Q281.09 124.235 285.408 121.728Q289.726 119.221 294.098 116.81Q298.47 114.398 302.893 112.084Q307.317 109.769 311.791 107.552Q316.264 105.335 320.786 103.217Q325.307 101.099 329.874 99.0802Q334.44 97.062 339.05 95.1446Q343.66 93.2271 348.311 91.4115Q352.962 89.5959 357.652 87.8829Q362.342 86.1699 367.068 84.5604Q371.795 82.9509 376.555 81.4456Q381.316 79.9403 386.108 78.54Q390.901 77.1398 395.723 75.8451Q400.545 74.5505 405.394 73.3622Q410.243 72.1738 415.118 71.0924Q419.992 70.0109 424.889 69.0368Q429.786 68.0627 434.703 67.1964Q439.62 66.3302 444.555 65.5722C462.192 62.8466 480.279 61.8217 498.089 60.7121Z"/>
	<path fill="#213044" d="M507.517 72.7258L508.36 72.7108Q513.694 72.6594 519.028 72.7379Q524.361 72.8164 529.691 73.0247Q535.022 73.2331 540.345 73.5711Q545.669 73.9092 550.982 74.3767Q556.296 74.8443 561.597 75.4411Q566.898 76.0379 572.182 76.7636Q577.467 77.4893 582.732 78.3435Q587.998 79.1976 593.241 80.1797Q598.484 81.1618 603.701 82.2713Q608.919 83.3808 614.108 84.617Q619.297 85.8531 624.454 87.2153Q629.612 88.5774 634.734 90.0648Q639.857 91.5521 644.942 93.1637Q650.027 94.7753 655.071 96.5102Q660.116 98.2452 665.116 100.102Q670.117 101.96 675.07 103.938Q680.024 105.917 684.928 108.015Q689.832 110.114 694.684 112.331Q699.535 114.548 704.332 116.883Q709.128 119.217 713.866 121.668Q718.604 124.119 723.28 126.685Q727.957 129.25 732.57 131.929Q737.183 134.607 741.729 137.397Q746.276 140.187 750.753 143.087Q755.23 145.987 759.635 148.995Q764.04 152.003 768.371 155.118Q772.702 158.232 776.955 161.451Q781.209 164.67 785.383 167.992Q789.556 171.313 793.648 174.736Q797.74 178.158 801.747 181.679Q805.754 185.2 809.675 188.817Q813.595 192.434 817.426 196.146C884.421 261.774 926.845 338.704 943.912 431.293C948.096 453.993 951.261 477.945 951.489 501.032C951.698 522.203 951.042 543.562 948.514 564.591Q947.959 569.089 947.312 573.574Q946.664 578.06 945.925 582.531Q945.186 587.002 944.354 591.457Q943.523 595.912 942.601 600.349Q941.678 604.786 940.665 609.203Q939.651 613.62 938.547 618.016Q937.443 622.411 936.249 626.783Q935.055 631.155 933.771 635.501Q932.487 639.847 931.115 644.166Q929.742 648.485 928.28 652.775Q926.819 657.065 925.27 661.324Q923.721 665.583 922.084 669.809Q920.448 674.035 918.725 678.227Q917.002 682.419 915.193 686.574Q913.385 690.729 911.491 694.847Q909.597 698.964 907.619 703.041Q905.641 707.119 903.58 711.155Q901.519 715.191 899.375 719.184Q897.231 723.176 895.005 727.124Q892.78 731.072 890.474 734.973Q888.168 738.875 885.782 742.728Q883.396 746.581 880.931 750.384Q878.467 754.187 875.925 757.939Q873.382 761.691 870.764 765.389Q868.145 769.088 865.451 772.732Q862.756 776.376 859.988 779.964Q857.219 783.552 854.378 787.082Q851.536 790.613 848.622 794.084Q845.708 797.555 842.724 800.966Q839.74 804.376 836.686 807.724Q833.632 811.073 830.51 814.358Q827.388 817.643 824.199 820.863Q820.456 824.668 816.621 828.381Q812.786 832.094 808.862 835.712Q804.938 839.33 800.926 842.851Q796.915 846.373 792.819 849.795Q788.723 853.217 784.544 856.539Q780.366 859.86 776.108 863.078Q771.85 866.297 767.514 869.41Q763.179 872.524 758.769 875.531Q754.358 878.538 749.876 881.436Q745.394 884.334 740.842 887.122Q736.291 889.91 731.672 892.586Q727.054 895.263 722.372 897.825Q717.69 900.388 712.946 902.835Q708.203 905.283 703.401 907.614Q698.599 909.945 693.742 912.159Q688.885 914.372 683.975 916.466Q679.066 918.56 674.106 920.534Q669.147 922.507 664.141 924.359Q659.135 926.211 654.085 927.941Q649.035 929.67 643.945 931.276Q638.854 932.881 633.726 934.362Q628.598 935.843 623.435 937.198Q618.273 938.553 613.078 939.782Q607.884 941.011 602.662 942.113Q597.439 943.215 592.191 944.188Q586.943 945.162 581.672 946.008Q576.402 946.854 571.113 947.571Q565.824 948.287 560.518 948.875Q555.213 949.462 549.895 949.92Q544.577 950.378 539.25 950.706Q533.922 951.034 528.588 951.232Q523.254 951.429 517.917 951.497Q507.319 951.616 496.726 951.252Q486.133 950.888 475.568 950.042Q465.003 949.195 454.487 947.869Q443.971 946.542 433.527 944.737Q429.779 944.054 426.044 943.306Q422.308 942.558 418.587 941.745Q414.865 940.933 411.158 940.056Q407.45 939.179 403.759 938.237Q400.067 937.296 396.393 936.291Q392.718 935.286 389.062 934.218Q385.405 933.15 381.767 932.018Q378.13 930.886 374.513 929.692Q370.895 928.497 367.299 927.24Q363.703 925.983 360.129 924.664Q356.555 923.344 353.005 921.963Q349.454 920.583 345.928 919.14Q342.402 917.698 338.902 916.195Q335.402 914.692 331.928 913.128Q328.454 911.564 325.008 909.941Q321.561 908.317 318.144 906.634Q314.726 904.951 311.338 903.209Q307.95 901.467 304.593 899.667Q301.236 897.866 297.911 896.008Q294.585 894.149 291.292 892.233Q288 890.318 284.74 888.345Q281.481 886.373 278.257 884.344Q275.033 882.315 271.844 880.231Q268.655 878.147 265.503 876.007Q262.351 873.868 259.236 871.674Q256.121 869.481 253.045 867.234Q249.969 864.987 246.932 862.686Q243.896 860.386 240.899 858.034Q237.903 855.681 234.948 853.277Q231.993 850.873 229.079 848.418Q226.166 845.963 223.296 843.458Q220.426 840.953 217.6 838.399Q213.555 834.762 209.602 831.026Q205.649 827.291 201.789 823.458Q197.93 819.625 194.166 815.698Q190.403 811.771 186.738 807.752Q183.073 803.733 179.509 799.624Q175.945 795.515 172.484 791.32Q169.022 787.124 165.666 782.844Q162.31 778.563 159.061 774.201Q155.811 769.839 152.671 765.398Q149.531 760.957 146.502 756.439Q143.473 751.921 140.557 747.33Q137.641 742.739 134.839 738.076Q132.037 733.414 129.352 728.684Q126.667 723.954 124.1 719.158Q121.533 714.363 119.085 709.506Q116.638 704.648 114.311 699.732Q111.985 694.815 109.781 689.842Q107.577 684.87 105.497 679.844Q103.417 674.818 101.462 669.742Q99.5071 664.667 97.6786 659.544Q95.8501 654.421 94.1491 649.255Q92.4481 644.089 90.8756 638.882Q89.3031 633.675 87.8601 628.43Q86.4171 623.186 85.1045 617.908Q83.7919 612.629 82.6105 607.32Q81.4291 602.01 80.3796 596.674Q79.3302 591.336 78.4132 585.975Q77.4963 580.614 76.7125 575.231Q75.9287 569.849 75.2785 564.449Q74.6283 559.048 74.1121 553.634Q73.5959 548.219 73.214 542.793Q72.8321 537.368 72.5848 531.934Q72.3726 526.548 72.2914 521.159Q72.2101 515.77 72.2598 510.38Q72.3095 504.99 72.4901 499.603Q72.6707 494.216 72.9822 488.835Q73.2937 483.454 73.7358 478.083Q74.1779 472.711 74.7503 467.351Q75.3228 461.992 76.0253 456.648Q76.7279 451.304 77.56 445.979Q78.3922 440.653 79.3535 435.35Q80.3148 430.046 81.4046 424.768Q82.4945 419.489 83.7123 414.238Q84.9301 408.988 86.2751 403.768Q87.6201 398.549 89.0915 393.364Q90.5629 388.178 92.1598 383.03Q93.7568 377.883 95.4783 372.775Q97.1999 367.667 99.0451 362.603Q100.89 357.539 102.858 352.521Q104.825 347.503 106.914 342.534Q109.003 337.565 111.213 332.649Q113.422 327.732 115.749 322.871Q118.077 318.01 120.523 313.206Q122.968 308.403 125.529 303.661Q128.09 298.918 130.766 294.239Q133.442 289.56 136.231 284.948Q139.019 280.335 141.919 275.792Q144.819 271.248 147.828 266.777Q150.838 262.305 153.955 257.908Q157.072 253.511 160.295 249.191Q163.518 244.871 166.845 240.63Q170.172 236.39 173.602 232.231Q177.031 228.073 180.56 223.999Q184.089 219.925 187.716 215.938Q190.863 212.502 194.082 209.133Q197.301 205.764 200.591 202.464Q203.88 199.164 207.238 195.933Q210.596 192.703 214.021 189.544Q217.446 186.385 220.937 183.298Q224.428 180.212 227.983 177.2Q231.538 174.188 235.156 171.251Q238.774 168.315 242.453 165.455Q246.131 162.595 249.869 159.814Q253.608 157.032 257.403 154.329Q261.199 151.627 265.051 149.005Q268.903 146.383 272.809 143.843Q276.715 141.303 280.674 138.845Q284.633 136.388 288.643 134.014Q292.652 131.641 296.711 129.352Q300.77 127.063 304.876 124.86Q308.982 122.658 313.134 120.542Q317.285 118.426 321.48 116.398Q325.675 114.37 329.912 112.431Q334.149 110.492 338.426 108.642Q342.702 106.792 347.017 105.033Q351.332 103.274 355.683 101.606Q360.033 99.938 364.418 98.3619Q368.803 96.7859 373.22 95.3025Q377.638 93.8191 382.085 92.429Q386.532 91.0389 391.008 89.7427Q395.484 88.4465 399.985 87.2449Q404.487 86.0432 409.014 84.9365Q413.54 83.8298 418.088 82.8187Q422.637 81.8076 427.206 80.8924Q431.775 79.9772 436.362 79.1584Q440.949 78.3396 445.552 77.6175C465.996 74.4591 486.869 73.6107 507.517 72.7258Z"/>
	<path fill="#FCFBF6" d="M405.369 366.056L404.357 365.787C408.344 365.303 416.029 363.558 419.433 365.757L420.511 371.373C420.289 371.152 420.07 370.928 419.846 370.71C415.235 366.212 411.497 365.884 405.369 366.056Z"/>
	<path fill="#FCFBF6" d="M643.423 389.79C645.264 390.896 651.189 395.652 653.149 397.233L652.864 397.896C652.403 398.113 651.767 398.422 651.306 398.594C649.948 399.1 649.282 399.329 647.973 398.524C645.508 397.007 644.393 392.413 643.423 389.79Z"/>
	<path fill="#FCFBF6" d="M588.996 421.806C592.207 423.683 594.224 425.754 598.058 427.554L598.705 427.852L598.692 428.505L599.749 428.717C599.354 429.454 598.589 430.143 598.032 430.776L594.59 433.492C592.367 429.715 590.432 425.951 588.996 421.806Z"/>
	<path fill="#FCFBF6" d="M467.369 420.799C468.826 420.987 469.499 420.91 470.663 421.845C471.987 428.004 467.748 451.122 465.24 457.382L464.069 458.094C462.348 452.075 471.667 433.738 467.369 420.799Z"/>
	<path fill="#FCFBF6" d="M394.49 260.952C394.516 260.977 394.544 260.999 394.568 261.025C395.866 262.49 396.442 263.908 396.408 265.891C396.34 269.71 394.634 273.831 393.447 277.42C390.412 286.601 387.118 295.353 386.836 305.119C383.014 291.428 396.434 276.947 390.023 263.297L394.49 260.952Z"/>
	<path fill="#FCFBF6" d="M302.743 448.395C313.44 456.239 316.202 474.016 325.713 482.674C324.875 483.6 324.033 484.501 323.144 485.381L323.158 484.188L322.776 485.043C317.667 477.854 305.219 456.625 302.743 448.395Z"/>
	<path fill="#FCFBF6" d="M349.667 454.975C348.29 450.081 346.143 445.547 344.4 440.793C343.903 439.436 343.375 438.683 343.999 437.33C349.488 442.081 353.949 463.247 361.963 472.072C360.531 472.413 359.175 472.913 357.719 472.471C353.133 468.4 349.11 457.695 346.132 451.938C345.069 449.757 343.252 447.514 343.222 445.056C345.479 448.28 347.407 451.737 349.667 454.975Z"/>
	<path fill="#FCFBF6" d="M370.289 372.973C371.575 372.387 372.62 371.845 374.079 372.304C376.581 373.093 377.7 376.19 378.559 378.431C382.545 388.831 383.121 400.187 386.346 410.774C388.205 416.872 391.377 422.355 393.946 428.161C398.006 437.335 403.292 451.678 404.274 461.643C401.758 461.608 397.369 462.134 395.667 459.838C393.32 456.674 392.008 446.307 391 442.153C387.504 427.747 383.551 413.522 379.72 399.209C377.777 391.952 376.328 383.696 373.408 376.799C372.65 375.009 371.831 374.128 370.289 372.973Z"/>
	<path fill="#D56F63" d="M437.564 458.001C437.921 456.97 438.188 456.034 438.332 454.947C439.304 447.579 439.755 429.412 435.117 423.403C434.514 422.622 434.023 421.808 433.5 420.972L433.888 419.825C434.956 419.114 435.547 418.849 436.83 418.734L437.867 419.709C445.183 423.675 459.297 422.222 467.369 420.799C471.667 433.738 462.348 452.075 464.069 458.094C463.758 458.188 463.452 458.299 463.137 458.375C460.029 459.13 439.41 461.115 437.865 460.012L437.564 458.001Z"/>
	<path fill="#FCFBF6" d="M437.564 458.001C437.921 456.97 438.188 456.034 438.332 454.947C439.304 447.579 439.755 429.412 435.117 423.403C434.514 422.622 434.023 421.808 433.5 420.972L433.888 419.825C434.956 419.114 435.547 418.849 436.83 418.734L437.867 419.709L437.936 420.424C438.759 428.677 441.11 436.672 441.611 444.98C441.779 447.764 440.899 454.254 441.942 456.464L443.414 457.097L442.907 457.859C442.014 457.989 441.583 457.965 440.692 457.786C439.47 457.539 438.764 457.742 437.564 458.001Z"/>
	<path fill="#FCFBF6" d="M463.54 463.808L463.772 464.147C463.653 465.37 463.591 466.541 463.094 467.683C462.313 469.476 455.188 469.949 453.182 470.244C439.036 472.33 424.455 472.253 410.421 474.847C402.711 476.273 395.17 478.972 387.696 481.31L356.86 490.893C351.533 492.57 338.238 497.831 333.483 497.267C332.26 497.122 331.264 496.616 330.19 496.057C329.657 495.422 329.162 494.779 328.736 494.065C327.879 492.627 327.663 491.291 328.061 489.666C329.214 488.213 330.024 487.909 331.776 487.256C340.913 483.853 350.638 481.694 359.97 478.819C369.432 475.905 378.781 472.747 388.304 470.015C391.892 468.985 395.746 467.567 399.455 467.163C404.381 466.625 409.572 467.572 414.554 467.376C430.856 466.735 447.343 465.82 463.54 463.808Z"/>
	<path fill="#FCFBF6" d="M425.959 237.955C427.676 237.91 429.232 239.711 430.505 240.76C414.499 247.153 397.603 252.229 382.05 259.675C383.443 262.915 385.058 266.015 386.723 269.122C385.862 279.067 381.429 288.507 380.874 298.493C380.276 309.261 394.548 339.951 397.993 353.128L389.376 352.916C384.183 336.951 377.016 321.385 372.453 305.291C371.185 295.46 377.274 286.268 378.256 276.759C378.879 270.727 376.136 267.038 372.619 262.566C362.365 268.463 349.831 272.077 338.752 276.204C335.359 277.468 331.501 279.484 328.036 280.259C326.75 280.547 326.172 280.294 325.063 279.659C324.361 278.561 324.154 278.701 324.376 277.336C329.124 274.011 343.049 269.68 349.052 267.358C353.629 265.588 358.309 263.946 362.798 261.964C367.586 259.851 372.222 257.352 377.128 255.513C381.767 253.774 386.678 253.021 391.367 251.468C395.248 250.182 399.009 248.4 402.839 246.946C410.579 244.006 418.332 241.183 425.959 237.955Z"/>
	<path fill="#D56F63" d="M339.241 437.855C340.58 440.228 342.059 442.594 343.222 445.056C343.252 447.514 345.069 449.757 346.132 451.938C346.468 457.894 353.356 468.173 356.385 473.658C349.246 475.93 332.217 482.371 325.713 482.674C316.202 474.016 313.44 456.239 302.743 448.395C302.194 447.286 301.872 445.814 301.488 444.623C303.263 443.439 306.81 447.885 309.668 447.557C313.015 447.172 336.026 441.126 338.196 439.744C338.546 439.521 338.718 439.098 338.979 438.775L339.241 437.855Z"/>
	<path fill="#FCFBF6" d="M429.841 370.725C436.382 370.569 442.847 370.504 449.357 371.253C455.833 380.042 467.308 404.723 469.949 415.331L460.579 415.553C453.319 415.887 446.277 415.877 439.027 415.171C431.912 400.932 427.018 385.631 420.45 371.127L429.841 370.725Z"/>
	<path fill="#FCFBF6" d="M394.393 371.648Q404.825 371.37 415.26 371.505C417.842 376.8 419.802 382.565 421.989 388.041Q427.579 402.09 433.467 416.016L427.557 416.889C421.701 417.851 409.475 419.36 404.208 417.281C401.118 416.061 399.321 413.501 398.062 410.539C395.64 404.839 394.876 398.198 393.284 392.21C392.106 387.776 390.143 383.231 389.413 378.721C389.183 377.298 389.165 375.995 389.848 374.675C390.813 372.81 392.533 372.239 394.393 371.648Z"/>
	<path fill="#D56F63" d="M343.999 437.33C349.588 436.057 370.406 429.866 375.124 427.255C376.537 426.473 377.724 425.425 378.584 424.049C379.821 422.069 380.578 419.782 381.326 417.585C386.993 431.95 386.676 449.47 395.172 462.576Q378.505 467.104 361.963 472.072C353.949 463.247 349.488 442.081 343.999 437.33Z"/>
	<path fill="#FCFBF6" d="M303.727 397.342C312.735 393.238 322.17 390.619 331.606 387.729C331.739 398.269 332.399 416.515 334.867 426.348C335.882 430.396 337.522 434.072 339.241 437.855L338.979 438.775C337.739 437.72 336.295 436.898 334.92 436.026C327.116 436.901 315.751 442.713 309.628 442.771C307.48 442.791 305.511 442.078 304.04 440.475C302.504 438.802 301.824 436.566 301.559 434.352C301.113 430.638 301.783 426.497 302.014 422.753C302.489 415.034 302.995 407.29 303.049 399.556L303.727 397.342Z"/>
	<path fill="#213044" d="M313.804 402.609L315.715 403.008C318.116 406.086 316.631 421.713 316.458 425.952C315.78 425.781 315.137 425.634 314.627 425.109C311.885 422.291 313.375 406.744 313.804 402.609Z"/>
	<path fill="#FCFBF6" d="M362.604 377.091C364.196 376.868 365.849 376.523 367.385 377.175C368.825 377.787 369.397 378.904 369.901 380.289C371.442 384.529 376.018 407.709 376.244 412.233C376.363 414.599 376.183 417.888 375.006 420.01C372.765 424.049 353.705 428.723 348.531 430.363L341.714 433.153C339.356 426.598 334.883 392.71 337.462 387.464C340.126 382.043 356.88 378.536 362.604 377.091Z"/>
	<path fill="#D56F63" d="M303.049 399.556C302.99 394.56 303.06 389.482 306.546 385.506C308.058 383.783 310.259 382.586 312.316 381.645C318.738 378.708 325.798 376.908 332.398 374.364C343.98 369.899 355.465 364.584 367.375 361.089C371.724 359.813 376.02 359.144 380.542 358.889C389.479 358.386 432.694 358.446 439.131 360.063C442.385 360.881 444.827 363.488 447.242 365.67C438 365.114 428.704 366.54 419.433 365.757C416.029 363.558 408.344 365.303 404.357 365.787L405.369 366.056C405.171 366.113 404.975 366.182 404.774 366.229C398.942 367.566 389.061 365.184 385.48 371.764C384.403 373.743 384.431 376.532 384.678 378.713C385.407 385.161 390.84 404.969 393.241 411.487C394.509 414.932 397.034 420.353 400.513 421.926C408.224 425.414 424.15 421.817 432.927 421.966C436.414 435.559 435.288 447.074 436.295 460.57C428.017 461.475 412.159 463.172 404.274 461.643C403.292 451.678 398.006 437.335 393.946 428.161C391.377 422.355 388.205 416.872 386.346 410.774C383.121 400.187 382.545 388.831 378.559 378.431C377.7 376.19 376.581 373.093 374.079 372.304C372.62 371.845 371.575 372.387 370.289 372.973C370.002 372.974 369.716 372.978 369.429 372.975C367.133 372.946 364.912 372.169 362.619 372.17C357.16 372.172 345.886 376.082 340.926 378.751C338.262 380.185 336.144 383.268 333.528 384.527C333.237 384.667 330.957 383.339 328.714 383.727C321.948 384.898 310.541 386.619 305.427 391.671C303.826 393.252 303.844 395.245 303.727 397.342L303.049 399.556Z"/>
	<path fill="#FCFBF6" d="M247.914 631.354C248.069 631.37 248.228 631.367 248.379 631.403C255.209 633.045 262.758 639.626 266.752 645.232C271.016 651.215 273.127 659.032 271.73 666.301C268.078 685.304 247.057 699.96 232.043 710.087C210.803 724.413 187.488 735.942 163.886 745.794C161.276 746.884 155.265 750.222 152.584 749.701C142.741 735.98 133.824 720.882 126.844 705.51C136.691 701.672 146.389 696.299 155.706 691.329C188.375 673.9 218.37 653.594 247.914 631.354Z"/>
	<path fill="#FCFBF6" d="M319.045 601.21C340.009 601.498 358.063 609.911 376.523 618.883C384.794 622.903 393.011 626.884 401.024 631.406C389.176 643.939 375.158 654.921 361.997 666.026Q338.274 686.123 313.429 704.814Q288.584 723.505 262.699 740.728C242.844 753.698 222.296 765.468 201.7 777.205C194.799 780.868 187.914 784.551 181.425 788.914C171.281 777.958 162.976 764.83 154.386 752.659C163.041 749.114 171.988 746.291 180.612 742.651C208.621 730.827 256.893 707.128 272.028 680.449C276.989 671.704 278.475 662.006 275.746 652.297C272.412 640.436 263.525 633.153 253.15 627.308C273.1 612.654 293.952 602.616 319.045 601.21Z"/>
	<path fill="#FCFBF6" d="M693.358 388.531L693.953 388.823L694.718 388.686L694.124 389.137C695.497 392.23 696.325 395.641 697.509 398.824Q701.199 408.66 705.688 418.159C715.045 437.918 726.73 456.697 733.157 477.74C742.282 507.614 742.026 538.466 726.97 566.507C723.371 573.209 717.172 584.129 710.767 588.405C704.985 592.265 695.659 595.176 689.11 598.315C673.73 605.688 658.419 613.721 643.514 622.014Q612.129 639.619 581.002 657.68C574.936 661.215 560.285 671.2 554.454 672.967L553.656 672.503C546.546 665.326 539.677 657.959 534.545 649.195C528.574 639 525.554 627.251 528.658 615.611C530.797 607.588 535.308 600.635 541.143 594.792C559.499 576.41 601.486 558.654 625.044 544.788C643.334 534.022 656.667 519.704 661.969 498.799C667.843 475.643 662.856 451.192 652.473 430.04C649.485 423.952 645.769 418.125 642.303 412.296C659.024 402.984 675.269 394.934 693.358 388.531Z"/>
	<path fill="#FCFBF6" d="M761.275 373.71C762.016 373.617 762.762 373.606 763.507 373.578C815.599 371.638 867.787 391.386 911.024 419.198C919.409 424.592 928.76 430.139 936.092 436.92C938.194 443.869 938.889 451.757 939.776 458.957C941.701 474.584 943.189 490.785 943.409 506.548C943.555 517.059 942.899 527.634 942.403 538.133C920.414 539.692 898.741 541.999 876.848 544.527C864.752 534.971 858.334 526.317 853.761 511.493C860.93 519.856 867.473 523.298 878.21 525.492C863.542 514.125 854.173 500.925 848.885 483.117C852.449 486.364 856.072 489.028 860.422 491.149C862.194 492.012 864.327 493.182 866.314 492.501C866.475 492.241 866.777 492.026 866.797 491.721C866.797 491.718 859.499 484.461 858.726 483.471C851.985 474.834 847.576 465.538 845.257 454.858C848.322 457.472 853.721 462.157 857.852 462.31C858.64 462.339 858.44 462.293 858.97 461.674C844.472 444.282 842.169 438.007 837.446 415.719C834.532 428.042 830.982 439.003 824.435 449.917C821.502 454.703 818.396 458.514 814.136 462.146C819.286 461.365 823.25 459.934 827.504 456.965C822.873 471.978 816.844 483.03 804.698 493.149C806.483 492.953 808.289 492.778 810.054 492.448C816.772 491.191 821.093 487.861 824.856 482.361C821.846 496.355 812.52 511.297 801.111 519.992C799.493 521.225 794.622 523.505 793.852 524.934C794.91 525.686 795.85 525.845 797.125 525.757C804.914 525.216 814.095 519.429 819.192 513.826C815.372 526.95 807.501 541.452 794.567 547.666C792.151 548.827 787.023 549.681 785.578 551.925C785.698 552.036 785.805 552.163 785.938 552.259C790.017 555.193 803.304 552.753 808.209 552.094C809.328 551.944 809.91 551.831 811.044 552.181C811.503 553.498 811.447 554.22 811.288 555.568C808.052 557.994 770.908 567.477 764.869 569.314C750.676 573.632 736.107 578.01 722.416 583.722C725.709 577.538 730.141 572.062 733.311 565.724C739.611 553.129 742.984 538.493 743.947 524.496C747.728 469.525 714.527 435.53 698.516 386.864C719.242 380.039 739.478 375.298 761.275 373.71Z"/>
	<path fill="#FCFBF6" d="M637.997 413.889C638.589 414.044 638.485 413.939 638.956 414.415C641.348 416.826 642.981 421.009 644.485 424.066C652.178 439.711 658.105 455.224 659.308 472.813C662.309 516.69 637.143 533.089 602.074 550.982C580.8 561.836 549.239 577.151 533.514 595.257C526.052 603.849 520.964 615.328 521.807 626.872C523.228 646.306 535.967 663.81 550.326 676.045C541.945 681.761 532.446 686.351 523.644 691.446C516.393 695.644 509.227 700.747 501.601 704.184C494.529 698.063 491.817 691.176 489.455 682.343C490.523 683.372 491.601 684.402 492.766 685.323C494.956 687.056 498.813 689.67 501.714 689.178C502.647 689.02 502.582 688.764 503.084 688.057C502.636 684.136 497.329 680.972 494.777 678.159C490.976 673.969 488.567 667.871 486.167 662.772C488.843 664.279 492.882 667.171 496.044 666.885L496.559 666.119C495.823 661.574 491.008 657.93 488.628 654.109C485.098 648.443 484.165 634.419 479.349 630.889C478.413 630.203 477.96 630.381 476.993 630.701C472.518 635.154 472.339 646.649 469.053 652.388C466.722 656.457 462.169 660.056 460.914 664.609L461.46 665.321C464.361 665.711 467.27 663.536 469.602 662.017C467.681 668.353 464.721 674.61 460.429 679.708C458.829 681.609 456.163 683.854 454.972 685.949C454.375 687.001 454.67 687.478 455.028 688.506C455.589 688.943 455.882 689.375 456.634 689.386C460.223 689.438 464.035 685.908 466.611 683.658C464.113 692.759 460.061 702.714 452.963 709.22C450.555 711.426 447.038 713.813 445.501 716.685C445.643 717.018 445.785 717.422 446.048 717.682C446.962 718.586 448.115 718.815 449.349 718.699C455.481 718.126 462.247 712.764 465.92 708.168C465.786 708.561 465.656 708.957 465.508 709.345C463.414 714.85 460.267 722.746 455.986 726.881C451.367 731.342 444.327 734.741 438.806 738.015Q395.132 763.382 349.25 784.496Q308.435 803.475 266.107 818.784C252.276 823.858 238.429 829.049 224.192 832.875C220.025 829.8 216.178 825.823 212.447 822.226Q196.925 807.323 182.955 790.957C195.064 785.004 207.48 779.335 219.322 772.883Q245.579 758.565 270.913 742.671Q296.247 726.778 320.564 709.368C379.611 666.44 433.392 615.389 483.122 562.076C533.302 508.28 573.219 452.156 637.997 413.889Z"/>
	<path fill="#FCFBF6" d="M500.518 81.25C556.729 78.6773 614.72 89.8471 667.079 109.958C682.765 115.983 697.994 123.285 713.282 130.247C710.889 130.16 708.847 130.589 706.588 131.387C700.756 133.447 695.08 136.214 689.359 138.585Q671.262 146.108 653.073 153.404L509.762 210.013C484.208 219.995 458.833 230.927 432.79 239.558C431.984 237.543 430.979 234.002 429.114 232.801C428.561 232.445 428.48 232.563 427.744 232.641C422.176 233.23 399.218 243.536 392.307 246.254C388.188 247.874 387.141 246.801 383.772 247.502C378.271 248.645 372.258 251.457 367.025 253.519C363.663 254.845 361.064 257.229 357.809 258.705C347.594 263.336 328.819 270.804 318.203 273.491C319.001 277.299 319.976 280.054 322.184 283.282C304.518 291.356 285.872 297.727 267.848 305.019C239.558 316.504 210.798 326.936 182.471 338.385C165.406 345.282 148.457 352.325 131.227 358.81C123.073 361.879 114.905 365.221 106.476 367.457C110.565 356.111 114.67 344.699 119.565 333.67Q123.267 325.484 127.311 317.461Q131.356 309.439 135.736 301.595Q140.117 293.751 144.825 286.099Q149.534 278.447 154.562 271.001Q159.59 263.556 164.928 256.33Q170.267 249.103 175.907 242.11Q181.546 235.116 187.477 228.367Q193.407 221.618 199.618 215.126Q203.262 211.307 206.999 207.578Q210.736 203.848 214.562 200.211Q218.388 196.574 222.302 193.032Q226.216 189.489 230.215 186.043Q234.214 182.597 238.296 179.249Q242.378 175.901 246.541 172.654Q250.703 169.407 254.943 166.263Q259.184 163.118 263.499 160.078Q267.815 157.038 272.204 154.103Q276.592 151.169 281.051 148.343Q285.51 145.517 290.036 142.8Q294.563 140.083 299.154 137.478Q303.746 134.872 308.399 132.38Q313.053 129.887 317.765 127.508Q322.478 125.13 327.248 122.867Q332.017 120.604 336.841 118.458Q341.664 116.312 346.538 114.284Q351.412 112.257 356.334 110.348Q361.256 108.44 366.224 106.652Q371.191 104.865 376.2 103.199Q381.209 101.533 386.258 99.9894Q391.306 98.446 396.391 97.0262Q401.476 95.6064 406.593 94.311Q411.711 93.0156 416.859 91.8454Q422.007 90.6752 427.181 89.6309Q432.356 88.5865 437.555 87.6687Q442.753 86.7508 447.973 85.96Q453.193 85.1692 458.43 84.5059Q463.667 83.8426 468.919 83.3072Q474.171 82.7718 479.434 82.3647Q484.698 81.9575 489.969 81.6788Q495.241 81.4001 500.518 81.25Z"/>
	<path fill="#FCFBF6" d="M939.281 542.735C940.331 542.595 940.56 542.583 941.542 542.961C941.612 543.141 941.703 543.314 941.752 543.5C942.552 546.538 940.18 563.269 939.659 567.377Q938.947 572.829 938.095 578.261Q937.244 583.693 936.254 589.101Q935.264 594.51 934.137 599.891Q933.009 605.273 931.745 610.624Q930.48 615.975 929.079 621.291Q927.678 626.608 926.142 631.888Q924.606 637.167 922.936 642.405Q921.266 647.644 919.462 652.838Q917.658 658.032 915.723 663.178Q913.787 668.325 911.721 673.42Q909.655 678.515 907.459 683.556Q905.263 688.597 902.939 693.58Q900.616 698.563 898.166 703.485Q895.715 708.407 893.14 713.266Q890.565 718.123 887.867 722.914Q885.169 727.705 882.349 732.425Q879.622 736.981 876.784 741.468Q873.947 745.956 871 750.373Q868.054 754.79 865 759.134Q861.947 763.477 858.788 767.745Q855.629 772.013 852.367 776.202Q849.105 780.391 845.742 784.499Q842.378 788.608 838.915 792.633Q835.452 796.658 831.892 800.597Q828.332 804.536 824.677 808.386Q821.021 812.237 817.273 815.998Q813.524 819.758 809.685 823.426Q805.846 827.094 801.918 830.666Q797.991 834.239 793.977 837.715Q789.963 841.19 785.866 844.567Q781.768 847.944 777.589 851.219Q773.41 854.495 769.153 857.667Q764.895 860.839 760.561 863.907Q756.227 866.974 751.82 869.934Q747.412 872.895 742.934 875.747Q738.455 878.599 733.908 881.341Q729.362 884.082 724.749 886.712Q720.136 889.342 715.461 891.858Q710.785 894.374 706.05 896.775Q701.314 899.177 696.522 901.461Q691.729 903.746 686.882 905.913Q682.034 908.08 677.136 910.128Q672.237 912.176 667.29 914.103Q662.342 916.031 657.349 917.837Q652.357 919.643 647.321 921.327Q642.285 923.01 637.21 924.57Q632.135 926.13 627.023 927.565Q621.911 929.001 616.766 930.311Q611.655 931.612 606.513 932.786Q601.371 933.961 596.202 935.007Q591.033 936.054 585.839 936.973Q580.646 937.892 575.431 938.682Q570.217 939.472 564.984 940.133Q559.751 940.795 554.504 941.326Q549.257 941.858 543.998 942.26Q538.739 942.662 533.472 942.933Q528.205 943.205 522.933 943.347Q517.66 943.488 512.386 943.499Q507.112 943.511 501.839 943.392Q496.566 943.272 491.298 943.023Q486.03 942.774 480.769 942.394Q475.509 942.015 470.259 941.506Q465.01 940.996 459.774 940.357Q454.539 939.719 449.321 938.951Q444.103 938.183 438.906 937.286Q433.709 936.389 428.535 935.364Q423.361 934.339 418.215 933.187Q413.068 932.035 407.951 930.755Q402.834 929.476 397.751 928.071Q392.667 926.666 387.62 925.135Q382.573 923.605 377.565 921.95Q372.557 920.296 367.592 918.518Q362.626 916.74 357.706 914.84Q352.786 912.94 347.915 910.919Q343.043 908.898 338.223 906.757Q333.403 904.616 328.637 902.357Q323.871 900.098 319.163 897.722Q314.454 895.345 309.806 892.853Q305.157 890.362 300.572 887.756Q295.987 885.15 291.467 882.431Q282.812 877.433 274.437 871.978Q266.063 866.522 257.994 860.625Q249.925 854.727 242.185 848.404Q234.444 842.082 227.055 835.352C257.367 827.946 286.808 817.689 315.888 806.444Q345.275 795.14 374.003 782.251Q402.73 769.362 430.712 754.926C482.669 728.107 532.894 697.499 583.348 667.977C591.344 663.298 599.097 658.206 607.076 653.501C615.659 648.44 624.465 643.731 633.112 638.777C663.055 621.622 692.572 605.28 724.574 592.083C747.531 582.616 771.566 575.189 795.494 568.631C820.534 561.768 845.64 555.496 871.238 551.036C893.722 547.119 916.555 544.693 939.281 542.735Z"/>
	<path fill="#213044" d="M861.429 597.354C861.836 597.341 862.413 597.311 862.805 597.351C864.13 597.485 864.231 597.628 864.997 598.624C865.509 603.335 860.941 609.964 858.626 614.057C803.437 711.657 655.628 775.348 553.144 809.193Q517.875 820.673 482.194 830.798C466.929 834.983 451.506 838.577 436.254 842.821C435.097 842.763 434.459 842.605 433.434 842.063C432.809 840.875 432.776 840.669 432.846 839.326C433.154 838.944 433.4 838.5 433.772 838.179C435.457 836.728 476.37 826.876 482.162 825.33Q519.646 815.026 556.393 802.343C568.401 798.28 580.541 794.416 592.416 789.985C674.347 759.415 773.731 711.514 831.296 643.995Q837.453 636.709 842.943 628.909Q848.434 621.109 853.216 612.855C856.109 607.767 858.501 602.418 861.429 597.354Z"/>
	<path fill="#FCFBF6" d="M713.449 130.9C724.964 135.924 735.709 143.389 746.257 150.143Q750.196 152.681 754.079 155.305Q757.962 157.929 761.787 160.637Q765.612 163.345 769.377 166.135Q773.142 168.926 776.845 171.798Q780.549 174.67 784.188 177.622Q787.828 180.574 791.402 183.605Q794.977 186.636 798.484 189.744Q801.992 192.852 805.431 196.036Q808.87 199.219 812.238 202.478Q815.607 205.736 818.903 209.066Q822.2 212.397 825.423 215.799Q828.647 219.201 831.795 222.672Q834.943 226.144 838.015 229.683Q841.087 233.222 844.081 236.827Q847.075 240.433 849.99 244.103Q852.904 247.772 855.738 251.505Q858.572 255.237 861.324 259.031Q864.076 262.824 866.744 266.677Q869.412 270.529 871.996 274.439Q874.58 278.349 877.078 282.314Q879.576 286.279 881.986 290.298Q884.397 294.317 886.719 298.387Q889.042 302.458 891.275 306.578Q893.509 310.698 895.651 314.866Q897.794 319.034 899.846 323.247Q901.897 327.461 903.856 331.718Q905.815 335.975 907.681 340.274Q909.546 344.573 911.318 348.912Q913.089 353.251 914.766 357.627Q916.442 362.003 918.023 366.415Q919.603 370.827 921.087 375.272Q922.571 379.717 923.958 384.194C928.579 398.974 931.655 414.129 934.969 429.237C925.708 423.51 917.032 416.891 907.798 411.132C897.113 404.467 885.939 399.052 874.735 393.366C864.448 388.145 858.215 377.754 854.772 367.084C856.782 369.599 859.164 373.169 862.054 374.665C863.603 375.468 864.61 375.302 866.171 374.83C860.593 367.347 856.488 362.217 853.607 353.227C856.13 355.308 858.558 356.099 861.644 356.983C853.561 345.265 851.58 341.321 847.418 327.584C844.149 340.488 840.63 347.468 831.613 357.195C835.65 356.385 838.231 355.323 841.46 352.726C840.526 355.394 839.645 358.034 838.249 360.508C836.336 363.897 832.175 368.167 831.491 371.949L832.193 372.226C834.738 371.411 836.588 369.716 838.637 368.068C837.23 371.226 835.642 374.255 834.003 377.298C830.581 376.552 827.063 375.587 823.556 375.455C814.81 367.01 808.188 357.859 803.875 346.508C808.578 351.873 812.715 354.036 819.47 355.95C818.025 354.183 816.248 352.664 814.735 350.939C809.035 344.44 805.6 337.548 803.188 329.285C805.415 330.042 810.142 332.224 812.3 331.28C810.386 329.043 808.16 327.082 806.325 324.783C800.339 317.287 797.527 307.675 794.889 298.612C792.262 314.029 789.336 318.301 779.915 330.105L780.145 330.785C782.719 331.593 785.713 330.292 788.091 329.341C783.963 339.054 778.422 346.587 771.563 354.483C778.055 352.583 782.068 349.609 787.058 345.202C783.269 353.994 778.631 361.037 771.988 367.928Q768.266 367.915 764.545 368.011Q760.824 368.107 757.108 368.312Q753.392 368.517 749.683 368.832Q745.974 369.146 742.276 369.569Q738.578 369.992 734.895 370.524Q731.211 371.056 727.544 371.695Q723.877 372.335 720.231 373.082Q716.585 373.829 712.962 374.683Q709.339 375.536 705.743 376.496Q702.147 377.456 698.581 378.521Q695.014 379.586 691.481 380.756Q687.947 381.925 684.45 383.198Q680.952 384.47 677.493 385.845Q674.034 387.22 670.617 388.696Q667.2 390.172 663.828 391.747Q660.456 393.323 657.132 394.997C650.953 388.481 646.692 381.923 643.928 373.418C647.404 375.207 650.601 376.236 654.432 376.841C643.301 365.437 640.774 357.309 636.488 342.329C634.008 356.026 629.151 368.083 619.663 378.384C623.358 377.285 626.545 376.033 629.913 374.161C625.843 385.296 618.927 393.1 612.321 402.608C620.274 400.755 623.516 397.663 628.615 391.596C623.072 406.485 613.029 416.271 601.814 427.017C594.394 419.899 590.003 413.261 587.033 403.421C590.184 405.091 593.233 406.167 596.691 406.995C586.163 395.338 583.529 389.098 579.293 374.133C576.267 387.739 573.401 392.982 566.162 404.366L566.313 404.974C569.097 405.183 572.091 403.114 574.388 401.672C571.913 408.286 568.198 415.049 563.805 420.584C562.326 422.447 560.634 424.053 559.239 426.001L559.508 426.79C560.195 426.877 560.292 426.923 561.087 426.824C566.253 426.176 569.699 421.255 572.94 417.702C570.389 423.529 567.357 429.323 563.972 434.715C560.959 439.514 556.949 444.396 554.911 449.694C554.086 451.836 553.02 454.858 553.986 457.049C555.553 456.693 556.484 455.371 557.753 454.388C557.758 457.059 553.042 464.571 552.402 470.132C547.675 475.799 542.399 481.062 537.396 486.489Q526.751 498.135 516.293 509.949C495.254 533.566 474.755 557.599 452.976 580.563C437.783 596.584 421.679 611.694 405.94 627.166C396.18 622.59 386.628 617.494 376.937 612.764C373.543 611.107 366.136 608.304 363.451 606.169C362.834 605.679 362.643 605.241 361.804 605.072C360.904 604.891 360.5 604.654 359.686 604.176L360.016 603.724C361.132 603.976 362.195 604.278 363.349 604.195C362.421 601.358 358.582 600.066 358.056 596.854C359.392 596.739 360.664 597.077 361.966 597.339C363.214 596.922 363.789 597 364.523 595.836C363.858 593.936 359.633 592.635 358.048 590.668C357.409 589.875 356.148 588.095 356.287 587.079C358.293 587.556 360.633 588.416 362.669 587.918L363.028 587.173L362.513 585.715C361.934 585.336 361.435 585.02 360.757 584.844C357.157 583.906 354.877 579.697 352.726 576.873C354.377 577.763 356.02 578.6 357.74 579.348L358.289 578.73C359.135 574.004 353.915 574.447 352.976 570.36C353.367 569.842 353.73 569.332 354.088 568.789C353.087 568.109 352.621 567.922 352.022 566.854C352.849 566.217 353.415 565.851 353.794 564.855C351.035 562.011 349.862 558.451 348.37 554.852C346.698 557.892 344.273 562.047 343.441 565.41C343.254 566.164 344.605 565.852 345.175 566.719C344.037 567.808 342.129 568.447 341.732 569.932L343.716 570.049L344.121 570.524C343.161 572.926 340.048 575.698 338.359 577.757C338.394 579.035 338.392 578.761 339.154 579.621C340.891 579.72 342.476 578.324 343.878 577.389L343.638 577.797C343.504 578.023 343.363 578.246 343.232 578.473C341.679 581.173 335.049 587.637 335.044 589.897L336.014 590.314C337.882 590.102 339.324 589.298 340.988 588.463C339.853 590.509 337.532 593.721 337.55 596.057C337.557 596.906 337.956 597.015 338.512 597.563C340.224 597.761 340.128 597.676 341.528 596.638L341.965 597.091L341.819 598.927L340.999 599.201C333.687 595.419 319.296 595.982 311.251 596.884C306.37 597.431 300.359 598.914 295.553 597.682L295.387 597.003C297.624 597.186 299.67 597.061 301.718 596.116C301.787 595.539 302.101 594.939 301.925 594.385C301.53 593.137 297.156 590.956 296.205 589.26C297.769 588.146 299.246 589.419 301.017 588.202L301.119 587.162C299.824 585.665 297.771 585.09 295.978 584.36C295.188 582.88 294.313 581.477 294.015 579.806C294.359 579.922 294.697 580.043 295.052 580.127C296.741 580.527 296.801 580.306 298.28 579.431L298.443 578.483C297.865 577.55 297.115 577.318 296.152 576.855C295.996 576.78 294.709 576.197 294.531 576.037C293.499 575.106 292.592 572.47 292.424 571.139L294 571.447L293.996 570.71C293.072 569.757 292.319 568.98 291.756 567.751L292.816 566.044C291.452 563.233 289.922 560.619 288.792 557.693L288.565 557.095C288.103 558.251 286.414 565.011 286.237 565.226C285.428 566.201 284.862 565.341 284.153 566.941C284.604 569.187 284.648 570.51 283.691 572.648C283.622 572.802 283.55 572.954 283.479 573.106C283.619 573.404 283.793 573.688 283.9 574C284.407 575.487 280.482 576.022 279.618 577.499C280.658 579.079 281.531 577.987 282.746 579.061C282.116 580.934 280.975 583.571 279.205 584.574C277.949 585.286 277.321 585.514 276.6 586.88L276.986 587.641C278.102 587.961 278.781 587.905 279.892 587.677C280.951 587.46 281.046 587.388 282.138 587.704C280.729 592.124 277.582 593.552 275.079 597.023L275.533 598.249C276.155 598.696 276.302 599.07 277.117 598.889C279.539 598.352 280.956 596.187 282.352 594.326C281.676 597.231 280.777 600.026 279.842 602.856C272.106 607.839 263.799 611.898 256.136 617.05C247.354 622.953 239.252 629.81 230.389 635.61C228.783 634.098 227.181 632.595 225.655 631L225.738 630.235C226.885 630.003 227.985 629.889 228.883 629.071C230.523 627.576 223.895 623.187 223.846 620.582C225.102 620.732 226.341 621.075 227.48 620.389C227.864 617.656 225.256 618.09 223.91 615.911C223.416 615.109 222.259 613.792 222.397 612.884C223.207 612.475 223.643 612.236 224.298 611.584C221.067 608.619 219.654 601.684 218.089 597.559C217.606 599.095 217.149 600.648 216.489 602.119C215.325 604.709 214.414 608.675 212.562 610.759C212.382 610.961 212.192 611.153 212.008 611.35C212.408 612.611 213.545 611.684 214.443 612.755C212.892 614.357 209.901 617.4 209.543 619.51C210.31 620.408 210.948 621.262 211.551 622.278C210.863 624.125 209.42 624.812 207.856 625.938C207.281 627.193 207.295 627.47 207.415 628.857L208.112 629.381C209.07 629.142 209.921 628.865 210.812 628.444L211.703 628.016C211.37 631.267 206.452 635.171 204.556 637.985C204.982 638.647 205.064 639.188 205.899 639.36C208.159 639.827 210.732 637.761 212.555 636.598Q209.772 640.082 207.03 643.598C205.665 645.364 204.008 647.168 204.308 649.501L205.338 650.077C209.209 650.063 211.74 647.719 214.773 645.579C193.689 665.853 167.632 680.008 142.468 694.567Q134.148 699.281 126.028 704.333C115.15 684.538 106.845 662.161 100.223 640.594C79.6709 573.658 74.7181 504.857 87.9931 435.929C94.5182 433.636 100.885 430.578 107.268 427.894L146.46 411.505L312.049 343.347C317.28 341.253 345.289 330.755 347.481 328.855C348.529 327.946 348.791 327.399 348.94 326.05L348.102 325.236C346.437 324.884 345.205 324.908 343.565 325.424C336.445 327.664 329.377 331.297 322.424 334.11L266.676 356.962Q214.677 377.742 163.065 399.465C138.475 409.62 113.822 419.466 89.5641 430.399C90.4113 424.406 91.9443 418.524 92.7842 412.513L164.719 382.714Q179.963 376.463 195.082 369.917C199.489 368.054 204.18 366.501 208.465 364.387C210.466 363.4 211.719 362.668 212.466 360.497C212.092 359.774 212.038 359.29 211.195 358.957C211.121 358.928 209.826 358.681 209.694 358.692C207.909 358.835 204.118 361.111 202.21 361.872C181.566 370.098 161.217 378.813 140.742 387.457Q117.882 396.898 94.8881 406.009C97.0721 395.929 99.9943 384.845 103.955 375.315C109.038 373.028 114.5 371.291 119.717 369.298Q136.485 362.931 153.169 356.344Q225.845 327.307 298.89 299.216Q321.757 290.392 344.474 281.191C352.921 277.789 363.729 272.538 372.524 270.744C375.155 274.735 367.438 295.265 367.15 301.429C366.744 310.099 380.433 342.609 384.06 352.333C379.242 353.215 374.179 353.347 369.449 354.533C360.519 356.772 351.645 360.72 343.026 363.959C333.136 367.676 322.946 371.097 313.244 375.262C307.71 377.637 302.812 380.762 300.608 386.623C297.399 395.158 295.725 434.608 296.969 444.266C297.638 449.462 299.44 454.601 301.63 459.341C305.383 467.466 320.038 493.964 326.321 499.858C328.486 501.89 330.603 502.808 333.328 503.811C337.71 502.883 341.971 501.501 346.249 500.188C346.795 500.837 347.357 501.508 348.001 502.063C350.625 504.323 353.917 504.434 357.187 504.059C365.552 503.098 373.928 499.708 381.967 497.263L428.297 483.259C441.081 479.413 455.053 474.224 468.417 473.277C468.774 467.444 470.302 461.872 471.548 456.188C473.773 446.042 475.903 435.784 476.16 425.363Q476.213 422.027 475.786 418.718Q475.36 415.409 474.462 412.195C470.901 399.506 456.962 369.554 448.06 360.46C446.031 358.388 443.704 356.433 440.992 355.339C434.146 352.577 417.367 353.503 409.322 353.368C406.641 344.457 403.26 335.738 399.952 327.044C397.279 320.019 392.962 311.605 392.381 304.111C391.4 291.45 400.793 279.526 401.312 266.971C401.417 264.451 400.699 261.674 400.236 259.196C421.887 251.454 443.146 242.718 464.526 234.266Q512.765 215.526 560.732 196.101C603.711 178.933 647.215 162.906 690.027 145.336C694.467 143.515 710.426 137.729 712.786 135.057C713.859 133.843 713.584 132.378 713.449 130.9Z"/>
	<path fill="#213044" d="M729.626 155.415L730.836 155.643C731.78 156.759 732.331 157.259 732.438 158.78C729.682 162.017 705.651 171.366 699.689 174.036L503.976 260.506L450.134 284.107C440.137 288.471 429.91 292.447 420.202 297.43C419.447 297.434 418.762 297.067 418.06 296.807C417.408 295.838 417.495 295.766 417.596 294.584C418.558 292.954 420.195 291.761 421.967 291.12C435.317 286.286 448.445 279.718 461.424 273.936L531.129 243.112Q596.242 215.413 660.768 186.369Q695.394 171.33 729.626 155.415Z"/>
</svg>
