<?xml version="1.0" encoding="utf-8" ?>
<svg xmlns="http://www.w3.org/2000/svg" xmlns:xlink="http://www.w3.org/1999/xlink" width="1024" height="1024">
	<path fill="#FEFEFE" d="M0 0L1024 0L1024 1024L0 1024L0 0Z"/>
	<path fill="#2B3352" d="M492.62 49.2169C492.872 49.1935 493.123 49.165 493.374 49.1466C514.102 47.6343 535.852 48.9408 556.506 50.9335Q561.186 51.39 565.856 51.9405Q570.526 52.491 575.184 53.1352Q579.841 53.7794 584.485 54.517Q589.129 55.2547 593.758 56.0855Q598.386 56.9163 602.996 57.84Q607.607 58.7636 612.198 59.7797Q616.789 60.7958 621.359 61.9039Q625.929 63.012 630.475 64.2118Q635.022 65.4115 639.543 66.7023Q644.065 67.9932 648.56 69.3746Q653.054 70.756 657.52 72.2275Q661.986 73.6989 666.422 75.2598Q670.857 76.8207 675.261 78.4704Q679.664 80.1201 684.033 81.858Q688.403 83.5958 692.736 85.4211Q697.07 87.2464 701.365 89.1583Q705.661 91.0703 709.918 93.0682Q714.175 95.0661 718.39 97.1492Q722.606 99.2322 726.779 101.4Q730.952 103.567 735.08 105.818Q739.209 108.068 743.291 110.402Q747.374 112.735 751.409 115.149Q755.443 117.564 759.429 120.06Q763.414 122.555 767.349 125.13Q771.283 127.705 775.165 130.358Q779.047 133.012 782.875 135.743Q786.703 138.474 790.475 141.281Q794.248 144.088 797.963 146.971Q801.678 149.853 805.334 152.81Q808.991 155.766 812.587 158.796Q816.183 161.825 819.718 164.926Q823.252 168.028 826.724 171.199C836.535 180.037 845.889 189.869 854.787 199.623Q858.103 203.283 861.341 207.013Q864.579 210.744 867.736 214.542Q870.893 218.34 873.969 222.205Q877.045 226.07 880.037 229.999Q883.03 233.928 885.938 237.921Q888.846 241.913 891.669 245.967Q894.491 250.02 897.227 254.133Q899.962 258.245 902.609 262.415Q905.256 266.585 907.814 270.811Q910.371 275.036 912.838 279.315Q915.305 283.594 917.68 287.925Q920.055 292.256 922.338 296.636Q924.62 301.016 926.808 305.444Q928.997 309.872 931.09 314.346Q933.184 318.82 935.181 323.337Q937.179 327.854 939.08 332.413Q940.981 336.972 942.784 341.57Q944.587 346.168 946.292 350.804Q947.997 355.44 949.603 360.11Q951.208 364.781 952.714 369.486Q954.22 374.19 955.625 378.925Q957.03 383.66 958.334 388.424Q959.638 393.188 960.84 397.979Q962.042 402.77 963.142 407.585Q964.241 412.4 965.238 417.238Q966.235 422.075 967.128 426.933Q968.021 431.791 968.811 436.667Q969.601 441.542 970.286 446.434Q970.972 451.325 971.553 456.23Q972.134 461.135 972.61 466.051Q973.087 470.967 973.458 475.893Q973.83 480.818 974.096 485.75Q974.414 491.468 974.591 497.192Q974.768 502.915 974.804 508.642Q974.84 514.368 974.736 520.094Q974.632 525.819 974.387 531.541Q974.142 537.262 973.757 542.976Q973.372 548.689 972.846 554.392Q972.321 560.094 971.655 565.782Q970.99 571.469 970.185 577.139Q969.38 582.809 968.436 588.457Q967.492 594.105 966.409 599.729Q965.327 605.352 964.107 610.947Q962.887 616.542 961.529 622.105Q960.172 627.669 958.679 633.197Q957.185 638.725 955.556 644.215Q953.928 649.705 952.164 655.154Q950.401 660.602 948.505 666.005Q946.608 671.409 944.58 676.764Q942.551 682.119 940.392 687.423Q938.232 692.727 935.943 697.976Q933.654 703.225 931.236 708.416Q928.819 713.608 926.275 718.738Q923.731 723.868 921.061 728.935Q918.392 734.001 915.599 739Q912.806 743.999 909.891 748.928Q906.976 753.858 903.941 758.714Q900.905 763.57 897.752 768.35Q894.598 773.13 891.328 777.831Q888.058 782.532 884.674 787.151Q881.289 791.771 877.793 796.306Q874.296 800.84 870.688 805.288Q867.081 809.736 863.366 814.093Q859.65 818.451 855.829 822.716C770.717 916.665 658.425 967.638 532.116 973.886C423.723 978.32 316.369 947.547 230.281 880.68C221.594 873.932 212.876 867.085 204.749 859.667Q200.466 855.829 196.279 851.887Q192.092 847.944 188.005 843.898Q183.917 839.853 179.932 835.707Q175.946 831.561 172.065 827.317Q168.183 823.073 164.408 818.734Q160.634 814.395 156.968 809.964Q153.302 805.533 149.748 801.012Q146.193 796.491 142.752 791.883Q139.311 787.275 135.986 782.583Q132.66 777.89 129.453 773.117Q126.245 768.344 123.157 763.492Q120.068 758.641 117.102 753.714Q114.135 748.787 111.292 743.788Q108.448 738.789 105.73 733.721Q103.012 728.653 100.42 723.519Q97.829 718.385 95.3659 713.188Q92.9029 707.991 90.5697 702.735Q88.2366 697.478 86.0348 692.165Q83.833 686.852 81.7639 681.486Q79.6949 676.12 77.7598 670.705Q75.8247 665.289 74.0248 659.827Q72.2249 654.365 70.5612 648.86Q68.8976 643.355 67.3713 637.81Q65.845 632.265 64.457 626.684Q63.069 621.103 61.8201 615.489Q60.5712 609.875 59.4622 604.232Q58.3532 598.589 57.3848 592.92Q56.4163 587.251 55.5891 581.56Q54.7618 575.869 54.0763 570.159Q53.3907 564.449 52.8473 558.724Q52.3038 552.998 51.9028 547.261Q51.5018 541.524 51.2435 535.779Q50.2925 516.361 50.8067 496.926Q51.3209 477.491 53.2973 458.15Q53.8031 453.676 54.3962 449.212Q54.9893 444.749 55.6695 440.298Q56.3496 435.847 57.1166 431.41Q57.8836 426.973 58.7372 422.552Q59.5907 418.131 60.5304 413.728Q61.4702 409.324 62.4957 404.94Q63.5213 400.555 64.6323 396.192Q65.7433 391.828 66.9394 387.487Q68.1354 383.147 69.4161 378.83Q70.6967 374.513 72.0614 370.222Q73.4261 365.931 74.8743 361.668Q76.3226 357.404 77.8539 353.17Q79.3851 348.936 80.9988 344.732Q82.6125 340.529 84.308 336.357Q86.0035 332.186 87.7802 328.049Q89.5569 323.911 91.414 319.81Q93.2712 315.708 95.2081 311.643Q97.145 307.578 99.161 303.552Q101.177 299.526 103.271 295.54Q105.365 291.554 107.537 287.609Q109.709 283.665 111.957 279.764Q114.205 275.863 116.53 272.006Q118.854 268.15 121.253 264.339Q123.652 260.529 126.125 256.766Q128.598 253.003 131.144 249.29Q133.69 245.576 136.308 241.913Q138.926 238.249 141.615 234.638Q144.304 231.026 147.063 227.468Q149.822 223.91 152.65 220.406Q155.479 216.903 158.375 213.455Q161.271 210.007 164.234 206.617Q167.196 203.226 170.225 199.894Q174.058 195.662 177.996 191.527Q181.933 187.392 185.972 183.355Q190.011 179.319 194.149 175.385Q198.287 171.45 202.521 167.62Q206.756 163.789 211.084 160.065Q215.412 156.341 219.832 152.725Q224.251 149.11 228.759 145.605Q233.267 142.101 237.861 138.709Q242.454 135.318 247.131 132.041Q251.807 128.765 256.564 125.606Q261.32 122.447 266.153 119.407Q270.987 116.367 275.894 113.448Q280.802 110.529 285.78 107.733Q290.759 104.936 295.805 102.265Q300.851 99.5932 305.963 97.0478Q311.074 94.5024 316.247 92.0848Q321.42 89.6671 326.651 87.3788Q331.882 85.0904 337.169 82.9327Q342.455 80.775 347.794 78.7493Q353.132 76.7236 358.52 74.8312Q363.907 72.9388 369.34 71.1808Q374.772 69.4228 380.247 67.8003Q385.721 66.1778 391.234 64.6918Q396.748 63.2058 402.296 61.8573Q407.844 60.5087 413.425 59.2984Q419.005 58.0881 424.613 57.0168Q430.222 55.9456 435.855 55.0139Q441.489 54.0823 447.144 53.291Q452.799 52.4996 458.471 51.849Q464.144 51.1983 469.831 50.6888Q475.518 50.1794 481.216 49.8113Q486.915 49.4433 492.62 49.2169Z"/>
	<path fill="#FEFEFE" d="M671.1 639.287C672.585 640.869 673.459 643.81 673.965 645.907C674.198 646.872 674.499 647.469 673.987 648.333L670.115 648.951C668.969 649.075 668.601 649.13 667.484 648.729C667.431 648.561 667.358 648.398 667.326 648.224C666.846 645.638 669.864 641.502 671.1 639.287Z"/>
	<path fill="#FEFEFE" d="M662.48 522.214C667.193 521.949 673.633 521.043 677.705 523.858C679.777 525.289 680.584 527.162 681.101 529.546L677.513 525.749C673.658 524.798 669.644 525.415 665.848 524.492C664.383 524.136 663.267 523.545 662.48 522.214Z"/>
	<path fill="#FEFEFE" d="M287.636 693.245C289.017 693.182 290.377 693.16 291.759 693.178L292.124 693.91C291.716 695.87 291.505 698.889 290.392 700.509C289.971 699.842 289.551 699.066 289.037 698.471C287.935 697.195 286.957 697.478 285.381 697.374C281.871 697.044 278.565 697.146 275.067 697.521C279.051 695.986 283.4 693.825 287.636 693.245Z"/>
	<path fill="#FEFEFE" d="M677.967 545.006C679.08 546.542 679.534 548.686 680.134 550.488L671.713 556.297C671.312 556.785 671.597 556.556 670.725 556.77C670.666 556.566 670.59 556.366 670.547 556.157C670.196 554.454 670.703 552.903 671.594 551.457C671.706 551.274 671.827 551.097 671.94 550.915C673.485 548.442 675.722 546.807 677.967 545.006Z"/>
	<path fill="#FEFEFE" d="M306.922 628.745C309.626 630.16 313.18 638.619 314.755 641.479C311.941 641.501 309.29 641.68 306.632 642.667L306.709 643.362C304.685 643.099 303.266 641.629 300.561 641.482C302.526 637.172 304.778 632.97 306.922 628.745Z"/>
	<path fill="#FEFEFE" d="M890.327 528.784C891.028 529.315 890.778 529.062 891.313 529.702C894.265 533.231 901.834 539.505 903.218 543.357C900.59 543.071 898.227 538.752 896.415 536.876L896.054 536.507C895.595 536.883 895.321 537.444 895.019 537.949C893.472 540.536 891.68 542.859 889.851 545.252C887.756 543.654 885.832 542.029 883.93 540.206C886.46 536.684 888.285 532.606 890.327 528.784Z"/>
	<path fill="#FEFEFE" d="M664.401 529.209C667.659 529.53 670.968 529.617 674.239 529.797C675.256 531.234 676.631 533.823 678.299 534.367L679.661 532.994L679.891 533.233C679.913 534.835 678.918 536.12 678.136 537.459L677.115 537.359C675.461 538.269 675.097 538.932 674.288 540.552L673.855 541.431C672.544 542.394 669.821 542.761 668.207 542.573C666.908 542.421 665.84 542.011 665.069 540.894C663.085 538.018 664.088 532.557 664.401 529.209Z"/>
	<path fill="#FEFEFE" d="M669.259 590.886C670.858 592.536 676.428 606.456 677.851 609.543C674.746 609.539 671.646 609.292 668.548 609.094C666.062 609.074 660.629 609.678 658.741 608.227C658.238 604.027 666.767 594.581 669.259 590.886Z"/>
	<path fill="#FEFEFE" d="M687.179 551.564C690.835 552.146 693.653 553.393 696.516 555.762C699.247 558.022 703.883 562.934 703.943 566.542C703.953 567.181 703.6 567.365 703.214 567.812L701.376 567.819C695.533 567.545 689.712 567.651 683.869 567.833C684.179 562.342 683.788 556.168 687.179 551.564Z"/>
	<path fill="#FEFEFE" d="M889.829 548.975C891.656 555.612 898.533 561.525 903.145 566.388C898.978 566.383 894.803 566.867 890.625 566.939C886.588 566.838 879.754 567.527 876.322 565.336L876.478 564.767C878.268 563.04 880.308 561.262 881.713 559.209C883.587 556.47 885.54 551.922 887.886 549.75C888.199 549.459 889.38 549.154 889.829 548.975Z"/>
	<path fill="#FEFEFE" d="M707.934 595.044C709.002 596.411 709.597 598.809 709.643 600.561C709.701 602.732 708.558 604.574 707.053 606.045C703.443 609.574 697.86 610.817 692.942 610.759C689.249 610.715 686.953 610.235 684.343 607.601C682.32 604.681 680.63 601.739 679.034 598.567C689.253 599.436 698.537 599.559 707.934 595.044Z"/>
	<path fill="#FEFEFE" d="M805.114 608.276C808.399 607.954 811.706 607.903 815.003 607.793C818.56 611.513 822.32 614.991 826.095 618.485C820.275 620.186 814.104 620.898 808.119 621.8C802.753 622.727 796.862 623.886 791.421 623.861L791.227 623.321C792.9 620.258 802.131 609.224 805.114 608.276Z"/>
	<path fill="#FEFEFE" d="M879.84 600.744C885.633 600.677 891.389 600.637 897.178 600.927C900.217 604.239 903.331 607.332 906.68 610.331C901.487 610.757 896.292 611.353 891.106 611.869Q878.533 612.841 865.978 614.019C869.331 610.439 875.054 601.52 879.84 600.744Z"/>
	<path fill="#FEFEFE" d="M809.704 563.847C811.728 565.96 812.852 569.738 814.443 572.317C814.965 573.164 815.111 573.409 815.353 574.417C814.342 574.63 814.728 574.6 813.742 574.616C812.809 574.631 813.219 574.448 812.45 575.19C811.153 576.443 810.756 578.067 810.805 579.831C811.009 587.203 817.102 593.218 821.957 598.121L821.875 598.788L822.58 598.767L822.701 599.184C818.133 599.959 813.948 600.482 809.3 600.455C804.521 600.329 799.844 599.794 795.112 599.175C798.292 595.969 801.721 592.78 804.478 589.201C806.749 586.254 808.73 582.627 808.128 578.779C807.836 576.91 805.741 575.824 804.301 574.768C804.78 571.447 808.084 566.839 809.704 563.847Z"/>
	<path fill="#FEFEFE" d="M688.113 573.217C692.79 572.968 699.64 572.744 703.842 574.875C705.644 575.789 707.094 577.3 707.705 579.252C708.39 581.44 707.85 583.711 706.724 585.647C704.21 589.975 700.67 591.378 696.145 592.61C689.35 593.744 682.838 593.162 676.08 592.011C678.869 586.163 681.161 580.226 683.389 574.146C684.625 573.228 686.619 573.33 688.113 573.217Z"/>
	<path fill="#FEFEFE" d="M883.548 573.533L892.997 573.665Q901.078 583.899 909.594 593.774C903.751 594.179 897.797 594.076 891.936 594.164Q879.394 594.378 866.854 594.077Q875.54 584.08 883.548 573.533Z"/>
	<path fill="#FEFEFE" d="M662.754 559.375C663.133 559.752 662.977 559.545 663.264 560.093C663.567 560.671 663.854 561.281 664.211 561.828C665.136 563.245 666.777 564.684 668.506 564.967C670.446 565.286 676.213 560.753 678.048 559.544C678.064 568.599 677.213 575.868 672.365 583.676C671.742 582.603 674.445 574.177 674.134 571.711C673.331 570.536 673.294 570.662 671.882 570.355C671.178 570.673 670.65 570.761 670.192 571.42C667.179 575.757 664.973 585.342 661.192 591.231C658.757 595.024 656.243 597.414 651.805 598.381C644.699 598.769 627.393 599.594 621.273 596.549C619.614 595.724 618.053 594.435 617.643 592.533C617.276 590.827 617.871 589.302 618.755 587.876C621.263 586.952 626.465 588.931 629.413 589.25C634.523 589.801 643.709 591.068 648.509 589.333C656.304 586.516 650.759 568.86 662.754 559.375Z"/>
	<path fill="#FEFEFE" d="M307.047 645.357C310.067 652.024 314.483 657.058 319.558 662.257C316.747 662.696 311.891 662.907 309.579 664.627C309.148 664.947 309.072 664.985 309.097 665.481C309.321 669.871 324.211 683.982 327.771 687.555C324.024 687.607 314.588 686.741 311.661 688.246C310.423 688.883 310.451 689.194 310.16 690.445C312.168 696.94 325.411 706.023 331.166 710.373C327.778 709.905 324.411 709.105 321.062 708.41Q307.786 704.967 294.458 701.729C297.333 699.519 303.162 695.061 303.358 691.152C303.419 689.923 302.924 689.132 302.022 688.368C298.948 685.766 290.06 687.016 286.303 687.531C292.121 681.747 299.298 675.058 303.493 668.025C304.291 666.686 304.742 665.679 304.392 664.145C301.698 662.014 296.96 662.577 293.686 662.504C299.344 657.493 304.9 652.913 307.047 645.357Z"/>
	<path fill="#FEFEFE" d="M658.228 614.905C665.02 615.221 680.437 614.476 686.013 616.328C687.936 619.455 688.456 637.711 689.233 642.585C691.673 657.887 697.764 672.924 699.184 688.315C699.109 688.181 699.036 688.046 698.959 687.913C696.486 683.61 695.272 678.501 693.666 673.817C692.173 669.463 690.42 665.328 688.384 661.201C686.22 656.97 684.034 652.714 682.166 648.343C679.571 642.269 677.653 633.87 673.301 628.847C672.411 627.82 672.269 627.77 670.985 627.663C665.964 630.451 661.57 645.447 658.715 650.968L658.331 651.703C656.186 652.801 653.522 654.462 651.01 654.028C650.202 653.889 650.208 653.586 649.775 652.975C648.542 644.286 655.558 624.182 658.228 614.905Z"/>
	<path fill="#FEFEFE" d="M906.63 546.635C906.659 546.641 906.689 546.642 906.716 546.653C908.564 547.39 955.124 599.456 957.003 603.85C957.505 605.023 956.789 605.716 956.253 606.733C948.194 608.469 931.581 608.444 922.625 608.942L914.684 609.223C912.173 606.307 909.421 603.605 906.718 600.868C910.282 600.715 917.366 601.205 920.551 599.535C921.883 598.837 921.923 598.469 922.427 597.134C922.217 595.931 922.21 595.609 921.441 594.679C918.875 591.574 915.42 589.015 912.517 586.206C908.414 582.236 905.1 577.807 901.868 573.117C905.625 572.314 909.671 573.066 913.208 571.651C913.7 571.017 914.11 570.769 914.117 569.921C914.15 565.717 900.679 553.269 897.261 549.374C899.402 549.555 902.17 550.076 904.23 549.372C905.633 548.893 906.013 547.857 906.63 546.635Z"/>
	<path fill="#FEFEFE" d="M621.197 603.477C631.494 605.181 642.73 604.549 653.121 604.402C651.987 613.898 649.219 622.837 646.748 632.031C645.449 636.865 643.715 642.185 643.495 647.199C643.386 649.687 643.275 652.188 643.3 654.679L643.315 655.664L642.373 656.139Q628.682 659.325 614.881 661.998C615.046 655.266 616.253 648.463 616.922 641.75C618.196 628.968 619.171 616.171 621.197 603.477Z"/>
	<path fill="#FEFEFE" d="M775.581 280.87C776.644 285.416 773.657 307.928 773.051 314.436C768.438 318.7 763.36 322.363 758.27 326.025C759.116 335.511 761.7 342.201 765.996 350.617C767.651 353.859 769.437 357.099 770.557 360.575C772.76 367.417 774.112 383.936 774.737 391.625C769.693 385.691 764.384 379.992 759.364 374.029C758.969 373.537 758.711 372.922 758.418 372.364C759.294 371.229 762.928 372.277 764.709 371.106C764.959 370.089 764.964 369.95 764.643 368.956C761.688 367.883 757.754 368.314 754.643 368.511C747.167 360.591 739.67 352.846 733.117 344.118C745.956 322.221 761.733 302.141 775.581 280.87Z"/>
	<path fill="#2B3352" d="M748.99 354.113C752.538 354.013 756.857 353.08 760.131 354.648C760.874 355.904 760.668 356.115 760.444 357.584C756.806 357.609 752.844 358.273 749.37 357.036C748.513 355.783 748.752 355.64 748.99 354.113Z"/>
	<path fill="#2B3352" d="M744.145 338.575C746.714 338.395 751.954 337.435 754.116 338.863C755.568 339.821 755.638 340.852 756.131 342.396C752.471 342.305 748.041 343.383 744.677 341.769C743.874 340.53 744.081 340.02 744.145 338.575Z"/>
	<path fill="#FEFEFE" d="M160.8 576.783C163.436 579.191 168.697 589.93 171.885 594.059C169.539 594.076 165.719 593.711 163.647 594.87C162.433 595.549 162.312 595.761 161.915 597C163.642 604.204 172.935 614.272 177.642 620.398C174.233 620.842 170.376 620.406 167.103 621.391C165.687 621.817 164.941 622.359 164.269 623.656C165.079 629.803 181.958 646.017 186.933 651.069C181.547 651.512 173.779 650.796 168.819 652.685C167.679 653.119 167.645 653.27 167.19 654.329C168.508 660.513 192.883 679.891 198.957 685.026Q185.114 684.121 171.296 682.879C157.874 681.325 144.1 681.115 130.606 680.396C134.927 675.433 155.623 658.65 156.036 654.484C156.08 654.048 156.044 653.994 155.714 653.703C152.449 650.827 140.771 651.598 136.394 651.443C141.193 646.163 157.854 630.346 159.538 624.937C159.915 623.728 159.834 623.191 159.266 622.096C155.795 619.9 149.871 620.357 145.812 620.176C148.905 616.643 151.91 613.031 154.561 609.15C156.54 606.255 161.555 599.42 160.892 595.995C158.644 593.897 154.76 594.448 151.904 594.522C154.659 588.533 157.832 582.673 160.8 576.783Z"/>
	<path fill="#FEFEFE" d="M241.28 580.401C244.21 583.488 247.99 593.123 249.812 597.328C247.677 597.389 244.737 597.203 242.835 598.318C242.093 598.753 242.18 599.216 241.962 599.985C243.634 608.379 251.977 617.668 257.351 624.369Q254.433 624.341 251.516 624.395C248.696 624.47 246.057 624.552 244.025 626.697C244.026 632.222 261.654 650.495 266.123 655.561Q263.29 655.5 260.457 655.569C256.634 655.681 249.059 655.307 246.301 658.254C245.21 664.797 270.485 682.057 273.683 689.657C273.403 690.076 273.247 690.372 272.813 690.695C269.051 693.499 247.458 691.882 242.353 691.341C230.71 689.187 218.931 688.331 207.284 686.374C211.579 683.08 234.805 662.125 235.197 658.224C235.251 657.69 235.251 657.626 234.877 657.278C231.693 654.308 219.834 655.361 215.378 655.035C222.481 647.424 230.618 640.281 236.611 631.701C237.819 629.971 238.902 628.397 238.551 626.239C235.762 623.429 229.375 624.141 225.681 624.076C230.271 618.083 238.477 608.642 240.409 601.507C240.76 600.208 240.751 599.61 240.092 598.459C237.812 597.405 235.175 597.278 232.705 596.95C235.819 591.52 238.684 586.093 241.28 580.401Z"/>
	<path fill="#FEFEFE" d="M214.292 316.359C214.861 319.02 211.024 353.629 210.195 358.344C209.645 361.474 208.97 364.945 207.395 367.731C203.087 375.354 192.11 379.92 190.661 388.962C188.672 401.38 203.899 409.972 210.282 418.705C210.397 418.863 210.509 419.023 210.622 419.182C210.846 423.304 210.734 426.661 209.051 430.539C202.487 445.673 177.706 463.644 164.963 474.127C158.973 479.056 151.251 484.776 148.015 492.013C145.006 498.743 147.723 504.707 146.57 511.437C146.144 513.919 145.066 516.186 143.476 518.137C137.223 525.807 113.605 543.275 104.77 548.728C94.3079 555.186 83.1886 560.026 72.9828 567.041C69.5151 569.576 66.2685 572.453 62.9747 575.209C60.406 559.892 59.609 544.211 58.9655 528.716C63.2826 522.501 67.1087 515.943 71.4153 509.715Q105.854 460.853 140.92 412.439C164.772 379.907 189.543 348.203 214.292 316.359Z"/>
	<path fill="#2B3352" d="M144.396 419.992C146.235 419.96 148.234 419.78 149.837 420.796C150.384 422.195 150.218 422.229 149.697 423.666C147.772 423.759 145.535 424.01 143.945 422.765C143.665 421.387 143.796 421.287 144.396 419.992Z"/>
	<path fill="#2B3352" d="M174.841 383.496C175.353 383.468 175.865 383.429 176.378 383.438C177.893 383.467 179.231 383.833 180.3 384.94C180.395 386.425 180.229 386.392 179.289 387.579L178.652 387.587C176.646 387.605 174.331 387.851 172.834 386.382C173.23 384.848 173.721 384.571 174.841 383.496Z"/>
	<path fill="#2B3352" d="M78.0108 518.085C80.3863 517.96 83.4344 517.452 85.5057 518.813C85.9456 520.192 85.7519 520.262 85.18 521.62C82.9026 521.817 80.1052 522.322 78.0563 521.151C77.4114 519.782 77.6416 519.581 78.0108 518.085Z"/>
	<path fill="#2B3352" d="M186.36 367.643C188.148 367.551 189.968 367.411 191.746 367.679C193.277 367.909 194.208 368.181 195.115 369.445C194.443 370.52 193.553 370.907 192.473 371.48C190.708 371.739 188.778 372.004 186.998 371.794C185.796 371.652 185.3 371.488 184.587 370.473C184.795 369.22 185.543 368.546 186.36 367.643Z"/>
	<path fill="#2B3352" d="M103.83 517.724C107.066 517.611 110.374 517.423 113.604 517.728C115.207 517.88 116.889 518.044 117.992 519.338C117.546 520.414 116.847 520.797 115.935 521.461C112.535 521.511 105.407 522.365 102.568 520.84C101.75 520.4 102.048 520.608 101.701 519.552C102.393 518.23 102.435 518.292 103.83 517.724Z"/>
	<path fill="#2B3352" d="M86.9912 498.599C90.8664 498.524 101.641 497.011 104.589 499.355C105.214 499.852 105.179 501.216 105.295 501.983C99.9241 501.95 93.051 503.321 87.9625 501.476C86.969 500.349 87.0914 500.125 86.9912 498.599Z"/>
	<path fill="#2B3352" d="M170.578 402.736C171.799 402.607 172.307 402.744 173.402 403.29L173.571 404.429L173.794 403.613C174.382 404.268 174.138 403.862 174.414 404.889C174.248 405.075 174.113 405.292 173.918 405.445C171.259 407.52 163.306 406.803 159.875 406.785C158.932 406.766 158.228 406.614 157.318 406.396C156.543 405.393 156.392 405.438 156.527 404.201C158.943 402.043 167.242 402.877 170.578 402.736Z"/>
	<path fill="#2B3352" d="M176.228 440.258C179.311 440.14 184.218 439.266 186.818 441.16C187.098 442.24 187.078 442.196 186.567 443.194C184.308 444.133 181.707 443.881 179.293 443.893C176.055 443.974 171.156 444.741 168.378 442.86C168.017 441.727 168.204 441.832 168.663 440.812C170.938 440.001 173.822 440.283 176.228 440.258Z"/>
	<path fill="#2B3352" d="M145.506 440.242C148.278 440.137 150.259 440.2 152.421 442.105L151.451 443.231C147.36 444.77 141.716 443.99 137.375 443.951C135.65 443.994 134.036 443.97 132.322 443.76C131.285 442.88 131.511 442.905 131.298 441.652C131.35 441.596 131.392 441.527 131.455 441.483C134.309 439.437 141.976 440.242 145.506 440.242Z"/>
	<path fill="#2B3352" d="M109.444 477.507C114.642 477.51 124.233 475.963 128.726 478.319C129.432 479.617 129.315 479.663 129.019 481.133C124.057 481.79 115.059 482.482 110.412 480.746C109.232 479.488 109.47 479.176 109.444 477.507Z"/>
	<path fill="#2B3352" d="M76.3998 538.589C82.0936 538.526 89.0733 537.689 94.6279 538.851C95.8645 539.11 96.3695 539.409 97.082 540.423L96.779 541.761L95.3774 542.292C90.6351 542.24 85.8933 542.419 81.1499 542.338C79.2867 542.306 76.5261 542.526 75.1484 541.097C75.1746 539.639 75.3811 539.67 76.3998 538.589Z"/>
	<path fill="#2B3352" d="M171.994 420.475C177.946 420.36 188.952 419.122 194.208 421.046C195.113 422.188 194.923 422.325 194.827 423.806C189.401 424.525 178.678 424.647 173.305 423.783C172.255 422.579 172.278 422.016 171.994 420.475Z"/>
	<path fill="#2B3352" d="M124.604 458.142C129.082 457.651 145.952 457.264 150.199 458.17C151.011 459.452 150.886 459.883 150.882 461.365C145.387 462.154 130.609 462.698 125.556 461.027C124.488 459.849 124.633 459.759 124.604 458.142Z"/>
	<path fill="#FEFEFE" d="M783.078 277.231C788.024 281.182 793.277 289.903 797.072 295.099Q806.049 307.458 815.251 319.65Q861.248 380.042 906.1 441.289C926.296 468.808 946.013 496.694 966.847 523.734C966.261 532.022 966.168 540.322 965.479 548.611Q963.421 571.431 959.739 594.045C958.126 592.542 956.59 590.942 955.027 589.388C936.754 569.54 919.47 548.598 901.593 528.381C889.621 514.841 876.23 501.081 863.842 487.722Q837.435 459.403 811.46 430.69C801.799 420.171 791.188 409.93 782.55 398.567C780.176 385.61 780.621 369.956 777.345 357.434C776.145 352.844 773.295 348.845 771.147 344.653C768.717 339.913 767.126 335.218 765.907 330.042C768.536 327.091 771.814 324.81 774.805 322.247C776.619 320.693 778.635 318.836 779.546 316.587C781.831 310.943 782.399 285.306 783.078 277.231Z"/>
	<path fill="#2B3352" d="M809.039 348.318C812.806 350.596 822.342 362.35 825.876 366.283C851.492 394.791 876.508 423.933 898.443 455.405C905.382 465.362 912.718 475.496 917.664 486.628C913.817 483.48 910.306 478.157 907.091 474.259Q892.526 456.76 878.613 438.739L836.376 385.153C827.006 373.117 817.466 361.038 809.039 348.318Z"/>
	<path fill="#FEFEFE" d="M346.131 341.808C350.109 345.358 356.902 359.107 360.094 364.402C365.918 374.064 371.866 383.776 378.951 392.581C396.611 414.526 417.207 434.604 436.839 454.779C444.453 462.604 454.563 471.674 460.994 480.252C463.924 484.16 465.958 488.843 468.211 493.166L478.199 512.141L509.437 570.524C515.957 582.619 523.182 594.335 530.061 606.223C543.237 628.992 556.456 651.815 569.142 674.858Q554.141 678.922 539.316 683.589C531.057 674.603 523.732 664.724 515.817 655.425L448.914 575.349C439.115 562.737 428.113 550.795 417.894 538.494C401.264 518.474 385.012 498.082 367.539 478.786C366.682 469.757 365.383 460.776 364.612 451.737C363.851 442.8 363.765 433.271 361.988 424.503C361.384 421.529 360.411 418.557 358.791 415.977C355.497 410.73 323.672 380.474 318.44 379.228L317.828 379.716C318.233 386.628 349.397 411.738 353.559 419.717C357.148 426.6 359.511 461.147 360.684 471.191C355.271 465.705 350.103 459.974 344.689 454.486C326.508 436.057 312.957 422.48 298.839 400.432C302.79 393.466 308.452 387.039 313.247 380.591C322.334 368.371 331.525 355.83 339.7 342.987Q339.519 344.739 339.36 346.494C338.675 354.1 336.758 379.133 337.753 385.594C337.946 386.85 338.262 387.243 339.047 388.183C340.411 388.555 340.543 388.607 341.87 388.153C343.075 386.831 343.539 385.697 343.909 383.943C344.812 379.659 344.71 374.988 344.912 370.614C345.355 361.009 345.481 351.403 346.131 341.808Z"/>
	<path fill="#2B3352" d="M337.829 433.155C341.257 433.09 347.988 432.178 350.6 434.424C350.373 435.845 350.134 435.924 349.094 436.955C345.707 437.058 341.979 437.38 338.62 436.834C337.376 436.632 336.838 436.359 336.131 435.345C336.426 434.233 336.965 433.871 337.829 433.155Z"/>
	<path fill="#2B3352" d="M323.574 415.694C327.362 415.555 333.092 414.618 336.375 416.677C337.089 417.919 336.938 418.058 336.716 419.498C333.674 419.518 325.219 420.548 323.024 418.492C322.79 417.128 322.971 416.965 323.574 415.694Z"/>
	<path fill="#2B3352" d="M308 400.226C311.385 400.244 319.716 399.162 322.12 401.305C322.167 402.651 321.929 402.762 321.138 403.882C317.236 403.973 312.836 404.318 308.986 403.561C307.467 403.262 306.646 403.158 305.822 401.863C306.397 400.945 307.049 400.694 308 400.226Z"/>
	<path fill="#FEFEFE" d="M93.3744 686.73C111.851 686.137 131.716 687.884 150.202 689.113Q174.722 690.527 199.162 692.953C209.852 694.118 220.521 695.921 231.152 697.536Q254.728 700.915 278.057 705.708Q301.387 710.501 324.385 716.691C333.158 719.129 341.755 722.33 350.45 725.045C364.067 729.298 378.499 733.227 391.47 739.186C370.204 747.211 349.377 756.596 328.375 765.302C279.526 785.483 230.95 806.551 182.425 827.51C178.397 822.452 173.819 817.78 169.539 812.931Q160.714 802.792 152.37 792.252C131.747 766.106 114.969 736.86 100.735 706.833C98.8038 702.758 92.5069 691.309 92.6554 687.304L93.3744 686.73Z"/>
	<path fill="#2B3352" d="M253.748 744.33C254.705 744.392 255.397 744.649 256.281 745.007C256.74 745.588 257.174 745.834 257.124 746.629C256.925 749.827 251.943 753.956 249.719 756.222C248.642 756.019 247.887 755.545 246.945 755.012C246.581 754.261 246.239 753.929 246.384 753.063C246.949 749.69 251.042 746.167 253.748 744.33Z"/>
	<path fill="#2B3352" d="M217.343 743.055C218.563 743.336 219.303 743.636 220.288 744.432C222.375 746.118 226.036 749.504 225.919 752.51C225.85 754.288 225.156 754.803 224.09 756.068C222.86 755.758 222.322 755.492 221.372 754.605C218.872 752.267 215.483 748.773 215.323 745.219C215.904 743.777 215.97 743.815 217.343 743.055Z"/>
	<path fill="#2B3352" d="M236.474 732.674C236.839 732.734 237.49 732.821 237.817 732.963C238.855 733.415 239.253 734.428 239.44 735.473C240.399 740.851 239.354 751.842 236.255 756.179C235.427 755.945 234.761 755.779 234.049 755.268C233.211 754.666 233.055 753.432 232.982 752.466C232.582 747.174 232.952 736.589 236.474 732.674Z"/>
	<path fill="#FEFEFE" d="M559.215 138.885C559.341 139.712 559.396 139.497 559.248 140.172C556.738 151.663 549.021 193.367 550.399 202.85C551.08 207.532 552.511 212.195 553.647 216.792C555.909 225.945 557.896 235.115 558.518 244.546C551.243 251.732 541.888 257.104 533.289 262.579Q518.559 272.014 503.511 280.934C497.328 284.542 490.528 287.852 484.802 292.145C482.077 294.188 478.551 297.148 477.62 300.528C476.287 305.368 477.108 310.417 480.059 314.491C487.985 325.436 514.719 336.916 526.972 345.201C529.265 346.751 533.282 349.229 534.433 351.803C535.148 353.403 534.571 354.85 533.649 356.219C527.304 365.644 509.573 374.153 505.098 385.436C498.19 402.854 549.364 420.533 554.041 432.827C555.788 437.418 554.192 443.651 552.025 447.821C544.767 461.786 528.239 473.561 521.928 488.367C511.639 512.505 547.594 528.907 555.459 548.196C555.537 548.386 555.61 548.578 555.685 548.77C549.994 557.582 539.993 566.236 532.501 573.765L524.744 581.898C517.574 571.834 512.297 559.879 506.494 548.955L479.066 498.113C475.473 491.421 472.436 484.038 468.212 477.764C464.597 472.395 459.148 467.946 454.822 463.106C432.95 438.634 408.793 416.426 387.104 391.738C394.071 379.569 402.959 368.599 410.902 357.076Q436.494 319.468 462.741 282.314L527.659 186.807C538.266 170.872 548.307 154.637 559.215 138.885Z"/>
	<path fill="#2B3352" d="M499.198 435.867C500.547 436.009 501.533 436.007 502.582 436.977C503.077 438.278 502.773 439.017 502.445 440.315C501.087 440.206 499.969 440.268 498.929 439.268C498.436 437.977 498.812 437.118 499.198 435.867Z"/>
	<path fill="#2B3352" d="M461.983 298.993C463.869 299.038 465.259 299.132 466.661 300.451C466.62 301.815 466.27 301.994 465.413 303.084C464.637 303.149 463.768 303.262 462.995 303.163C461.784 303.009 461.197 302.507 460.456 301.612C460.746 300.214 460.985 300.043 461.983 298.993Z"/>
	<path fill="#2B3352" d="M540.168 223.495C541.517 223.468 542.916 223.392 544.262 223.493C545.548 223.59 546.581 223.77 547.488 224.761C547.629 226.137 547.439 226.323 546.781 227.566C544.698 227.54 541.22 227.967 539.55 226.704C539.22 225.161 539.53 224.892 540.168 223.495Z"/>
	<path fill="#2B3352" d="M533.457 184.62C535.958 184.415 539.223 183.728 541.333 185.326C541.794 186.856 541.628 187.063 541.126 188.607C538.528 188.709 534.628 189.375 532.578 187.498C532.401 186.019 532.657 185.909 533.457 184.62Z"/>
	<path fill="#2B3352" d="M457.35 359.636C460.288 359.469 464.469 358.657 467.067 360.226C467.613 361.666 467.409 362.011 467.079 363.473C464.076 363.522 460.38 364.309 457.653 362.872C456.962 361.547 457.178 361.089 457.35 359.636Z"/>
	<path fill="#2B3352" d="M453.433 319.094C456.754 319.141 461.653 318.114 464.558 319.797C465.042 321.156 464.854 321.307 464.397 322.703C461.244 322.805 455.461 323.681 452.894 321.855C452.535 320.516 452.823 320.365 453.433 319.094Z"/>
	<path fill="#2B3352" d="M518.097 562.089C521.402 561.947 525.872 561.148 528.768 563.012C529.368 564.378 529.244 564.32 528.718 565.739C525.596 565.957 520.506 567.001 517.845 565.065C517.488 563.674 517.624 563.468 518.097 562.089Z"/>
	<path fill="#2B3352" d="M528.406 203.602C531.857 203.378 536.549 202.434 539.72 204.056C540.412 205.443 540.188 205.487 539.716 206.993C536.348 207.187 531.438 208.077 528.362 206.426C527.849 205.115 528.008 204.978 528.406 203.602Z"/>
	<path fill="#2B3352" d="M506.065 223.028C509.692 222.954 516.294 221.879 519.16 224.335L519.311 226.305C516.51 226.978 510.467 227.479 507.86 226.138C506.365 225.369 506.452 224.504 506.065 223.028Z"/>
	<path fill="#2B3352" d="M525.617 244.218C529.319 244.091 533.179 243.522 536.685 244.91C537.509 246.231 537.247 246.493 537 247.981C533.905 248.07 527.505 248.967 525.102 246.994C524.878 245.643 525.032 245.48 525.617 244.218Z"/>
	<path fill="#2B3352" d="M471.349 283.505C475.524 283.314 480.037 282.692 484.1 283.861C485.299 284.969 485.168 285.011 485.318 286.661C482 286.855 474.848 288.113 472.056 286.117C471.339 285.604 471.452 284.338 471.349 283.505Z"/>
	<path fill="#2B3352" d="M426.368 360.22L427.68 360.191C430.358 360.138 433.766 359.528 435.82 361.508C435.721 362.753 435.656 362.849 434.877 363.832L433.125 364.028L430.554 364.047C429.614 364.055 428.673 364.084 427.733 364.035C425.902 363.94 423.381 363.579 422.103 362.156L422.306 361.507C423.673 360.81 424.864 360.505 426.368 360.22Z"/>
	<path fill="#2B3352" d="M490.999 496.579C495.528 496.49 500.134 495.763 504.576 496.863C505.782 498.003 505.54 498.433 505.645 500.042C501.217 499.995 496.286 500.971 492.043 499.501C490.943 498.336 491.085 498.207 490.999 496.579Z"/>
	<path fill="#2B3352" d="M501.792 523.025C505.987 522.963 510.229 522.513 514.419 522.759C516.153 522.86 517.228 522.911 518.41 524.23L518.261 526.159C513.287 526.327 507.974 526.901 503.098 525.813C501.905 524.819 502.055 524.584 501.792 523.025Z"/>
	<path fill="#2B3352" d="M500.056 261.247C502.047 261.215 504.453 260.909 506.245 261.927C507.081 262.402 506.812 262.209 507.094 263.232C506.969 263.375 506.858 263.53 506.721 263.66C504.938 265.368 501.929 264.811 499.664 264.715C497.623 264.775 494.719 265.175 492.829 264.36C491.745 263.892 491.747 263.99 491.315 262.831C491.434 262.694 491.539 262.543 491.672 262.419C493.667 260.566 497.528 261.175 500.056 261.247Z"/>
	<path fill="#2B3352" d="M455.03 437.002C459.396 437.002 463.801 436.515 468.158 436.772C469.885 436.874 471.17 436.914 472.367 438.222L472.25 440.229C468.766 440.339 458.407 441.464 455.672 439.429C455.085 438.992 455.131 437.705 455.03 437.002Z"/>
	<path fill="#2B3352" d="M477.333 399.614C481.104 399.446 489.945 398.168 492.778 400.634C492.774 401.877 492.554 402.311 491.834 403.315C487.725 403.189 481.464 404.4 477.789 402.468C477.017 401.161 477.098 401.13 477.333 399.614Z"/>
	<path fill="#2B3352" d="M482.423 475.178C485.892 475.053 489.373 474.886 492.843 474.878C494.674 474.874 497.483 474.633 498.879 476.021C498.896 477.35 498.704 477.438 497.909 478.532Q494.091 478.588 490.273 478.584C487.825 478.573 482.556 479.004 480.747 477.182C481.129 475.986 481.392 475.935 482.423 475.178Z"/>
	<path fill="#2B3352" d="M434.326 338.096C438.571 338.08 448.487 336.963 452.072 339.313C452.516 340.628 452.375 340.68 451.872 341.998C447.74 342.028 437.075 343.422 434.142 340.937C433.746 339.577 433.853 339.452 434.326 338.096Z"/>
	<path fill="#2B3352" d="M478.517 338.24C482.385 338.127 486.319 337.893 490.185 338.055C492.196 338.14 493.825 338.13 495.242 339.656C495.067 341.199 494.831 341.262 493.739 342.404C488.754 342.019 482.106 343.366 477.505 341.409C476.796 340.214 476.942 340.193 477.233 338.81L478.517 338.24Z"/>
	<path fill="#2B3352" d="M492.295 359.642C497.265 359.556 506.238 358.151 510.542 360.406C511.432 361.752 511.188 361.859 510.894 363.476C505.414 363.44 498.046 364.855 492.92 362.872C492.037 361.549 492.222 361.188 492.295 359.642Z"/>
	<path fill="#2B3352" d="M522.356 436.099C526.481 436.036 537.577 434.6 540.462 437.206C540.604 438.403 540.376 438.866 539.804 439.91C536.427 439.918 533.061 440.122 529.686 440.177C527.163 440.219 523.444 440.603 521.561 438.768C521.454 437.566 521.736 437.113 522.356 436.099Z"/>
	<path fill="#2B3352" d="M414.816 393.659C420.948 393.507 427.162 393.2 433.29 393.498C434.742 393.568 436.368 393.63 437.401 394.774C437.202 396.026 437.083 395.979 436.094 396.806C431.898 397.019 416.668 398.014 413.909 396.103C413.765 394.721 413.943 394.771 414.816 393.659Z"/>
	<path fill="#2B3352" d="M457.525 383.026C463.549 382.9 474.076 381.635 479.448 383.591C480.52 384.695 480.345 384.779 480.37 386.344C474.826 386.902 463.337 387.278 458.049 386.083C457.256 384.96 457.503 384.351 457.525 383.026Z"/>
	<path fill="#2B3352" d="M430.987 417.148C435.586 416.652 447.349 415.471 451.053 417.821C451.544 419.191 451.326 419.315 450.816 420.707C446.705 421.295 442.081 421.187 437.917 421.174C435.571 421.167 432.343 421.487 430.578 419.72C430.394 418.491 430.494 418.304 430.987 417.148Z"/>
	<path fill="#2B3352" d="M510.422 543.005C515.991 542.678 531.915 541.679 536.433 543.62C537.277 544.71 537.232 544.976 537.351 546.372C532.263 547.151 516.525 547.069 511.238 546.201C510.273 544.994 510.462 544.515 510.422 543.005Z"/>
	<path fill="#2B3352" d="M479.399 417.127C485.098 416.98 506.296 416.204 510.591 418.135C511.199 419.485 510.989 419.544 510.512 420.974C505.267 420.99 481.446 422.247 478.626 419.672C478.425 418.317 478.634 418.293 479.399 417.127Z"/>
	<path fill="#2B3352" d="M496.747 457.18C502.025 457.032 530.337 455.748 533.199 458.277C533.778 458.788 533.587 458.807 533.701 459.707L532.653 460.909C527.203 460.8 498.134 461.768 495.606 459.24L495.642 458.144L496.747 457.18Z"/>
	<path fill="#FEFEFE" d="M697.338 650.739C708.563 655.437 718.212 661.327 725.818 671.012C739.971 689.033 741.26 712.984 738.493 734.862C727.647 820.609 624.289 913.852 559.332 964.035C554.199 964.838 548.835 965.065 543.653 965.481C510.921 968.106 476.878 966.629 444.388 961.861C451.204 957.46 457.739 952.546 464.468 947.989C469.318 944.704 474.708 941.684 479.276 938.062C480.336 937.222 481.678 936.155 482.185 934.853C482.689 933.558 482.482 932.541 482.087 931.271C481.382 930.722 481.253 930.479 480.324 930.36C478.583 930.137 476.88 930.835 475.356 931.607C468.22 935.223 461.362 940.987 454.788 945.608C447.799 950.521 440.514 955.026 433.756 960.258C425.335 959.044 416.95 957.159 408.605 955.495Q392.658 951.915 376.965 947.346Q361.272 942.778 345.895 937.239C353.542 931.564 362.981 927.372 371.303 922.684L428.337 890.481Q473.614 864.077 517.304 835.122C554.777 810.117 591.761 783.746 624.246 752.415C640.033 737.188 664.723 710.781 664.949 687.992C665.07 675.777 657.326 669.257 649.553 661.226C655.452 660.296 660.678 659.412 666.157 656.922C692.487 659.778 685.653 687.245 695.661 692.341C697.376 693.215 699.888 693.131 701.616 692.303C702.723 691.772 703.446 690.789 703.907 689.686C706.657 683.107 700.359 657.506 697.338 650.739Z"/>
	<path fill="#2B3352" d="M700.087 705.238C701.107 705.384 702.142 705.661 702.992 706.276C704.099 707.078 704.62 708.175 704.695 709.514C704.856 712.408 702.702 714.689 700.83 716.563C699.616 716.289 698.23 716.003 697.246 715.19C696.321 714.426 695.765 713.245 695.827 712.046C695.974 709.189 698.156 707.083 700.087 705.238Z"/>
	<path fill="#2B3352" d="M687.993 735.795C689.183 736.067 690.696 736.337 691.561 737.286C692.345 738.145 692.529 739.026 692.495 740.139C692.403 743.099 689.53 745.963 687.478 747.799C686.463 747.666 685.299 747.389 684.48 746.736C683.506 745.959 683.252 744.972 683.24 743.782C683.213 741.082 686.317 737.712 687.993 735.795Z"/>
	<path fill="#2B3352" d="M667.491 766.899C668.291 766.99 669.105 767.033 669.854 767.365C671.207 767.964 671.776 769.081 672.275 770.352C671.442 776.336 645.503 803.214 639.997 808.615C638.391 808.576 637.069 808.474 635.842 807.327C635.251 806.776 634.808 805.695 634.975 804.868C635.505 802.242 641.135 797.17 643.046 795.068Q649.122 788.518 654.853 781.665C658.788 776.879 662.731 770.796 667.491 766.899Z"/>
	<path fill="#2B3352" d="M612.036 825.904C613.395 826.131 614.733 826.382 615.758 827.405C616.552 828.197 616.746 829.147 616.443 830.211C615.558 833.323 606.245 840.441 603.351 842.972Q576.836 866.327 548.854 887.902C532.468 900.41 515.51 912.198 498.931 924.453C497.094 924.035 496.133 923.751 494.774 922.386C494.554 921.601 494.269 921.109 494.499 920.285C495.506 916.681 502.846 912.402 505.864 910.215Q542.948 883.733 578.27 854.944C585.646 848.891 592.671 842.345 599.794 835.995C603.641 832.565 607.586 828.51 612.036 825.904Z"/>
	<path fill="#FEFEFE" d="M946.68 614.711C949.465 614.415 952.439 614.55 955.244 614.514C953.405 627.021 949.198 639.136 945.282 651.113Q942.303 660.42 938.932 669.593Q935.562 678.766 931.807 687.788Q928.052 696.81 923.918 705.665Q919.785 714.521 915.281 723.193Q910.777 731.866 905.91 740.34Q901.043 748.814 895.822 757.075Q890.601 765.336 885.036 773.369Q879.47 781.402 873.57 789.192C821.019 858.744 744.384 914.599 661.638 942.399C633.311 951.916 604.228 957.919 574.669 962.02L590.282 948.849C630.626 915.148 668.702 877.955 700.093 835.638C727.92 798.126 752.873 749.096 745.555 701.1C743.056 684.707 736.22 669.445 723.429 658.535C718.679 654.484 713.31 651.078 708.267 647.399C729.236 642.138 750.951 638.556 772.242 634.862Q815.5 627.141 859.151 622.099Q902.802 617.056 946.68 614.711Z"/>
	<path fill="#2B3352" d="M766.038 855.47C766.444 855.587 767.153 855.776 767.516 855.954C768.698 856.533 768.694 857.021 769.044 858.194C768.303 861.971 764.303 865.024 761.652 867.661L759.748 866.035C759.353 865.119 759.164 864.589 759.273 863.566C759.623 860.269 763.516 857.17 766.038 855.47Z"/>
	<path fill="#2B3352" d="M874.138 670.827C874.74 671.181 875.349 671.653 875.925 672.053C876.27 672.903 876.576 673.279 876.439 674.219C875.982 677.372 871.25 680.816 868.873 682.67L866.445 680.961C866.124 680.232 865.886 680.031 866.062 679.198C866.79 675.759 871.371 672.725 874.138 670.827Z"/>
	<path fill="#2B3352" d="M837.965 669.814C838.858 669.909 839.536 670.05 840.355 670.448C842.97 671.719 847.394 676.392 847.772 679.288C847.976 680.85 847.306 681.402 846.484 682.601C842.919 681.259 838.507 676.585 836.801 673.196C836.785 671.541 837.13 671.198 837.965 669.814Z"/>
	<path fill="#2B3352" d="M733.449 854.701C734.344 855.016 735.073 855.315 735.845 855.881C738.401 857.759 742.206 861.286 742.262 864.751C742.286 866.212 741.311 866.877 740.407 867.848C740.092 867.731 739.761 867.65 739.463 867.496C736.665 866.05 732.121 861.113 731.559 858.015C731.752 856.406 732.381 855.808 733.449 854.701Z"/>
	<path fill="#2B3352" d="M747.626 847.458C749.447 847.43 750.265 847.249 751.888 848.135C754.964 852.415 752.825 860.542 752.186 865.478C751.812 865.568 751.288 865.706 750.916 865.735C749.851 865.819 749.172 865.73 748.515 864.806C746.075 861.377 747.467 851.668 747.626 847.458Z"/>
	<path fill="#2B3352" d="M855.851 662.773L858.227 663.166C859.574 664.43 859.815 665.297 860.083 667.114C860.601 670.629 860.859 678.651 858.736 681.49C857.833 681.456 857.038 681.353 856.15 681.206C854.735 680.062 854.582 678.701 854.333 677.005C853.77 673.173 853.555 665.92 855.851 662.773Z"/>
	<path fill="#FEFEFE" d="M638.947 664.113C639.774 663.942 639.704 663.824 640.398 664.06C645.646 665.843 653.295 674.021 655.632 678.87C658.881 685.61 657.92 693.176 655.392 699.961C651.054 711.606 642.59 721.958 634.46 731.217C614.735 753.681 591.618 772.303 567.934 790.354C515.973 829.957 459.75 864.148 403.069 896.521Q384.319 907.309 365.257 917.534C355.575 922.847 345.97 928.325 335.905 932.891C305.946 919.89 279.879 905.808 252.71 887.721C229.367 871.557 208.497 853.207 188.471 833.193C255.337 804.786 321.88 775.769 389.073 748.125C441.408 726.594 493.719 705.681 547.739 688.637C577.737 679.172 608.417 671.638 638.947 664.113Z"/>
	<path fill="#2B3352" d="M498.689 746.191C498.862 746.217 499.034 746.245 499.207 746.268C500.218 746.4 500.897 746.493 501.77 747.06C504.716 748.972 509.297 753.222 509.852 756.785C510.101 758.381 509.601 759.029 508.764 760.337C505.479 759.133 498.801 752.914 497.791 749.42C497.38 747.998 498.031 747.37 498.689 746.191Z"/>
	<path fill="#2B3352" d="M535.164 746.885C535.324 746.902 535.485 746.91 535.644 746.935C537.255 747.189 537.805 747.633 538.679 748.91C538.718 752.54 532.711 757.479 530.246 760.009C528.866 759.772 528.04 759.606 526.837 758.828C526.519 757.93 526.316 757.718 526.509 756.737C527.216 753.139 532.111 748.731 535.164 746.885Z"/>
	<path fill="#2B3352" d="M308.672 842.193C309.309 842.371 309.6 842.435 310.248 842.708C313.62 844.127 319.06 850.518 320.061 853.898C320.427 855.135 319.846 855.726 319.301 856.794C318.472 856.664 317.606 856.59 316.844 856.208C314.087 854.826 307.873 848.898 307.516 845.721C307.332 844.081 307.883 843.504 308.672 842.193Z"/>
	<path fill="#2B3352" d="M371.046 841.999C372.366 842.096 373.105 842.174 374.293 842.833C374.593 843.465 374.944 843.846 374.799 844.573C374.118 847.975 368.085 853.96 365.196 856.122C364.628 856.004 363.772 855.795 363.276 855.517C362.078 854.847 361.977 854.206 361.677 852.999C362.732 848.598 367.706 844.83 371.046 841.999Z"/>
	<path fill="#2B3352" d="M515.207 738.277C515.972 738.267 517.104 738.147 517.827 738.366C519.036 738.731 519.625 739.611 519.994 740.757C521.338 744.933 520.841 755.022 518.99 759.085L517.231 759.404C516.561 759.077 516.163 759.022 515.755 758.346C513.464 754.547 513.977 742.591 515.207 738.277Z"/>
	<path fill="#2B3352" d="M327.096 829.357C328.071 829.368 329.334 829.267 330.272 829.5C331.082 829.701 331.679 829.973 332.056 830.718C334.004 834.577 336.027 851.312 334.95 855.541C334.656 855.551 334.362 855.565 334.068 855.572C333.093 855.593 331.76 855.441 331.112 854.625C328.977 851.935 326.545 833.283 327.096 829.357Z"/>
	<path fill="#2B3352" d="M350.373 828.368C352.228 828.534 353.221 828.608 354.675 829.797C356.025 833.97 352.814 851.493 350.964 855.532C349.248 855.481 348.322 855.464 346.913 854.478C345.148 850.431 349.008 832.999 350.373 828.368Z"/>
	<path fill="#FEFEFE" d="M221.46 314.153C225.442 317.01 233.872 329.104 237.464 333.475C252.654 351.956 267.929 370.11 282.212 389.325C292.818 403.594 302.197 419.074 313.68 432.646C331.063 453.192 351.289 471.18 369.053 491.398C386.392 511.133 402.965 531.695 419.674 551.969L477.713 621.789Q496.528 643.999 515.085 666.425C520.373 672.84 526.378 679.176 530.981 686.085C517.481 691.734 502.921 695.545 489.14 700.628Q445.415 717.049 402.276 734.953Q384.185 728.052 365.723 722.219C358.138 719.852 350.073 718.141 342.703 715.231C343.209 714.444 343.662 713.645 344.108 712.822C343.814 711.54 342.983 710.928 342.018 710.11C339.087 707.626 335.554 705.654 332.431 703.397C328.329 700.434 324.526 697.183 320.731 693.847C325.67 694.195 335.032 695.933 339.522 693.929C340.857 693.334 340.941 693.139 341.382 691.857C341 690.605 340.484 689.774 339.558 688.868C336.998 686.364 333.867 684.353 331.167 681.974C326.641 677.985 322.66 673.422 318.715 668.871C321.763 669.01 325.908 669.67 328.858 669.06C329.977 668.829 330.067 668.636 330.67 667.745C330.432 661.956 319.796 653.261 316.072 648.631C318.667 648.436 321.294 648.339 323.729 647.363C324.598 646.243 324.366 645.918 324.3 644.48C322.149 641.057 319.932 637.625 318.009 634.068C315.325 629.102 311.298 617.712 307.439 614.319L306.655 614.592C302.486 620.135 300.798 627.316 297.587 633.403C295.974 636.462 292.806 639.625 291.824 642.82C291.483 643.932 291.341 645.154 292.014 646.166C293.38 648.221 296.258 648.319 298.493 648.725C294.914 653.287 289.237 656.916 286.235 661.744C285.384 663.113 285.382 663.902 285.794 665.419C288.595 668.027 292.278 667.567 295.882 667.692C291.406 673.174 286.736 680.27 280.84 684.293C271.943 678.702 263.907 670.953 257.216 662.871C263.121 662.612 269.106 662.952 274.976 662.137C277.127 661.839 279.514 661.578 280.867 659.76C280.032 657.259 272.002 651.701 269.659 649.458C263.592 643.649 258.227 637.182 252.783 630.8C257.349 630.612 263.882 631.824 268.129 630.426C268.927 630.163 268.933 629.72 269.301 629.028C269.304 628.011 269.083 627.437 268.515 626.623C266.354 623.524 263.242 620.841 260.755 617.97C256.867 613.482 253.542 608.495 250.442 603.442C253.33 603.416 257.436 603.818 259.952 602.352C260.14 600.925 259.511 599.661 258.919 598.374C256.632 593.407 253.453 588.793 250.939 583.915C248.125 578.455 245.781 572.34 242.704 567.108C242.13 566.132 242.033 566.12 240.992 565.823L239.788 566.885C236.773 573.7 233.738 580.551 230.374 587.201C228.054 591.79 225.408 596.16 223.383 600.899C223.489 601.042 223.578 601.198 223.7 601.328C225.479 603.235 229.746 603.331 232.219 603.679C229.373 608.191 226.317 613.02 222.775 617.011C219.972 620.171 215.815 623.288 213.623 626.841C212.97 627.899 213.022 628.229 213.337 629.309C216.822 631.354 224.997 630.459 229.096 630.493C225.125 635.212 221.058 639.899 216.72 644.286C213.227 647.817 209.264 651.181 206.108 654.993C205.247 656.034 204.759 656.779 204.745 658.178C205.043 658.949 205.29 659.588 205.979 660.111C209.24 662.586 219.571 661.466 223.748 661.438L204.677 680.441C197.922 675.949 183.096 663.668 177.517 657.633C183.543 657.388 191.501 658.298 197.206 656.567C198.428 656.196 198.493 656.062 199.054 654.992C198.742 653.453 198.493 653.103 197.468 651.907C194.152 648.038 189.749 644.789 186.112 641.172C181.51 636.596 177.388 631.49 173.207 626.532C177.207 626.429 187.161 626.899 190.322 624.501C190.309 623.369 190.348 623.292 189.657 622.396C187.324 619.368 184.148 616.847 181.47 614.109C177.458 610.01 173.973 605.514 170.69 600.821Q171.319 600.791 171.947 600.754C174.84 600.58 179.815 600.679 181.844 598.408C182.192 595.232 176.465 589.531 174.747 586.688C169.769 578.454 165.797 569.824 161.237 561.375C158.691 564.817 143.476 594.816 142.75 598.173C142.876 598.345 142.972 598.544 143.127 598.69C145.321 600.758 149.941 600.47 152.768 600.558C149.884 605.499 146.044 610.319 141.99 614.345C139.791 616.528 137.021 618.625 135.159 621.086C134.629 621.786 134.312 622.42 134.245 623.308C134.186 624.096 134.626 624.571 135.191 625.082C137.823 627.467 146.783 626.791 150.283 626.852C144.819 632.071 140.163 638.015 134.894 643.413C131.253 647.144 126.388 650.552 123.338 654.73C123.266 656.006 123.239 655.953 124.041 656.946C129.679 659.038 138.795 657.663 144.874 657.526C137.567 664.933 127.821 671.539 121.824 679.997C110.995 679.324 99.8978 678.912 89.0547 679.285C77.8484 648.421 68.6336 617.474 64.3332 584.819C75.8399 571.496 92.2699 564.319 107.096 555.564C113.568 551.742 119.567 547.489 125.481 542.864C133.337 536.72 147.346 526.437 152.034 517.897C158.69 505.77 146.504 501.281 160.72 487.205C175.663 472.408 214.229 449.164 217.615 427.394Q217.728 426.651 217.814 425.905C232.251 443.22 248.946 459.831 265.531 475.068C258.619 463.725 249.785 453.656 241.2 443.576L212.663 410.389C207.738 404.712 200.629 399.795 197.746 392.755C200.385 382.163 209.149 380.219 213.35 370.922C220.648 354.775 218.804 331.816 221.46 314.153Z"/>
	<path fill="#2B3352" d="M299.076 454.894C305.646 458.583 319.649 473.377 325.486 479.288Q350.044 503.865 373.205 529.764Q396.365 555.663 418.057 582.804C430.441 598.047 442.977 612.659 453.542 629.256C447.745 626.06 413.749 585.338 407.509 577.987C385.716 552.318 364.532 526.118 341.93 501.152Q327.559 485.417 312.953 469.899C308.408 465.054 302.974 460.254 299.076 454.894Z"/>
	<path fill="#FEFEFE" d="M566.166 137.496C569.415 139.947 572.479 145.004 575.024 148.279C584.697 160.726 593.956 173.474 603.476 186.037L640.749 235.033C647.336 243.643 654.189 252.085 660.517 260.887C647.802 257.153 635.616 251.209 623.435 246.032C618.028 243.735 611.9 240.436 606.051 239.622C605.088 239.826 604.595 240 603.827 240.659C598.792 244.984 598.2 273.349 596.075 281.179C592.881 292.948 579.233 302.178 578.501 314.625C578.351 317.169 578.914 319.312 579.98 321.609C584.144 330.581 590.701 338.407 596.419 346.401C604.857 358.199 613.048 370.669 622.79 381.428C615.549 367.849 607.356 354.631 599.236 341.564C594.191 333.446 588.121 325.106 584.552 316.219C588.032 305.419 596.858 297.259 601.367 287.048C604.327 280.345 606.213 256.87 607.819 247.861C625.546 253.133 647.58 267.258 665.517 268.529C670.963 275 675.836 281.904 681.008 288.587Q695.158 306.503 708.781 324.823C712.764 330.194 716.49 335.818 720.62 341.069C725.392 347.135 731.132 352.641 736.28 358.407C744.273 367.36 751.913 376.624 759.909 385.585C771.18 398.215 782.835 410.384 794.277 422.841L845.329 478.962C858.601 493.516 873.307 507.816 885.043 523.613C882.718 529.471 874.637 540.081 875.847 546.164C876.605 547.648 877.756 548.193 879.131 549.022L879.757 549.393C878.03 554.549 868.606 561.05 866.281 567.242C865.829 568.446 865.861 568.95 866.4 570.083C869.091 571.655 872.363 572.286 875.35 573.123C872.378 577.099 869.32 580.946 865.886 584.539C862.528 588.054 857.482 591.779 855.043 595.944C854.396 597.048 854.536 597.235 854.827 598.418C857.645 600.899 865.015 600.115 868.868 600.454C864.176 604.961 859.76 609.815 856.228 615.291C849.319 615.679 842.428 616.631 835.578 617.579C831.109 613.775 826.945 609.82 822.841 605.632C826.176 605.497 829.659 605.923 832.903 605.047C833.341 604.595 833.788 604.366 833.83 603.694C834.104 599.36 823.994 590.304 821.111 586.816C819.825 585.261 818.012 583.519 818.213 581.424C820.105 580.134 824.1 580.113 826.47 579.725C824.789 575.47 812.594 552.659 810.175 550.55L809.201 550.77C806.464 553.257 794.722 576.186 793.5 580.233C795.104 582.086 798.572 581.839 800.88 582.012C797.225 587.59 785.456 596.611 784.354 602.519C784.132 603.705 784.332 603.867 784.963 604.811C788.045 606.014 792.306 605.706 795.669 606.274C790.85 612.201 779.867 620.736 777.67 627.259C765.28 628.342 752.566 631.244 740.376 633.709C725.426 636.139 710.453 639.754 695.682 643.135C694.625 634.444 693.542 625.791 693.497 617.022C698.492 616.738 703.348 616.29 707.835 613.821C711.314 611.906 713.812 608.964 714.869 605.115C716.37 599.646 714.569 595.412 713.894 590.135C713.516 587.179 713.855 584.007 713.65 581.005C713.098 572.92 710.101 564 706.035 557.016C700.367 547.284 692.862 546.573 682.972 543.953C684.065 537.271 688.353 533.343 686.301 526.035C685.324 522.552 683.34 519.885 680.107 518.205C676.321 516.237 661.474 514.538 657.556 516.093C656.551 516.491 655.722 517.053 655.459 518.165C654.827 520.834 657.349 524.926 658.73 527.155C658.169 531.302 657.303 536.177 658.477 540.265C659.716 544.583 662.835 546.416 666.514 548.418L664.637 552.487C661.733 553.254 659.141 553.947 656.688 555.789C648.391 562.019 647.749 574.277 646.255 583.695C639.637 584.199 632.859 583.665 626.324 582.6C626.252 580.819 626.317 578.754 625.885 577.024C625.452 575.295 623.565 572.582 621.922 571.833C620.742 571.295 619.917 571.528 618.882 572.23C617.951 572.861 616.908 574.663 616.523 575.707C615.861 577.504 615.938 579.543 615.423 581.394C614.495 584.732 612.58 587.756 612.256 591.269C611.874 595.411 614.578 598.513 617.136 601.395C616.446 614.024 614.315 626.839 612.909 639.431C612.004 647.53 611.852 655.845 610.447 663.853C599.109 666.821 587.778 669.564 576.525 672.873C572.05 663.651 566.561 654.893 561.384 646.052L542.801 613.692C537.938 605.303 532.78 596.998 528.326 588.386C533.821 582.877 539.198 577.258 544.723 571.774C550.023 566.513 556.807 560.983 560.773 554.637C561.974 552.716 562.639 550.65 562.702 548.378C562.983 538.194 543.79 522.2 536.797 514.877C532.603 510.485 527.993 505.429 527.171 499.16C525.179 483.98 553.197 463.429 559.432 448.938C561.422 444.312 561.818 439.893 561.943 434.923C572.447 440.325 582.534 447.423 592.577 453.683Q619.919 471.095 648.252 486.842C640.14 478.71 624.673 468.9 614.721 462.11C590.622 445.666 566.079 429.924 541.807 413.74C533.369 408.114 518.413 399.492 512.345 391.708C505.756 383.258 541.363 366.366 542.314 353.603C542.517 350.876 541.391 348.404 539.622 346.376C528.694 333.856 496.892 323.987 486.491 311.309C484.866 309.328 483.462 306.673 483.87 304.027C484.295 301.267 486.816 299.222 488.925 297.661C494.785 293.324 502.086 289.888 508.399 286.15Q526.737 275.492 544.37 263.705C549.342 260.421 554.507 257.246 559.22 253.597C561.111 252.132 563.816 250.067 564.661 247.79C567.06 241.327 562.324 222.274 560.432 215.049C558.998 209.571 556.641 204.063 556.887 198.335C557.161 191.985 558.82 185.194 559.83 178.908Q563.349 158.256 566.166 137.496Z"/>
	<path fill="#2B3352" d="M658.468 314.506C663.42 318.898 667.857 323.881 672.555 328.546Q686.551 342.173 700.321 356.027Q751.465 406.178 799.527 459.29C814.972 476.138 829.798 493.275 844.465 510.798C850.349 517.828 857.323 524.814 862.176 532.565C859.8 530.862 857.62 528.056 855.541 525.951Q846.151 516.564 837.084 506.866L795.129 462.506Q742.55 407.502 691.416 351.153L668.986 326.597C665.526 322.79 661.229 318.803 658.468 314.506Z"/>
	<path fill="#FEFEFE" d="M503.397 56.7218C513.413 56.2249 523.57 56.4277 533.579 56.9955Q539.21 57.2722 544.832 57.6869Q550.455 58.1015 556.065 58.6539Q561.676 59.2062 567.271 59.896Q572.866 60.5857 578.443 61.4124Q584.02 62.2391 589.575 63.2023Q595.13 64.1655 600.659 65.2645Q606.188 66.3636 611.689 67.5978Q617.19 68.8321 622.659 70.2009Q628.128 71.5696 633.562 73.0721Q638.996 74.5745 644.391 76.2097Q649.786 77.8449 655.14 79.6118Q660.494 81.3788 665.802 83.2765Q671.111 85.1741 676.372 87.2014Q681.632 89.2286 686.841 91.3842Q692.051 93.5398 697.206 95.8225Q702.36 98.1051 707.458 100.513Q712.555 102.922 717.592 105.454Q722.629 107.987 727.602 110.642Q732.575 113.298 737.482 116.074Q742.388 118.85 747.225 121.746Q752.063 124.642 756.827 127.656Q761.592 130.669 766.281 133.799Q770.97 136.928 775.582 140.172Q780.193 143.415 784.723 146.771Q789.253 150.126 793.7 153.592Q798.147 157.058 802.507 160.631Q806.867 164.205 811.139 167.884Q815.41 171.564 819.59 175.347Q823.77 179.13 827.856 183.014Q831.942 186.898 835.932 190.882Q839.921 194.865 843.812 198.945Q847.703 203.025 851.492 207.199C908.751 271.551 943.189 344.391 959.554 428.645C964.567 454.454 968.31 485.691 966.769 511.849C960.152 503.386 954.074 494.418 947.782 485.707L916.547 442.871Q864.444 371.999 811.16 302.01C802.618 290.763 794.773 278.886 786.107 267.774C784.508 265.724 783.023 264.174 780.368 263.858C774.252 268.738 768.935 278.665 764.233 285.218C752.129 302.084 738.953 319.797 727.749 337.17C719.811 328.112 712.77 317.793 705.47 308.18Q683.968 280.112 662.99 251.651C650.352 234.541 637.38 217.521 624.342 200.71C618.414 193.066 612.227 185.6 606.439 177.851C596.583 164.656 586.98 151.322 576.907 138.283C572.445 132.507 568.066 126.2 562.878 121.057C556.849 126.849 551.639 136.197 546.904 143.247L512.004 196.13C508.622 200.703 505.655 205.576 502.48 210.293C493.464 223.69 484.646 237.249 475.479 250.54L382.221 384.858Q370.192 366.827 358.939 348.302C355.571 342.796 352.57 337.01 349.046 331.614C348.08 330.134 346.336 327.251 344.626 326.899C343.58 327.19 342.929 327.638 342.2 328.449C334.788 336.69 325.409 351.582 318.855 360.893C310.849 372.268 302.177 383.155 294.385 394.672C277.011 370.918 258.45 348.44 240.179 325.414C235.822 319.924 225.092 304.63 220.516 301.065C219.717 300.442 219.244 300.399 218.232 300.703C214.969 301.683 190.109 335.563 186.038 340.943C177.33 352.451 168.292 363.709 159.596 375.227Q121.947 425.117 86.0827 476.305C76.5585 489.962 66.6415 503.383 57.6971 517.432C57.6386 400.866 96.9539 291.907 175.835 205.494Q179.171 201.799 182.588 198.179Q186.005 194.559 189.501 191.015Q192.997 187.471 196.57 184.005Q200.144 180.539 203.793 177.152Q207.441 173.766 211.164 170.461Q214.887 167.156 218.681 163.934Q222.476 160.711 226.341 157.574Q230.206 154.436 234.139 151.384Q238.072 148.333 242.071 145.368Q246.071 142.404 250.134 139.529Q254.198 136.654 258.325 133.869Q262.451 131.084 266.638 128.391Q270.824 125.697 275.069 123.097Q279.314 120.497 283.616 117.991Q287.917 115.485 292.273 113.074Q296.628 110.664 301.036 108.35Q305.444 106.036 309.901 103.82Q314.359 101.604 318.865 99.487Q323.37 97.3699 327.921 95.3526Q332.472 93.3353 337.067 91.4188Q341.661 89.5024 346.297 87.6878Q350.932 85.8732 355.607 84.1612Q360.281 82.4493 364.993 80.8409Q369.704 79.2325 374.449 77.7283Q379.195 76.2242 383.972 74.8252Q388.75 73.4261 393.557 72.1327Q398.364 70.8393 403.199 69.6523Q408.033 68.4653 412.893 67.3852Q417.752 66.3051 422.634 65.3325Q427.517 64.3598 432.419 63.4951Q437.322 62.6304 442.242 61.874Q447.162 61.1176 452.098 60.4699C469.097 58.1758 486.277 57.5051 503.397 56.7218Z"/>
	<path fill="#2B3352" d="M709.514 154.587C713.006 154.27 716.536 154.206 719.984 154.922C729.199 156.835 734.457 162.829 739.465 170.205C741.177 169.237 742.901 168.248 744.72 167.494C750.04 165.287 756.147 165.188 761.437 167.536C767.102 170.049 770.452 174.567 772.62 180.174C777.465 179.804 783.438 179.721 787.426 182.956C789.054 184.278 790.55 186.56 790.72 188.66L790.032 189.442C785.65 190.003 782.237 186.295 778.247 185.376C775.393 184.718 771.294 187.494 768.029 187.339C765.76 184.77 766.412 179.612 763.325 176.125C760.578 173.021 756.68 171.937 752.669 171.682C741.433 170.969 742.883 180.064 737.938 183.351C736.781 184.121 736.228 183.774 735.035 183.398C733.966 180.651 734.556 177.48 733.949 174.607C732.733 168.862 728.396 165.05 723.581 162.263C722.563 161.868 721.536 161.474 720.485 161.175C714.944 159.6 708.525 160.19 703.507 163.061C696.812 166.891 694.375 172.949 692.614 180.043C692.72 180.305 692.824 180.569 692.934 180.83C693.36 181.842 693.918 182.898 694.176 183.966C694.454 185.113 694.23 185.831 693.586 186.752C690.793 187.018 687.922 184.134 685.753 182.564C670.207 171.313 670.401 185.719 663.61 188.43C660.378 189.72 655.542 185.922 652.094 185.705C649.316 185.53 646.634 187.119 643.927 187.219C642.528 187.271 642.139 187.011 641.089 186.141C640.965 186.038 640.939 184.911 640.925 184.73C641.725 183.216 642.636 182.453 644.177 181.749C649.069 179.516 655.689 180.104 660.641 181.861L661.265 182.09C664.491 178.631 667.701 175.386 672.373 173.949C677.606 172.34 682.539 173.576 687.223 176.088C688.377 172.714 689.633 169.368 691.535 166.333C695.803 159.524 701.971 156.369 709.514 154.587Z"/>
	<path fill="#2B3352" d="M332.783 135.201C337.522 134.916 342.23 135.165 346.876 136.186Q348.123 136.456 349.356 136.789Q350.588 137.121 351.802 137.516Q353.016 137.91 354.208 138.365Q355.401 138.82 356.569 139.334Q357.737 139.848 358.877 140.421Q360.018 140.993 361.129 141.623Q362.239 142.252 363.316 142.936Q364.394 143.621 365.435 144.358Q366.477 145.096 367.48 145.886Q368.483 146.675 369.445 147.514Q370.406 148.352 371.325 149.239Q372.243 150.125 373.116 151.056Q373.989 151.988 374.814 152.962Q375.638 153.936 376.413 154.95Q377.187 155.965 377.91 157.017Q378.632 158.069 379.301 159.156C387.723 172.689 388.853 186.687 385.335 201.939L396.158 201.937C396.218 197.074 397.327 192.703 400.013 188.563C403.34 183.436 408.653 180.081 414.634 178.958Q415.255 178.844 415.881 178.76Q416.508 178.677 417.137 178.624Q417.767 178.572 418.398 178.55Q419.029 178.529 419.661 178.539Q420.292 178.548 420.923 178.589Q421.553 178.63 422.181 178.702Q422.808 178.774 423.432 178.877Q424.055 178.979 424.672 179.113Q425.29 179.246 425.9 179.41Q426.51 179.573 427.111 179.767Q427.713 179.96 428.304 180.183Q428.895 180.406 429.474 180.658Q430.053 180.91 430.62 181.19Q431.186 181.47 431.738 181.777Q432.289 182.085 432.825 182.419Q433.361 182.754 433.88 183.114C440.525 187.809 442.976 193.791 444.446 201.431C450.013 201.949 469.651 200.786 472.803 203.928C473.389 204.511 473.191 204.378 473.105 205.294C472.656 205.798 472.627 205.883 471.995 206.312C470.784 207.134 468.694 207.393 467.273 207.511C464.931 207.704 440.426 207.474 439.598 207.244C438.822 207.03 438.201 206.783 437.978 205.924C436.781 201.314 437.776 197.418 435.068 192.893C432.292 188.256 427.781 185.916 422.609 184.859C418.275 183.973 413.772 184.542 410.099 187.104C402.88 192.139 403.166 199.001 401.705 206.685C398.421 208.053 367.417 208.164 363.375 207.218C361.851 206.861 360.628 206.406 359.783 205.007L360.177 203.956C363.539 201.706 366.641 202.063 370.537 202.08L378.251 202.067Q379.278 199.21 379.909 196.24Q380.54 193.271 380.763 190.243C381.592 177.818 377.017 164.98 368.776 155.694C361.051 146.99 350.216 142.067 338.61 141.511C316.123 140.433 297.93 155.415 291.92 176.543C291.201 179.071 290.312 190.244 289.305 191.166C283.967 191.46 280.618 182.581 273.915 182.498C266.3 182.403 265.975 186.529 261.251 190.836C257.806 193.977 247.998 192.915 243.278 192.827C240.896 192.782 238.476 192.843 236.728 191.015C236.613 189.606 236.685 189.55 237.436 188.339C240.586 186.473 252.303 187.126 256.535 187.043C259.322 182.541 262.502 179.167 267.753 177.577C273.421 175.862 278.961 177.008 284.03 179.815C286.901 169.762 290.426 160.554 297.146 152.367C305.954 141.636 319.289 136.491 332.783 135.201Z"/>
	<path fill="#2B3352" d="M255.571 226.111C260.332 225.699 264.939 225.665 269.614 226.78C280.263 229.318 288.242 236.105 293.839 245.324C299.745 242.649 306.779 242.37 313.02 244.058C321.558 246.367 327.978 252.504 332.311 259.993C337.23 258.141 343.15 257.126 348.26 258.714C355.515 260.968 358.958 266.915 362.405 273.133C367.718 273.151 376.95 272.232 381.825 274.024C382.807 274.385 382.638 274.452 383.077 275.296C382.954 276.091 383.057 276.518 382.444 277.108C379.115 280.315 365.32 278.881 360.504 278.942C353.339 279.032 356.094 271.94 351.375 267.625C348.695 265.173 345.029 263.692 341.374 263.963C332.762 264.601 333.885 270.368 330.278 273.29C327.429 275.599 322.98 271.047 319.459 270.779C311.827 270.199 312.155 278.086 307.694 281.66C306.294 281.847 306.222 281.958 305.037 281.227C304.022 278.885 304.771 276.356 305.607 274.061C306.898 270.516 309.587 268.019 313.023 266.52C318.233 264.246 323.052 265.084 328.107 267.071C326.37 262.256 323.687 258.2 319.8 254.84C315.05 250.735 308.661 248.889 302.418 249.402C294.335 250.066 287.675 254.875 285.431 262.832C284.64 265.636 284.351 269.549 282.514 271.806C278.383 271.909 273.875 268.683 269.55 268.299C264 267.806 261.702 274.251 258.071 277.219C256.678 277.502 256.561 277.516 255.256 276.966C254.421 275.746 254.515 274.771 254.53 273.362C256.851 268.867 259.992 265.062 264.898 263.29C269.653 261.573 273.596 262.588 278.005 264.527C280.242 257.99 283.074 253.056 288.539 248.671C284.145 241.093 277.53 235.323 269.015 232.898C261.226 230.681 252.902 232.009 245.901 235.95C236.603 241.182 229.37 251.432 229.545 262.336C229.593 265.35 231.059 269.031 230.276 271.874C227.524 274.662 222.475 272.536 218.877 273.519C215.936 274.322 215.462 276.465 214.125 278.848C213.645 279.703 212.964 280.475 211.971 280.685C208.828 281.349 204.888 276.392 202.357 274.739C200.547 273.557 197.616 272.387 195.427 273.048C193.29 273.693 192.203 275.145 191.187 277.046C190.641 278.069 190.149 278.895 189.414 279.79C184.141 281.748 180.287 271.87 175.082 270.907C162.497 268.579 165.672 278.036 159.143 281.366C158.033 281.933 157.7 281.985 156.561 281.729C155.83 280.962 155.519 280.367 155.408 279.292C155.091 276.219 156.42 273.711 158.393 271.465C161.666 267.739 165.82 265.318 170.835 265.08C177.259 264.777 182.431 267.837 187.085 271.893C190.559 269.15 193.94 267.444 198.486 267.473C203.333 267.504 207.005 269.622 210.389 272.901C214.386 268.582 217.458 267.453 223.103 266.387C224.129 257.589 224.477 250.778 229.415 243.017C235.568 233.346 244.618 228.474 255.571 226.111Z"/>
</svg>
