<?xml version="1.0" encoding="utf-8" ?>
<svg xmlns="http://www.w3.org/2000/svg" xmlns:xlink="http://www.w3.org/1999/xlink" width="1024" height="1024">
	<path fill="#FEFEFE" d="M0 0L1024 0L1024 1024L0 1024L0 0Z"/>
	<path d="M497.382 74.238Q511.96 74.011 526.495 75.1339Q541.031 76.2568 555.401 78.72C567.841 80.8402 580.137 83.7464 592.567 85.9252C610.824 89.1255 629.303 90.9862 647.436 94.9156Q653.187 96.1406 658.892 97.5601Q664.598 98.9796 670.252 100.592Q675.906 102.204 681.503 104.007Q687.099 105.81 692.631 107.802Q698.162 109.794 703.623 111.973Q709.085 114.151 714.469 116.514Q719.853 118.877 725.153 121.421Q730.454 123.964 735.665 126.687Q740.877 129.409 745.993 132.307Q751.109 135.204 756.124 138.274Q761.138 141.343 766.046 144.581Q770.954 147.819 775.749 151.221Q780.544 154.624 785.221 158.187Q789.897 161.751 794.451 165.47Q799.004 169.19 803.428 173.063Q807.853 176.935 812.143 180.955C891.462 254.509 933.537 359.789 937.463 467.001Q937.731 473.143 937.845 479.289Q937.958 485.435 937.918 491.582Q937.877 497.73 937.682 503.874Q937.488 510.018 937.139 516.156Q936.79 522.293 936.287 528.42Q935.785 534.547 935.128 540.659Q934.472 546.771 933.662 552.865Q932.853 558.959 931.891 565.031Q930.929 571.102 929.815 577.148Q928.701 583.193 927.435 589.209Q926.17 595.225 924.754 601.207Q923.338 607.189 921.772 613.134Q920.207 619.078 918.492 624.982Q916.778 630.885 914.916 636.744Q913.054 642.603 911.046 648.413Q909.038 654.223 906.884 659.981Q904.731 665.739 902.434 671.441Q900.137 677.143 897.697 682.785Q895.258 688.428 892.677 694.007Q890.097 699.587 887.377 705.1Q884.658 710.613 881.801 716.056Q878.944 721.5 875.951 726.869Q872.959 732.239 869.832 737.532Q866.706 742.825 863.448 748.038Q860.189 753.251 856.801 758.38Q853.413 763.51 849.898 768.553Q846.382 773.596 842.741 778.549Q839.1 783.502 835.336 788.362Q831.572 793.222 827.687 797.986Q823.802 802.75 819.799 807.416Q815.795 812.081 811.676 816.644Q807.557 821.207 803.325 825.666Q800.002 829.215 796.592 832.681Q793.183 836.147 789.689 839.528Q786.196 842.91 782.62 846.204Q779.045 849.499 775.389 852.704Q771.734 855.91 768.001 859.025Q764.268 862.14 760.46 865.162Q756.651 868.184 752.77 871.112Q748.888 874.04 744.936 876.872Q740.984 879.703 736.964 882.437Q732.943 885.171 728.857 887.805Q724.77 890.439 720.62 892.972Q716.47 895.505 712.259 897.936Q708.048 900.366 703.779 902.692Q699.51 905.018 695.185 907.239Q690.859 909.46 686.481 911.573Q682.103 913.687 677.674 915.693Q673.245 917.698 668.768 919.594Q664.291 921.49 659.769 923.276Q655.247 925.062 650.682 926.736Q646.118 928.41 641.513 929.971Q636.909 931.533 632.268 932.98Q627.626 934.428 622.951 935.762Q618.275 937.095 613.569 938.313Q608.862 939.532 604.126 940.634Q599.391 941.736 594.63 942.722Q589.869 943.707 585.086 944.576Q580.302 945.444 575.498 946.195Q570.695 946.945 565.874 947.578Q561.053 948.21 556.219 948.724Q551.384 949.238 546.538 949.633Q541.693 950.028 536.838 950.304Q531.984 950.579 527.125 950.736Q526.037 950.784 524.949 950.811C499.736 951.423 474.646 947.738 449.749 944.328C433.778 942.141 417.954 940.422 402.207 936.825C383.669 932.59 366.058 926.205 348.062 920.201C316.829 909.781 284.867 899.6 255.981 883.531Q248.132 879.104 240.583 874.183Q233.034 869.262 225.816 863.866Q218.599 858.471 211.742 852.623Q204.885 846.775 198.418 840.5C124.533 769.742 88.8983 663.989 86.9494 563.252Q86.8875 557.887 86.9363 552.522Q86.9852 547.157 87.1447 541.794Q87.3043 536.432 87.5745 531.073Q87.8447 525.715 88.2254 520.363Q88.6062 515.012 89.0973 509.669Q89.5884 504.326 90.1897 498.995Q90.791 493.664 91.5022 488.346Q92.2134 483.028 93.0341 477.726Q93.855 472.424 94.785 467.14Q95.7151 461.856 96.754 456.592Q97.7929 451.329 98.9402 446.087Q100.088 440.846 101.343 435.63Q102.598 430.414 103.961 425.225Q105.323 420.035 106.793 414.875Q108.262 409.715 109.838 404.587Q111.414 399.458 113.095 394.363Q114.776 389.268 116.562 384.209Q118.348 379.15 120.238 374.129Q122.128 369.107 124.121 364.126Q126.115 359.145 128.21 354.206Q130.306 349.267 132.503 344.372Q134.7 339.478 136.998 334.629Q139.296 329.781 141.693 324.981Q144.09 320.181 146.586 315.432Q149.082 310.683 151.675 305.986Q154.268 301.289 156.958 296.647Q159.648 292.005 162.433 287.419Q165.218 282.833 168.097 278.306Q170.976 273.779 173.947 269.312Q176.919 264.845 179.983 260.44Q183.046 256.035 186.2 251.695Q189.353 247.354 192.596 243.08C203.721 228.372 215.429 213.968 228.237 200.682C300.176 126.058 392.066 76.0506 497.382 74.238Z"/>
	<path fill="#FEFEFE" d="M250.893 835.777C257.95 837.733 264.48 838.976 271.827 839.017C281.873 849.243 292.299 858.496 303.302 867.664C302.862 867.624 302.422 867.577 301.986 867.507C283.892 864.578 277.848 860.398 264.288 848.913C259.496 844.855 254.642 840.858 250.893 835.777Z"/>
	<path fill="#FEFEFE" d="M201.366 771.218C208.54 772.896 215.044 773.095 222.363 772.955C235.44 794.228 249.198 812.583 265.792 831.152C258.347 830.742 250.512 828.723 243.088 827.599C227.338 811.334 211.18 791.792 201.366 771.218Z"/>
	<path fill="#FEFEFE" d="M150.394 623.522Q160.057 625.715 169.892 626.921C172.723 646.99 177.767 666.209 183.622 685.566C175.815 684.833 168.09 682.706 160.525 680.708C155.01 663.542 151.001 641.5 150.394 623.522Z"/>
	<path fill="#FEFEFE" d="M162.529 688.694C170.008 691.416 177.905 692.635 185.803 693.31Q194.87 719.251 206.589 744.107C210.066 751.363 214.287 758.234 217.629 765.553C210.397 765.408 202.404 763.863 195.321 762.374C181.238 739.277 171.298 714.172 162.529 688.694Z"/>
	<path fill="#FEFEFE" d="M234.311 298.919C234.454 301.836 222.569 321.558 220.308 325.851C207.327 350.504 195.009 378.559 187.113 405.246C170.229 462.315 162.031 518.833 164.753 578.425C165.386 592.285 167.299 605.967 168.444 619.773C163.725 619.497 159.207 618.355 154.625 617.28L149.644 615.902Q148.832 601.072 148.808 586.219Q148.784 571.367 149.548 556.534Q150.312 541.702 151.862 526.93Q153.412 512.159 155.743 497.491C166.701 430.367 195.136 354.54 234.311 298.919Z"/>
	<path fill="#FEFEFE" d="M561.104 102.75C561.436 102.721 561.768 102.686 562.101 102.662C568.813 102.176 575.68 102.348 582.405 102.383C660.102 102.776 737.449 133.679 795.644 184.832C873.51 253.275 916.411 353.391 922.924 455.877Q923.328 461.769 923.586 467.669Q923.844 473.569 923.954 479.474Q924.065 485.378 924.029 491.284Q923.993 497.189 923.81 503.092Q923.627 508.995 923.297 514.891Q922.967 520.788 922.491 526.674Q922.015 532.561 921.392 538.433Q920.77 544.306 920.001 550.162Q919.232 556.017 918.319 561.852Q917.405 567.686 916.346 573.496Q915.287 579.306 914.084 585.088Q912.881 590.87 911.535 596.62Q910.188 602.37 908.699 608.085Q907.21 613.8 905.579 619.476Q903.949 625.152 902.177 630.786Q900.406 636.419 898.495 642.007Q896.584 647.595 894.534 653.134Q892.485 658.672 890.298 664.158Q888.112 669.644 885.789 675.074Q883.467 680.504 881.01 685.874Q878.554 691.245 875.964 696.553Q873.375 701.86 870.654 707.102Q867.933 712.343 865.083 717.516Q862.232 722.688 859.254 727.788Q856.276 732.888 853.172 737.912Q850.068 742.936 846.84 747.881Q843.612 752.827 840.262 757.69Q836.912 762.554 833.442 767.332Q829.972 772.111 826.384 776.802Q822.797 781.493 819.093 786.093Q815.39 790.693 811.573 795.2Q807.757 799.707 803.829 804.117C748.943 866.339 675.57 911.891 593.913 928.559C576.167 932.181 558.233 934.152 540.173 935.286C525.208 936.35 509.757 935.609 494.831 934.193Q491.69 933.907 488.554 933.56Q485.419 933.213 482.291 932.806Q479.163 932.398 476.044 931.931Q472.925 931.463 469.815 930.935Q466.705 930.407 463.606 929.819Q460.507 929.231 457.42 928.583Q454.333 927.935 451.259 927.228Q448.185 926.52 445.125 925.754Q442.065 924.987 439.021 924.161Q435.977 923.335 432.949 922.451Q429.921 921.566 426.911 920.623Q423.901 919.681 420.91 918.68Q417.918 917.679 414.947 916.62Q411.975 915.562 409.025 914.446Q406.075 913.33 403.146 912.158Q400.218 910.985 397.313 909.756Q394.408 908.527 391.527 907.242Q388.646 905.957 385.791 904.617Q382.936 903.276 380.107 901.881Q377.278 900.485 374.477 899.036Q371.675 897.586 368.902 896.082Q366.13 894.578 363.386 893.021Q360.643 891.464 357.93 889.854Q355.218 888.245 352.537 886.583Q349.856 884.921 347.208 883.207Q344.559 881.494 341.945 879.729Q339.33 877.965 336.75 876.15Q334.17 874.336 331.625 872.472Q329.08 870.608 326.572 868.695Q324.064 866.781 321.594 864.82Q319.123 862.859 316.691 860.851Q314.259 858.842 311.866 856.787C231.233 786.934 186.74 692.488 179.211 586.523Q178.825 580.65 178.583 574.77Q178.34 568.89 178.241 563.006Q178.142 557.121 178.186 551.236Q178.231 545.351 178.418 539.469Q178.606 533.587 178.937 527.711Q179.268 521.835 179.743 515.969Q180.217 510.103 180.834 504.25Q181.451 498.398 182.21 492.562Q182.97 486.726 183.872 480.91Q184.773 475.094 185.816 469.302Q186.859 463.51 188.043 457.745Q189.227 451.98 190.551 446.246Q191.876 440.512 193.339 434.812Q194.803 429.111 196.405 423.448Q198.007 417.785 199.746 412.163Q201.486 406.541 203.362 400.963Q205.238 395.385 207.249 389.854Q209.261 384.323 211.407 378.843Q213.553 373.363 215.831 367.937Q218.11 362.511 220.52 357.142Q222.93 351.773 225.471 346.464Q228.011 341.155 230.68 335.91Q233.35 330.665 236.146 325.487Q238.942 320.308 241.863 315.199Q244.785 310.091 247.83 305.054Q250.875 300.018 254.042 295.058Q257.209 290.098 260.496 285.216Q263.783 280.334 267.188 275.534Q270.593 270.734 274.114 266.018Q277.635 261.303 281.27 256.674Q284.905 252.046 288.652 247.507Q292.399 242.969 296.255 238.523C366.641 157.403 453.604 110.429 561.104 102.75Z"/>
	<path d="M562.33 136.714C564.623 136.455 567.054 136.499 569.366 136.44Q573.064 136.332 576.763 136.317Q580.462 136.302 584.161 136.38Q587.859 136.458 591.555 136.629Q595.25 136.799 598.94 137.063Q602.63 137.326 606.312 137.682Q609.994 138.038 613.666 138.486Q617.338 138.935 620.998 139.475Q624.658 140.015 628.303 140.647Q631.948 141.279 635.575 142.003Q639.203 142.726 642.812 143.54Q646.421 144.355 650.008 145.259Q653.595 146.164 657.158 147.158Q660.721 148.152 664.258 149.236Q667.795 150.319 671.304 151.491Q674.813 152.663 678.291 153.923Q681.769 155.182 685.215 156.529Q688.66 157.875 692.071 159.308Q695.482 160.741 698.855 162.259Q702.229 163.776 705.563 165.378Q708.898 166.98 712.191 168.666Q715.484 170.351 718.734 172.118Q721.984 173.886 725.188 175.734Q728.393 177.582 731.55 179.511Q734.707 181.439 737.814 183.446Q740.922 185.453 743.978 187.537Q747.034 189.621 750.037 191.782Q753.04 193.942 755.988 196.177Q758.936 198.412 761.827 200.721Q764.717 203.029 767.549 205.409Q770.381 207.79 773.152 210.24Q775.924 212.691 778.632 215.21Q781.341 217.729 783.986 220.316C853.832 287.356 889.726 381.1 891.683 477.082Q891.827 482.583 891.833 488.085Q891.84 493.588 891.708 499.089Q891.577 504.59 891.309 510.086Q891.04 515.582 890.634 521.07Q890.228 526.557 889.685 532.033Q889.142 537.509 888.462 542.97Q887.782 548.43 886.966 553.872Q886.15 559.313 885.198 564.733Q884.246 570.153 883.159 575.547Q882.072 580.941 880.85 586.307Q879.628 591.672 878.273 597.005Q876.917 602.338 875.429 607.635Q873.941 612.933 872.32 618.192Q870.7 623.45 868.949 628.667Q867.198 633.883 865.316 639.054Q863.435 644.225 861.425 649.348Q859.416 654.47 857.278 659.541Q855.141 664.612 852.878 669.627Q850.614 674.643 848.226 679.6Q845.838 684.557 843.327 689.454Q840.815 694.35 838.182 699.182Q835.55 704.013 832.797 708.778Q830.044 713.542 827.173 718.237Q824.302 722.931 821.314 727.552Q818.326 732.173 815.224 736.718Q812.122 741.262 808.907 745.728Q805.692 750.194 802.367 754.578Q799.041 758.962 795.607 763.262Q792.173 767.561 788.632 771.773Q785.092 775.986 781.447 780.108Q777.803 784.231 774.056 788.261Q770.309 792.291 766.463 796.226Q764.061 798.717 761.61 801.159Q759.159 803.601 756.659 805.993Q754.159 808.385 751.611 810.727Q749.064 813.069 746.47 815.358Q743.876 817.648 741.236 819.886Q738.597 822.123 735.913 824.307Q733.229 826.491 730.502 828.62Q727.774 830.75 725.005 832.824Q722.235 834.898 719.425 836.917Q716.614 838.935 713.763 840.896Q710.913 842.857 708.023 844.761Q705.134 846.665 702.207 848.51Q699.28 850.355 696.316 852.141Q693.353 853.927 690.354 855.653Q687.355 857.38 684.322 859.045Q681.289 860.711 678.224 862.315Q675.158 863.919 672.06 865.462Q668.963 867.004 665.835 868.484Q662.708 869.964 659.551 871.38Q656.394 872.797 653.209 874.15Q650.025 875.503 646.813 876.792Q643.602 878.081 640.366 879.305Q637.129 880.529 633.869 881.687Q630.609 882.846 627.326 883.939Q624.043 885.032 620.738 886.059Q617.434 887.085 614.11 888.046Q610.786 889.006 607.443 889.899Q604.1 890.792 600.74 891.618Q597.38 892.444 594.003 893.202Q590.627 893.96 587.237 894.65Q583.846 895.341 580.442 895.963Q577.039 896.585 573.623 897.138C562.083 898.896 550.273 900.34 538.595 900.567Q529.773 901.004 520.941 900.894Q512.108 900.785 503.3 900.13Q494.491 899.475 485.74 898.276Q476.988 897.078 468.328 895.341C412.64 884.601 366.982 861.209 324.407 823.776C306.935 808.415 291.332 790.376 277.719 771.55C235.843 713.638 213.79 647.521 209.348 576.338C202.127 460.609 245.213 341.998 321.841 255.504C373.163 197.575 442.622 155.215 519.129 141.321C533.427 138.725 547.843 137.576 562.33 136.714Z"/>
	<path fill="#FEFEFE" d="M810.131 271.81C812.489 273.92 814.32 276.705 816.148 279.284C873.165 359.715 887.711 465.767 871.486 561.386C866.119 593.015 856.538 625.451 843.9 654.938C822.733 704.323 786.699 758.355 747.311 794.991C738.174 803.49 728.541 810.934 718.384 818.163L709.004 824.497L708.552 824.31C712.48 820.801 716.687 817.615 720.633 814.121Q734.214 801.918 746.512 788.424C761.237 772.103 773.583 754.266 785.254 735.691C811.864 693.342 831.229 651.683 845.571 603.66C849.937 589.042 853.03 574.401 855.723 559.402Q856.547 554.839 857.276 550.26Q858.004 545.681 858.636 541.088Q859.268 536.494 859.804 531.889Q860.339 527.283 860.778 522.667Q861.217 518.051 861.558 513.427Q861.9 508.803 862.145 504.173Q862.389 499.543 862.536 494.909Q862.684 490.274 862.733 485.638Q862.783 481.002 862.736 476.365Q862.689 471.729 862.544 467.094Q862.399 462.46 862.157 457.83Q861.915 453.199 861.576 448.575Q861.236 443.951 860.8 439.335Q860.364 434.719 859.831 430.113Q859.298 425.507 858.668 420.913Q858.038 416.32 857.312 411.74Q856.586 407.161 855.764 402.598Q854.942 398.034 854.025 393.489Q853.107 388.945 852.094 384.42Q851.082 379.895 849.974 375.393Q848.866 370.89 847.664 366.412Q846.463 361.934 845.167 357.482Q843.871 353.03 842.482 348.606Q841.094 344.183 839.612 339.789Q838.131 335.395 836.557 331.034Q834.984 326.672 833.319 322.345Q831.655 318.017 829.9 313.726Q828.145 309.434 826.3 305.18Q824.455 300.926 822.521 296.712Q820.588 292.498 818.566 288.325Q816.544 284.153 814.435 280.023Q812.326 275.894 810.131 271.81Z"/>
	<path fill="#FEFEFE" d="M564.29 150.714L564.84 150.684C643.641 146.66 716.193 176.683 773.956 229.369C783.394 237.977 792.546 254.093 799.028 265.343Q802.22 270.868 805.243 276.486Q808.267 282.105 811.119 287.812Q813.971 293.52 816.65 299.31Q819.329 305.101 821.831 310.97Q824.334 316.84 826.658 322.782Q828.982 328.724 831.126 334.733Q833.269 340.743 835.23 346.815Q837.191 352.886 838.968 359.014Q840.745 365.142 842.336 371.321Q843.926 377.5 845.33 383.724Q846.733 389.948 847.948 396.212Q849.163 402.476 850.188 408.773Q851.213 415.071 852.048 421.396Q852.882 427.722 853.525 434.07Q854.168 440.418 854.619 446.782Q855.07 453.147 855.328 459.522Q855.832 472.308 855.583 485.101Q855.333 497.894 854.331 510.651Q853.329 523.407 851.578 536.082Q849.826 548.758 847.332 561.308C832.421 634.248 793.18 722.491 742.471 777.856Q739.776 780.856 737.006 783.788Q734.237 786.719 731.395 789.581Q728.553 792.442 725.64 795.231Q722.728 798.02 719.746 800.736Q716.764 803.451 713.715 806.091Q710.667 808.731 707.553 811.294Q704.439 813.856 701.262 816.34Q698.084 818.824 694.846 821.228Q691.608 823.631 688.31 825.953Q685.013 828.275 681.658 830.513Q678.303 832.751 674.894 834.905Q671.484 837.059 668.021 839.126Q664.559 841.194 661.046 843.174Q657.532 845.154 653.971 847.046Q650.409 848.937 646.801 850.739Q643.193 852.541 639.541 854.252Q635.889 855.962 632.195 857.581Q628.501 859.2 624.768 860.726Q621.035 862.252 617.265 863.683Q613.495 865.115 609.69 866.452Q605.885 867.789 602.048 869.03Q598.211 870.272 594.344 871.416Q590.477 872.561 586.583 873.608Q582.688 874.656 578.769 875.605Q574.849 876.555 570.907 877.406Q566.965 878.257 563.003 879.01Q559.041 879.762 555.061 880.414Q551.081 881.067 547.087 881.62Q543.092 882.173 539.084 882.625Q535.077 883.078 531.06 883.43Q527.042 883.782 523.017 884.033Q518.992 884.285 514.962 884.435C445.955 885.005 382.97 856.42 331.946 811.02C322.497 802.613 313.867 793.355 305.543 783.844C253.022 723.836 227.452 649.389 222.952 570.438C216.956 465.248 258.737 347.5 328.894 268.951C391.67 198.667 469.387 156.007 564.29 150.714Z"/>
	<path d="M486.357 261.173C489.429 260.997 492.331 261.239 495.376 261.652C509.841 263.613 524.191 266.698 538.592 269.108C550.23 271.056 596.188 277.185 603.126 280.66C608.884 283.543 614.314 287.996 619.534 291.751L649.13 313.071C654.962 317.29 660.762 322.024 667.022 325.571L667.652 325.923Q666.714 318.268 666.155 310.576C665.352 310.103 664.548 309.628 663.778 309.101C661.731 307.7 660.835 305.848 660.462 303.414C659.856 299.45 658.424 289.102 660.789 285.998C664.24 281.467 679.455 279.71 684.978 279.03C697.454 277.494 748.679 275.346 756.583 283.222C759.836 286.464 759.973 296.037 759.691 300.478C759.318 306.338 755.599 309.141 751.46 312.687C750.505 330.486 751.549 348.742 751.921 366.572C752.062 373.352 752.976 381.134 751.998 387.812C757.286 392.219 763.139 395.993 768.7 400.056L800.687 423.645C806.665 428.078 813.707 432.462 818.701 437.955C820.399 439.822 821.548 442.125 822.286 444.524C824.655 452.223 824.336 462.035 820.452 469.164C818.348 473.025 815.18 476.25 810.848 477.444C797.467 481.133 785.477 465.756 774.893 459.765C773.897 461.025 773.94 462.757 773.922 464.297C773.823 472.603 774.467 481.015 774.811 489.315Q775.664 509.279 776.124 529.255C776.757 555.43 776.118 581.618 776.651 607.793Q777.586 641.51 778.16 675.235C778.453 686.791 779.127 698.406 779.122 709.961C779.121 711.555 779.152 713.532 778.07 714.847C776.837 716.345 773.444 716.948 771.578 717.332C762.545 719.192 752.995 719.759 743.837 721.062L668.614 731.49Q617.324 739.305 565.775 745.18C552.163 746.836 538.59 749.187 524.96 750.626C512.794 751.911 500.491 751.889 488.284 753.16C468.104 755.26 447.68 760.776 427.358 760.544Q421.478 760.498 415.719 759.315C397.643 755.703 379.676 750.453 361.775 746.006C352.833 743.784 326.661 739.098 319.819 734.921C316.934 733.16 316.397 731.077 315.838 727.863C314.193 718.419 314.653 708.022 314.209 698.41C313.36 680.007 312.322 661.66 311.772 643.238L309.769 587.943C309.526 580.054 309.802 572.142 309.374 564.263C308.799 553.682 307.261 543.162 306.787 532.573C306.131 517.931 307.719 502.469 304.262 488.14C301.161 490.957 298.236 493.616 293.917 494.26C290.446 494.777 286.966 493.737 284.214 491.594C280.195 488.466 278.247 483.459 277.625 478.535C276.711 471.314 278.611 465.019 283.02 459.322C288.855 451.783 296.546 445.139 303.137 438.218L358.899 380.804L421.26 315.699C430.61 305.746 440.185 296.086 449.696 286.293C455.475 280.342 461.176 273.623 467.636 268.431C473.061 264.072 479.547 262.045 486.357 261.173Z"/>
	<path fill="#FEFEFE" d="M703.018 284.25C715.379 283.381 729.752 284.093 741.837 286.744C731.533 288.841 720.58 289.203 710.1 289.907C697.198 290.394 684.269 290.223 671.518 288.03C682.048 286.436 692.368 284.853 703.018 284.25Z"/>
	<path fill="#FEFEFE" d="M622.829 528.696C630.702 527.803 638.028 530.539 645.505 532.635C635.315 534.797 624.639 535.57 614.287 536.753Q593.383 539.066 572.542 541.895C563.903 543.277 556.641 541.169 548.345 539.095C561.361 536.462 574.539 535.354 587.693 533.683C599.429 532.193 611.088 530.155 622.829 528.696Z"/>
	<path fill="#FEFEFE" d="M674.493 313.784C683.887 315.811 692.916 316.863 702.505 317.107Q702.961 334.151 702.931 351.201C696.195 347.837 681.018 336.339 675.608 331.026C675.575 325.228 675.226 319.538 674.493 313.784Z"/>
	<path fill="#FEFEFE" d="M749.799 292.727C750.226 292.635 750.723 292.771 751.155 292.828C752.626 294.345 753.723 297.699 753.552 299.821C753.438 301.231 752.834 302.042 751.74 302.898C748.689 305.29 741.208 305.155 737.47 305.485C716.338 307.354 695.181 308.182 674.186 304.622C673.255 304.412 671.807 304.197 671.047 303.608C669.949 302.758 668.151 299.109 668.204 297.638C668.255 296.229 668.598 295.848 669.438 294.816C674.999 295.091 680.541 295.735 686.108 295.852C707.28 296.295 728.746 294.881 749.799 292.727Z"/>
	<path fill="#FEFEFE" d="M561.435 685.704C562.868 685.554 564.326 685.205 565.674 685.84C566.377 691.332 565.975 697.241 565.996 702.783L566.211 734.012C560.161 734.808 553.965 735.111 547.879 735.622C546.567 735.758 546.002 735.975 544.803 735.376C543.974 730.125 544.523 724.192 544.506 718.857Q544.469 703.246 544.234 687.636Q552.828 686.613 561.435 685.704Z"/>
	<path fill="#FEFEFE" d="M541.147 543.145C548.55 543.953 556.08 546.209 563.042 548.792C562.33 562.05 563.331 575.713 563.683 589.006C563.803 593.52 564.669 599.43 563.713 603.802Q553.069 604.437 542.406 604.564C542.469 584.224 539.591 563.42 541.147 543.145Z"/>
	<path fill="#FEFEFE" d="M561.398 609.726C562.333 609.643 563.167 609.713 564.098 609.818C565.664 613.826 565.625 671.729 565.672 680.404C559.207 680.966 552.871 681.52 546.375 681.609L545.004 681.46C544.784 681.157 544.457 680.908 544.346 680.551C543.428 677.625 543.964 668.846 543.863 665.252Q542.906 637.873 542.494 610.48L561.398 609.726Z"/>
	<path fill="#FEFEFE" d="M741.249 314.743L741.94 314.984C743.476 319.563 742.789 329.238 742.889 334.334Q743.291 357.599 743.451 380.867Q734.741 374.779 726.239 368.404C721.222 364.845 716.118 361.346 711.621 357.134C711.326 343.776 710.476 330.424 710.187 317.051C720.597 316.979 730.915 315.911 741.249 314.743Z"/>
	<path fill="#FEFEFE" d="M596.192 295.334C600.332 296.515 629.054 318.366 634.222 322.08Q692.923 363.895 750.702 406.977Q769.556 420.86 788.266 434.938C795.79 440.535 803.544 445.968 810.839 451.856C812.19 452.946 813.341 454.099 814.397 455.484C814.6 458.019 814.537 460.535 814.489 463.075C812.778 465.758 810.485 468.51 807.39 469.629C804.984 470.499 803.088 469.815 800.941 468.661C794.971 465.454 789.5 460.379 784.036 456.31L753.92 433.938L644.255 350.831C631.248 341.104 612.337 325.401 598.033 318.907C593.352 322.884 589.087 327.565 584.75 331.925C576.304 340.327 568.234 349.107 559.874 357.599L444.824 474.523C434.806 484.508 425.474 495.143 415.402 505.092C413.17 507.296 411.252 509.986 408.899 512.026C407.855 512.931 406.359 513.6 404.968 513.684C403.247 513.788 401.722 513.082 400.444 511.972C398.135 509.967 396.794 506.864 396.703 503.83C396.625 501.205 397.502 499.075 399.214 497.113C405.457 489.959 412.947 483.449 419.65 476.687L463.129 432.538L503.099 391.179Q549.929 343.532 596.192 295.334Z"/>
	<path fill="#FEFEFE" d="M650.15 538.215L650.655 538.477C651.913 541.543 651.215 556.05 651.339 560.4C651.965 582.406 653.349 604.473 653.482 626.477C653.554 638.543 652.699 650.584 652.525 662.644C652.233 682.785 652.592 702.97 652.713 723.112C626.324 726.751 600.031 730.241 573.551 733.191C572.412 728.071 573.087 721.164 573.005 715.855Q572.564 696.461 572.367 677.062L571.355 599.969C571.003 582.755 570.05 565.585 569.954 548.359C576.82 546.887 583.891 546.071 590.841 545.067C610.558 542.217 630.34 540.274 650.15 538.215Z"/>
	<path d="M626.797 625.174C628.071 624.946 631.19 624.553 632.39 625.058C634.221 625.828 635.856 627.652 636.421 629.558C636.823 630.91 636.678 632.336 635.868 633.512C633.421 637.066 626.316 636.819 622.379 637.277C620.385 637.578 616.569 638.587 614.687 638.014C613.437 637.633 612.824 636.848 612.339 635.672C611.358 633.288 611.57 630.618 612.64 628.335C615.104 625.869 623.285 625.662 626.797 625.174Z"/>
	<path fill="#FEFEFE" d="M597.309 328.826C605.789 333.39 613.829 340.499 621.615 346.236C634.382 355.644 647.313 364.794 660.01 374.303L734.473 430.082C745.115 438.038 755.973 445.734 766.499 453.839C767.534 463.632 767.254 473.422 767.126 483.25C766.95 496.715 766.653 510.21 766.963 523.675C767.493 546.674 769.448 569.621 769.915 592.625C770.274 610.26 769.131 627.849 769.437 645.481C769.567 652.943 770.668 660.355 771.213 667.792C772.101 679.92 771.936 693.747 769.496 705.681C753.967 707.85 738.5 710.554 722.994 712.894Q691.885 717.314 660.827 722.085C660.43 686.601 659.617 651.052 659.59 615.573C659.57 590.252 660.651 564.84 659.436 539.534C659.296 536.613 659.283 531.332 656.907 529.378C655.058 527.856 651.224 527.71 648.941 527.107C643.418 525.647 637.974 523.093 632.265 522.467C624.88 521.657 612.582 524.847 604.917 525.96Q588.181 528.305 571.382 530.141C563.764 530.976 540.485 532.122 535.232 536.529C534.415 538.172 534.327 540.053 534.254 541.862C533.993 548.272 534.467 554.87 534.636 561.287L535.626 597.769C536.265 619.719 536.437 641.693 537.2 663.634C538.04 687.84 539.418 712.097 539.47 736.319C529.006 738.136 518.14 738.72 507.578 739.92L427.95 748.371C427.031 738.406 426.86 728.355 426.485 718.36L424.599 664.893C424.164 653.349 422.549 641.883 422.114 630.321C421.011 601.073 421.456 571.76 420.955 542.5C420.774 531.939 419.721 521.432 419.522 510.892C424.648 504.743 431.119 499.13 436.781 493.447L469.689 460.058C512.259 416.337 555.333 373.128 597.309 328.826Z"/>
</svg>
