<?xml version="1.0" encoding="utf-8" ?>
<svg xmlns="http://www.w3.org/2000/svg" xmlns:xlink="http://www.w3.org/1999/xlink" width="1024" height="1024">
	<path fill="#FEFEFE" d="M0 0L1024 0L1024 1024L0 1024L0 0Z"/>
	<path fill="#443965" d="M189.148 765.277C189.849 765.557 190.391 765.801 190.996 766.289C192.274 767.32 193.364 769.578 194.147 771.04C201.514 784.802 203.368 801.973 204.713 817.346C207.023 811.353 209.143 805.248 212.199 799.584C215.168 794.081 218.796 785.861 225.148 783.956C226.581 784.174 226.625 784.16 227.621 785.204C227.967 786.303 228.189 787.217 228.114 788.379C227.783 793.557 225.088 798.383 223.483 803.244C222.104 807.418 221.112 812.084 220.22 816.395C219.693 818.945 220.076 823.888 218.047 825.598L217.204 825.031C214.311 817.95 224.061 794.643 225.517 785.89C215.991 794.391 211.327 807.272 206.801 818.876C206.442 820.387 206.253 822.41 204.976 823.411C204.577 823.43 204.171 823.547 203.78 823.469C202.508 823.215 201.303 819.97 200.78 818.891C195.544 808.092 188.303 799.752 179.125 792.128C183.957 799.312 188.817 808.026 191.034 816.451C191.675 818.888 192.587 822.319 191.258 824.557L190.338 824.098C188.267 820.604 188.178 815.689 186.444 811.757C183.97 806.147 175.508 794.381 174.749 790.121C174.56 789.066 174.667 788.906 175.227 788.067C175.863 787.949 175.908 787.901 176.656 787.99C185.267 789.018 196.649 806.464 201.124 812.828Q201.06 810.356 200.87 807.89Q200.68 805.424 200.363 802.971Q200.046 800.519 199.605 798.085Q199.163 795.652 198.597 793.244Q198.031 790.837 197.342 788.462Q196.654 786.086 195.844 783.749Q195.035 781.412 194.107 779.12Q193.178 776.828 192.134 774.586C190.849 771.809 188.526 768.34 189.148 765.277Z"/>
	<path fill="#D7BDBD" d="M78.1122 658.802C79.5209 658.874 80.6488 658.907 81.628 660.017C85.2357 664.107 90.1479 679.447 92.6904 685.174C97.3056 695.57 102.273 705.913 107.33 716.103Q111.843 725.228 116.878 734.075Q121.912 742.923 127.451 751.464Q132.99 760.006 139.014 768.212Q145.038 776.418 151.527 784.261C153.34 786.468 154.705 787.788 154.427 790.754C154.36 790.77 154.293 790.792 154.224 790.803C152.698 791.05 152.415 791.184 151.146 790.203C147.896 787.688 145.16 783.076 142.605 779.826Q138.179 774.092 133.956 768.207Q129.732 762.322 125.717 756.294Q121.701 750.265 117.899 744.1Q114.096 737.935 110.51 731.641Q106.925 725.347 103.562 718.932Q100.198 712.517 97.0601 705.988Q93.9223 699.46 91.0142 692.826Q88.106 686.192 85.4311 679.46C82.7635 672.882 79.3689 665.805 78.1122 658.802Z"/>
	<path fill="#443965" d="M301.423 863.324C308.454 863.4 316.563 866.16 323.524 867.499Q340.309 870.562 357.206 872.936C395.416 878.12 434.417 880.589 472.954 881.446Q520.965 882.538 568.969 881.178Q587.488 880.576 605.976 879.339C610.759 879.008 622.25 877.036 626.292 877.839C627.198 878.913 627.001 879.019 626.907 880.446C626.325 880.556 625.749 880.664 625.16 880.737C590.396 885.052 554.317 885.086 519.33 885.011C454.711 884.874 389.573 882.547 325.867 870.98C321.545 870.196 304.31 868.078 301.611 865.578C301.001 865.014 301.364 864.083 301.423 863.324Z"/>
	<path fill="#D7BDBD" d="M840.89 182.24C844.911 183.033 861.655 200.754 865.385 204.675Q869.118 208.591 872.754 212.597Q876.391 216.602 879.928 220.696Q883.466 224.789 886.903 228.967Q890.339 233.146 893.673 237.406Q897.007 241.667 900.235 246.008Q903.464 250.349 906.586 254.767Q909.708 259.186 912.722 263.679Q915.735 268.172 918.638 272.738Q921.541 277.303 924.331 281.938Q927.122 286.572 929.799 291.274Q932.476 295.975 935.037 300.741Q937.598 305.506 940.043 310.332Q942.487 315.159 944.813 320.043Q947.139 324.928 949.345 329.868Q951.551 334.808 953.636 339.8Q955.721 344.792 957.684 349.833Q959.647 354.875 961.486 359.963Q963.325 365.051 965.039 370.182Q966.754 375.313 968.343 380.485Q969.932 385.656 971.394 390.865Q972.856 396.074 974.191 401.317Q975.526 406.559 976.732 411.833Q977.939 417.107 979.016 422.409Q980.094 427.71 981.041 433.037Q981.989 438.363 982.807 443.711Q983.625 449.059 984.312 454.425Q984.999 459.792 985.555 465.173Q986.111 470.555 986.536 475.948Q986.96 481.341 987.253 486.743Q987.546 492.146 987.707 497.553Q987.868 502.961 987.898 508.371Q987.927 513.781 987.824 519.19Q987.75 523.333 987.596 527.474Q987.442 531.614 987.21 535.751Q986.977 539.888 986.666 544.02Q986.354 548.152 985.964 552.277Q985.573 556.402 985.104 560.519Q984.635 564.636 984.087 568.743Q983.54 572.85 982.914 576.946Q982.288 581.042 981.584 585.126Q980.88 589.209 980.098 593.278Q979.316 597.347 978.456 601.4Q977.597 605.454 976.66 609.49Q975.723 613.526 974.71 617.544Q973.696 621.562 972.606 625.559Q971.516 629.557 970.349 633.533Q969.183 637.509 967.941 641.462Q966.699 645.415 965.382 649.343Q964.064 653.272 962.672 657.175Q961.28 661.077 959.814 664.953Q958.347 668.828 956.807 672.675Q955.267 676.521 953.654 680.338Q952.041 684.155 950.355 687.94Q948.669 691.725 946.911 695.477Q945.153 699.229 943.324 702.947Q941.495 706.665 939.595 710.347Q937.695 714.03 935.725 717.675Q933.755 721.32 931.716 724.927Q929.677 728.534 927.569 732.102Q925.462 735.669 923.286 739.196Q921.111 742.723 918.869 746.207Q916.626 749.691 914.318 753.132Q912.01 756.573 909.636 759.969Q907.262 763.366 904.824 766.716C895.873 779.001 886.877 792.471 875.826 802.965C874.505 802.848 873.507 802.393 872.653 801.399C872.873 798.41 881.24 789.704 883.579 786.924Q893.213 775.375 902.022 763.184Q910.831 750.994 918.773 738.222Q924.041 729.772 928.918 721.089Q933.794 712.406 938.268 703.51Q942.742 694.614 946.805 685.522Q950.868 676.43 954.51 667.162Q958.153 657.894 961.368 648.469Q964.583 639.044 967.363 629.482Q970.143 619.92 972.484 610.241Q974.824 600.561 976.719 590.785C981.422 566.649 983.209 541.451 983.495 516.891Q983.58 512.522 983.577 508.153Q983.574 503.783 983.482 499.415Q983.39 495.046 983.21 490.68Q983.03 486.315 982.761 481.953Q982.493 477.592 982.136 473.237Q981.779 468.882 981.334 464.536Q980.889 460.189 980.357 455.852Q979.824 451.515 979.203 447.19Q978.583 442.865 977.875 438.553Q977.167 434.241 976.372 429.944Q975.577 425.648 974.695 421.368Q973.814 417.089 972.845 412.828Q971.877 408.567 970.823 404.326Q969.769 400.086 968.629 395.868Q967.489 391.65 966.264 387.456Q965.038 383.261 963.729 379.093Q962.419 374.924 961.025 370.783Q959.631 366.642 958.154 362.53Q956.676 358.417 955.116 354.336Q953.556 350.255 951.913 346.206Q950.27 342.157 948.546 338.142Q946.822 334.127 945.016 330.148Q943.211 326.169 941.326 322.227Q939.44 318.285 937.475 314.382Q935.511 310.479 933.467 306.617Q931.424 302.755 929.302 298.935Q927.181 295.115 924.983 291.338Q922.785 287.562 920.511 283.831Q918.237 280.1 915.888 276.416Q913.539 272.731 911.115 269.095Q908.692 265.459 906.196 261.873Q903.699 258.287 901.131 254.752C889.359 238.406 876.61 223.246 862.995 208.431Q858.17 203.115 853.116 198.015C849.524 194.461 843.41 190.084 840.917 185.824C840.106 184.439 840.511 183.666 840.89 182.24Z"/>
	<path fill="#443965" d="M51.4464 796.698C53.764 796.567 56.0974 796.662 58.413 796.803C68.6103 797.424 78.6787 800.074 88.4745 802.852C108.752 808.604 128.34 816.304 148.204 823.278C160.535 827.608 173.223 831.115 185.472 835.583C186.697 836.03 188.128 836.371 189.016 837.366C188.925 838.676 189.186 838.125 188.241 839.022C183.256 839.779 125.561 818.194 115.706 814.884C103.401 810.752 90.9783 806.562 78.4123 803.293C71.015 801.369 63.2821 799.823 55.6183 799.647C51.0068 799.54 45.2932 799.719 41.8898 803.226C39.463 805.726 37.9363 809.106 38.1155 812.599C38.968 829.212 63.1626 851.623 75.3175 862.186C94.0551 878.471 114.435 892.228 135.88 904.654C173.219 926.29 208.616 940.997 250.415 951.878C349.921 977.782 446.82 968.401 542.3 932.008C576.849 918.84 610.033 902.523 643.997 887.985C659.375 881.402 675.151 875.593 690.799 869.693C752.158 846.56 825.712 823.139 891.224 818.561C920.018 816.549 965.03 816.928 987.621 836.604C989.216 838.323 990.423 840.091 991.064 842.375C991.886 845.306 991.387 848.338 989.795 850.921C977.313 871.173 907.043 891.927 884.288 896.722C882.364 897.128 879.663 897.868 877.923 896.732C878.193 894.087 885.913 892.809 888.189 892.231C911.455 886.32 970.814 869.732 985.724 851.258C987.405 849.176 988.749 846.652 988.324 843.896C987.813 840.584 985.02 838.136 982.46 836.273C967.621 825.474 945.181 822.692 927.302 821.527C856.181 816.893 766.195 845.576 699.327 870.168C679.981 877.284 660.509 884.487 641.514 892.493C631.383 896.763 621.587 901.707 611.573 906.227C585.647 917.928 559.43 929.421 532.706 939.197Q521.172 943.341 509.464 946.964Q497.756 950.587 485.898 953.682Q474.039 956.777 462.054 959.338Q450.069 961.899 437.981 963.92Q433.097 964.72 428.197 965.413Q423.296 966.106 418.382 966.693Q413.468 967.28 408.542 967.759Q403.617 968.239 398.682 968.611Q393.746 968.983 388.805 969.248Q383.863 969.512 378.916 969.669Q373.969 969.827 369.021 969.876Q364.072 969.925 359.123 969.867Q354.174 969.809 349.228 969.643Q344.282 969.477 339.34 969.203Q334.399 968.93 329.464 968.549Q324.53 968.168 319.605 967.68Q314.68 967.191 309.767 966.596Q304.854 966 299.955 965.298Q295.056 964.596 290.174 963.788Q285.291 962.979 280.427 962.065Q275.563 961.15 270.721 960.129Q265.878 959.109 261.058 957.984Q256.239 956.858 251.445 955.628Q246.652 954.398 241.886 953.064Q237.12 951.73 232.384 950.293Q227.648 948.855 222.945 947.315Q218.242 945.775 213.573 944.133Q208.904 942.491 204.273 940.748Q199.641 939.004 195.048 937.16Q190.455 935.317 185.904 933.373Q181.352 931.43 176.844 929.388Q172.336 927.346 167.873 925.207Q163.41 923.068 158.995 920.831Q154.58 918.595 150.214 916.264Q145.849 913.932 141.535 911.506Q137.222 909.08 132.962 906.561C123.025 900.643 112.622 894.94 103.275 888.127C84.0918 874.146 38.4565 839.166 35.2466 815.247C34.6473 810.781 35.4475 805.929 38.3891 802.38C41.6933 798.394 46.5475 797.239 51.4464 796.698Z"/>
	<path fill="#D7BDBD" d="M516.49 51.2407Q523.753 51.279 531.013 51.5362Q538.272 51.7935 545.52 52.2696Q552.768 52.7457 559.998 53.4402Q567.228 54.1346 574.434 55.0468Q581.64 55.959 588.816 57.088Q595.991 58.2171 603.129 59.562Q610.267 60.907 617.361 62.4666Q624.455 64.0262 631.499 65.799Q638.543 67.5718 645.531 69.5563Q652.518 71.5407 659.442 73.735Q666.366 75.9292 673.221 78.3313Q680.076 80.7334 686.855 83.3411Q693.635 85.9488 700.332 88.7598Q707.03 91.5707 713.64 94.5824Q720.25 97.5941 726.766 100.804Q733.282 104.013 739.698 107.418Q751.764 113.912 763.546 120.906C766.39 122.591 769.727 124.125 772.247 126.244C772.628 127.64 772.925 128.12 772.472 129.524C771.163 130.041 770.082 129.534 768.862 128.96C766.386 127.794 764.048 126.056 761.686 124.656Q753.631 119.872 745.455 115.296Q722.983 102.808 699.283 92.8448Q693.974 90.5944 688.612 88.4741Q683.25 86.3539 677.837 84.3651Q672.425 82.3763 666.965 80.5201Q661.506 78.6638 656.003 76.9414Q650.5 75.2189 644.957 73.6311Q639.413 72.0434 633.833 70.5913Q628.253 69.1393 622.638 67.8238Q617.024 66.5083 611.38 65.3301Q605.735 64.152 600.063 63.1118Q594.392 62.0717 588.696 61.1702Q583.001 60.2688 577.285 59.5065Q571.57 58.7442 565.837 58.1216Q560.105 57.4989 554.359 57.0163Q548.613 56.5337 542.857 56.1914Q537.101 55.8491 531.338 55.6473Q525.575 55.4454 519.809 55.3843Q514.043 55.3231 508.278 55.4026Q502.512 55.482 496.75 55.7021Q490.988 55.9222 485.233 56.2828Q479.478 56.6434 473.734 57.1443Q467.989 57.6451 462.259 58.286Q456.528 58.9268 450.815 59.7072Q445.102 60.4876 439.409 61.4072Q433.717 62.3267 428.048 63.3848Q422.38 64.443 416.739 65.639Q411.098 66.8351 405.488 68.1684Q399.878 69.5018 394.303 70.9715Q388.727 72.4413 383.189 74.0466Q377.65 75.6519 372.153 77.3919Q366.655 79.1318 361.202 81.0053Q355.749 82.8789 350.343 84.8848Q344.937 86.8908 339.581 89.0281Q334.455 91.0967 329.381 93.2891Q324.307 95.4815 319.288 97.7965Q314.269 100.112 309.307 102.548Q304.346 104.984 299.445 107.54Q294.544 110.096 289.707 112.77Q284.869 115.444 280.098 118.235Q275.327 121.026 270.626 123.932Q265.924 126.838 261.294 129.857Q256.664 132.877 252.109 136.008Q247.554 139.138 243.076 142.379Q238.598 145.619 234.2 148.968Q229.802 152.316 225.487 155.77Q221.172 159.224 216.942 162.782Q212.712 166.34 208.57 170Q204.427 173.659 200.375 177.418Q196.323 181.177 192.363 185.034Q188.403 188.89 184.538 192.842Q180.673 196.793 176.905 200.837Q173.137 204.881 169.469 209.016Q165.8 213.15 162.233 217.372Q158.666 221.595 155.202 225.902Q151.739 230.21 148.381 234.6Q145.023 238.991 141.773 243.462Q138.522 247.932 135.382 252.481Q132.241 257.029 129.212 261.652Q126.182 266.276 123.266 270.971Q120.35 275.667 117.549 280.431Q114.747 285.196 112.063 290.028Q109.378 294.859 106.811 299.755Q104.244 304.65 101.797 309.606Q99.3504 314.562 97.0245 319.577Q94.6986 324.591 92.4951 329.66C58.4522 407.436 50.2127 486.412 59.866 570.254C60.7089 577.575 61.719 584.991 63.0881 592.232C63.8597 596.313 65.0146 600.37 65.5983 604.478C65.8873 606.512 66.2317 608.617 64.9051 610.352C63.7706 610.635 63.8314 610.644 62.8054 610.084C60.3713 605.007 60.0598 597.725 59.1927 592.154C57.9262 584.017 56.3848 575.952 55.3552 567.773C53.0605 549.545 51.8777 530.709 51.5668 512.351Q51.5153 506.804 51.5987 501.258Q51.6822 495.712 51.9007 490.169Q52.1191 484.626 52.4724 479.091Q52.8257 473.555 53.3137 468.029Q53.8016 462.504 54.4239 456.992Q55.0461 451.48 55.8024 445.985Q56.5586 440.49 57.4484 435.014Q58.3382 429.539 59.361 424.087Q60.3838 418.636 61.5389 413.21Q62.6941 407.785 63.981 402.389Q65.2679 396.994 66.6857 391.631Q68.1036 386.268 69.6515 380.942Q71.1994 375.615 72.8766 370.328Q74.5537 365.04 76.359 359.795Q78.1644 354.55 80.0968 349.351Q82.0293 344.151 84.0877 339.001Q86.1461 333.85 88.3294 328.75Q90.5126 323.651 92.8192 318.606Q95.1259 313.562 97.5546 308.575Q99.9834 303.588 102.533 298.661Q105.082 293.735 107.751 288.872Q110.419 284.009 113.206 279.213Q115.992 274.416 118.894 269.689Q121.796 264.962 124.812 260.307Q127.828 255.652 130.957 251.071Q134.086 246.491 137.325 241.988Q140.564 237.485 143.912 233.062Q147.26 228.639 150.715 224.3Q154.169 219.96 157.728 215.705Q161.288 211.45 164.949 207.284Q168.611 203.117 172.373 199.041Q176.135 194.965 179.995 190.981Q194.406 176.339 210.058 163.032Q225.71 149.724 242.48 137.857C325.379 78.7895 415.321 52.8776 516.49 51.2407Z"/>
	<path fill="#443965" d="M782.731 196.257C785.833 187.565 793.169 164.246 798.289 158.116L799.241 157.813C804.199 165.932 798.723 195.84 803.314 199.765C804.476 199.74 804.524 199.726 805.318 198.927C810.422 193.786 815.315 182.643 817.313 175.643C818.4 171.833 819.108 167.447 820.63 163.82C821.072 162.767 821.209 162.725 822.199 162.278C823.718 163.601 823.769 165.476 823.895 167.41C824.616 178.478 823.247 196.508 819.202 206.805C826.958 210.705 846.011 219.44 851.292 225.551C851.351 226.244 851.532 226.517 851.079 227.119C849.156 229.673 843.565 229.793 840.577 230.159C849.218 247.024 866.351 267.632 878.702 282.546C884.806 289.917 905.503 311.116 907.937 318.695C910.349 326.207 908.059 334.501 905.748 341.719C903.894 347.509 901.599 353.918 895.93 357.005C889.576 360.465 878.456 359.175 871.435 358.394L870.862 357.977C865.663 354.124 863.754 348.483 860.18 343.352C856.914 338.664 852.098 335.011 847.244 332.101C823.699 317.985 808.23 331.674 783.931 314.541Q781.719 316.539 779.693 318.728Q777.668 320.916 775.846 323.276Q774.025 325.636 772.421 328.149Q770.817 330.663 769.444 333.309Q764.818 342.501 761.181 352.128C753.715 372.365 747.913 393.351 741.44 413.923C739.656 419.594 732.963 437.217 732.923 441.96C732.884 446.415 735.382 452.284 736.596 456.616C741.01 472.378 749.046 497.51 746.478 513.388C745.673 518.37 743.673 522.608 741.017 526.849C760.113 545.117 780.113 562.505 799.555 580.412C807.778 587.985 820.442 597.964 826.517 607.225C828.675 610.514 829.464 614.709 829.565 618.593Q829.628 621.121 829.366 623.637Q829.104 626.152 828.522 628.613C826.939 635.062 824.371 641.398 822.229 647.685Q818.758 658.134 815.673 668.704L803.536 709.539C801.211 717.404 799.129 725.544 796.304 733.241C795.867 734.428 795.147 735.374 794.25 736.259C791.027 739.441 786.507 740.994 782.786 743.494C780.774 744.845 779.035 746.682 777.313 748.383Q771.863 753.704 766.913 759.493C760.797 766.791 756.114 773.881 747.708 778.811C739.285 771.874 735.438 751.285 734.362 740.619C734.011 737.137 733.944 732.413 736.324 729.55C739.994 725.135 747.132 724.003 752.563 723.785C757.883 723.571 763.297 724.074 768.612 724.379L775.057 719.825C778.969 711.954 781.714 699.424 784.354 690.704C788.073 678.418 794.352 661.126 796.335 649.007C797.001 644.931 797.417 639.168 795.954 635.241C794.878 632.353 792.684 628.956 790.213 627.137C781.106 620.433 761.739 612.64 750.622 607.39C727.293 596.372 703.631 585.217 680.981 572.877C677.935 574.038 674.848 575.139 671.843 576.398C675.651 604.211 680.239 632.086 685.072 659.743C687.135 671.553 692.154 691.943 692.091 703.278C692.071 706.912 691.002 710.696 688.75 713.599C684.597 718.952 679.372 723.841 674.69 728.755Q658.564 745.385 642.949 762.494C637.803 768.233 632.523 773.87 628.147 780.235C625.141 784.607 622.279 789.947 618.095 793.288C611.304 798.713 600.697 799.988 592.946 804.165C587.803 806.936 583.998 811.28 579.505 814.905C573.443 819.796 564.701 823.871 557.427 826.639C551.41 815.239 550.065 794.792 553.889 782.596C554.726 779.927 556.184 777.407 558.75 776.092C567.587 771.564 584.221 784.266 597.336 778.87C601.5 777.157 602.15 771.668 604.823 768.488C615.545 755.735 651.769 721.742 655.707 709.705C656.05 708.657 656.281 707.57 656.504 706.492C652.969 694.04 645.296 681.679 639.511 670.076C627.652 646.293 615.502 622.671 604.628 598.414C546.826 602.298 495.893 597.836 439.86 582.862C439.28 590.71 438.702 598.609 437.198 606.346C432.713 629.423 421.751 656.363 412.835 678.305C407.758 690.801 401.961 702.267 399.145 715.583Q417.074 737.062 434.383 759.044C438.511 764.267 442.398 769.701 446.601 774.856C453.35 783.133 461.502 790.598 467.865 799.079C472.879 805.762 473.989 814.638 479.074 821.181C482.522 825.618 487.257 828.563 491.815 831.725C500.84 837.986 506.502 845.574 511.667 855.207C513.427 858.492 515.72 862.236 515.401 866.053C514.381 866.914 512.916 866.888 511.598 867.024C500.659 868.153 489.511 868.462 478.527 869.087C474.864 869.295 470.806 870.171 467.193 870.006C465.626 869.935 464.296 869.324 463.343 868.049C461.177 865.155 461.333 857.719 461.008 854.122C460.715 852.039 460.799 849.923 460.8 847.823C461.584 843.388 464.374 838.406 463.551 833.874C461.579 823.023 447.441 823.905 441.468 816.714C436.924 811.244 437.821 802.963 433.585 797.069C426.725 787.523 418.413 778.641 410.755 769.711C391.374 747.109 379.39 731.64 354.839 713.732C364.282 692.047 365.369 670.982 356.683 648.838C349.903 655.833 342.574 662.414 335.493 669.108C315.457 688.052 294.884 706.557 275.816 726.487C273.152 736.045 272.251 746.591 270.911 756.44Q268.907 771.019 267.514 785.668Q266.121 800.318 265.343 815.013Q264.564 829.708 264.401 844.423Q264.237 859.137 264.69 873.846Q268.22 877.408 271.411 881.276Q274.602 885.145 277.426 889.289Q280.251 893.432 282.686 897.816Q285.121 902.2 287.146 906.788C288.006 908.727 288.959 910.628 288.15 912.697C282.295 913.689 275.552 913.292 269.575 913.446C258.527 913.73 247.427 914.241 236.377 914.066C234.871 897.983 237.486 886.573 247.387 873.638C244.771 861.577 238.718 857.8 229.706 850.629C232.426 844.122 235.674 838.12 237.521 831.247C240.417 820.475 241.208 809.103 241.965 798.011C243.898 769.664 243.363 742.125 239.144 714.002C266.758 683.158 274.072 646.193 267.877 606.26C265.166 588.785 261.068 571.825 261.361 554.017Q261.391 550.815 261.566 547.617Q261.741 544.419 262.061 541.233Q262.382 538.046 262.846 534.878Q263.31 531.709 263.918 528.565Q264.525 525.42 265.275 522.307Q266.024 519.193 266.914 516.117Q267.805 513.041 268.833 510.008Q269.862 506.975 271.027 503.992C272.818 499.444 275.123 495.123 277.048 490.635C281.175 481.01 284.575 472.929 289.975 463.878C251.761 491.406 241.535 524.743 225.394 566.737C219.322 582.534 211.759 599.826 200.296 612.496C199.293 613.605 198.512 614.378 196.978 614.44C195.534 612.13 198.078 608.771 198.935 606.41C202.461 596.696 203.526 585.608 203.586 575.345L203.459 571.559L203.125 572.287C199.822 579.597 197.724 587.109 193.925 594.304C183.688 613.692 169.034 630.738 150.549 642.627C148.051 644.234 145.114 646.721 142.339 647.724C141.51 648.024 141.108 648.087 140.264 647.922L139.805 647.093C140.835 644.114 146.047 639.281 148.123 636.303C151.861 630.943 154.873 625.35 157.361 619.317C137.084 639.168 118.953 652.103 89.3005 651.688C81.6358 651.581 63.252 650.67 57.2164 645.906L56.8405 644.849C58.2042 642.982 66.8684 640.65 69.4928 639.465Q76.0096 636.502 82.1019 632.743C91.9101 626.643 100.595 618.38 108.12 609.658C122.205 593.331 133.55 574.716 143.44 555.617C152.151 538.795 160.001 521.556 168.865 504.811C174.524 494.121 180.073 483.284 187.27 473.519C198.754 457.937 216.541 444.668 235.968 441.553C258.817 437.89 280.454 447.709 303.237 447.516C309.319 441.937 315.274 436.056 321.798 430.998C340.908 416.181 363.686 408.63 387.888 409.733C405.35 410.53 422.852 413.511 440.215 415.531Q456.467 417.399 472.823 417.751C484.398 418.067 495.853 417.943 507.196 415.294C518.668 412.614 529.7 407.74 540.145 402.35C547.403 398.604 554.708 394.587 561.523 390.079C566.228 386.966 570.654 383.428 575.496 380.521C583.445 375.748 591.847 371.977 600.36 368.344C597.781 364.793 596.156 362.053 596.82 357.458C598.574 345.319 621.561 327.593 630.338 318.489C627.609 315.498 624.807 313.032 625.047 308.657C625.496 300.473 637.54 291.406 643.377 286.491C651.577 279.585 660.146 272.791 668.882 266.573C667.209 265.287 664.269 263.499 663.946 261.249C663.555 258.523 666.438 255.394 668.178 253.666C675.551 246.351 693.25 235.709 702.509 230.107C700.604 228.874 698.055 227.615 696.743 225.749C696.445 223.723 696.699 222.47 697.936 220.812C707.55 207.927 746.106 199.245 761.855 197.455Q772.258 196.243 782.731 196.257Z"/>
	<path fill="#372E63" d="M460.8 847.823C461.813 848.025 462.888 848.155 463.846 848.542L463.802 851.94L463.473 852.129C462.699 853.157 462.165 853.563 461.008 854.122C460.715 852.039 460.799 849.923 460.8 847.823Z"/>
	<path fill="#ECA2A1" d="M820.761 174.773C821.586 182.204 818.713 198.515 816 205.295C814.307 204.53 812.577 203.834 810.867 203.108C809.639 202.635 808.649 202.158 807.533 201.438C807.808 199.375 811.363 195.988 812.525 193.997C815.976 188.085 818.356 181.176 820.761 174.773Z"/>
	<path fill="#ECA2A1" d="M560.867 778.057C563.264 777.859 567.103 777.593 569.313 778.59C570.496 779.123 570.759 779.404 571.068 780.636C571.755 783.381 571.593 786.454 572.032 789.27C573.266 797.203 575.438 804.451 578.707 811.767Q573.322 815.274 567.739 818.457C564.579 820.054 561.35 821.398 558.069 822.726C555.097 812.847 554.389 800.839 555.425 790.6C555.919 785.719 556.911 781.273 560.867 778.057Z"/>
	<path fill="#ECA2A1" d="M753.886 363.199C753.082 357.413 756.662 343.184 757.571 336.256L762.46 295.957C763.522 287.253 764.358 278.247 766.497 269.737L766.572 270.184C767.195 274.089 767.278 278.058 767.811 281.979C769.492 294.328 774.442 302.656 781.349 312.758C770.971 322.995 763.838 336.064 758.766 349.635C757.124 354.027 755.949 359.054 753.886 363.199Z"/>
	<path fill="#ECA2A1" d="M266.764 888.591L272.538 888.141C277.985 894.3 281.634 902.496 285.189 909.873C275.75 910.302 266.276 910.411 256.829 910.666C250.956 911.135 244.951 911.104 239.056 911.282L239.038 900.483C247.736 895.027 256.695 890.785 266.764 888.591Z"/>
	<path fill="#ECA2A1" d="M749.98 727.213L751.258 727.119C752.612 728.429 753.222 735.26 753.793 737.484C755.808 745.342 758.847 752.453 763.35 759.19C759.776 764.606 754.827 770.388 749.862 774.539C748.872 774.691 748.406 774.558 747.482 774.187C742.046 768.792 739.514 753.863 738.304 746.432C737.722 742.856 735.945 734.403 738.386 731.323C741.141 727.847 745.916 727.596 749.98 727.213Z"/>
	<path fill="#ECA2A1" d="M463.802 851.94C475.279 848.031 487.856 844.28 499.915 842.917C505.296 848.598 508.95 856.599 512.54 863.518C497.297 865.648 480.996 865.746 465.619 866.055C464.497 861.598 464.2 856.692 463.473 852.129L463.802 851.94Z"/>
	<path fill="#ECA2A1" d="M797.16 165.832C800.769 169.532 796.929 190.637 798.236 196.858C798.728 199.2 799.987 200.278 801.906 201.592C807.245 205.248 813.962 207.782 819.793 210.621C829.021 215.115 838.171 220.098 846.623 225.933C842.857 226.801 838.965 227.017 835.122 227.347Q832.627 227.417 830.136 227.271Q827.644 227.124 825.175 226.762Q822.706 226.399 820.277 225.824Q817.849 225.249 815.479 224.465C806.624 221.543 791.508 212.921 787.391 204.27C786.453 202.299 786.118 200.28 786.355 198.114C787.232 190.083 794.336 174.392 797.16 165.832Z"/>
	<path fill="#ECA2A1" d="M730.539 447.267C730.624 447.406 730.718 447.54 730.796 447.684C734.922 455.345 743.189 494.859 743.855 504.48C744.146 508.681 744.026 512.835 742.701 516.877C735.557 538.668 698.276 560.383 678.132 570.478C675.948 571.55 673.972 572.315 671.548 572.666L672.91 570.956L672.64 570.253C672.804 570.217 672.975 570.205 673.131 570.145C674.927 569.455 678.719 564.315 680.269 562.653C693.101 548.904 714.657 527.073 722.211 510.189C727.344 498.717 723.699 489.567 719.603 478.68C721.347 470.289 726.531 454.842 730.539 447.267Z"/>
	<path fill="#ECA2A1" d="M439.935 557.647C440.081 557.672 440.228 557.694 440.374 557.721C449.368 559.331 458.062 563.102 467.037 565.044C496.849 571.494 541.077 576.562 571.116 570.661C579.376 569.038 586.695 566.482 594.106 562.518C595.975 573.77 599.399 584.636 603.043 595.417C551.642 600.286 489.609 594.66 440.229 579.596C440.388 572.243 440.555 564.984 439.935 557.647Z"/>
	<path fill="#ECA2A1" d="M773.509 199.708C776.014 199.345 778.77 199.422 781.31 199.316C764.084 209.202 749.936 222.374 735.255 235.566C701.461 265.931 670.11 298.713 638.791 331.591C633.503 337.143 609.211 363.926 606.278 365.569C604.842 366.373 603.944 366.255 602.406 365.837C601.392 364.949 600.652 364.21 600.152 362.931C599.02 360.033 599.759 357.004 600.841 354.234C610.473 339.184 624.357 330.975 635.046 318.416C633.546 316.859 631.822 315.531 630.321 313.971C628.831 312.422 627.674 310.643 627.871 308.405C628.73 298.624 665.578 274.116 673.747 266.445C673.895 266.305 674.041 266.162 674.188 266.021C671.6 264.158 668.971 262.688 666.566 260.54C675.869 248.755 696.812 237.62 710.113 229.891C707.753 228.384 701.089 226.458 699.95 224.306C700.115 223.4 700.337 222.938 700.914 222.19C702.954 219.541 707.375 217.147 710.31 215.571C729.54 205.244 752.02 201.563 773.509 199.708Z"/>
	<path fill="#ECA2A1" d="M739.153 529.524Q739.893 530.157 740.626 530.798C752.8 541.429 764.37 552.733 776.387 563.539C788.49 574.422 815.442 596.858 823.782 609.067C825.723 611.909 826.365 614.839 826.533 618.25C826.717 621.985 826.117 626.026 825.177 629.633C823.89 634.574 821.928 639.437 820.316 644.291Q815.96 657.568 811.799 670.907L798.09 716.941C796.666 721.643 795.097 729.494 792.738 733.552C791.451 735.766 787.815 737.131 785.646 738.293C777.661 742.572 770.717 750.46 764.534 757.066C759.598 748.03 755.964 737.85 754.622 727.626L754.954 726.966C758.759 725.524 765.315 728.049 770.207 726.567C773.586 725.544 776.53 723.349 778.072 720.131C782.317 711.273 784.945 699.139 787.843 689.528C791.542 677.26 797.118 662.419 799.055 649.98C799.819 645.065 800.211 639.056 798.497 634.305C797.138 630.538 794.307 626.549 791.053 624.193C782.819 618.231 763.247 610.039 753.035 605.129Q718.263 588.378 683.683 571.233C704.231 559.937 723.778 547.561 739.153 529.524Z"/>
	<path fill="#ECA2A1" d="M276.84 497.836C277.9 501.852 277.544 506.773 278.09 510.958Q279.088 518.304 280.944 525.482Q282.799 532.66 285.487 539.569C301.447 580.926 339.014 605.368 355.477 645.549Q334.493 665.777 313.185 685.663C299.524 698.449 285.458 711.299 272.793 725.062Q269.756 741.494 267.522 758.054Q265.288 774.615 263.862 791.264Q262.437 807.914 261.822 824.613Q261.208 841.312 261.407 858.021C261.425 861.604 260.741 873.42 262.312 875.995Q266.615 880.26 270.786 884.654C259.05 887.132 249.129 890.793 238.764 896.821C241.416 888.157 245.745 881.41 250.795 873.977C247.151 860.562 243.781 857.657 233.129 849.795C236.197 843.809 238.761 837.765 240.501 831.254C243.174 821.251 244.063 810.812 244.912 800.525C247.279 771.838 246.613 744.144 242.769 715.637C245.105 711.829 247.975 708.241 250.516 704.556C256.244 696.249 261.247 687.662 264.941 678.243C275.348 651.707 274.57 626.113 269.767 598.619C267.8 587.361 265.605 576.184 264.8 564.763Q264.455 559.493 264.506 554.212Q264.556 548.93 265.003 543.668Q265.45 538.405 266.29 533.191Q267.13 527.977 268.359 522.84C270.384 514.241 272.881 505.758 276.84 497.836Z"/>
	<path fill="#ECA2A1" d="M63.3562 645.149C116.696 625.824 141.988 565.346 165.398 518.299C172.834 503.356 180.15 487.533 190.469 474.336C201.061 460.789 215.229 449.726 232.131 445.565C255.563 439.796 277.559 450.523 300.8 450.569C295.006 458.179 287.54 461.974 280.095 467.596C268.559 476.309 258.365 488.392 250.86 500.667C241.448 516.06 234.658 533.856 228.278 550.667C221.585 568.306 214.537 590.114 202.414 604.758C204.552 594.984 206.484 585.454 206.126 575.377L205.17 578.163L204.745 578.324L203.586 575.345L203.459 571.559C202.099 570.822 201.667 569.483 201.202 568.118C195.475 592.188 174.69 624.18 153.159 637.458Q151.388 638.538 149.565 639.527C153.214 633.73 163.993 617.8 162.628 611.154C162.482 610.443 162.119 610.475 161.537 610.168C155.052 616.146 149.449 622.936 142.846 628.838C127.163 642.856 106.054 649.781 85.1431 648.892C77.7979 648.579 70.3379 647.496 63.3562 645.149Z"/>
	<path fill="#372E63" d="M201.202 568.118C201.743 565.994 202.202 564.524 203.524 562.759L204.386 562.371C205.89 563.798 206.027 569.461 206.099 571.64Q206.149 573.508 206.126 575.377L205.17 578.163L204.745 578.324L203.586 575.345L203.459 571.559C202.099 570.822 201.667 569.483 201.202 568.118Z"/>
	<path fill="#FEFEFE" d="M781.809 202.373Q783.323 205.081 785.234 207.525Q787.145 209.97 789.408 212.092C802.641 224.746 818.631 230.851 836.794 230.4C847.707 249.934 864.968 271.286 879.598 288.327C886.779 296.692 898.443 307.429 903.31 316.768C907.371 324.562 905.245 333.994 902.572 341.89C900.523 347.942 898.299 352.45 892.361 355.355C885.69 355.85 878.91 355.554 872.228 355.454C868.252 351.862 866.297 347.133 863.455 342.704C860.099 337.474 855.417 333.653 850.25 330.29C831.632 318.175 822.105 324.586 802.987 320.38C792.941 318.169 785.666 313.388 780.103 304.659C760.761 279.375 775.525 245.46 772.457 239.827L771.515 239.95C770.538 240.642 769.895 241.354 769.194 242.331C763.548 250.207 756.55 263.841 752.364 272.83C736.486 306.922 720.642 347.909 710.605 384.142C709.142 389.426 706.177 397.463 707.099 402.786L707.911 403.307C709.681 402.78 710.012 400.961 710.459 399.325C711.361 396.026 711.514 392.555 712.438 389.233C719.666 363.265 728.744 338.321 738.69 313.304C747.457 291.252 756.38 269.492 768.878 249.233C767.893 256.066 766.954 262.845 766.497 269.737C764.358 278.247 763.522 287.253 762.46 295.957L757.571 336.256C756.662 343.184 753.082 357.413 753.886 363.199C751.868 370.92 749.12 378.428 746.75 386.044Q738.085 414.19 728.826 442.146C725.279 452.712 721.264 463.085 717.92 473.725C704.248 445.786 689.401 416.836 665.017 396.597C660.609 392.938 655.523 388.855 650.011 387.047C648.954 386.701 648.197 386.503 647.081 386.691L646.527 387.502C647.917 390.725 655.477 393.329 658.507 395.536C663.447 399.135 668.215 403.452 672.433 407.856C690.739 426.969 704.463 451.633 714.901 475.831C717.38 481.578 720.332 487.832 721.3 494.044C721.938 498.134 721.694 502.749 720.254 506.654C712.644 527.285 681.81 554.676 667.206 572.597C669.538 580.466 670.437 589.017 671.731 597.113L678.188 637.459Q681.213 656.277 684.639 675.026C686.049 682.774 687.854 690.654 688.77 698.469C689.123 701.48 689.823 705.725 688.27 708.427C683.205 717.237 672.959 725.981 665.79 733.408C656.432 743.103 647.166 752.808 638.27 762.935C634.887 766.786 631.309 770.573 628.208 774.654C624.094 780.068 620.374 787.389 614.998 791.584C610.625 794.997 603.592 796.308 598.448 798.392C591.967 801.017 586.114 804.568 580.624 808.878C576.929 799.726 575.038 790.563 574.101 780.754C582.235 783.785 592.103 784.203 600.339 781.175C603.787 777.581 605.295 772.817 608.482 769.095C617.262 758.844 659.446 718.645 659.322 708.319C659.29 705.687 658.664 703.191 657.733 700.744C654.356 691.865 649.488 683.15 645.327 674.601Q635.165 653.645 624.683 632.848C618.416 620.367 611.969 607.939 606.637 595.019C602.405 584.766 599.302 573.448 597.394 562.544C595.226 550.164 594.221 537.479 592.591 525.005Q589.181 498.487 584.034 472.251C583.323 468.511 583.096 461.933 580.825 458.922L580.351 458.959C579.587 460.351 579.263 461.616 579.383 463.205C579.637 466.576 580.578 470.144 581.167 473.482Q583.416 485.85 585.453 498.255C588.781 519.634 591.17 541.095 594.106 562.518C586.695 566.482 579.376 569.038 571.116 570.661C541.077 576.562 496.849 571.494 467.037 565.044C458.062 563.102 449.368 559.331 440.374 557.721C440.228 557.694 440.081 557.672 439.935 557.647C437.583 548.034 433.124 538.684 428.963 529.726C425.973 523.288 396.77 466.535 392.917 463.714L391.738 463.745C391.135 464.489 391.03 464.295 391.115 465.134C391.465 468.566 395.846 474.191 397.63 477.265Q411.849 502.191 424.485 527.955C427.798 534.857 431.358 541.814 434.022 548.991C439.739 564.392 437.23 592.364 433.592 608.297C428.565 630.313 418.36 656.756 409.799 677.8C404.668 690.413 397.547 702.446 396.025 716.185C400.836 723.738 407.558 730.534 413.199 737.51C424.352 751.3 434.99 765.545 446.293 779.206C452.228 786.379 459.237 792.964 464.839 800.338C470.687 808.036 471.947 818.567 478.517 825.74C483.758 831.462 491.693 834.124 497.385 839.433C490.933 840.968 484.531 842.569 478.167 844.437C473.511 845.804 468.603 847.687 463.846 848.542C464.196 843.213 467.759 837.945 466.465 832.55C463.493 820.152 450.235 822.718 443.94 814.762C439.67 809.364 440.124 801.449 436.198 795.61C429.385 785.477 420.335 776.182 412.38 766.93C396.544 748.512 380.354 725.766 359.091 713.26C360.679 707.115 362.857 701.205 364.098 694.954C366.885 680.92 365.725 666.7 361.333 653.13C350.056 618.28 322.739 595.512 302.948 566.015C289.091 545.362 276.207 515.12 281.4 489.721C285.653 468.914 306.499 447.089 322.896 434.358C337.25 423.213 353.074 415.823 371.196 413.513C385.03 411.75 399.227 413.7 412.985 415.358C451.113 419.953 491.948 427.246 528.517 411.559C539.351 406.911 550.214 401.129 560.115 394.745C567.942 389.699 575.241 384.048 583.443 379.57C589.999 375.99 603.828 371.649 608.491 367.93C612.46 364.764 615.778 360.302 619.326 356.649L649.805 324.723Q674.806 298.244 700.751 272.691C725.969 247.51 752.111 222.218 781.809 202.373Z"/>
	<path fill="#443965" d="M827.539 252.425C828.237 252.418 828.991 252.419 829.676 252.545C831.538 252.887 833.21 254.377 834.226 255.926C835.24 257.472 835.495 259.56 834.977 261.33C834.312 263.599 832.486 264.338 830.54 265.342C829.726 265.441 828.968 265.524 828.151 265.359C826.57 265.039 825.026 264.077 824.099 262.751C822.982 261.155 822.757 259.052 823.229 257.189C823.861 254.689 825.385 253.62 827.539 252.425Z"/>
	<path fill="#443965" d="M889.58 319.462C891.147 319.35 892.57 319.164 893.961 320.077C895.894 321.346 896.853 323.485 897.28 325.691C898.198 330.424 897.427 335.747 894.726 339.739C893.516 339.681 892.861 339.567 891.909 338.77C888.762 336.133 887.432 331.546 887.12 327.614C886.851 324.23 887.38 322.044 889.58 319.462Z"/>
	<path fill="#FEFEFE" d="M891.325 322.21L892.582 322.657C893.309 323.36 893.749 323.95 894.061 324.908C895.151 328.262 894.978 333.563 893.402 336.75C892.165 334.645 891.259 332.5 890.693 330.126C890.033 327.359 889.812 324.696 891.325 322.21Z"/>
	<path fill="#ECA2A1" d="M780.103 304.659L780.901 304.998C787.342 307.776 793.291 311.707 800.457 312.427C806.452 313.029 812.461 312.529 818.343 311.283C825.771 309.71 836.261 304.443 843.683 306.144C848.935 307.348 854.19 311.625 858.358 314.839C864.459 319.543 869.768 324.913 872.582 332.225Q873.553 334.81 874.395 337.44L875.488 339.022C882.03 343.793 887.757 348.643 892.361 355.355C885.69 355.85 878.91 355.554 872.228 355.454C868.252 351.862 866.297 347.133 863.455 342.704C860.099 337.474 855.417 333.653 850.25 330.29C831.632 318.175 822.105 324.586 802.987 320.38C792.941 318.169 785.666 313.388 780.103 304.659Z"/>
	<path fill="#372E63" d="M874.395 337.44L875.488 339.022C877.112 344.606 880.165 345.605 884.255 349.072C885.143 349.824 885.851 350.427 885.942 351.62C885.344 351.789 884.88 351.839 884.269 351.68C880.591 350.723 876.113 347.274 874.35 343.884C873.213 341.696 873.682 339.67 874.395 337.44Z"/>
</svg>
