<?xml version="1.0" encoding="utf-8" ?>
<svg xmlns="http://www.w3.org/2000/svg" xmlns:xlink="http://www.w3.org/1999/xlink" width="1024" height="1024">
	<path fill="#FEFEFE" d="M0 0L1024 0L1024 1024L0 1024L0 0Z"/>
	<path fill="#393B48" d="M482.94 60.7197C490.224 60.0578 498.017 60.2595 505.342 60.3096Q515.741 60.3327 526.124 60.8895Q536.508 61.4464 546.849 62.5354Q557.19 63.6245 567.462 65.2429Q577.734 66.8613 587.909 69.0048C707.308 93.474 804.61 164.042 871.213 265.193C937.812 366.339 965.168 494.333 940.548 613.297Q939.423 618.472 938.171 623.618Q936.919 628.764 935.542 633.877Q934.164 638.99 932.66 644.068Q931.157 649.146 929.529 654.186Q927.902 659.226 926.151 664.224Q924.4 669.221 922.526 674.175Q920.653 679.128 918.658 684.034Q916.663 688.94 914.549 693.795Q912.434 698.65 910.2 703.452Q907.967 708.254 905.616 713Q903.265 717.745 900.798 722.431Q898.332 727.117 895.75 731.742Q893.169 736.366 890.475 740.925Q887.78 745.484 884.975 749.976Q882.169 754.468 879.254 758.889Q876.339 763.31 873.316 767.659Q870.293 772.007 867.164 776.28Q864.035 780.552 860.802 784.747Q857.569 788.941 854.234 793.055Q850.899 797.168 847.463 801.199Q844.028 805.229 840.494 809.174Q836.961 813.119 833.331 816.975Q829.702 820.832 825.979 824.598Q822.256 828.364 818.441 832.038Q814.627 835.711 810.723 839.29Q806.819 842.869 802.828 846.35Q798.838 849.832 794.763 853.214Q790.688 856.596 786.531 859.878Q782.374 863.159 778.138 866.337Q773.901 869.515 769.588 872.587Q765.275 875.66 760.887 878.626Q756.5 881.592 752.041 884.449C745.234 888.887 738.038 892.809 730.991 896.855Q716.155 905.571 700.698 913.132Q685.242 920.694 669.255 927.057C586.338 959.981 490.956 970.437 403.378 952.289C363.172 942.101 322.328 927.32 289.793 900.785Q260.995 909.879 231.773 917.503Q175.956 930.982 119.21 939.761C112.425 940.874 93.6479 944.748 87.7325 944.034C84.7596 943.675 82.0053 941.216 80.3049 938.894C78.3971 936.289 77.3682 932.406 78.0296 929.205C79.5563 921.818 94.3104 915.714 100.512 911.826C140.758 886.592 171.895 850.805 182.62 803.707Q176.427 798.661 170.5 793.305C106.742 735.031 79.5384 645.644 75.8 561.506C70.031 431.668 120.699 286.94 208.606 191.029C220.822 177.701 233.462 164.863 247.182 153.075Q250.239 150.445 253.351 147.881Q256.462 145.316 259.627 142.818Q262.792 140.319 266.009 137.888Q269.226 135.457 272.494 133.094Q275.761 130.731 279.078 128.437Q282.394 126.144 285.758 123.921Q289.122 121.697 292.532 119.545Q295.943 117.394 299.397 115.314Q302.852 113.234 306.35 111.228Q309.847 109.222 313.387 107.289Q316.926 105.357 320.505 103.5Q324.084 101.642 327.701 99.8609Q331.319 98.0793 334.973 96.3744Q338.627 94.6695 342.316 93.0419Q346.006 91.4143 349.728 89.8648Q353.451 88.3152 357.206 86.8444Q360.96 85.3736 364.745 83.9823Q368.529 82.5909 372.342 81.2795Q376.156 79.9681 379.996 78.7374Q383.835 77.5066 387.7 76.357Q391.565 75.2073 395.454 74.1394Q399.342 73.0714 403.252 72.0856Q407.162 71.0997 411.092 70.1965Q415.022 69.2932 418.97 68.4729Q422.918 67.6526 426.882 66.9156Q430.846 66.1786 434.826 65.5253Q438.805 64.872 442.796 64.3026Q446.788 63.7333 450.791 63.2481Q454.794 62.7629 458.807 62.3622Q462.819 61.9614 466.839 61.6453Q470.859 61.3291 474.885 61.0977Q478.91 60.8663 482.94 60.7197Z"/>
	<path fill="#FEFEFE" d="M487.617 71.25C498.513 70.4882 509.711 70.798 520.617 71.3295C637.624 77.0315 741.126 127.86 819.547 214.589C897.743 301.07 944.904 425.806 938.993 542.699C934.846 624.7 910.898 697.254 863.339 764.2Q856.658 773.638 849.477 782.702Q842.296 791.766 834.636 800.429Q826.976 809.091 818.859 817.328Q810.743 825.564 802.193 833.35C712.901 913.931 588.461 956.611 468.465 950.304C394.792 946.431 317.755 922.746 267.124 866.44C271.541 864.741 290.916 856.446 292.656 853.053C292.584 851.745 292.602 851.687 291.762 850.692C288.647 850.301 278.943 856.344 275.729 858.022Q270.151 860.857 264.371 863.253C259.483 858.011 254.615 852.536 250.418 846.723C247.542 842.739 245.214 838.105 241.917 834.477C240.695 833.133 239.592 832.142 237.785 831.724L236.951 832.291C236.931 832.502 236.893 832.712 236.892 832.924C236.856 837.99 255.701 859.942 259.906 864.818C239.137 873.914 218.443 880.622 196.561 886.504C191.016 887.994 185.466 889.591 179.878 890.905C175.179 892.01 169.257 892.191 164.969 894.321C163.823 894.891 163.401 895.283 163.003 896.478C163.582 897.517 163.623 897.603 164.686 898.122C170.679 897.947 177.493 895.61 183.323 894.195C201.022 889.897 218.712 885.183 235.905 879.149C244.964 875.969 253.852 872.205 262.752 868.605C270.607 875.844 278.11 883.476 285.924 890.768C270.125 896.613 254.145 901.057 237.877 905.359C197.311 916.085 156.136 923.681 114.764 930.459C108.933 931.415 93.8709 935.025 88.8287 934.328C88.067 934.223 88.0605 933.832 87.6698 933.238L87.8027 932.569C88.4727 929.198 98.0599 924.877 101.092 923.144C118.541 913.17 135.208 899.658 148.983 885.011C167.406 865.422 181.617 843.08 189.239 817.166C190.699 812.203 192.715 806.588 192.423 801.375C192.147 796.467 181.249 789.916 177.529 786.516C163.02 773.257 150.65 757.729 139.868 741.371C135.153 734.217 130.384 727.007 126.314 719.458C100.301 671.205 88.0176 615.2 85.769 560.738C80.5614 434.605 131.498 289.863 217.293 196.891C289.871 118.242 380.387 75.5857 487.617 71.25Z"/>
	<path fill="#393B48" d="M366.165 120.463C367.644 120.372 368.571 120.527 369.708 121.498C369.653 122.397 369.435 122.927 368.694 123.503C365.106 126.287 359.626 127.903 355.469 129.794Q346.653 133.904 337.989 138.324C278.905 168.869 225.796 222.22 192.381 279.366C187.034 288.509 181.807 297.914 177.27 307.489C173.486 315.473 170.22 324.078 165.779 331.698L165.453 332.245L164.678 332.748C163.384 332.521 163.304 332.646 162.522 331.618C162.538 329.221 163.382 327.169 164.253 324.973C168.755 313.615 174.97 302.644 180.717 291.857Q182.58 288.29 184.519 284.763Q186.458 281.236 188.472 277.752Q190.486 274.268 192.575 270.828Q194.663 267.388 196.825 263.993Q198.987 260.599 201.221 257.252Q203.456 253.904 205.761 250.606Q208.067 247.307 210.443 244.059Q212.819 240.811 215.264 237.614Q217.709 234.418 220.223 231.274Q222.736 228.131 225.316 225.042Q227.896 221.954 230.542 218.921Q233.188 215.889 235.898 212.914Q238.608 209.939 241.382 207.023Q244.155 204.106 246.991 201.251Q249.826 198.395 252.723 195.6Q255.619 192.806 258.574 190.074Q261.53 187.343 264.543 184.675Q267.557 182.008 270.627 179.406Q273.697 176.804 276.822 174.268Q279.947 171.732 283.126 169.264Q286.305 166.796 289.537 164.397Q292.768 161.998 296.05 159.669Q299.332 157.34 302.663 155.081Q305.994 152.823 309.373 150.637Q312.752 148.451 316.177 146.338Q319.602 144.225 323.072 142.186Q326.542 140.146 330.054 138.182Q333.567 136.218 337.121 134.33Q340.675 132.442 344.269 130.63Q347.862 128.819 351.494 127.085Q355.126 125.351 358.794 123.695Q362.462 122.039 366.165 120.463Z"/>
	<path fill="#393B48" d="M914.061 546.252C914.999 546.539 915.402 546.844 916.091 547.538C917.561 552.695 915.968 559.993 915.423 565.275Q914.68 572.369 913.678 579.431Q912.676 586.494 911.417 593.514Q910.157 600.535 908.642 607.505Q907.127 614.476 905.358 621.386Q903.59 628.296 901.57 635.137Q899.549 641.978 897.281 648.74Q895.012 655.503 892.498 662.178Q889.983 668.853 887.227 675.432Q883.309 684.726 878.92 693.806Q874.531 702.887 869.684 711.731Q864.836 720.576 859.542 729.16Q854.248 737.745 848.521 746.047C799.438 818.189 734.419 863.136 654.321 895.534C653.066 894.842 652.932 894.787 652.288 893.52C652.437 893.092 652.455 892.593 652.735 892.236C654.086 890.512 669.408 884.576 672.721 883.101C737.318 854.342 794.716 813.399 836.938 756.023C843.462 747.157 849.339 737.74 855.104 728.371C874.381 697.045 888.816 664.626 898.886 629.26Q903.683 612.308 906.889 594.985Q910.095 577.662 911.683 560.116C912.064 556.228 911.884 550.592 913.592 547.132C913.739 546.834 913.905 546.545 914.061 546.252Z"/>
	<path fill="#393B48" d="M615.376 148.034C616.793 148 618.153 148.099 619.402 148.826C627.839 153.733 648.631 182.475 658.362 191.499C659.44 189.116 660.575 187.031 662.022 184.844C672.523 179.879 692.767 175.832 704.505 176.06C712.102 176.208 720.135 177.708 727.576 179.25C735.031 180.794 741.08 182.977 745.438 189.652C746.191 199.855 743.552 212.222 742.3 222.459Q738.275 255.859 733.851 289.208C744.742 302.708 756.638 315.243 768.303 328.063Q782.728 344.119 796.949 360.356C802.465 366.544 815.41 379.432 818.9 385.989C820.017 388.089 819.504 390.833 818.848 392.992C814.116 398.769 776.611 416.708 767.019 421.634C766.249 436.482 766.507 451.406 766.499 466.272L766.505 532.57L766.434 606.167C766.355 621.481 765.92 636.828 766.245 652.138C777.575 656.793 833.831 673.557 837.614 679.026C838.272 679.976 838.189 680.932 837.891 682.006C837.222 684.419 834.667 686.329 832.688 687.629C827.669 690.929 822.005 693.435 816.836 696.522C789.358 712.933 760.965 727.854 732.984 743.385L641.495 794.156C633.901 798.357 626.218 802.418 618.674 806.704C613.171 809.83 607.775 813.265 602.127 816.113C595.211 819.599 586.919 822.758 579.071 822.581C565.013 822.265 537.652 812.98 522.928 808.888C500.512 802.657 477.82 796.966 455.696 789.763C441.374 785.337 426.796 781.75 412.425 777.459L263.086 732.479L215.447 718.228C207.438 715.825 199.009 713.759 191.218 710.775C189.382 710.071 187.639 708.905 186.365 707.399C184.772 705.516 183.792 702.424 184.407 699.972C185.012 697.556 188.736 695.235 190.704 694.061C198.266 689.55 207.394 686.323 215.461 682.745C233.671 674.668 252.036 666.874 270.168 658.635C270.688 649.32 270.196 639.742 270.193 630.395L270.214 573.757L269.998 384.073C263.56 389.257 253.098 398.447 245.726 401.354Q244.98 401.654 244.207 401.879Q243.435 402.105 242.644 402.253Q241.853 402.401 241.052 402.47Q240.25 402.54 239.446 402.531Q238.641 402.521 237.841 402.432Q237.042 402.344 236.255 402.177Q235.468 402.01 234.701 401.766Q233.934 401.523 233.195 401.205C228.812 399.272 226.151 395.082 224.638 390.699C223.234 386.632 223.751 382.718 225.771 378.941C227.646 375.434 230.638 372.938 233.688 370.493C239.293 366 245.223 361.859 250.95 357.518Q269.657 343.168 288.572 329.092Q321.548 304.47 354.24 279.473L397.956 246.77C404.493 241.856 410.998 235.596 418.097 231.64C424.795 227.908 432.609 225.463 439.716 222.514L485.826 203.13L581.204 162.537Q590.804 158.595 600.309 154.43C605.221 152.242 610.212 149.482 615.376 148.034Z"/>
	<path fill="#FEFEFE" d="M471.501 743.439C473.282 745.291 472.519 750.866 472.495 753.39C463.292 760.374 452.884 765.87 442.902 771.656L442.224 771.164C441.95 767.572 442.173 763.927 442.28 760.329C449.816 754.936 463.087 747.213 471.501 743.439Z"/>
	<path fill="#FEFEFE" d="M699.367 185.688C709.7 184.305 723.527 187.606 733.293 190.953C723.845 193.983 713.908 196.284 704.115 197.881C700.899 198.254 672.253 194.299 670.546 193.006L670.601 192.26C675.731 188.461 692.568 186.672 699.367 185.688Z"/>
	<path fill="#FEFEFE" d="M338.573 732.853C347.486 733.418 366.115 740.359 375.426 743.1L436.54 760.656L436.63 773.033C419.137 768.187 401.577 763.684 384.153 758.574Q361.765 751.826 339.575 744.451C338.967 740.573 338.615 736.779 338.573 732.853Z"/>
	<path fill="#FEFEFE" d="M669.424 203.376C678.289 204.827 690.916 205.206 699.039 207.872C699.324 218.325 698.969 228.863 698.879 239.321Q698.552 267.339 698.715 295.357C698.496 295.187 698.27 295.025 698.057 294.847C693.383 290.959 680.504 277.286 678.087 272.081C676.259 268.145 670.01 212.064 669.424 203.376Z"/>
	<path fill="#FEFEFE" d="M368.058 713.468C374.931 714.548 386.083 719.192 393.455 721.287L464.86 741.137C456.112 745.663 448.019 751.382 439.199 755.821C428.681 753.486 418.204 750.145 407.837 747.183C386.128 740.978 364.43 734.497 342.548 728.936C350.52 722.877 359.685 718.878 368.058 713.468Z"/>
	<path fill="#FEFEFE" d="M733.449 200.608C734.251 200.482 734.472 200.524 735.226 200.726C735.658 205.455 732.612 220.576 731.857 226.252C728.841 248.908 725.783 271.644 723.289 294.361C717.225 296.634 710.831 298.306 704.625 300.173L703.706 300.243C702.999 299.214 703.064 298.293 703.04 297.087C702.889 289.464 703.537 281.763 703.562 274.124Q703.446 240.954 703.747 207.787C713.525 205.094 723.585 203.01 733.449 200.608Z"/>
	<path fill="#FEFEFE" d="M377.098 489.573C377.387 489.554 377.677 489.531 377.967 489.516C387.037 489.058 430.391 503.055 441.896 506.369C450.738 508.917 460.043 510.937 468.694 514.003C470.643 514.694 472.325 515.682 473.824 517.118C476.723 519.892 477.175 523.714 477.505 527.544C478.15 535.02 477.696 542.865 477.681 550.374L477.654 594.901Q478.413 668.086 478.404 741.274L474.126 737.821L473.969 586.729L473.859 548.147C473.834 541.151 474.471 533.291 473.223 526.422C471.687 523.5 470.135 521.231 466.998 519.912C456.946 515.684 445.251 513.25 434.743 510.204C418.512 505.498 401.861 499.835 385.314 496.495C383.61 496.151 381.591 495.649 379.948 496.365C377.214 497.557 375.359 500.543 374.851 503.413C373.888 508.847 374.458 515.209 374.451 520.751L374.438 552.551L374.527 673.526C374.538 680.838 375.759 703.934 373.624 709.439L372.796 709.64C371.784 709.359 371.234 709.47 370.624 708.574C369.844 700.716 370.419 692.388 370.445 684.48L370.501 640.75Q370.179 585.171 370.437 529.595C370.482 521.107 369.049 503.525 371.213 496.109C372.269 492.491 373.832 491.259 377.098 489.573Z"/>
	<path fill="#FEFEFE" d="M269.899 669.991C273.725 672.96 275.163 682.359 281.306 686.776C286.284 690.355 294.801 691.928 300.747 693.8Q318.433 699.489 336.281 704.645C344.68 707.114 353.261 709.339 361.502 712.282C353.649 716.956 339.233 722.836 334.504 730.409C334.241 734.866 334.444 739.388 334.494 743.852L297.567 733.068C287.509 730.174 277.576 726.844 267.557 723.814L195.374 702.166C205.852 696.746 216.869 692.604 227.687 687.947C241.73 681.901 255.668 675.594 269.899 669.991Z"/>
	<path fill="#FEFEFE" d="M421.985 241.545C427.425 247.232 432.408 253.525 437.474 259.552L462.149 288.996L555.255 402.441L603.194 460.43C609.348 467.912 619.42 478.066 623.695 486.496C621.11 487.411 618.108 488.28 615.344 488.057C611.68 487.762 609.086 484.886 606.679 482.384C600.394 475.853 594.947 468.324 589.174 461.332L553.343 417.422C540.592 401.596 527.364 386.114 514.424 370.436L471.644 318.281C463.287 308.288 454.877 298.367 446.652 288.261C440.15 280.272 433.828 271.984 427.004 264.273C426.048 263.192 422.216 258.717 420.897 258.828C419.265 258.966 417.058 260.523 415.727 261.461C402.52 270.769 389.859 281.257 376.944 290.998L267.844 373.722C260.722 379.065 253.862 385.717 246.231 390.238C243.918 391.608 240.929 392.946 238.167 392.656C236.782 392.51 235.671 391.878 234.879 390.731C233.773 389.129 233.111 387.055 233.58 385.118C234.087 383.024 235.632 381.387 237.201 380.004C240.088 377.459 243.461 375.305 246.546 373.002L263.819 359.941L321.477 316.555L386.81 267.412C398.394 258.728 409.831 249.386 421.985 241.545Z"/>
	<path fill="#FEFEFE" d="M766.039 664.178C771.044 665.508 775.988 667.446 780.929 669.023Q802.221 675.76 823.296 683.151C813.252 687.993 803.783 694.284 794.007 699.666L677.266 763.377Q652.73 776.921 628.025 790.153C617.821 795.71 607.703 801.749 597.206 806.724C592.231 809.082 586.209 811.704 580.652 812.109C570.896 812.819 550.375 805.529 539.892 802.638Q517.155 796.155 494.281 790.173Q479.498 786.152 464.816 781.774C458.382 779.832 451.885 777.501 445.307 776.136C456.599 770.735 469.522 762.599 479.603 755.118C479.53 752.199 478.855 748.323 480.935 746.036C488.877 746.884 507.431 753.892 516.228 756.502C539.54 763.42 563.066 769.677 586.437 776.412C596.126 771.829 605.544 766.603 614.986 761.537C643.22 746.386 670.719 729.98 698.69 714.382C713.755 705.981 728.933 697.8 743.89 689.205C749.339 686.074 755.923 683.037 760.729 679.007C765.368 675.117 765.543 669.767 766.039 664.178Z"/>
	<path fill="#E57D6D" d="M380.966 500.398C381.644 500.431 381.734 500.421 382.511 500.545C391.983 502.054 403.926 506.394 413.403 509.066C429.795 513.69 446.666 517.729 462.782 523.169C464.309 523.685 467.037 524.388 467.978 525.725C470.159 534.506 469.041 546.814 469.046 555.979L469.032 605.464L469.365 693.843C469.409 707.704 469.702 721.647 469.386 735.496C469.371 736.155 469.231 736.579 468.917 737.152L467.888 737.134C457.949 734.437 448.135 731.259 438.197 728.533C418.315 723.081 398.315 717.985 378.712 711.586C379.629 695.491 379.021 679.049 379.025 662.925L378.613 556.598L378.785 522.091C378.838 516.242 378.5 509.965 379.221 504.167C379.408 502.666 380.096 501.599 380.966 500.398Z"/>
	<path fill="#393B48" d="M421.003 564.032C423.059 563.93 424.938 563.935 426.892 564.671C430.362 565.978 433.045 568.838 434.477 572.22C436.3 576.527 436.38 581.793 434.491 586.093C432.809 589.922 430.339 592.031 426.523 593.571C424.814 593.727 423.202 593.771 421.522 593.342C418.089 592.466 415.255 590.027 413.557 586.962Q413.143 586.202 412.807 585.403Q412.471 584.605 412.216 583.777Q411.962 582.949 411.793 582.1Q411.623 581.251 411.539 580.389Q411.456 579.527 411.459 578.661Q411.462 577.794 411.553 576.933Q411.643 576.072 411.819 575.224Q411.995 574.376 412.256 573.55C413.733 568.879 416.721 566.148 421.003 564.032Z"/>
	<path fill="#FEFEFE" d="M422.152 567.989C423.016 567.989 423.807 568.089 424.64 568.311C427.024 568.945 428.833 570.448 430.04 572.59C431.729 575.586 431.961 579.499 431.053 582.775C430.096 586.233 428.451 587.837 425.383 589.523C424.754 589.464 424.642 589.47 424.089 589.369C421.415 588.884 419.239 587.375 417.809 585.054C416.003 582.122 415.784 578.359 416.6 575.079C417.481 571.542 419.137 569.884 422.152 567.989Z"/>
	<path fill="#FEFEFE" d="M756.382 427.54C757.203 428.391 756.974 430.795 756.982 431.939L756.954 578.776C756.943 609.942 757.573 641.168 757.018 672.324C751.266 676.989 744.157 680.653 737.735 684.317L708.721 700.753L595.226 764.607L595.138 749.875L594.909 555.112C595.014 531.178 594.03 507.154 594.741 483.239C598.896 488.95 603.697 495.131 610.6 497.573C614.008 498.778 617.613 499.092 621.065 497.939C626.289 496.195 631.014 493.307 635.867 490.755Q647.998 484.421 660.054 477.947L717.353 447.803C730.287 440.985 743.063 433.575 756.382 427.54Z"/>
	<path fill="#393B48" d="M714.821 482.426C715.919 482.464 715.726 482.403 716.771 482.645C719.102 483.184 720.163 485.23 721.362 487.092C722.137 521.9 720.836 556.785 721.4 591.613C724.235 592.2 727.944 592.71 729.951 595C732.932 598.399 731.426 605.895 731.154 610.161C731.111 610.201 731.067 610.241 731.025 610.282C725.374 615.744 716.638 619.662 709.8 623.576Q690.147 634.932 670.186 645.739C667.656 646.852 664.608 647.064 661.855 646.979C659.713 646.913 657.519 645.99 656.124 644.326C653.712 641.447 654.013 636.41 654.525 632.888C655.434 626.636 657.707 625.549 662.537 621.965L662.483 509.486C680.109 500.784 697.307 491.329 714.821 482.426Z"/>
	<path fill="#FEFEFE" d="M659.525 633.718C662.144 634.369 664.82 634.759 667.481 635.203L667.435 642.372C664.661 642.46 661.955 642.096 659.205 641.779L659.525 633.718Z"/>
	<path fill="#FEFEFE" d="M726.789 604.963C727.198 605.604 727.113 606.029 727.163 606.774C726.748 607.874 726.177 608.427 725.244 609.093C718.701 613.763 711.045 617.592 704.048 621.578C693.457 627.612 682.909 633.84 672.127 639.524C671.409 638.461 671.486 637.151 671.683 635.948C674.506 633.063 699.214 620.67 704.68 617.66Q715.821 611.463 726.789 604.963Z"/>
	<path fill="#FEFEFE" d="M720.634 595.92C722.761 596.132 725.753 597.581 727.889 598.264C716.289 606.517 702.63 613.086 690.164 619.95C683.632 623.547 675.97 628.955 668.858 631.085C665.75 630.502 662.681 629.651 659.614 628.879C664.215 626.832 668.929 624.991 673.413 622.7C689.462 614.5 704.883 604.71 720.634 595.92Z"/>
	<path fill="#FEFEFE" d="M715.795 486.939C716.528 487.863 716.692 488.901 716.788 490.048C717.731 501.282 716.906 513.288 716.892 524.595L716.922 592.224Q701.596 601.225 686.168 610.051C680.107 613.536 674.115 617.296 667.791 620.28L667.387 620.275C666.356 618.328 666.945 522.887 666.967 512.379C675.493 507.703 684.318 503.569 692.93 499.054C700.567 495.049 708.03 490.692 715.795 486.939Z"/>
	<path fill="#393B48" d="M711.57 492.406C712.741 492.477 712.784 492.507 713.688 493.259C714.954 496.835 714.176 507.936 714.215 512.185Q714.618 548.88 714.121 585.574C701.722 595.287 686.373 602.805 672.398 609.995L670.516 609.992L669.771 609.209C669.159 603.139 669.541 596.746 669.544 590.641L669.696 553.697L669.717 529.666C669.709 525.35 669.17 520.388 669.982 516.18C673.921 510.704 703.766 496.342 711.57 492.406Z"/>
	<path fill="#FEFEFE" d="M687.337 556.977L688.22 557.093C689.765 559.711 688.732 589.567 688.674 594.975C684.098 597.104 679.637 599.855 675.203 602.285L674.656 602.312C673.381 600.453 674.345 569.077 674.402 563.689Q680.765 560.132 687.337 556.977Z"/>
	<path fill="#FEFEFE" d="M708.429 545.954L708.835 546.333C709.873 551.432 709.077 577.254 708.759 583.577Q701.269 587.654 693.954 592.035C693.897 591.984 693.827 591.946 693.783 591.884C692.686 590.339 693.358 558.078 693.36 553.966C698.316 551.195 703.454 548.711 708.429 545.954Z"/>
	<path fill="#FEFEFE" d="M687.533 510.429C687.869 510.522 688.13 510.791 688.419 510.987C689.113 524.347 688.484 538.047 688.47 551.444C683.864 553.574 679.384 556.073 674.878 558.412L674.584 558.171C673.281 555.251 674.087 522.647 674.43 517.194Q680.872 513.599 687.533 510.429Z"/>
	<path fill="#FEFEFE" d="M708.065 499.392L708.891 499.789C709.404 504.106 709.03 508.884 709.032 513.254L709.031 540.544C704.273 543.473 699.211 545.94 694.257 548.52L693.621 548.094C692.807 544.018 693.285 539.174 693.266 535.009Q693.171 521.246 693.244 507.483C698.276 504.94 703.165 502.179 708.065 499.392Z"/>
	<path fill="#FEFEFE" d="M614.757 159.418C617.76 159.992 655.178 202.638 659.764 208.7C661.273 221.448 662.924 234.167 664.276 246.935C665.312 256.716 666.021 266.555 667.252 276.311C678.282 288.155 688.913 300.326 699.818 312.28C709.93 308.017 720.54 305.348 730.747 301.343C741.078 311.407 750.014 322.795 759.529 333.596L808.51 388.728C792.051 396.798 776.249 406.058 760.038 414.597C740.396 424.944 720.384 434.614 700.708 444.902C679.1 456.201 657.784 468.085 635.984 479.016C634.66 479.669 633.706 480.145 632.187 480.174C626.243 474.587 621.434 467.151 616.122 460.915C595.86 437.129 576.643 412.578 556.891 388.378L478.99 294.006C463.107 274.986 446.871 256.389 431.494 236.942C453.259 226.733 476.118 218.379 498.263 208.984Q556.347 183.815 614.757 159.418Z"/>
	<path fill="#393B48" d="M627.212 268.735C628.104 268.813 629.101 268.797 629.8 269.441C633.858 273.18 639.766 282.387 643.724 287.225C646.306 290.38 653.356 297.669 655.012 300.817C655.335 301.431 655.318 301.689 655.384 302.301C655.01 303.486 655.03 303.609 654.04 304.333C649.437 303.656 633.85 281.914 630.202 277.237C630.071 285.802 630.96 310.346 627.066 316.849C626.34 317.367 625.893 317.576 624.99 317.729C621.028 318.402 616.964 314.587 614.085 312.388C609.349 308.685 583.545 291.078 582.18 287.23C582.695 286.475 582.562 286.324 583.553 286.13C584.6 285.926 585.092 285.93 586.053 286.413C588.968 287.879 592.045 290.824 594.721 292.82C604.104 299.818 613.586 307.994 623.622 313.953L624.211 314.299C626.199 304.151 624.061 275.048 627.212 268.735Z"/>
	<path fill="#393B48" d="M545.853 296.744C547.017 297.071 547.867 297.42 548.82 298.183C557.181 304.876 564.818 312.862 572.806 320.027C577.875 324.574 584.313 328.841 588.638 334.034C588.602 335.321 588.436 335.449 587.675 336.512C587.52 336.53 587.366 336.572 587.21 336.567C583.227 336.446 557.592 311.761 552.692 307.564C556.4 318.393 564.993 334.437 565.854 345.606L565.076 347.078C564.173 347.651 563.646 347.943 562.545 348.003C557.977 348.248 530.36 330.279 526.106 326.565C524.328 325.012 522.944 323.505 522.732 321.076L523.366 320.441C526.045 320.618 555.237 340.671 560.665 343.784C558.303 332.808 544.393 304.406 545.853 296.744Z"/>
	<path fill="#FEFEFE" d="M420.022 270.985C423.291 273.407 426.567 278.819 429.226 282.12Q439.491 294.928 449.993 307.543Q520.129 391.338 588.875 476.279C589.367 495.146 588.76 514.097 588.619 532.97L588.482 624.429Q589.119 684.427 588.687 744.427C588.649 748.844 589.281 766.256 588.6 768.763C588.451 769.312 588.377 769.789 587.792 769.998C582.372 771.936 495.309 743.387 482.68 739.034C483.191 694.582 482.552 650.168 482.461 605.719L482.333 553.892C482.295 544.439 482.637 534.786 481.987 525.366C481.811 522.808 481.292 520.752 480.237 518.406C479.395 517.112 478.523 515.868 477.47 514.733C475.173 512.256 472.152 510.571 469.026 509.354C458.814 505.379 447.255 503.045 436.652 500.039C424.88 496.702 389.625 485.131 379.805 485.133C375.865 485.134 373.215 485.884 370.452 488.728C368.14 491.108 366.642 493.706 366.182 497.017C365.259 503.676 365.785 510.982 365.737 517.718L365.513 560.18L365.545 707.354C349.178 701.641 332.317 697.03 315.706 692.074C308.236 689.845 300.204 687.917 293.033 684.903C290.206 683.714 287.41 682.179 285.158 680.075C282.272 677.378 280.729 672.873 280.297 669.039C279.135 658.712 280.009 647.648 280.042 637.231L279.945 582.373L279.968 377.1L379.822 301.296C393.24 291.194 406.349 280.755 420.022 270.985Z"/>
	<path fill="#393B48" d="M304.394 475.897C308.302 476.015 354.94 491.305 357.334 493.936C358.326 495.026 358.331 499.138 358.398 500.687C358.9 512.347 358.477 524.21 358.471 535.889L358.498 606.071C348.264 602.984 338.227 597.748 328.375 593.53C322.297 590.928 314.254 588.578 308.842 584.856C307.43 577.891 307.338 492.433 308.942 484.946C314.332 486.932 319.992 488.363 325.474 490.101C331.611 492.046 337.644 494.318 343.798 496.198C345.68 496.774 347.702 497.261 349.505 498.033C350.927 498.641 351.915 500.047 353.461 500.188L354.013 499.249L353.7 499.996C354.035 498.587 353.915 497.951 353.547 496.6C348.794 493.039 328.742 488.349 321.724 485.978C316.603 484.313 311.042 481.902 305.726 481.103C304.002 485.51 305.014 558.358 304.955 570.311C304.941 573.245 303.881 589.514 304.058 590.434C304.258 591.475 305.008 591.704 305.84 592.152C309.935 594.357 314.748 595.889 319.075 597.617C330.627 602.234 342.628 606.56 353.844 611.93C356.016 612.97 358.424 614.212 359.158 616.685C359.965 619.402 359.102 622.789 357.618 625.126C356.603 626.724 354.959 628.099 353.06 628.44C351.939 628.642 350.895 628.526 349.812 628.207C341.226 625.681 332.636 621.169 324.373 617.695C314.593 613.582 298.338 608.253 290.147 602.483C289.191 600.295 288.571 598.314 289.582 595.988C291.453 591.682 296.214 589.703 300.318 588.201L300.431 516.562C300.427 506.537 299.269 490.953 300.733 481.458C301.127 478.901 302.36 477.392 304.394 475.897Z"/>
	<path fill="#FEFEFE" d="M297.843 593.89C305.609 596.236 313.418 600.27 320.954 603.348C330.86 607.392 341.659 610.935 351.136 615.866C352.522 616.587 353.515 617.135 354.382 618.448C354.608 619.884 354.709 620.43 354.016 621.793C353.299 623.205 352.261 623.382 350.855 623.77C345.008 621.587 293.653 599.788 293.32 599.384C293.023 599.025 293.045 598.963 293.16 598.479C293.642 596.447 296.231 595.012 297.843 593.89Z"/>
	<path fill="#FEFEFE" d="M312.512 541.134C318.663 543.672 324.741 546.395 330.881 548.961C331.105 562.21 330.776 575.503 330.502 588.75C327.137 588.737 316.183 583.106 312.55 581.506L312.512 541.134Z"/>
	<path fill="#FEFEFE" d="M335.056 550.931C341.39 552.793 347.53 555.662 353.542 558.364L353.642 599.128C347.308 596.672 341.111 593.806 334.895 591.066C334.779 577.695 334.997 564.304 335.056 550.931Z"/>
	<path fill="#FEFEFE" d="M312.588 491.226C318.725 492.476 325.039 494.78 330.935 496.892C330.965 512.378 330.466 527.873 330.483 543.368C326.98 543.863 316.081 537.534 312.606 535.773L312.588 491.226Z"/>
	<path fill="#FEFEFE" d="M335.056 498.276C338.799 499.505 348.784 503.573 352.17 502.778C352.865 502.615 353.281 501.476 353.64 500.897C353.891 501.564 353.886 501.314 353.825 501.963C353.22 508.442 353.588 515.107 353.637 521.615Q353.769 536.37 353.595 551.125L353.217 552.178C348.638 552.212 339.318 547.461 334.853 545.587L335.056 498.276Z"/>
	<path fill="#393B48" d="M416.657 334.219C428.295 333.996 438.455 337.93 447.89 344.639C461.669 354.438 471.953 369.671 474.771 386.427C477.115 400.36 475.472 415.129 466.967 426.791C460.337 435.882 450.879 440.824 439.903 442.465C425.876 442.741 413.128 438.116 402.51 428.933C389.683 417.84 380.697 400.703 379.476 383.746C378.487 370.021 381.945 356.586 391.132 346.084C398.007 338.224 406.419 334.976 416.657 334.219Z"/>
	<path fill="#FEFEFE" d="M415.689 338.682C424.961 337.89 435.248 341.766 442.937 346.688C456.018 355.062 466.286 369.313 469.506 384.55C472.2 397.295 471.857 411.031 464.496 422.203C458.674 431.038 450.562 435.856 440.351 438.018C428.631 438.687 417.317 434.551 408.026 427.464C395.613 417.997 386.135 402.031 384.213 386.514C382.692 374.241 385.337 360.768 393.073 350.897C398.933 343.419 406.371 339.818 415.689 338.682Z"/>
	<path fill="#393B48" d="M414.061 345.097C423.075 344.084 431.674 346.868 439.406 351.377C452.051 358.753 460.98 370.022 464.711 384.243C467.434 394.622 467.009 407.387 461.413 416.792C457.022 424.174 450.395 428.675 442.151 430.809C432.579 432.517 423.74 430.722 415.37 425.773C403.461 418.732 394.243 405.634 390.851 392.298C388.164 381.733 388.239 368.819 393.978 359.235C398.577 351.555 405.508 347.236 414.061 345.097Z"/>
	<path fill="#FEFEFE" d="M414.477 349.628C421.254 349.05 427.817 350.728 433.875 353.705C446.097 359.71 454.76 369.593 459.102 382.475C462.393 392.238 462.682 403.883 457.849 413.22C454.227 420.218 448.169 424.131 440.874 426.362C432.339 427.546 425.326 426.278 417.874 421.879C407.08 415.508 398.536 403.652 395.513 391.519C393.075 381.738 392.897 369.494 398.442 360.716C402.254 354.68 407.637 351.228 414.477 349.628Z"/>
	<path fill="#393B48" d="M428.01 371.442C431.445 371.398 443.202 374.305 445.382 377.034C446.156 378.004 446.57 378.873 446.369 380.14C446.093 381.886 444.511 383.031 443.261 384.104C442.086 389.551 441.591 395.251 440.073 400.61C439.644 402.124 439.228 403.668 437.77 404.474C436.448 404.076 436.65 403.952 435.948 402.857C435.334 397.986 436.909 392.56 437.997 387.813L429.657 393.079C426.115 395.36 423.019 398.051 419.235 400C413.689 399.267 406.425 396.663 401.611 393.77C400.289 392.975 399.568 392.365 399.206 390.857C402.32 388.106 406.115 386.039 409.577 383.745L428.01 371.442Z"/>
	<path fill="#FEFEFE" d="M428.915 376.434C433.067 376.605 437.045 378.456 440.778 380.134C433.638 385.628 425.482 390.217 417.831 394.979L406.507 391.203Q417.768 383.904 428.915 376.434Z"/>
	<path fill="#393B48" d="M499.055 530.484C502.759 530.231 546.77 542.839 552.9 544.981C554.764 545.632 557.939 546.776 559.262 548.274C560.699 549.901 560.92 554.256 561.053 556.438C561.685 566.862 561.141 577.651 561.123 588.109C561.08 613.444 560.596 638.838 560.965 664.167C561.049 669.958 563.76 675.77 562.538 681.425C562.142 683.261 561.416 685.041 559.665 685.988C557.491 687.164 554.856 686.708 552.651 685.961C538.893 679.683 523.614 675.325 509.272 670.529C503.077 668.458 495.694 666.702 490.086 663.332C488.248 662.227 486.695 660.586 486.299 658.408C485.895 656.191 486.887 654.053 488.223 652.336C489.983 650.075 491.675 649.875 494.382 649.559L494.419 569.436C494.421 560.97 493.339 543.304 494.838 535.776C495.35 533.207 496.992 531.894 499.055 530.484Z"/>
	<path fill="#FEFEFE" d="M492.807 653.507C497.505 654.212 553.797 672.879 556.669 674.735C557.348 675.174 557.658 675.553 557.844 676.327C558.328 678.339 557.511 679.701 556.434 681.3C545.895 678.837 535.537 674.41 525.277 670.929C515.439 667.591 502.229 664.154 493.278 659.662C491.955 658.999 491.627 658.648 491.16 657.262C491.429 655.701 491.925 654.811 492.807 653.507Z"/>
	<path fill="#FEFEFE" d="M499.854 535.338C500.247 535.38 500.64 535.431 501.029 535.504C512.963 537.746 525.082 541.781 536.797 545.03C541.88 546.439 548.445 547.488 553.165 549.715C553.99 550.103 554.696 550.902 555.159 551.671C556.2 553.401 556.573 555.599 556.664 557.587C556.997 564.831 556.466 572.262 556.454 579.524L556.467 630.361L556.466 656.535C556.467 660.323 557.063 665.022 556.292 668.67L555.517 668.985C547.292 665.888 538.667 663.503 530.296 660.792C519.618 657.334 509.101 653.582 498.534 649.809Q498.846 615.116 498.774 580.421C498.731 566.944 498.024 553.138 498.807 539.707C498.904 538.045 499.14 536.841 499.854 535.338Z"/>
	<path fill="#393B48" d="M503.243 539.178C506.725 539.833 510.404 541.375 513.862 542.349C522.572 544.8 545.776 549.864 552.546 554.75C552.958 576.967 552.699 599.228 552.636 621.451C552.607 631.815 553.412 645.414 552.366 655.306C552.227 656.616 551.782 657.468 551.109 658.584C541.02 657.053 512.035 646.541 502.331 641.933Q502.448 608.983 502.233 576.033C502.199 565.382 501.336 552.367 502.25 541.972C502.356 540.771 502.606 540.174 503.243 539.178Z"/>
	<path fill="#FEFEFE" d="M530.343 603.157Q539.314 606.489 548.034 610.432L548.066 653.173Q538.954 650.447 529.956 647.368Q530.031 625.261 530.343 603.157Z"/>
	<path fill="#FEFEFE" d="M507.001 594.124Q516.349 597.603 525.558 601.436L525.445 645.678C519.556 643.365 513.324 641.674 507.349 639.538C506.558 624.491 507.043 609.201 507.001 594.124Z"/>
	<path fill="#FEFEFE" d="M506.796 545.004Q516.105 547.79 525.446 550.464L525.433 596.087C519.464 593.589 513.139 591.68 507.026 589.531Q506.773 567.267 506.796 545.004Z"/>
	<path fill="#FEFEFE" d="M530.217 551.524C536.213 553.266 542.088 555.261 547.98 557.325Q548.133 581.318 547.964 605.31Q538.971 601.789 530.067 598.048C529.711 582.605 529.842 566.964 530.217 551.524Z"/>
</svg>
